<svg width="69" height="68" viewBox="0 0 69 68" fill="none" xmlns="http://www.w3.org/2000/svg">
<g id="tabler:coin-rupee">
<g id="Group">
<path id="Vector" d="M43.1667 22.6666H26.1667H29C31.2544 22.6666 33.4164 23.5622 35.0104 25.1562C36.6045 26.7503 37.5 28.9123 37.5 31.1666C37.5 33.421 36.6045 35.583 35.0104 37.177C33.4164 38.7711 31.2544 39.6666 29 39.6666H26.1667L34.6667 48.1666M26.1667 31.1666H43.1667" stroke="#141414" stroke-width="3" stroke-linecap="round" stroke-linejoin="round"/>
<path id="Subtract" fill-rule="evenodd" clip-rule="evenodd" d="M19.0324 11.9871C17.803 12.8602 16.6461 13.8368 15.5748 14.9081C13.0676 17.4153 11.0788 20.3918 9.72194 23.6675C8.36506 26.9433 7.66669 30.4543 7.66669 34C7.66669 37.5457 8.36506 41.0567 9.72194 44.3325C11.0788 47.6082 13.0676 50.5847 15.5748 53.0919C18.082 55.5991 21.0584 57.5879 24.3342 58.9447C27.61 60.3016 31.121 61 34.6667 61C38.2124 61 41.7233 60.3016 44.9991 58.9447C48.2749 57.5879 51.2514 55.5991 53.7586 53.0919C54.8298 52.0206 55.8065 50.8636 56.6796 49.6343L54.5242 47.4788C53.6762 48.7282 52.7101 49.8977 51.6372 50.9706C49.4086 53.1992 46.7629 54.967 43.8511 56.1731C40.9393 57.3792 37.8184 58 34.6667 58C31.515 58 28.3941 57.3792 25.4823 56.1731C22.5705 54.967 19.9247 53.1992 17.6961 50.9706C15.4675 48.742 13.6997 46.0962 12.4936 43.1844C11.2875 40.2726 10.6667 37.1517 10.6667 34C10.6667 30.8483 11.2875 27.7274 12.4936 24.8156C13.6997 21.9038 15.4675 19.258 17.6961 17.0294C18.769 15.9566 19.9385 14.9905 21.1878 14.1425L19.0324 11.9871ZM56.0956 44.8076C56.3633 44.2767 56.6116 43.7353 56.8398 43.1844C58.0459 40.2726 58.6667 37.1517 58.6667 34C58.6667 30.8483 58.0459 27.7274 56.8398 24.8156C55.6337 21.9038 53.8659 19.258 51.6372 17.0294C49.4086 14.8008 46.7629 13.033 43.8511 11.8269C40.9393 10.6208 37.8184 10 34.6667 10C31.515 10 28.3941 10.6208 25.4823 11.8269C24.9314 12.0551 24.39 12.3034 23.8591 12.5711L21.6389 10.3509C22.511 9.87052 23.4107 9.43777 24.3342 9.05525C27.61 7.69838 31.121 7 34.6667 7C38.2124 7 41.7233 7.69838 44.9991 9.05525C48.2749 10.4121 51.2514 12.4009 53.7586 14.9081C56.2657 17.4153 58.2546 20.3918 59.6114 23.6675C60.9683 26.9433 61.6667 30.4543 61.6667 34C61.6667 37.5457 60.9683 41.0567 59.6114 44.3325C59.2289 45.2559 58.7962 46.1556 58.3157 47.0277L56.0956 44.8076Z" fill="#141414"/>
<path id="Vector 466" d="M12.5667 7.93335L60.7334 56.1" stroke="#141414" stroke-width="3" stroke-linecap="round"/>
</g>
</g>
</svg>
