<svg width="68" height="68" viewBox="0 0 68 68" fill="none" xmlns="http://www.w3.org/2000/svg">
<g id="pepicons-pencil:rewind-time">
<g id="Group">
<path id="Vector" fill-rule="evenodd" clip-rule="evenodd" d="M19.0536 18.53C16.7034 20.8455 14.9069 23.6623 13.7983 26.7697C12.6897 29.8771 12.2976 33.1949 12.6514 36.4752C12.6843 36.9158 12.5444 37.3519 12.2613 37.6911C11.9782 38.0304 11.5741 38.246 11.1347 38.2925C10.6953 38.3389 10.2551 38.2124 9.90735 37.9398C9.55961 37.6672 9.33166 37.2699 9.2718 36.8322C8.86373 33.0435 9.31687 29.2116 10.5974 25.6227C11.8779 22.0337 13.9527 18.7804 16.6668 16.1058C26.6526 6.25597 42.7618 6.41577 52.6456 16.439C62.5294 26.4588 62.4648 42.568 52.4756 52.4178C47.8519 56.9857 41.6445 59.5944 35.1458 59.7006C32.6888 59.7444 30.2383 59.434 27.8698 58.7792C27.4352 58.6592 27.066 58.3716 26.8434 57.9794C26.6209 57.5873 26.5633 57.1228 26.6832 56.6882C26.8031 56.2535 27.0908 55.8843 27.4829 55.6618C27.8751 55.4393 28.3396 55.3816 28.7742 55.5016C30.8284 56.0697 32.9537 56.3388 35.0846 56.3006C40.7113 56.2107 46.0862 53.9526 50.0888 49.997C58.7282 41.4766 58.7996 27.523 50.2248 18.8258C41.65 10.1286 27.693 10.0096 19.0536 18.53Z" fill="black"/>
<path id="Vector_2" fill-rule="evenodd" clip-rule="evenodd" d="M12.2196 38.6342C12.0709 38.8007 11.8909 38.9364 11.6898 39.0333C11.4887 39.1303 11.2705 39.1867 11.0476 39.1993C10.8247 39.212 10.6015 39.1806 10.3907 39.1069C10.1799 39.0333 9.98574 38.9189 9.8192 38.7702L3.9712 33.5682C3.79143 33.4239 3.64288 33.2445 3.5346 33.041C3.42632 32.8375 3.36056 32.6141 3.34133 32.3843C3.32209 32.1546 3.34978 31.9234 3.42271 31.7047C3.49564 31.486 3.61229 31.2844 3.76556 31.1122C3.91883 30.94 4.10552 30.8008 4.31428 30.703C4.52304 30.6052 4.74951 30.5509 4.97992 30.5434C5.21032 30.5359 5.43985 30.5753 5.65455 30.6592C5.86925 30.7432 6.06462 30.8699 6.2288 31.0318L12.0768 36.2338C12.2438 36.382 12.38 36.5617 12.4776 36.7625C12.5752 36.9634 12.6322 37.1815 12.6455 37.4044C12.6587 37.6273 12.628 37.8506 12.5549 38.0617C12.4818 38.2727 12.3679 38.4672 12.2196 38.6342Z" fill="black"/>
<path id="Vector_3" fill-rule="evenodd" clip-rule="evenodd" d="M9.588 38.42C9.72195 38.5986 9.88976 38.749 10.0819 38.8628C10.274 38.9765 10.4866 39.0513 10.7076 39.0829C10.9286 39.1145 11.1536 39.1022 11.3699 39.0468C11.5862 38.9914 11.7894 38.8939 11.968 38.76L18.768 33.66C19.1287 33.3895 19.3672 32.9867 19.4309 32.5404C19.4947 32.0941 19.3785 31.6407 19.108 31.28C18.8375 30.9193 18.4348 30.6808 17.9884 30.6171C17.5421 30.5533 17.0887 30.6695 16.728 30.94L9.928 36.04C9.56731 36.3105 9.32885 36.7132 9.26509 37.1596C9.20132 37.6059 9.31748 38.0593 9.588 38.42ZM34 22.1C34.4509 22.1 34.8833 22.2791 35.2021 22.5979C35.5209 22.9167 35.7 23.3491 35.7 23.8V35.7C35.7 36.1508 35.5209 36.5832 35.2021 36.9021C34.8833 37.2209 34.4509 37.4 34 37.4C33.5491 37.4 33.1167 37.2209 32.7979 36.9021C32.4791 36.5832 32.3 36.1508 32.3 35.7V23.8C32.3 23.3491 32.4791 22.9167 32.7979 22.5979C33.1167 22.2791 33.5491 22.1 34 22.1Z" fill="black"/>
<path id="Vector_4" fill-rule="evenodd" clip-rule="evenodd" d="M45.9 35.7C45.9 36.1509 45.7209 36.5833 45.4021 36.9021C45.0833 37.2209 44.6509 37.4 44.2 37.4H34C33.5491 37.4 33.1167 37.2209 32.7979 36.9021C32.4791 36.5833 32.3 36.1509 32.3 35.7C32.3 35.2491 32.4791 34.8167 32.7979 34.4979C33.1167 34.1791 33.5491 34 34 34H44.2C44.6509 34 45.0833 34.1791 45.4021 34.4979C45.7209 34.8167 45.9 35.2491 45.9 35.7Z" fill="black"/>
</g>
</g>
</svg>
