<svg width="69" height="68" viewBox="0 0 69 68" fill="none" xmlns="http://www.w3.org/2000/svg">
<g id="fluent:savings-20-regular">
<path id="Vector" d="M57.977 32.453C58.079 33.2656 58.1334 34.1292 58.1334 35.0472C58.1334 40.2662 56.5524 43.775 55.0394 45.9544C54.4417 46.8196 53.7457 47.6126 52.9654 48.3174C52.7104 48.5458 52.4425 48.7592 52.163 48.9566L52.1324 48.977C51.8879 49.1298 51.6862 49.3423 51.5465 49.5945C51.4067 49.8467 51.3334 50.1303 51.3334 50.4186V56.1C51.3334 56.5509 51.1543 56.9833 50.8354 57.3021C50.5166 57.6209 50.0842 57.8 49.6334 57.8H44.9278C44.8232 57.8 44.7228 57.7584 44.6489 57.6845C44.5749 57.6105 44.5334 57.5102 44.5334 57.4056C44.5334 55.3078 42.8334 53.6078 40.739 53.6078H34.7278C32.6334 53.6078 30.9334 55.3078 30.9334 57.4056C30.9334 57.5102 30.8918 57.6105 30.8178 57.6845C30.7439 57.7584 30.6436 57.8 30.539 57.8H25.8334C25.3825 57.8 24.9501 57.6209 24.6313 57.3021C24.3125 56.9833 24.1334 56.5509 24.1334 56.1V53.21C24.1324 52.8539 24.0196 52.5072 23.811 52.2186C23.6024 51.9301 23.3084 51.7143 22.9706 51.6018L22.8346 51.5372C22.5646 51.4045 22.3033 51.2546 22.0526 51.0884C21.3046 50.6056 20.1248 49.708 18.5438 48.1066C17.1177 46.6386 15.9692 44.9246 15.154 43.0474C14.5284 41.6126 13.2194 40.3512 11.4684 40.0554C11.2077 40.0113 10.971 39.8767 10.7999 39.6751C10.6289 39.4736 10.5345 39.2181 10.5334 38.9538V33.83C10.5334 33.5968 10.616 33.3711 10.7667 33.1931C10.9173 33.0151 11.1262 32.8962 11.3562 32.8576C13.2262 32.5414 14.5522 31.11 15.069 29.5324C15.511 28.1792 16.3066 26.4044 17.6258 25.0682C18.7382 23.9588 19.9829 22.9905 21.3318 22.185C21.8722 21.86 22.4282 21.5616 22.9978 21.2908L23.0862 21.25L23.1032 21.2432C23.4097 21.1118 23.6708 20.8931 23.854 20.6144C24.0372 20.3357 24.1343 20.0093 24.1334 19.6758V12.546C24.9936 13.294 25.9966 14.1032 27.0778 14.824C28.5534 15.8168 30.3112 16.7484 32.1166 17.085C32.5339 15.951 33.0816 14.8694 33.7486 13.8618C33.5412 13.8398 33.3338 13.8183 33.1264 13.7972C31.9194 13.6748 30.4676 13.005 28.9682 12.002C27.6182 11.0736 26.3499 10.0317 25.1772 8.8876C24.8102 8.53749 24.3496 8.30135 23.8511 8.20781C23.3526 8.11427 22.8377 8.16735 22.3688 8.3606C21.8875 8.54952 21.4743 8.8788 21.1826 9.30566C20.891 9.73252 20.7344 10.2372 20.7334 10.7542V18.6218C18.7018 19.6958 16.8391 21.0624 15.205 22.678C13.3588 24.548 12.3558 26.894 11.839 28.475C11.635 29.0802 11.193 29.4372 10.7918 29.5052C9.76969 29.6771 8.84152 30.2055 8.17185 30.9965C7.50217 31.7875 7.13427 32.7902 7.13336 33.8266V38.9504C7.13283 40.0192 7.51091 41.0537 8.20053 41.8703C8.89015 42.6869 9.84673 43.2328 10.9006 43.4112C11.3256 43.4792 11.7846 43.826 12.0362 44.4074C13.0188 46.6667 14.4035 48.7289 16.123 50.4934C17.8536 52.2478 19.2204 53.3052 20.1996 53.941C20.3934 54.0668 20.5736 54.1756 20.7334 54.2708V56.1C20.7334 56.7697 20.8653 57.4329 21.1216 58.0517C21.3779 58.6704 21.7535 59.2327 22.2271 59.7062C22.7007 60.1798 23.2629 60.5555 23.8817 60.8118C24.5004 61.0681 25.1636 61.2 25.8334 61.2H30.539C32.6334 61.2 34.3334 59.5 34.3334 57.4056C34.3334 57.1846 34.5102 57.0078 34.7278 57.0078H40.739C40.9566 57.0078 41.1334 57.1846 41.1334 57.4056C41.1334 59.5 42.8334 61.2 44.9278 61.2H49.6334C50.986 61.2 52.2832 60.6627 53.2396 59.7062C54.196 58.7498 54.7334 57.4526 54.7334 56.1V51.2754C55.9139 50.2951 56.9548 49.158 57.8274 47.8958C59.7144 45.186 61.5334 41.0074 61.5334 35.0472C61.5334 32.5788 61.19 30.3688 60.5372 28.3934C59.9011 29.8728 59.036 31.2428 57.9736 32.453M57.4568 17.7888C58.4773 20.2543 58.6395 22.9912 57.9175 25.5601C57.1954 28.1289 55.631 30.3805 53.4754 31.9532C52.0134 33.014 50.0856 32.9392 48.4196 32.249L38.0836 27.9684C36.4176 27.2782 34.9998 25.9692 34.7176 24.1876C34.2776 21.3164 34.903 18.3833 36.4759 15.9413C38.0488 13.4993 40.4607 11.7169 43.2568 10.9301C46.053 10.1432 49.0404 10.4063 51.656 11.6697C54.2716 12.933 56.3348 15.1095 57.4568 17.7888ZM51.4728 29.206C52.6943 28.3175 53.6571 27.1194 54.2618 25.7353C54.8666 24.3511 55.0916 22.8307 54.9136 21.3307C54.7357 19.8307 54.1612 18.4052 53.2494 17.2009C52.3375 15.9967 51.1212 15.0572 49.7256 14.4791C48.3301 13.901 46.8057 13.7053 45.3094 13.9121C43.8131 14.1188 42.3989 14.7206 41.2124 15.6555C40.0259 16.5903 39.1099 17.8244 38.5588 19.2309C38.0077 20.6373 37.8413 22.1651 38.0768 23.6572C38.1165 23.8501 38.2151 24.0259 38.359 24.1604C38.5766 24.3916 38.9234 24.6364 39.3858 24.8268L49.7218 29.1108C50.0997 29.274 50.5069 29.3584 50.9186 29.359C51.1158 29.3668 51.3072 29.3134 51.4728 29.206ZM23.2834 32.3C23.9597 32.3 24.6083 32.0313 25.0865 31.5531C25.5647 31.0749 25.8334 30.4263 25.8334 29.75C25.8334 29.0737 25.5647 28.4251 25.0865 27.9469C24.6083 27.4687 23.9597 27.2 23.2834 27.2C22.6071 27.2 21.9585 27.4687 21.4802 27.9469C21.002 28.4251 20.7334 29.0737 20.7334 29.75C20.7334 30.4263 21.002 31.0749 21.4802 31.5531C21.9585 32.0313 22.6071 32.3 23.2834 32.3Z" fill="black"/>
</g>
</svg>
