<svg width="51" height="50" viewBox="0 0 51 50" fill="none" xmlns="http://www.w3.org/2000/svg">
<g id="streamline:target" clip-path="url(#clip0_1727_1954)">
<g id="Group">
<path id="Vector" d="M48.8095 26.8428C48.457 31.2732 46.84 35.5092 44.1508 39.0477C41.4616 42.5862 37.8132 45.2783 33.639 46.8043C29.4648 48.3303 24.9403 48.6259 20.603 47.6561C16.2657 46.6864 12.298 44.4919 9.17114 41.3335C6.04431 38.1751 3.88985 34.1855 2.96372 29.8387C2.03759 25.4919 2.37871 20.9706 3.94656 16.8119C5.51442 12.6533 8.24309 9.03207 11.8084 6.37857C15.3737 3.72507 19.6258 2.15079 24.0595 1.84277" stroke="white" stroke-width="3" stroke-linecap="round" stroke-linejoin="round"/>
<path id="Vector_2" d="M35.631 28.8928C34.986 30.5528 33.9375 32.0258 32.5802 33.1787C31.2229 34.3316 29.5996 35.128 27.8571 35.4959C26.1146 35.8637 24.308 35.7914 22.6005 35.2856C20.893 34.7797 19.3385 33.8562 18.0776 32.5985C16.8167 31.3409 15.8892 29.7888 15.3789 28.0826C14.8687 26.3764 14.7917 24.5699 15.1551 22.8265C15.5185 21.0831 16.3107 19.4577 17.4601 18.0975C18.6095 16.7372 20.0798 15.6849 21.7381 15.0356M25.6667 24.9999L34.5953 16.0714M34.5953 16.0714L41.7381 17.8571L48.881 10.7142L41.7381 8.9285L39.9524 1.78564L32.8096 8.9285L34.5953 16.0714Z" stroke="white" stroke-width="3" stroke-linecap="round" stroke-linejoin="round"/>
</g>
</g>
<defs>
<clipPath id="clip0_1727_1954">
<rect width="50" height="50" fill="white" transform="translate(0.666687)"/>
</clipPath>
</defs>
</svg>
