<svg width="51" height="50" viewBox="0 0 51 50" fill="none" xmlns="http://www.w3.org/2000/svg">
<g id="streamline:health-care-2">
<path id="Vector" d="M40.6191 33.3571C41.2902 32.7198 41.8245 31.9526 42.1897 31.1023C42.5549 30.2519 42.7432 29.3361 42.7432 28.4106C42.7432 27.4852 42.5549 26.5694 42.1897 25.719C41.8245 24.8687 41.2902 24.1015 40.6191 23.4642C39.2454 22.1604 37.4237 21.4336 35.5298 21.4336C33.6359 21.4336 31.8142 22.1604 30.4405 23.4642L25.3334 28.5714L20.2262 23.4642C18.8525 22.1604 17.0308 21.4336 15.1369 21.4336C13.243 21.4336 11.4214 22.1604 10.0477 23.4642C9.37658 24.1015 8.84219 24.8687 8.47702 25.719C8.11185 26.5694 7.92354 27.4852 7.92354 28.4106C7.92354 29.3361 8.11185 30.2519 8.47702 31.1023C8.84219 31.9526 9.37658 32.7198 10.0477 33.3571L25.3334 48.2142L40.6191 33.3571ZM25.3334 16.0714C27.2278 16.0714 29.0446 15.3188 30.3841 13.9793C31.7237 12.6397 32.4762 10.8229 32.4762 8.9285C32.4762 7.0341 31.7237 5.21728 30.3841 3.87774C29.0446 2.53819 27.2278 1.78564 25.3334 1.78564C23.439 1.78564 21.6222 2.53819 20.2826 3.87774C18.9431 5.21728 18.1905 7.0341 18.1905 8.9285C18.1905 10.8229 18.9431 12.6397 20.2826 13.9793C21.6222 15.3188 23.439 16.0714 25.3334 16.0714Z" stroke="white" stroke-width="3" stroke-linecap="round" stroke-linejoin="round"/>
</g>
</svg>
