<svg width="50" height="50" viewBox="0 0 50 50" fill="none" xmlns="http://www.w3.org/2000/svg">
<g id="material-symbols-light:biotech-outline">
<path id="Vector" d="M9 48V45.339H22.0826V37.3558H20.7743C17.5159 37.3558 14.7389 36.1885 12.4433 33.8539C10.1478 31.5192 9 28.695 9 25.3811C9 22.9205 9.69687 20.6826 11.0906 18.6673C12.4843 16.6502 14.3229 15.1831 16.6062 14.2659C16.6865 12.451 17.4522 11.0442 18.9035 10.0455C20.3548 9.04491 21.8942 8.83468 23.5217 9.41479L21.7791 4.57168L24.2648 3.64032L23.349 1.14425L26.4103 0L27.2947 2.528L29.5789 1.69775L36.0679 19.7131L33.7863 20.6444L34.702 23.1724L31.6407 24.3167L30.7563 21.7887L28.2706 22.8212L26.6013 17.9195C26.0798 18.677 25.4108 19.2793 24.5944 19.7264C23.7781 20.1734 22.8998 20.3863 21.9596 20.365C20.8676 20.3455 19.8821 20.0208 19.0029 19.3911C18.1238 18.7613 17.4627 17.9506 17.0196 16.9589C15.373 17.7022 14.0603 18.826 13.0818 20.3304C12.1049 21.8348 11.6165 23.5184 11.6165 25.3811C11.6165 27.9676 12.5061 30.1674 14.2854 31.9805C16.0663 33.79 18.2293 34.6948 20.7743 34.6948H40.3982V37.3558H25.3009V45.339H41V48H9ZM29.7202 19.6811L33.0798 18.3399L28.2314 4.7074L24.7383 5.94478L29.7202 19.6811ZM22.08 18.0126C22.9905 18.0126 23.7554 17.6986 24.3747 17.0706C24.9921 16.4444 25.3009 15.6674 25.3009 14.7396C25.3009 13.8117 24.993 13.0338 24.3773 12.4058C23.7598 11.776 22.9957 11.4611 22.0852 11.4611C21.1729 11.4611 20.408 11.7751 19.7905 12.4031C19.1713 13.0294 18.8617 13.8064 18.8617 14.7342C18.8617 15.662 19.1695 16.44 19.7853 17.068C20.4028 17.6978 21.1694 18.0126 22.08 18.0126Z" fill="#FDFDFD"/>
</g>
</svg>
