<svg width="24" height="24" viewBox="0 0 24 24" fill="none" xmlns="http://www.w3.org/2000/svg">
<g id="Icons">
<path id="Vector" fill-rule="evenodd" clip-rule="evenodd" d="M1.40332 12C1.40332 9.18955 2.51977 6.49421 4.50705 4.50693C6.49434 2.51964 9.18967 1.4032 12.0001 1.4032C14.8106 1.4032 17.5059 2.51964 19.4932 4.50693C21.4805 6.49421 22.5969 9.18955 22.5969 12C22.5969 14.8104 21.4805 17.5058 19.4932 19.4931C17.5059 21.4804 14.8106 22.5968 12.0001 22.5968C9.18967 22.5968 6.49434 21.4804 4.50705 19.4931C2.51977 17.5058 1.40332 14.8104 1.40332 12ZM12.0001 2.9232C9.5928 2.9232 7.28408 3.8795 5.58185 5.58173C3.87962 7.28396 2.92332 9.59268 2.92332 12C2.92332 14.4073 3.87962 16.716 5.58185 18.4183C7.28408 20.1205 9.5928 21.0768 12.0001 21.0768C14.4074 21.0768 16.7162 20.1205 18.4184 18.4183C20.1206 16.716 21.0769 14.4073 21.0769 12C21.0769 9.59268 20.1206 7.28396 18.4184 5.58173C16.7162 3.8795 14.4074 2.9232 12.0001 2.9232ZM15.7665 8.2352C15.9165 8.38522 16.0007 8.58867 16.0007 8.8008C16.0007 9.01293 15.9165 9.21638 15.7665 9.3664L13.1313 12L15.7665 14.6336C15.9167 14.7838 16.0011 14.9876 16.0011 15.2C16.0011 15.4124 15.9167 15.6162 15.7665 15.7664C15.6163 15.9166 15.4126 16.001 15.2001 16.001C14.9877 16.001 14.7839 15.9166 14.6337 15.7664L12.0001 13.1312L9.36652 15.7664C9.29214 15.8408 9.20384 15.8998 9.10665 15.94C9.00947 15.9803 8.90531 16.001 8.80012 16.001C8.69493 16.001 8.59077 15.9803 8.49359 15.94C8.3964 15.8998 8.3081 15.8408 8.23372 15.7664C8.15934 15.692 8.10034 15.6037 8.06008 15.5065C8.01983 15.4093 7.99911 15.3052 7.99911 15.2C7.99911 15.0948 8.01983 14.9906 8.06008 14.8935C8.10034 14.7963 8.15934 14.708 8.23372 14.6336L10.8689 12L8.23372 9.3664C8.0835 9.21618 7.99911 9.01244 7.99911 8.8C7.99911 8.58756 8.0835 8.38382 8.23372 8.2336C8.38394 8.08338 8.58768 7.99899 8.80012 7.99899C9.01256 7.99899 9.2163 8.08338 9.36652 8.2336L12.0001 10.8688L14.6337 8.2336C14.708 8.1591 14.7963 8.09999 14.8935 8.05966C14.9907 8.01933 15.0949 7.99857 15.2001 7.99857C15.3053 7.99857 15.4095 8.01933 15.5067 8.05966C15.6039 8.09999 15.6922 8.1607 15.7665 8.2352Z" fill="#E46363"/>
</g>
</svg>
