<svg width="30" height="30" viewBox="0 0 30 30" fill="none" xmlns="http://www.w3.org/2000/svg">
<g id="Icon">
<path id="Vector" d="M19.362 15L27.3756 6.98642C28.1993 6.16271 28.1993 4.82724 27.3756 4.00353L25.9966 2.62453C25.1728 1.80082 23.8374 1.80082 23.0137 2.62453L15.0001 10.6381L6.98651 2.62453C6.1628 1.80082 4.82733 1.80082 4.00362 2.62453L2.62462 4.00353C1.80091 4.82724 1.80091 6.16271 2.62462 6.98642L10.6382 15L2.62462 23.0136C1.80091 23.8373 1.80091 25.1728 2.62462 25.9965L4.00362 27.3755C4.82733 28.1992 6.1628 28.1992 6.98651 27.3755L15.0001 19.3619L23.0137 27.3755C23.8374 28.1992 25.1728 28.1992 25.9966 27.3755L27.3756 25.9965C28.1993 25.1728 28.1993 23.8373 27.3756 23.0136L19.362 15Z" fill="#FF473E"/>
</g>
</svg>
