<svg width="38" height="38" viewBox="0 0 38 38" fill="none" xmlns="http://www.w3.org/2000/svg">
<g id="eos-icons:ai-operator" clip-path="url(#clip0_2726_6996)">
<path id="Vector" d="M13.3851 8.23177H11.31L8.21126 20.5651H9.7961L10.5114 17.6745H14.0819L14.7788 20.5651H16.416L13.3851 8.23177ZM10.7196 16.4365L12.2874 9.69635H12.3568L13.8738 16.4381L10.7196 16.4365ZM17.8282 20.5651V8.23177H19.3698V20.5651H17.8282ZM18.1165 22.1068H6.6696V6.6901H22.0863V14.0593C23.911 12.881 26.118 12.4473 28.2529 12.8475V9.77344H25.1696V6.6901C25.1672 5.8731 24.8415 5.09026 24.2638 4.51255C23.6861 3.93484 22.9033 3.60921 22.0863 3.60677H19.0029V0.523438H15.9196V3.60677H12.8363V0.523438H9.75293V3.60677H6.6696C5.8526 3.60921 5.06976 3.93484 4.49205 4.51255C3.91434 5.09026 3.5887 5.8731 3.58626 6.6901V9.77344H0.50293V12.8568H3.58626V15.9401H0.50293V19.0234H3.58626V22.1068C3.5887 22.9238 3.91434 23.7066 4.49205 24.2843C5.06976 24.862 5.8526 25.1877 6.6696 25.1901H9.75293V28.2734H12.8363V25.1901H15.9196V28.2734H19.0029V25.2024C18.5141 24.236 18.2133 23.1855 18.1165 22.1068Z" fill="#AD93DF"/>
<path id="Vector_2" d="M21.3128 19.7943C21.3128 18.7271 21.6293 17.6838 22.2222 16.7965C22.8151 15.9092 23.6578 15.2176 24.6438 14.8092C25.6297 14.4008 26.7146 14.2939 27.7613 14.5021C28.808 14.7103 29.7695 15.2242 30.5241 15.9788C31.2787 16.7335 31.7926 17.6949 32.0008 18.7416C32.209 19.7883 32.1022 20.8732 31.6938 21.8592C31.2854 22.8451 30.5938 23.6878 29.7064 24.2807C28.8191 24.8736 27.7759 25.1901 26.7087 25.1901C26 25.1903 25.2983 25.0509 24.6435 24.7798C23.9888 24.5087 23.3939 24.1112 22.8928 23.6102C22.3917 23.1091 21.9942 22.5142 21.7231 21.8594C21.4521 21.2047 21.3126 20.5029 21.3128 19.7943ZM26.7087 28.2734C23.1073 28.2734 15.917 30.0818 15.917 33.6693V35.9818H37.5003V33.6693C37.5003 30.0803 30.31 28.2734 26.7087 28.2734Z" fill="#5C27C0"/>
</g>
<defs>
<clipPath id="clip0_2726_6996">
<rect width="37" height="37" fill="white" transform="translate(0.50293 0.523438)"/>
</clipPath>
</defs>
</svg>
