<svg width="51" height="50" viewBox="0 0 51 50" fill="none" xmlns="http://www.w3.org/2000/svg">
<g id="fluent:tasks-app-20-regular">
<path id="Vector" d="M40.5107 34.8834L40.583 34.8103V34.7075V10C40.583 8.60761 40.0299 7.27225 39.0453 6.28769C38.0608 5.30312 36.7254 4.75 35.333 4.75H15.333C13.9406 4.75 12.6053 5.30312 11.6207 6.28769C10.6361 7.27225 10.083 8.60761 10.083 10V40C10.083 41.3924 10.6361 42.7277 11.6207 43.7123C12.6053 44.6969 13.9406 45.25 15.333 45.25H27.508H28.103L27.6866 44.825L26.5841 43.7L26.5834 43.6993C26.2129 43.3242 25.947 42.8836 25.7811 42.4164L25.722 42.25H25.5455H15.333C14.7363 42.25 14.164 42.0129 13.742 41.591C13.3201 41.169 13.083 40.5967 13.083 40V10C13.083 9.40326 13.3201 8.83097 13.742 8.40901C14.164 7.98705 14.7363 7.75 15.333 7.75H35.333C35.9297 7.75 36.502 7.98705 36.924 8.40901C37.346 8.83097 37.583 9.40326 37.583 10V37.2325V37.8403L38.0107 37.4084L40.5107 34.8834ZM19.7776 15.6945C20.2933 15.1788 20.583 14.4793 20.583 13.75C20.583 13.0207 20.2933 12.3212 19.7776 11.8055C19.2618 11.2897 18.5624 11 17.833 11C17.1037 11 16.4042 11.2897 15.8885 11.8055C15.3727 12.3212 15.083 13.0207 15.083 13.75C15.083 14.4793 15.3727 15.1788 15.8885 15.6945C16.4042 16.2103 17.1037 16.5 17.833 16.5C18.5624 16.5 19.2618 16.2103 19.7776 15.6945ZM24.083 12.25C23.6852 12.25 23.3037 12.408 23.0223 12.6893C22.741 12.9706 22.583 13.3522 22.583 13.75C22.583 14.1478 22.741 14.5294 23.0223 14.8107C23.3037 15.092 23.6852 15.25 24.083 15.25H34.083C34.4808 15.25 34.8624 15.092 35.1437 14.8107C35.425 14.5294 35.583 14.1478 35.583 13.75C35.583 13.3522 35.425 12.9706 35.1437 12.6893C34.8624 12.408 34.4808 12.25 34.083 12.25H24.083ZM24.083 22.25C23.6852 22.25 23.3037 22.408 23.0223 22.6893C22.741 22.9706 22.583 23.3522 22.583 23.75C22.583 24.1478 22.741 24.5294 23.0223 24.8107C23.3037 25.092 23.6852 25.25 24.083 25.25H34.083C34.4808 25.25 34.8624 25.092 35.1437 24.8107C35.425 24.5294 35.583 24.1478 35.583 23.75C35.583 23.3522 35.425 22.9706 35.1437 22.6893C34.8624 22.408 34.4808 22.25 34.083 22.25H24.083ZM23.0223 32.6893C22.741 32.9706 22.583 33.3522 22.583 33.75C22.583 34.1478 22.741 34.5294 23.0223 34.8107C23.3037 35.092 23.6852 35.25 24.083 35.25H34.083C34.4808 35.25 34.8624 35.092 35.1437 34.8107C35.425 34.5294 35.583 34.1478 35.583 33.75C35.583 33.3522 35.425 32.9706 35.1437 32.6893C34.8624 32.408 34.4808 32.25 34.083 32.25H24.083C23.6852 32.25 23.3037 32.408 23.0223 32.6893ZM17.833 26.5C18.5624 26.5 19.2618 26.2103 19.7776 25.6945C20.2933 25.1788 20.583 24.4793 20.583 23.75C20.583 23.0207 20.2933 22.3212 19.7776 21.8055C19.2618 21.2897 18.5624 21 17.833 21C17.1037 21 16.4042 21.2897 15.8885 21.8055C15.3727 22.3212 15.083 23.0207 15.083 23.75C15.083 24.4793 15.3727 25.1788 15.8885 25.6945C16.4042 26.2103 17.1037 26.5 17.833 26.5ZM17.833 36.5C18.5624 36.5 19.2618 36.2103 19.7776 35.6945C20.2933 35.1788 20.583 34.4793 20.583 33.75C20.583 33.0207 20.2933 32.3212 19.7776 31.8055C19.2618 31.2897 18.5624 31 17.833 31C17.1037 31 16.4042 31.2897 15.8885 31.8055C15.3727 32.3212 15.083 33.0207 15.083 33.75C15.083 34.4793 15.3727 35.1788 15.8885 35.6945C16.4042 36.2103 17.1037 36.5 17.833 36.5Z" fill="#5C27C0" stroke="#5C27C0" stroke-width="0.5"/>
<path id="Vector_2" d="M45.1471 37.115C45.374 36.8784 45.4988 36.562 45.4946 36.2342C45.4905 35.9063 45.3577 35.5932 45.1249 35.3624C44.892 35.1315 44.5778 35.0014 44.25 35C43.9221 34.9986 43.6068 35.1261 43.3721 35.355L34.2646 44.555L30.1521 40.36C30.0378 40.2401 29.9008 40.1441 29.7491 40.0775C29.5974 40.011 29.434 39.9753 29.2684 39.9725C29.1027 39.9697 28.9382 39.9998 28.7843 40.0611C28.6304 40.1224 28.4903 40.2137 28.372 40.3297C28.2537 40.4457 28.1596 40.584 28.0953 40.7366C28.0309 40.8893 27.9975 41.0532 27.9971 41.2188C27.9966 41.3845 28.0291 41.5486 28.0926 41.7016C28.1561 41.8546 28.2494 41.9934 28.3671 42.11L33.1896 47.03C33.3288 47.1721 33.4949 47.285 33.6782 47.3623C33.8615 47.4395 34.0584 47.4796 34.2573 47.48C34.4562 47.4805 34.6532 47.4414 34.8369 47.365C35.0205 47.2886 35.1872 47.1764 35.3271 47.035L45.1471 37.115Z" fill="#AD93DF"/>
</g>
</svg>
