<svg width="43" height="33" viewBox="0 0 43 33" fill="none" xmlns="http://www.w3.org/2000/svg">
<path d="M39.4114 0H3.58019C1.62739 0.0716623 0.0687326 1.63032 -0.00292969 3.58312V28.6649C0.0687326 30.6177 1.62739 32.1764 3.58019 32.248H39.4114C41.3641 32.1764 42.9228 30.6177 42.9945 28.6649V3.58312C42.9615 2.64331 42.5734 1.75097 41.9084 1.08602C41.2435 0.421065 40.3512 0.0329744 39.4114 0ZM39.4114 28.6649H3.58019V3.58312H39.4114V28.6649Z" fill="#5C27C0"/>
<path d="M25.9048 22.5277V24.7671H7.98926V22.5277C7.98926 19.5537 13.9731 18.0488 16.947 18.0488C19.921 18.0488 25.9048 19.5537 25.9048 22.5277Z" fill="#AD93DF"/>
<path d="M13.78 8.1634C14.6199 7.32344 15.7592 6.85156 16.947 6.85156C17.5352 6.85156 18.1176 6.96741 18.661 7.1925C19.2045 7.41758 19.6982 7.7475 20.1141 8.1634C20.53 8.5793 20.8599 9.07305 21.085 9.61646C21.3101 10.1599 21.4259 10.7423 21.4259 11.3305C21.4259 11.9186 21.3101 12.5011 21.085 13.0445C20.8599 13.5879 20.53 14.0816 20.1141 14.4975C19.6982 14.9134 19.2045 15.2433 18.661 15.4684C18.1176 15.6935 17.5352 15.8094 16.947 15.8094C15.7592 15.8094 14.6199 15.3375 13.78 14.4975C13.3641 14.0816 13.0342 13.5879 12.8091 13.0445C12.584 12.5011 12.4682 11.9186 12.4682 11.3305C12.4682 10.1426 12.94 9.00336 13.78 8.1634Z" fill="#AD93DF"/>
<path d="M25.9048 8.64312V6.85156H36.6542V8.64312H25.9048Z" fill="#AD93DF"/>
<path d="M25.9048 12.2262V10.4347H36.6542V12.2262H25.9048Z" fill="#AD93DF"/>
<path d="M25.9048 15.8094V14.0178H33.0711V15.8094H25.9048Z" fill="#AD93DF"/>
</svg>
