<svg width="51" height="50" viewBox="0 0 51 50" fill="none" xmlns="http://www.w3.org/2000/svg">
<g id="eos-icons:ai">
<path id="Vector" d="M23.3258 8.75218C21.5843 8.75218 19.9141 9.44399 18.6827 10.6754C17.4513 11.9068 16.7595 13.577 16.7595 15.3185C16.7595 17.06 17.4513 18.7302 18.6827 19.9616C19.9141 21.193 21.5843 21.8848 23.3258 21.8848C25.0673 21.8848 26.7374 21.193 27.9689 19.9616C29.2003 18.7302 29.8921 17.06 29.8921 15.3185C29.8921 13.577 29.2003 11.9068 27.9689 10.6754C26.7374 9.44399 25.0673 8.75218 23.3258 8.75218ZM13.0073 15.3185C13.0073 12.5819 14.0944 9.95731 16.0295 8.02222C17.9646 6.08712 20.5892 5 23.3258 5C26.0624 5 28.687 6.08712 30.6221 8.02222C32.5572 9.95731 33.6443 12.5819 33.6443 15.3185C33.6443 18.0551 32.5572 20.6797 30.6221 22.6148C28.687 24.5499 26.0624 25.637 23.3258 25.637C20.5892 25.637 17.9646 24.5499 16.0295 22.6148C14.0944 20.6797 13.0073 18.0551 13.0073 15.3185ZM16.7595 31.2653C14.7692 31.2653 12.8604 32.0559 11.4531 33.4632C10.522 34.3943 9.86091 35.5448 9.52005 36.7932C9.2291 37.8587 10.1505 38.7696 11.2551 38.7696H22.4815V42.5218H9.25511C7.18284 42.5218 5.50293 40.8419 5.50293 38.7696C5.50293 35.7842 6.68888 32.9211 8.79989 30.81C10.9109 28.699 13.7741 27.5131 16.7595 27.5131H22.3877V31.2653H16.7595Z" fill="#5C27C0"/>
<path id="Vector_2" d="M35.5029 27C33.6464 27 31.8659 27.7375 30.5532 29.0503C29.2404 30.363 28.5029 32.1435 28.5029 34C28.5029 35.8565 29.2404 37.637 30.5532 38.9497C31.8659 40.2625 33.6464 41 35.5029 41C37.3594 41 39.1399 40.2625 40.4527 38.9497C41.7654 37.637 42.5029 35.8565 42.5029 34C42.5029 32.1435 41.7654 30.363 40.4527 29.0503C39.1399 27.7375 37.3594 27 35.5029 27ZM24.5029 34C24.5029 32.5555 24.7875 31.1251 25.3403 29.7905C25.8931 28.4559 26.7033 27.2433 27.7248 26.2218C28.7462 25.2004 29.9588 24.3901 31.2934 23.8373C32.628 23.2845 34.0584 23 35.5029 23C36.9475 23 38.3779 23.2845 39.7124 23.8373C41.047 24.3901 42.2597 25.2004 43.2811 26.2218C44.3025 27.2433 45.1128 28.4559 45.6656 29.7905C46.2184 31.1251 46.5029 32.5555 46.5029 34C46.5029 36.9174 45.344 39.7153 43.2811 41.7782C41.2182 43.8411 38.4203 45 35.5029 45C32.5855 45 29.7877 43.8411 27.7248 41.7782C25.6619 39.7153 24.5029 36.9174 24.5029 34ZM37.5029 29.504V33.172L40.3309 36L37.5029 38.828L33.5029 34.828V29.504H37.5029Z" fill="#AD93DF"/>
</g>
</svg>
