<svg width="36" height="36" viewBox="0 0 36 36" fill="none" xmlns="http://www.w3.org/2000/svg">
<path fill-rule="evenodd" clip-rule="evenodd" d="M6 1C6 0.734784 6.10536 0.48043 6.29289 0.292893C6.48043 0.105357 6.73478 0 7 0C7.26522 0 7.51957 0.105357 7.70711 0.292893C7.89464 0.48043 8 0.734784 8 1V6C8 6.26522 7.89464 6.51957 7.70711 6.70711C7.51957 6.89464 7.26522 7 7 7C6.73478 7 6.48043 6.89464 6.29289 6.70711C6.10536 6.51957 6 6.26522 6 6V5H3C2.73478 5 2.48043 5.10536 2.29289 5.29289C2.10536 5.48043 2 5.73478 2 6V10H28V6C28 5.73478 27.8946 5.48043 27.7071 5.29289C27.5196 5.10536 27.2652 5 27 5H24V3H27C27.7956 3 28.5587 3.31607 29.1213 3.87868C29.6839 4.44129 30 5.20435 30 6V22.07C31.7515 22.3232 33.3422 23.2303 34.452 24.6088C35.5618 25.9874 36.1083 27.7351 35.9816 29.5003C35.8548 31.2655 35.0643 32.9172 33.769 34.1231C32.4737 35.329 30.7697 35.9996 29 36C27.8714 36.0007 26.7593 35.7283 25.7589 35.2058C24.7585 34.6834 23.8994 33.9266 23.255 33H3C2.20435 33 1.44129 32.6839 0.87868 32.1213C0.316071 31.5587 0 30.7956 0 30V6C0 5.20435 0.316071 4.44129 0.87868 3.87868C1.44129 3.31607 2.20435 3 3 3H6V1ZM22 29C21.9998 27.3165 22.6062 25.6893 23.7082 24.4165C24.8101 23.1438 26.3338 22.3107 28 22.07V12H2V30C2 30.2652 2.10536 30.5196 2.29289 30.7071C2.48043 30.8946 2.73478 31 3 31H22.29C22.0971 30.3509 21.9994 29.6772 22 29ZM29 34C30.3261 34 31.5979 33.4732 32.5355 32.5355C33.4732 31.5979 34 30.3261 34 29C34 27.6739 33.4732 26.4021 32.5355 25.4645C31.5979 24.5268 30.3261 24 29 24C27.6739 24 26.4021 24.5268 25.4645 25.4645C24.5268 26.4021 24 27.6739 24 29C24 30.3261 24.5268 31.5979 25.4645 32.5355C26.4021 33.4732 27.6739 34 29 34Z" fill="#5C27C0"/>
<path fill-rule="evenodd" clip-rule="evenodd" d="M4 17C4 16.4696 4.21071 15.9609 4.58579 15.5858C4.96086 15.2107 5.46957 15 6 15H8C8.53043 15 9.03914 15.2107 9.41421 15.5858C9.78929 15.9609 10 16.4696 10 17V19C10 19.5304 9.78929 20.0391 9.41421 20.4142C9.03914 20.7893 8.53043 21 8 21H6C5.46957 21 4.96086 20.7893 4.58579 20.4142C4.21071 20.0391 4 19.5304 4 19V17ZM8 17V19H6V17H8ZM14 15C13.4696 15 12.9609 15.2107 12.5858 15.5858C12.2107 15.9609 12 16.4696 12 17V19C12 19.5304 12.2107 20.0391 12.5858 20.4142C12.9609 20.7893 13.4696 21 14 21H16C16.5304 21 17.0391 20.7893 17.4142 20.4142C17.7893 20.0391 18 19.5304 18 19V17C18 16.4696 17.7893 15.9609 17.4142 15.5858C17.0391 15.2107 16.5304 15 16 15H14ZM16 17H14V19H16V17ZM20 17C20 16.4696 20.2107 15.9609 20.5858 15.5858C20.9609 15.2107 21.4696 15 22 15H24C24.5304 15 25.0391 15.2107 25.4142 15.5858C25.7893 15.9609 26 16.4696 26 17V19C26 19.5304 25.7893 20.0391 25.4142 20.4142C25.0391 20.7893 24.5304 21 24 21H22C21.4696 21 20.9609 20.7893 20.5858 20.4142C20.2107 20.0391 20 19.5304 20 19V17ZM22 17H24V19H22V17ZM6 23C5.46957 23 4.96086 23.2107 4.58579 23.5858C4.21071 23.9609 4 24.4696 4 25V27C4 27.5304 4.21071 28.0391 4.58579 28.4142C4.96086 28.7893 5.46957 29 6 29H8C8.53043 29 9.03914 28.7893 9.41421 28.4142C9.78929 28.0391 10 27.5304 10 27V25C10 24.4696 9.78929 23.9609 9.41421 23.5858C9.03914 23.2107 8.53043 23 8 23H6ZM6 25V27H8V25H6ZM12 25C12 24.4696 12.2107 23.9609 12.5858 23.5858C12.9609 23.2107 13.4696 23 14 23H16C16.5304 23 17.0391 23.2107 17.4142 23.5858C17.7893 23.9609 18 24.4696 18 25V27C18 27.5304 17.7893 28.0391 17.4142 28.4142C17.0391 28.7893 16.5304 29 16 29H14C13.4696 29 12.9609 28.7893 12.5858 28.4142C12.2107 28.0391 12 27.5304 12 27V25ZM14 25H16V27H14V25Z" fill="#AD93DF"/>
<path d="M29 25.5C29.2652 25.5 29.5196 25.6054 29.7071 25.7929C29.8946 25.9804 30 26.2348 30 26.5V28.586L30.707 29.293C30.8892 29.4816 30.99 29.7342 30.9877 29.9964C30.9854 30.2586 30.8802 30.5094 30.6948 30.6948C30.5094 30.8802 30.2586 30.9854 29.9964 30.9877C29.7342 30.99 29.4816 30.8892 29.293 30.707L28 29.414V26.5C28 26.2348 28.1054 25.9804 28.2929 25.7929C28.4804 25.6054 28.7348 25.5 29 25.5Z" fill="#5C27C0"/>
<path d="M21 7C20.7348 7 20.4804 6.89464 20.2929 6.70711C20.1054 6.51957 20 6.26522 20 6V5H10V3H20V1C20 0.734784 20.1054 0.48043 20.2929 0.292893C20.4804 0.105357 20.7348 0 21 0C21.2652 0 21.5196 0.105357 21.7071 0.292893C21.8946 0.48043 22 0.734784 22 1V6C22 6.26522 21.8946 6.51957 21.7071 6.70711C21.5196 6.89464 21.2652 7 21 7Z" fill="#5C27C0"/>
</svg>
