<svg width="99" height="32" viewBox="0 0 99 32" fill="none" xmlns="http://www.w3.org/2000/svg">
<g id="Group 252">
<path id="Vector" d="M12.1928 0.499268H13.0731C16.1295 0.56301 19.136 1.74224 21.2954 3.82978C20.4981 4.61062 19.6842 5.35959 18.9035 6.14043C17.6909 5.08869 16.2292 4.27598 14.6345 3.98914C12.2758 3.51107 9.73437 3.94133 7.7577 5.23211C5.5983 6.58662 4.13656 8.88133 3.82095 11.3354C3.47213 13.7576 4.18639 16.3073 5.83085 18.1877C7.40887 20.0202 9.81743 21.1676 12.309 21.2473C14.6345 21.3748 17.0597 20.6895 18.754 19.1278C20.0829 18.0283 20.6975 16.3551 20.8968 14.7297C18.1394 14.7297 15.382 14.7456 12.6246 14.7297V11.4469H24.2355C24.8335 14.9687 23.9698 18.9366 21.1792 21.4544C19.3188 23.2392 16.7441 24.2909 14.1196 24.4981C11.5782 24.7371 8.95367 24.275 6.69461 23.0958C3.98706 21.7094 1.82766 19.3669 0.764577 16.61C-0.232067 14.0763 -0.248678 11.2079 0.681524 8.65824C1.52867 6.33166 3.15652 4.27598 5.24948 2.84178C7.25937 1.42353 9.70115 0.642687 12.1928 0.499268Z" fill="#393939"/>
<path id="Vector_2" d="M78.8018 1.32739H82.3565V24.0833C81.1771 24.0833 79.9811 24.0992 78.8018 24.0673C78.8184 16.498 78.8018 8.91268 78.8018 1.32739Z" fill="#393939"/>
<path id="Vector_3" d="M32.1421 9.21582C34.3347 8.81744 36.7101 9.26363 38.5206 10.5225C40.1651 11.638 41.3112 13.3909 41.6601 15.3032C42.1085 17.5182 41.5438 19.9404 40.0488 21.6933C38.4376 23.6534 35.7965 24.7051 33.2218 24.5458C30.8631 24.4183 28.5708 23.2869 27.1755 21.4383C25.5975 19.3986 25.2154 16.594 26.0792 14.2036C26.9429 11.638 29.3847 9.67795 32.1421 9.21582ZM32.6404 12.2436C31.7434 12.4667 30.9129 12.9607 30.3149 13.6618C28.7037 15.5103 28.8033 18.5221 30.5807 20.2432C31.5939 21.2312 33.1221 21.6933 34.534 21.4224C35.8463 21.1993 36.9924 20.3547 37.6236 19.2392C38.72 17.3429 38.4044 14.7295 36.7267 13.2475C35.647 12.2914 34.0689 11.893 32.6404 12.2436Z" fill="#393939"/>
<path id="Vector_4" d="M49.7492 9.21602C52.2574 8.75389 54.9982 9.42318 56.8752 11.1123C59.9316 13.7417 60.2638 18.6658 57.6559 21.6935C56.0779 23.6058 53.5198 24.6575 50.995 24.546C48.5864 24.4822 46.2111 23.3349 44.7826 21.4385C43.1713 19.351 42.8225 16.4826 43.7361 14.0445C44.6497 11.5585 47.0416 9.66221 49.7492 9.21602ZM50.2475 12.2438C49.3505 12.4669 48.52 12.9609 47.922 13.6461C46.3274 15.4627 46.3938 18.4267 48.1047 20.1637C49.118 21.1995 50.696 21.7094 52.1577 21.4226C53.4534 21.1836 54.6161 20.3549 55.2473 19.2394C56.327 17.3272 56.0114 14.7138 54.3171 13.2318C53.2374 12.2756 51.6594 11.8932 50.2475 12.2438Z" fill="#393939"/>
<path id="Vector_5" d="M64.6824 10.1398C66.5927 8.99244 69.1341 8.67373 71.1938 9.66173C71.8416 9.93263 72.3732 10.3948 72.8881 10.8569C72.9047 10.4266 72.8881 9.98044 72.9047 9.53425C74.0177 9.55018 75.1306 9.53425 76.2601 9.55018V23.6053C76.2435 25.7247 75.6787 27.9716 74.0841 29.5173C72.34 31.2224 69.6656 31.7483 67.2571 31.3977C64.6824 31.0312 62.44 29.2305 61.4433 26.9517C62.44 26.4896 63.4864 26.1231 64.5163 25.6928C65.0977 26.9995 66.277 28.115 67.7554 28.37C69.2338 28.625 70.9447 28.2744 71.9081 27.0952C72.938 25.8841 72.938 24.2268 72.8881 22.7448C72.124 23.4619 71.2437 24.0993 70.1806 24.3383C67.8717 24.9598 65.3302 24.1949 63.5529 22.697C61.7589 21.199 60.6958 18.8884 60.7955 16.5937C60.8453 13.9962 62.3735 11.4943 64.6824 10.1398ZM68.1208 12.1795C67.1076 12.3389 66.1608 12.8807 65.513 13.6297C63.9515 15.4144 63.9515 18.2669 65.5296 20.0198C66.4265 21.0556 67.8717 21.6293 69.267 21.4859C70.5792 21.3584 71.7918 20.5616 72.4396 19.4621C73.5359 17.5976 73.3532 15.0639 71.8749 13.4384C70.9613 12.4345 69.4995 11.9405 68.1208 12.1795Z" fill="#393939"/>
<path id="Vector_6" d="M86.626 10.9527C88.6192 9.16791 91.6922 8.56236 94.2503 9.50256C96.6755 10.379 98.2203 12.594 99.001 14.8728C95.3964 16.307 91.8085 17.7253 88.204 19.1595C88.7023 20.0678 89.4664 20.8964 90.4963 21.2311C91.9414 21.7251 93.6689 21.5498 94.8815 20.6255C95.3632 20.2749 95.7453 19.8128 96.1107 19.3666C97.0243 19.9562 97.9379 20.5299 98.8515 21.1195C97.5558 22.984 95.3798 24.2907 93.0377 24.4979C90.4464 24.8006 87.689 23.8445 86.0114 21.9004C83.254 18.8408 83.5197 13.7095 86.626 10.9527ZM88.4033 13.9008C87.8385 14.6816 87.606 15.6377 87.6226 16.5779C90.0312 15.6218 92.4397 14.6657 94.8483 13.6936C94.4496 12.8012 93.4862 12.2594 92.5062 12.116C90.9281 11.8451 89.2837 12.6578 88.4033 13.9008Z" fill="#393939"/>
</g>
</svg>
