<svg width="140" height="40" viewBox="0 0 140 40" fill="none" xmlns="http://www.w3.org/2000/svg">
<g clip-path="url(#clip0_2199_5431)">
<path d="M42.5 0H133.536C136.692 0 139.25 2.55837 139.25 5.71429V40H42.5V0Z" fill="#5C27C0"/>
<rect x="0.714286" y="0.714286" width="116.321" height="38.5714" rx="5" stroke="#5C27C0" stroke-width="1.42857"/>
<path d="M127.749 26.2857H128.504V32H127.749V30.88C127.224 31.7181 126.454 32.1371 125.441 32.1371C124.626 32.1371 123.928 31.8476 123.349 31.2686C122.778 30.6895 122.492 29.981 122.492 29.1429C122.492 28.3048 122.778 27.5962 123.349 27.0171C123.928 26.4381 124.626 26.1486 125.441 26.1486C126.454 26.1486 127.224 26.5676 127.749 27.4057V26.2857ZM123.898 30.7543C124.332 31.1886 124.866 31.4057 125.498 31.4057C126.13 31.4057 126.664 31.1886 127.098 30.7543C127.532 30.3124 127.749 29.7752 127.749 29.1429C127.749 28.5105 127.532 27.9771 127.098 27.5429C126.664 27.101 126.13 26.88 125.498 26.88C124.866 26.88 124.332 27.101 123.898 27.5429C123.464 27.9771 123.247 28.5105 123.247 29.1429C123.247 29.7752 123.464 30.3124 123.898 30.7543ZM130.866 24.9143C130.76 25.021 130.63 25.0743 130.478 25.0743C130.326 25.0743 130.196 25.021 130.089 24.9143C129.983 24.8076 129.929 24.6781 129.929 24.5257C129.929 24.3733 129.983 24.2438 130.089 24.1371C130.196 24.0305 130.326 23.9771 130.478 23.9771C130.63 23.9771 130.76 24.0305 130.866 24.1371C130.973 24.2438 131.026 24.3733 131.026 24.5257C131.026 24.6781 130.973 24.8076 130.866 24.9143ZM130.101 32V26.2857H130.855V32H130.101Z" fill="white"/>
<path d="M9.809 32V14.8535H14.4595V32H9.809ZM14.4595 22.5215L12.649 21.3145C12.862 19.2082 13.4773 17.5515 14.495 16.3445C15.5127 15.1138 16.98 14.4985 18.897 14.4985C19.7253 14.4985 20.4708 14.6405 21.1335 14.9245C21.7962 15.1848 22.3997 15.6227 22.944 16.238L20.033 19.575C19.7727 19.291 19.4532 19.078 19.0745 18.936C18.7195 18.794 18.3053 18.723 17.832 18.723C16.838 18.723 16.0215 19.0425 15.3825 19.6815C14.7672 20.2968 14.4595 21.2435 14.4595 22.5215ZM31.7602 32.355C29.9142 32.355 28.2694 31.9645 26.8257 31.1835C25.4057 30.3788 24.2815 29.302 23.4532 27.953C22.6485 26.604 22.2462 25.0775 22.2462 23.3735C22.2462 21.6932 22.6485 20.1903 23.4532 18.865C24.2815 17.516 25.382 16.451 26.7547 15.67C28.151 14.8653 29.7249 14.463 31.4762 14.463C33.3222 14.463 34.8724 14.8772 36.1267 15.7055C37.381 16.5102 38.375 17.6698 39.1087 19.1845L28.8492 29.2665L26.3287 26.7105L35.5942 17.6225L35.4522 20.8885C35.1445 20.1075 34.6712 19.504 34.0322 19.078C33.4169 18.652 32.5885 18.439 31.5472 18.439C30.5532 18.439 29.6894 18.652 28.9557 19.078C28.222 19.4803 27.654 20.0483 27.2517 20.782C26.873 21.5157 26.6837 22.3558 26.6837 23.3025C26.6837 24.3202 26.8967 25.2195 27.3227 26.0005C27.7487 26.7578 28.3404 27.3495 29.0977 27.7755C29.8787 28.2015 30.7899 28.4145 31.8312 28.4145C32.7542 28.4145 33.5707 28.2725 34.2807 27.9885C34.9907 27.6808 35.6179 27.2312 36.1622 26.6395L38.8957 29.373C38.02 30.367 36.9669 31.1125 35.7362 31.6095C34.5292 32.1065 33.2039 32.355 31.7602 32.355Z" fill="#5C27C0"/>
<path d="M43.2109 14.1435H46.1929L48.2874 22.202C48.4767 22.8883 48.6424 23.622 48.7844 24.403C48.9501 25.1603 49.1039 25.8703 49.2459 26.533C49.3879 27.314 49.5417 28.0832 49.7074 28.8405H49.7429C49.9086 28.0832 50.0979 27.314 50.3109 26.533C50.5002 25.8703 50.7014 25.1603 50.9144 24.403C51.1274 23.622 51.3404 22.8883 51.5534 22.202L54.0739 14.1435H57.8724L59.8959 22.202C60.0616 22.8883 60.2272 23.622 60.3929 24.403C60.5822 25.1603 60.7361 25.8703 60.8544 26.533C60.9964 27.314 61.1384 28.0832 61.2804 28.8405H61.3159C61.5289 28.0595 61.7537 27.2785 61.9904 26.4975C62.1797 25.8348 62.3927 25.1248 62.6294 24.3675C62.8661 23.5865 63.0909 22.8647 63.3039 22.202L65.7889 14.1435H68.7354L62.8779 32H59.7184L57.1624 22.202C56.9257 21.3027 56.7246 20.498 56.5589 19.788C56.4169 19.0543 56.2867 18.439 56.1684 17.942C56.0501 17.3503 55.9436 16.8297 55.8489 16.38H55.7779C55.6832 16.8297 55.5649 17.3503 55.4229 17.942C55.3046 18.439 55.1389 19.0543 54.9259 19.788C54.7129 20.498 54.4762 21.3027 54.2159 22.202L51.1984 32H48.0389L43.2109 14.1435ZM73.0664 23.1605C73.0664 25.4562 73.5752 27.172 74.5929 28.308C75.6342 29.4203 77.0306 29.9765 78.7819 29.9765C80.5096 29.9765 81.8586 29.4203 82.8289 28.308C83.7992 27.1957 84.2844 25.5272 84.2844 23.3025C84.2844 20.9358 83.7637 19.1727 82.7224 18.013C81.7047 16.8533 80.3084 16.2735 78.5334 16.2735C76.7584 16.2735 75.3976 16.8533 74.4509 18.013C73.5279 19.149 73.0664 20.8648 73.0664 23.1605ZM70.0489 23.125C70.0489 21.3263 70.3329 19.8353 70.9009 18.652C71.4689 17.445 72.1907 16.4865 73.0664 15.7765C73.9421 15.0428 74.8769 14.534 75.8709 14.25C76.8886 13.9423 77.8471 13.7885 78.7464 13.7885C79.5984 13.7885 80.5214 13.9305 81.5154 14.2145C82.5331 14.4748 83.4679 14.96 84.3199 15.67C85.1719 16.3563 85.8819 17.2912 86.4499 18.4745C87.0179 19.6342 87.3019 21.1133 87.3019 22.912C87.3019 24.7817 87.0061 26.3318 86.4144 27.5625C85.8464 28.7932 85.1246 29.7753 84.2489 30.509C83.3732 31.219 82.4266 31.716 81.4089 32C80.3912 32.3077 79.4446 32.4615 78.5689 32.4615C77.6696 32.4615 76.7229 32.3195 75.7289 32.0355C74.7349 31.7515 73.8119 31.2663 72.9599 30.58C72.1316 29.87 71.4334 28.9115 70.8654 27.7045C70.3211 26.4975 70.0489 24.971 70.0489 23.125ZM90.7532 17.019C90.7532 16.4747 90.694 15.6227 90.5757 14.463L93.2027 14.108L93.4867 16.6995H93.5222C93.9482 16.1552 94.3623 15.6818 94.7647 15.2795C95.167 14.8772 95.5812 14.534 96.0072 14.25C96.4568 13.9423 96.8828 13.7885 97.2852 13.7885C97.8295 13.7648 98.5868 13.824 99.5572 13.966L98.9182 16.6995C98.1372 16.5575 97.5928 16.4983 97.2852 16.522C96.8828 16.522 96.4568 16.7113 96.0072 17.09C95.5575 17.4687 95.167 17.871 94.8357 18.297C94.4097 18.8177 93.9955 19.4093 93.5932 20.072V32H90.7532V17.019ZM101.968 5.4105L104.808 5.091V21.1015L112.725 14.1435H116.63L108.891 20.924L116.914 32H113.328L106.796 22.7345L104.808 24.474V32H101.968V5.4105Z" fill="white"/>
</g>
<defs>
<clipPath id="clip0_2199_5431">
<rect width="139.25" height="40" fill="white"/>
</clipPath>
</defs>
</svg>
