<svg width="171" height="34" viewBox="0 0 171 34" fill="none" xmlns="http://www.w3.org/2000/svg">
<g id="microsoft 1" clip-path="url(#clip0_1088_2108)">
<path id="Vector" d="M170.994 15.3817V12.5824H167.26V8.23043L167.134 8.26646L163.626 9.26548L163.557 9.28504V12.5825H158.021V10.7455C158.021 9.89018 158.226 9.23561 158.631 8.79908C159.033 8.36778 159.608 8.14851 160.342 8.14851C160.869 8.14851 161.415 8.26415 161.965 8.4922L162.103 8.54948V5.60138L162.038 5.57921C161.525 5.40767 160.828 5.32129 159.964 5.32129C158.874 5.32129 157.885 5.54194 157.021 5.97925C156.158 6.41716 155.478 7.04232 155.003 7.83717C154.528 8.63109 154.288 9.54804 154.288 10.5628V12.5824H151.687V15.3817H154.288V27.1749H158.021V15.3817H163.557V22.8761C163.557 25.9626 165.121 27.5267 168.206 27.5267C168.712 27.5267 169.246 27.4714 169.791 27.3632C170.345 27.252 170.723 27.141 170.945 27.0224L170.994 26.9953V24.1701L170.842 24.2636C170.64 24.3892 170.387 24.4919 170.092 24.5683C169.795 24.6461 169.546 24.685 169.354 24.685C168.632 24.685 168.097 24.5038 167.765 24.1461C167.43 23.7852 167.26 23.154 167.26 22.2711V15.3817H170.994ZM143.351 24.6855C141.996 24.6855 140.928 24.2673 140.175 23.4435C139.417 22.6155 139.034 21.4351 139.034 19.9354C139.034 18.388 139.417 17.177 140.175 16.3344C140.928 15.4974 141.986 15.0725 143.32 15.0725C144.615 15.0725 145.645 15.4783 146.383 16.2791C147.125 17.0841 147.502 18.2855 147.502 19.8508C147.502 21.4354 147.148 22.6526 146.449 23.4669C145.756 24.275 144.714 24.6855 143.351 24.6855ZM143.517 12.2308C140.932 12.2308 138.879 12.9359 137.415 14.3265C135.952 15.7172 135.21 17.6418 135.21 20.0473C135.21 22.3321 135.934 24.1698 137.362 25.5087C138.79 26.848 140.734 27.5264 143.139 27.5264C145.645 27.5264 147.657 26.8115 149.12 25.4016C150.583 23.9933 151.325 22.0869 151.325 19.7376C151.325 17.4172 150.629 15.5657 149.256 14.2358C147.883 12.9053 145.952 12.2308 143.517 12.2308ZM129.191 12.2308C127.433 12.2308 125.978 12.6495 124.867 13.475C123.749 14.3054 123.182 15.3945 123.182 16.7124C123.182 17.3975 123.305 18.006 123.546 18.5221C123.788 19.04 124.163 19.4959 124.661 19.8785C125.156 20.2581 125.919 20.6557 126.93 21.0602C127.78 21.3859 128.414 21.6613 128.817 21.8784C129.211 22.0912 129.49 22.3051 129.648 22.5134C129.801 22.7173 129.879 22.9963 129.879 23.3406C129.879 24.321 129.091 24.798 127.468 24.798C126.866 24.798 126.179 24.681 125.427 24.4504C124.68 24.2232 123.975 23.8905 123.337 23.464L123.182 23.3605V26.706L123.239 26.7306C123.767 26.9576 124.433 27.149 125.218 27.2996C126.001 27.4503 126.713 27.527 127.331 27.527C129.24 27.527 130.776 27.1064 131.897 26.2759C133.026 25.4398 133.597 24.325 133.597 22.9615C133.597 21.9779 133.29 21.1344 132.683 20.4541C132.08 19.7794 131.034 19.1599 129.576 18.6124C128.413 18.1781 127.669 17.8177 127.362 17.541C127.065 17.2737 126.915 16.8956 126.915 16.4169C126.915 15.9926 127.101 15.6526 127.482 15.3772C127.866 15.1005 128.4 14.9598 129.07 14.9598C129.692 14.9598 130.329 15.0513 130.962 15.2305C131.594 15.4097 132.149 15.6498 132.613 15.9434L132.766 16.0404V12.8669L132.707 12.8435C132.279 12.6727 131.715 12.5266 131.03 12.4081C130.348 12.2903 129.729 12.2308 129.191 12.2308ZM113.451 24.6855C112.096 24.6855 111.027 24.2673 110.275 23.4435C109.517 22.6155 109.134 21.4354 109.134 19.9354C109.134 18.388 109.518 17.177 110.276 16.3344C111.028 15.4974 112.086 15.0725 113.421 15.0725C114.715 15.0725 115.745 15.4783 116.483 16.2791C117.225 17.0841 117.601 18.2855 117.601 19.8508C117.601 21.4354 117.247 22.6526 116.549 23.4669C115.856 24.275 114.814 24.6855 113.451 24.6855ZM113.617 12.2308C111.031 12.2308 108.978 12.9359 107.515 14.3265C106.052 15.7172 105.31 17.6418 105.31 20.0473C105.31 22.333 106.034 24.1698 107.462 25.5087C108.891 26.848 110.834 27.5264 113.239 27.5264C115.744 27.5264 117.757 26.8115 119.22 25.4016C120.683 23.9933 121.425 22.0869 121.425 19.7376C121.425 17.4172 120.729 15.5657 119.356 14.2358C117.983 12.9053 116.052 12.2308 113.617 12.2308ZM99.6432 15.1095V12.5824H95.9557V27.1746H99.6432V19.7101C99.6432 18.4408 99.9524 17.3981 100.562 16.6105C101.165 15.8323 101.967 15.4379 102.947 15.4379C103.279 15.4379 103.652 15.4889 104.056 15.5897C104.456 15.69 104.745 15.7988 104.916 15.9134L105.071 16.018V12.5574L105.011 12.5336C104.668 12.3977 104.182 12.3292 103.567 12.3292C102.641 12.3292 101.811 12.6064 101.101 13.1521C100.478 13.6317 100.027 14.2894 99.6824 15.1095H99.6432ZM89.352 12.2308C87.6603 12.2308 86.1514 12.5685 84.8679 13.2342C83.5818 13.9014 82.5871 14.8539 81.9104 16.0651C81.2367 17.2734 80.8946 18.6847 80.8946 20.2587C80.8946 21.6375 81.2262 22.9027 81.8818 24.0178C82.5377 25.1348 83.466 26.0086 84.6411 26.6147C85.8146 27.22 87.1709 27.5269 88.6725 27.5269C90.4249 27.5269 91.9212 27.2007 93.1208 26.5576L93.1692 26.5317V23.387L93.0142 23.4923C92.4708 23.8608 91.8636 24.1549 91.2102 24.3667C90.5584 24.5785 89.9643 24.6855 89.4432 24.6855C87.9963 24.6855 86.8347 24.264 85.9916 23.4332C85.1466 22.6012 84.7182 21.433 84.7182 19.9629C84.7182 18.4836 85.165 17.2854 86.0455 16.4012C86.9234 15.5197 88.0871 15.0725 89.5041 15.0725C90.7161 15.0725 91.8972 15.4545 93.0146 16.209L93.1692 16.3136V13.0001L93.1193 12.9739C92.6988 12.7548 92.1253 12.5739 91.4133 12.4367C90.7043 12.2998 90.0109 12.2308 89.352 12.2308ZM78.3549 12.5825H74.6674V27.1746H78.3549V12.5825ZM76.5489 6.3662C75.942 6.3662 75.4126 6.55852 74.9777 6.93962C74.541 7.3218 74.3195 7.80298 74.3195 8.37086C74.3195 8.92981 74.5384 9.40222 74.971 9.77423C75.4007 10.1452 75.9317 10.3332 76.549 10.3332C77.1662 10.3332 77.6992 10.1452 78.1341 9.77485C78.5718 9.40222 78.7938 8.92996 78.7938 8.37086C78.7938 7.82285 78.5777 7.34659 78.1521 6.95502C77.7268 6.56421 77.1872 6.3662 76.5489 6.3662ZM67.3483 11.5059V27.1746H71.1116V6.81289H65.9031L59.2827 21.9369L52.8581 6.81289H47.4375V27.1744H50.974V11.5043H51.0954L57.8797 27.1746H60.5485L67.2269 11.5059H67.3483Z" fill="#E2E2E2"/>
<path id="Vector_2" d="M17.347 16.1563H0V0.00878906H17.347V16.1563Z" fill="#E2E2E2"/>
<path id="Vector_3" d="M36.4951 16.1563H19.1484V0.00878906H36.4951V16.1563Z" fill="#E2E2E2"/>
<path id="Vector_4" d="M17.3465 33.9914H0V17.844H17.3465V33.9914Z" fill="#E2E2E2"/>
<path id="Vector_5" d="M36.4951 33.9912H19.1484V17.8438H36.4951V33.9912Z" fill="#E2E2E2"/>
</g>
<defs>
<clipPath id="clip0_1088_2108">
<rect width="171" height="34" fill="white"/>
</clipPath>
</defs>
</svg>
