<svg width="131" height="26" viewBox="0 0 131 26" fill="none" xmlns="http://www.w3.org/2000/svg">
<g id="Group 251">
<path id="Vector" d="M131 11.7624V9.62168H128.139V6.29373L128.043 6.32128L125.356 7.08524L125.303 7.10019V9.62179H121.061V8.21705C121.061 7.56295 121.219 7.0624 121.529 6.72858C121.837 6.39876 122.278 6.23109 122.84 6.23109C123.244 6.23109 123.662 6.31952 124.083 6.4939L124.189 6.53771V4.28328L124.139 4.26632C123.746 4.13515 123.212 4.06909 122.55 4.06909C121.715 4.06909 120.957 4.23783 120.296 4.57223C119.634 4.90711 119.114 5.38518 118.749 5.993C118.386 6.60011 118.202 7.30131 118.202 8.07728V9.62168H116.21V11.7624H118.202V20.7807H121.061V11.7624H125.303V17.4933C125.303 19.8536 126.501 21.0497 128.864 21.0497C129.252 21.0497 129.661 21.0074 130.078 20.9247C130.503 20.8397 130.792 20.7548 130.963 20.6641L131 20.6434V18.4829L130.884 18.5544C130.729 18.6505 130.535 18.729 130.309 18.7874C130.081 18.8469 129.891 18.8767 129.744 18.8767C129.19 18.8767 128.781 18.7381 128.527 18.4645C128.27 18.1885 128.139 17.7059 128.139 17.0307V11.7624H131ZM109.823 18.877C108.785 18.877 107.967 18.5572 107.39 17.9272C106.81 17.2941 106.516 16.3914 106.516 15.2446C106.516 14.0613 106.81 13.1352 107.39 12.4909C107.967 11.8508 108.778 11.5259 109.8 11.5259C110.791 11.5259 111.581 11.8362 112.146 12.4486C112.715 13.0642 113.003 13.9829 113.003 15.1799C113.003 16.3917 112.732 17.3225 112.197 17.9451C111.666 18.5631 110.867 18.877 109.823 18.877ZM109.95 9.35286C107.97 9.35286 106.397 9.89203 105.276 10.9554C104.155 12.0189 103.587 13.4907 103.587 15.3302C103.587 17.0773 104.141 18.4827 105.235 19.5065C106.33 20.5307 107.819 21.0495 109.661 21.0495C111.58 21.0495 113.122 20.5028 114.243 19.4247C115.364 18.3477 115.932 16.8899 115.932 15.0934C115.932 13.3189 115.399 11.9031 114.347 10.8861C113.295 9.8686 111.816 9.35286 109.95 9.35286ZM98.9758 9.35286C97.6287 9.35286 96.5144 9.67302 95.6632 10.3043C94.8068 10.9393 94.3724 11.7721 94.3724 12.7799C94.3724 13.3038 94.4662 13.7692 94.6507 14.1639C94.8364 14.5598 95.1236 14.9085 95.5053 15.2011C95.8841 15.4914 96.4688 15.7954 97.2436 16.1047C97.895 16.3538 98.3807 16.5644 98.6893 16.7304C98.9909 16.8932 99.2049 17.0567 99.3258 17.216C99.4433 17.3719 99.5028 17.5853 99.5028 17.8486C99.5028 18.5983 98.8986 18.9631 97.6553 18.9631C97.1942 18.9631 96.6681 18.8736 96.0919 18.6972C95.5198 18.5235 94.9798 18.2691 94.4909 17.9429L94.3722 17.8638V20.4221L94.4158 20.441C94.8204 20.6145 95.3306 20.7609 95.9319 20.876C96.532 20.9913 97.0773 21.05 97.551 21.05C99.0128 21.05 100.19 20.7283 101.049 20.0932C101.913 19.4539 102.351 18.6014 102.351 17.5587C102.351 16.8065 102.115 16.1615 101.651 15.6413C101.189 15.1253 100.388 14.6516 99.2702 14.2329C98.3798 13.9008 97.8094 13.6252 97.5741 13.4136C97.3473 13.2091 97.2321 12.9201 97.2321 12.554C97.2321 12.2295 97.3742 11.9695 97.6661 11.7589C97.9602 11.5473 98.3697 11.4397 98.8831 11.4397C99.3596 11.4397 99.8471 11.5097 100.332 11.6467C100.816 11.7838 101.242 11.9674 101.597 12.1919L101.714 12.2661V9.83928L101.669 9.82138C101.341 9.6908 100.909 9.57905 100.384 9.48838C99.862 9.39831 99.388 9.35286 98.9758 9.35286ZM86.9171 18.877C85.8794 18.877 85.0608 18.5572 84.4842 17.9272C83.9038 17.2941 83.6103 16.3917 83.6103 15.2446C83.6103 14.0613 83.9042 13.1352 84.4848 12.4909C85.0614 11.8508 85.8718 11.5259 86.8942 11.5259C87.8854 11.5259 88.6748 11.8362 89.2404 12.4486C89.8087 13.0642 90.097 13.9829 90.097 15.1799C90.097 16.3917 89.8257 17.3225 89.2909 17.9451C88.7598 18.5631 87.9616 18.877 86.9171 18.877ZM87.0446 9.35286C85.0638 9.35286 83.4908 9.89203 82.3699 10.9554C81.2492 12.0189 80.6806 13.4907 80.6806 15.3302C80.6806 17.078 81.2356 18.4827 82.3298 19.5065C83.4239 20.5307 84.9128 21.0495 86.7549 21.0495C88.6743 21.0495 90.2163 20.5028 91.3373 19.4247C92.4579 18.3477 93.026 16.8899 93.026 15.0934C93.026 13.3189 92.493 11.9031 91.4413 10.8861C90.3891 9.8686 88.9097 9.35286 87.0446 9.35286ZM76.3395 11.5542V9.62168H73.5146V20.7804H76.3395V15.0723C76.3395 14.1017 76.5764 13.3043 77.0437 12.702C77.5051 12.1069 78.12 11.8053 78.8707 11.8053C79.1252 11.8053 79.4108 11.8443 79.7201 11.9214C80.0263 11.9981 80.2481 12.0813 80.3788 12.1689L80.4976 12.2489V9.6026L80.4518 9.58435C80.1888 9.4805 79.8166 9.4281 79.3457 9.4281C78.6358 9.4281 78.0005 9.64005 77.4563 10.0573C76.9787 10.4241 76.6335 10.927 76.3696 11.5542H76.3395ZM68.4557 9.35286C67.1597 9.35286 66.0037 9.61108 65.0205 10.1201C64.0352 10.6303 63.2732 11.3587 62.7548 12.2849C62.2386 13.2089 61.9766 14.2882 61.9766 15.4918C61.9766 16.5462 62.2306 17.5137 62.7328 18.3664C63.2353 19.2206 63.9465 19.8888 64.8467 20.3523C65.7457 20.8152 66.7847 21.0498 67.9351 21.0498C69.2776 21.0498 70.4238 20.8004 71.3428 20.3086L71.3799 20.2888V17.884L71.2612 17.9646C70.8449 18.2463 70.3797 18.4712 69.8792 18.6333C69.3799 18.7952 68.9247 18.877 68.5255 18.877C67.4171 18.877 66.5272 18.5547 65.8813 17.9194C65.234 17.2832 64.9058 16.3898 64.9058 15.2656C64.9058 14.1344 65.248 13.2181 65.9226 12.542C66.5951 11.8679 67.4866 11.5259 68.5721 11.5259C69.5006 11.5259 70.4054 11.8181 71.2615 12.395L71.3799 12.475V9.94113L71.3417 9.92111C71.0195 9.75356 70.5802 9.6152 70.0348 9.51029C69.4916 9.40561 68.9604 9.35286 68.4557 9.35286ZM60.031 9.62179H57.206V20.7804H60.031V9.62179ZM58.6474 4.86814C58.1825 4.86814 57.7769 5.01521 57.4438 5.30664C57.1092 5.59889 56.9396 5.96686 56.9396 6.40112C56.9396 6.82855 57.1072 7.1898 57.4386 7.47428C57.7678 7.75794 58.1746 7.90171 58.6475 7.90171C59.1203 7.90171 59.5286 7.75794 59.8618 7.47475C60.1971 7.1898 60.3672 6.82866 60.3672 6.40112C60.3672 5.98205 60.2017 5.61785 59.8756 5.31841C59.5498 5.01956 59.1364 4.86814 58.6474 4.86814ZM51.599 8.79849V20.7804H54.482V5.20973H50.4919L45.4201 16.7752L40.4983 5.20973H36.3457V20.7803H39.0549V8.79731H39.1479L44.3453 20.7804H46.3898L51.506 8.79849H51.599Z" fill="#393939"/>
<path id="Vector_2" d="M13.2892 12.3547H0V0.0065918H13.2892V12.3547Z" fill="#393939"/>
<path id="Vector_3" d="M27.9618 12.3547H14.6729V0.0065918H27.9618V12.3547Z" fill="#393939"/>
<path id="Vector_4" d="M13.2889 25.9933H0V13.6453H13.2889V25.9933Z" fill="#393939"/>
<path id="Vector_5" d="M27.9618 25.9933H14.6729V13.6453H27.9618V25.9933Z" fill="#393939"/>
</g>
</svg>
