<svg width="85" height="84" viewBox="0 0 85 84" fill="none" xmlns="http://www.w3.org/2000/svg">
<path id="Vector" d="M42.383 84.0015C39.9558 84.0015 37.5458 83.7878 35.1529 83.3603C32.7601 82.9298 30.4062 82.2684 28.0913 81.3762C27.5765 81.1827 27.1757 80.8988 26.8886 80.5245C26.6079 80.1501 26.4675 79.7024 26.4675 79.1814C26.4675 78.5169 26.6905 77.96 27.1367 77.5108C27.5828 77.0615 28.1381 76.8385 28.8026 76.8416L29.6309 76.982C31.7368 77.6839 33.8239 78.2502 35.8923 78.6807C37.9607 79.1112 40.1243 79.3249 42.383 79.3218C43.0475 79.3218 43.6028 79.5464 44.049 79.9957C44.4951 80.4449 44.7197 81.0018 44.7228 81.6663C44.7228 82.3308 44.4982 82.8861 44.049 83.3323C43.6028 83.7784 43.0475 84.0015 42.383 84.0015ZM59.4778 80.0425C58.8133 80.0425 58.258 79.8194 57.8119 79.3733C57.3657 78.924 57.1427 78.3671 57.1427 77.7026V60.4253C57.1427 59.3552 57.5046 58.4583 58.2284 57.7345C58.9522 57.0076 59.8506 56.6441 60.9239 56.6441H78.2012C78.8626 56.6441 79.4179 56.8688 79.8671 57.318C80.3164 57.7673 80.541 58.3241 80.541 58.9886C80.541 59.6532 80.3164 60.2085 79.8671 60.6546C79.4179 61.1007 78.8626 61.3238 78.2012 61.3238H65.1356L78.9219 75.1101C79.3586 75.5469 79.5973 76.0803 79.6378 76.7105C79.6753 77.3345 79.4304 77.9117 78.9031 78.442C78.4164 78.9287 77.8705 79.172 77.2653 79.172C76.66 79.172 76.1078 78.9225 75.6086 78.4233L61.8223 64.637V77.7026C61.8223 78.3671 61.5977 78.924 61.1485 79.3733C60.6992 79.8194 60.1423 80.0425 59.4778 80.0425ZM14.2723 72.321C13.9603 72.321 13.6577 72.2555 13.3644 72.1245C13.0711 71.9903 12.8262 71.8281 12.6297 71.6378C10.3741 69.3728 8.42579 66.8957 6.78479 64.2065C5.14379 61.5172 3.76953 58.647 2.66201 55.5959C2.56529 55.4025 2.51694 55.1139 2.51694 54.7302C2.51694 54.075 2.74156 53.5275 3.19081 53.0876C3.64005 52.6446 4.19694 52.4231 4.86145 52.4231C5.41053 52.4231 5.86446 52.5713 6.22323 52.8676C6.58201 53.1609 6.85811 53.5665 7.05153 54.0844C7.98747 56.8298 9.19638 59.3802 10.6783 61.7356C12.1602 64.0879 13.915 66.2842 15.9429 68.3246C16.1301 68.5242 16.2923 68.7707 16.4296 69.064C16.5606 69.3603 16.6261 69.6645 16.6261 69.9765C16.6261 70.6473 16.3999 71.2057 15.9476 71.6518C15.4952 72.098 14.9368 72.321 14.2723 72.321ZM82.1555 44.2243C81.4941 44.2243 80.9388 44.0012 80.4895 43.5551C80.0434 43.1059 79.8203 42.549 79.8203 41.8845C79.8203 39.685 79.6363 37.5371 79.2681 35.4406C78.9 33.3441 78.3338 31.2725 77.5694 29.226C77.5351 29.1542 77.4571 28.8485 77.3354 28.3088C77.3354 27.6442 77.5601 27.0874 78.0093 26.6381C78.4617 26.192 79.0201 25.9689 79.6846 25.9689C80.2306 25.9689 80.683 26.1093 81.0417 26.3901C81.4036 26.6771 81.6797 27.0796 81.87 27.5975C82.7654 29.8531 83.4284 32.1866 83.8589 34.5982C84.2863 37.0098 84.5 39.4386 84.5 41.8845C84.5 42.549 84.2754 43.1059 83.8261 43.5551C83.3769 44.0012 82.82 44.2243 82.1555 44.2243ZM2.8024 40.05C2.14724 40.05 1.60128 39.8223 1.16451 39.3668C0.721504 38.9082 0.5 38.342 0.5 37.6681V37.2516C0.92117 34.0788 1.65588 30.9746 2.70412 27.9391C3.75549 24.9066 5.12039 22.0505 6.79883 19.3706C6.99538 19.0493 7.26992 18.7778 7.62245 18.5563C7.97499 18.338 8.36652 18.2288 8.79705 18.2288C9.46468 18.2288 10.0216 18.4518 10.4677 18.898C10.9138 19.3472 11.1369 19.9041 11.1369 20.5686C11.1369 20.787 11.1026 21.0054 11.0339 21.2237C10.9622 21.439 10.8733 21.6371 10.7672 21.8181C9.2073 24.2952 7.98434 26.8799 7.09833 29.5723C6.20919 32.2615 5.56964 35.0397 5.17967 37.9068C5.14223 38.4777 4.88953 38.9768 4.42156 39.4043C3.95359 39.8317 3.41387 40.0469 2.8024 40.05ZM70.4657 16.1323C70.1506 16.1323 69.8464 16.0652 69.5532 15.931C69.263 15.7969 69.0197 15.6347 68.8231 15.4444C66.7953 13.4165 64.6114 11.6616 62.2716 10.1797C59.9318 8.69784 57.3969 7.48893 54.6671 6.553C54.1524 6.36269 53.7468 6.08035 53.4504 5.70598C53.1572 5.3316 53.0105 4.88236 53.0105 4.35823C53.0105 3.69684 53.2352 3.14152 53.6844 2.69227C54.1337 2.24302 54.689 2.0184 55.3504 2.0184C55.4128 2.0184 55.6889 2.06676 56.1787 2.16347C59.1737 3.27411 62.0158 4.64993 64.705 6.29093C67.3943 7.93194 69.8714 9.88024 72.1363 12.1358C72.3235 12.3324 72.4842 12.5773 72.6183 12.8705C72.7525 13.1638 72.8196 13.4695 72.8196 13.7878C72.8196 14.4554 72.5934 15.0123 72.141 15.4584C71.6886 15.9045 71.1302 16.1292 70.4657 16.1323ZM21.0484 10.643C20.3933 10.643 19.8426 10.4168 19.3965 9.96447C18.9472 9.51522 18.7226 8.95678 18.7226 8.28915C18.7226 7.85862 18.8318 7.46865 19.0502 7.11924C19.2748 6.76982 19.5462 6.4984 19.8645 6.30498C22.5911 4.61094 25.4629 3.24135 28.4797 2.19623C31.4997 1.1511 34.5882 0.419515 37.7455 0.00146484H38.1666C38.8405 0.00146484 39.4052 0.222969 39.8607 0.665977C40.3193 1.10587 40.5486 1.65183 40.5486 2.30386C40.5486 2.91846 40.3333 3.45974 39.9028 3.9277C39.4723 4.39567 38.9731 4.64681 38.4053 4.68113C35.5351 5.0711 32.7554 5.69506 30.0661 6.553C27.3769 7.41094 24.8233 8.61985 22.4055 10.1797C22.1934 10.3544 21.9719 10.4746 21.741 10.5401C21.5101 10.6087 21.2793 10.643 21.0484 10.643Z" fill="#EFE5FF"/>
</svg>
