<svg width="85" height="84" viewBox="0 0 85 84" fill="none" xmlns="http://www.w3.org/2000/svg">
<g id="mingcute:user-add-line" clip-path="url(#clip0_1454_6)">
<g id="Group">
<path id="Vector" d="M42.5 22.1667H42.5018C44.9134 22.1696 47.0134 23.0495 48.7205 24.7644C50.427 26.4787 51.2996 28.5839 51.3 30.9982C51.3 30.9988 51.3 30.9994 51.3 31H49.8C49.8024 33.0191 49.0882 34.7461 47.6574 36.181C46.2267 37.6159 44.5075 38.3333 42.5 38.3333V22.1667ZM42.5 22.1667C40.0888 22.1667 37.9892 23.0477 36.2822 24.7653C34.5769 26.4813 33.7029 28.5857 33.7 30.9982V31C33.7 33.4158 34.5743 35.5226 36.2831 37.2392C37.9918 38.9557 40.0909 39.8358 42.5 39.8333V22.1667ZM26.4 53V54.5H27.9H57.1H58.6V53V50.9833C58.6 47.6277 56.9136 44.9928 53.861 43.1474C50.8749 41.3421 47.0498 40.5025 42.5008 40.5H42.5C37.9506 40.5 34.1247 41.3395 31.1381 43.1479C28.0867 44.9954 26.4 47.6298 26.4 50.9833V53ZM55.6 67.6667V73.5H29.4V67.6667V66.1667H27.9H13.3C11.6953 66.1667 10.3588 65.6109 9.20927 64.4561L8.15811 65.5025L9.20927 64.4561C8.05963 63.3012 7.50215 61.9539 7.5 60.3324V16.3333C7.5 14.7159 8.05644 13.3704 9.20837 12.2151C10.3613 11.0589 11.699 10.5021 13.301 10.5H71.7C73.3039 10.5 74.6418 11.0564 75.7944 12.2142C76.9471 13.3722 77.5019 14.7176 77.5 16.3315V16.3333V60.3333C77.5 61.9517 76.9441 63.2992 75.7935 64.457C74.6445 65.6132 73.308 66.1686 71.7018 66.1667H71.7H57.1H55.6V67.6667Z" stroke="#EFE5FF" stroke-width="3"/>
</g>
</g>
<defs>
<clipPath id="clip0_1454_6">
<rect width="84" height="84" fill="white" transform="translate(0.5)"/>
</clipPath>
</defs>
</svg>
