<svg width="89" height="88" viewBox="0 0 89 88" fill="none" xmlns="http://www.w3.org/2000/svg">
<g id="Group">
<path id="Vector" d="M65.4997 31.4114C74.6346 31.4618 79.5822 31.8692 82.8078 35.0948C86.4996 38.7865 86.4996 44.7253 86.4996 56.6028V60.8028C86.4996 72.6846 86.4996 78.6233 82.8078 82.3151C79.1202 86.0027 73.1772 86.0027 61.2997 86.0027H27.6999C15.8223 86.0027 9.87936 86.0027 6.19178 82.3151C2.5 78.6191 2.5 72.6846 2.5 60.8028V56.6028C2.5 44.7253 2.5 38.7865 6.19178 35.0948C9.41736 31.8692 14.3649 31.4618 23.4999 31.4114" stroke="#5C27C0" stroke-width="4" stroke-linecap="round"/>
<path id="Vector_2" d="M44.4984 56.5997V2M44.4984 2L57.0983 16.6999M44.4984 2L31.8984 16.6999" stroke="#5C27C0" stroke-width="4" stroke-linecap="round" stroke-linejoin="round"/>
</g>
</svg>
