<svg width="87" height="88" viewBox="0 0 87 88" fill="none" xmlns="http://www.w3.org/2000/svg">
<path id="Vector" d="M17.0908 2C16.5385 2 16.0908 2.44772 16.0908 3V10.2286C16.0908 10.7809 15.6431 11.2286 15.0908 11.2286H2.5C1.94771 11.2286 1.5 11.6764 1.5 12.2286V20.264C1.5 35.3874 5.50278 43.8188 15.1224 49.0613C18.6986 51.2198 21.9994 53.9095 24.9356 57.0578C27.2956 59.8838 30.1739 62.101 33.3716 63.5565L36.335 64.5801C36.7381 64.7194 37.0085 65.0989 37.0085 65.5253V74.7567C37.0085 75.309 36.5608 75.7567 36.0085 75.7567H31.4563C24.742 75.7567 22.4823 77.472 22.4823 82.5695V85C22.4823 85.5523 22.93 86 23.4823 86H63.447C63.9992 86 64.447 85.5523 64.447 85V82.9318C64.447 77.931 61.6924 75.6842 55.3223 75.6842H50.9207C50.3685 75.6842 49.9207 75.2365 49.9207 74.6842V65.5338C49.9207 65.1033 50.1964 64.721 50.6049 64.585L53.6222 63.5807C56.8246 62.1236 59.704 59.8972 62.0582 57.0578C65.1214 53.7803 68.5502 50.9625 72.2588 48.6747C75.1385 47.119 77.7102 44.9294 79.8211 42.236C81.9321 39.5425 83.5392 36.4002 84.5469 32.9957C85.232 28.7804 85.5492 24.5001 85.4938 20.2157V12.2528C85.4938 11.7005 85.0461 11.2528 84.4938 11.2528H71.8385C71.2862 11.2528 70.8385 10.8051 70.8385 10.2528V3C70.8385 2.44771 70.3908 2 69.8385 2H17.0908ZM42.5484 19.5315C42.8939 18.7236 44.0387 18.7221 44.3863 19.5291L47.616 27.028C47.774 27.3948 48.135 27.6324 48.5344 27.6324H56.1516C57.0341 27.6324 57.4839 28.6923 56.8709 29.3271L50.5501 35.8728C50.3182 36.1129 50.2215 36.453 50.2922 36.7793L52.0769 45.0097C52.2626 45.8664 51.3345 46.5305 50.5835 46.0782L43.9841 42.1024C43.6648 41.9101 43.2651 41.9112 42.947 42.1054L36.3547 46.1294C35.604 46.5876 34.67 45.9234 34.8564 45.0639L36.6369 36.8526C36.7077 36.5258 36.6106 36.1853 36.3781 35.9451L30.042 29.4005C29.4277 28.766 29.8773 27.7049 30.7604 27.7049H38.393C38.7933 27.7049 39.1551 27.4662 39.3125 27.0981L42.5484 19.5315ZM9.26626 21.5527C9.20995 20.9654 9.6717 20.4573 10.2617 20.4573H14.9617C15.5139 20.4573 15.9617 20.905 15.9617 21.4573V38.9653C15.9617 39.2963 15.7542 39.6056 15.4606 39.4527C14.4928 38.9485 12.7519 36.4983 11.4209 33.7688C10.5045 31.2348 9.91748 28.5662 9.67772 25.8447L9.26626 21.5527ZM70.9643 21.454C70.9661 20.903 71.4133 20.4573 71.9643 20.4573H77.2463C77.8448 20.4573 78.3093 20.9795 78.2395 21.5739L77.7465 25.7722C77.5998 30.1966 76.0152 34.4076 73.2918 37.61C73.0031 38.0517 72.6793 38.4614 72.3252 38.8343C71.7764 39.4122 70.9066 38.9633 70.9092 38.1665L70.9643 21.454Z" stroke="#5C27C0" stroke-width="3" stroke-linecap="round" stroke-linejoin="round"/>
</svg>
