<svg width="30" height="30" viewBox="0 0 30 30" fill="none" xmlns="http://www.w3.org/2000/svg">
<g id="Icon">
<path id="Vector" d="M26.5937 2.38171C22.6389 5.80452 19.2929 9.0628 16.2296 13.3139C14.8787 15.1889 13.3764 17.3958 12.3943 19.4794C11.8337 20.5842 10.8231 22.3106 10.4785 23.9705C8.59417 22.2173 6.5701 20.2275 4.49917 18.6689C3.02307 17.5584 -1.22849 19.8225 0.502136 21.1247C3.60385 23.4576 6.18339 26.3634 9.20026 28.8005C10.4621 29.8186 13.2587 27.6075 13.9159 26.6798C16.0731 23.6236 16.3679 19.8876 17.9401 16.5539C20.3406 11.4553 24.5978 7.26702 28.801 3.62999C31.5859 1.03265 28.7096 0.553582 26.5979 2.38171" fill="#37B34A"/>
</g>
</svg>
