<svg width="51" height="50" viewBox="0 0 51 50" fill="none" xmlns="http://www.w3.org/2000/svg">
<g id="fluent:people-community-28-regular">
<path id="Vector" d="M15.8444 6.24986C14.7788 6.24986 13.7569 6.67317 13.0034 7.42666C12.2499 8.18016 11.8266 9.20212 11.8266 10.2677C11.8266 11.3333 12.2499 12.3553 13.0034 13.1088C13.7569 13.8623 14.7788 14.2856 15.8444 14.2856C16.91 14.2856 17.932 13.8623 18.6855 13.1088C19.439 12.3553 19.8623 11.3333 19.8623 10.2677C19.8623 9.20212 19.439 8.18016 18.6855 7.42666C17.932 6.67317 16.91 6.24986 15.8444 6.24986ZM9.14802 10.2677C9.14802 8.49171 9.85353 6.78845 11.1094 5.53263C12.3652 4.2768 14.0684 3.57129 15.8444 3.57129C17.6205 3.57129 19.3237 4.2768 20.5795 5.53263C21.8354 6.78845 22.5409 8.49171 22.5409 10.2677C22.5409 12.0437 21.8354 13.747 20.5795 15.0028C19.3237 16.2586 17.6205 16.9641 15.8444 16.9641C14.0684 16.9641 12.3652 16.2586 11.1094 15.0028C9.85353 13.747 9.14802 12.0437 9.14802 10.2677ZM4.2373 23.182C4.2373 21.2266 5.82123 19.6427 7.77659 19.6427H17.7766C17.4379 20.4979 17.2413 21.4027 17.1944 22.3213H7.77659C7.54831 22.3213 7.32939 22.412 7.16797 22.5734C7.00656 22.7348 6.91588 22.9537 6.91588 23.182V23.8838C6.91588 24.1909 6.91945 26.0499 7.9998 27.807C8.92838 29.3141 10.7748 30.9481 14.7016 31.2124C13.7935 31.8023 13.0861 32.6542 12.673 33.6552C9.09266 32.9927 6.94623 31.2052 5.71945 29.2088C4.2373 26.8034 4.2373 24.3177 4.2373 23.8891V23.182ZM33.5534 19.6427C33.8855 20.4784 34.0891 21.3802 34.1355 22.3213H43.5552C44.0302 22.3213 44.4159 22.707 44.4159 23.182V23.8838C44.4159 24.1909 44.4123 26.0499 43.3302 27.807C42.4034 29.3141 40.5587 30.9481 36.6302 31.2124C37.5319 31.7981 38.2444 32.6499 38.6587 33.6552C42.2391 32.9927 44.3855 31.2052 45.6123 29.2088C47.0944 26.8016 47.0944 24.3159 47.0944 23.8874V23.182C47.0944 22.2433 46.7216 21.3431 46.0578 20.6793C45.3941 20.0156 44.4938 19.6427 43.5552 19.6427H33.5534ZM35.4873 6.24986C34.4217 6.24986 33.3997 6.67317 32.6462 7.42666C31.8928 8.18016 31.4694 9.20212 31.4694 10.2677C31.4694 11.3333 31.8928 12.3553 32.6462 13.1088C33.3997 13.8623 34.4217 14.2856 35.4873 14.2856C36.5529 14.2856 37.5749 13.8623 38.3284 13.1088C39.0819 12.3553 39.5052 11.3333 39.5052 10.2677C39.5052 9.20212 39.0819 8.18016 38.3284 7.42666C37.5749 6.67317 36.5529 6.24986 35.4873 6.24986ZM28.7909 10.2677C28.7909 8.49171 29.4964 6.78845 30.7522 5.53263C32.008 4.2768 33.7113 3.57129 35.4873 3.57129C37.2633 3.57129 38.9666 4.2768 40.2224 5.53263C41.4782 6.78845 42.1837 8.49171 42.1837 10.2677C42.1837 12.0437 41.4782 13.747 40.2224 15.0028C38.9666 16.2586 37.2633 16.9641 35.4873 16.9641C33.7113 16.9641 32.008 16.2586 30.7522 15.0028C29.4964 13.747 28.7909 12.0437 28.7909 10.2677ZM14.0587 35.682C14.0587 33.7266 15.6427 32.1427 17.598 32.1427H33.7337C35.6891 32.1427 37.273 33.7266 37.273 35.682V36.3874C37.273 36.8159 37.273 39.3016 35.7909 41.7088C34.2373 44.2374 31.2123 46.4284 25.6659 46.4284C20.1194 46.4284 17.0944 44.2356 15.5409 41.7106C14.0587 39.3016 14.0587 36.8177 14.0587 36.3874V35.682ZM17.598 34.8213C17.3697 34.8213 17.1508 34.912 16.9894 35.0734C16.828 35.2348 16.7373 35.4537 16.7373 35.682V36.3838C16.7373 36.6909 16.7409 38.5499 17.8212 40.307C18.8355 41.9534 20.9444 43.7499 25.6659 43.7499C30.3873 43.7499 32.4962 41.9534 33.5087 40.307C34.5909 38.5516 34.5944 36.6909 34.5944 36.3838V35.682C34.5944 35.4537 34.5038 35.2348 34.3423 35.0734C34.1809 34.912 33.962 34.8213 33.7337 34.8213H17.598ZM21.648 22.7677C21.648 22.2401 21.7519 21.7176 21.9539 21.2301C22.1558 20.7427 22.4517 20.2998 22.8248 19.9267C23.1979 19.5536 23.6408 19.2576 24.1283 19.0557C24.6158 18.8538 25.1382 18.7499 25.6659 18.7499C26.1935 18.7499 26.716 18.8538 27.2034 19.0557C27.6909 19.2576 28.1338 19.5536 28.5069 19.9267C28.88 20.2998 29.176 20.7427 29.3779 21.2301C29.5798 21.7176 29.6837 22.2401 29.6837 22.7677C29.6837 23.8333 29.2604 24.8553 28.5069 25.6088C27.7534 26.3623 26.7315 26.7856 25.6659 26.7856C24.6003 26.7856 23.5783 26.3623 22.8248 25.6088C22.0713 24.8553 21.648 23.8333 21.648 22.7677ZM25.6659 16.0713C23.8899 16.0713 22.1866 16.7768 20.9308 18.0326C19.675 19.2885 18.9694 20.9917 18.9694 22.7677C18.9694 24.5437 19.675 26.247 20.9308 27.5028C22.1866 28.7586 23.8899 29.4641 25.6659 29.4641C27.4419 29.4641 29.1451 28.7586 30.401 27.5028C31.6568 26.247 32.3623 24.5437 32.3623 22.7677C32.3623 20.9917 31.6568 19.2885 30.401 18.0326C29.1451 16.7768 27.4419 16.0713 25.6659 16.0713Z" fill="white"/>
</g>
</svg>
