<svg width="50" height="50" viewBox="0 0 50 50" fill="none" xmlns="http://www.w3.org/2000/svg">
<g id="eos-icons:ai">
<path id="Vector" d="M43.75 22.9167V18.75H39.5833V14.5833C39.58 13.4793 39.14 12.4214 38.3593 11.6407C37.5786 10.86 36.5207 10.42 35.4167 10.4167H31.25V6.25H27.0833V10.4167H22.9167V6.25H18.75V10.4167H14.5833C13.4793 10.42 12.4214 10.86 11.6407 11.6407C10.86 12.4214 10.42 13.4793 10.4167 14.5833V18.75H6.25V22.9167H10.4167V27.0833H6.25V31.25H10.4167V35.4167C10.42 36.5207 10.86 37.5786 11.6407 38.3593C12.4214 39.14 13.4793 39.58 14.5833 39.5833H18.75V43.75H22.9167V39.5833H27.0833V43.75H31.25V39.5833H35.4167C36.5207 39.58 37.5786 39.14 38.3593 38.3593C39.14 37.5786 39.58 36.5207 39.5833 35.4167V31.25H43.75V27.0833H39.5833V22.9167H43.75ZM35.4167 35.4167H14.5833V14.5833H35.4167V35.4167Z" fill="white"/>
<path id="Vector_2" d="M23.6693 16.667H20.8672L16.6797 33.3337H18.8193L19.7859 29.4274H24.6109L25.5526 33.3337H27.7651L23.6693 16.667ZM20.0672 27.7587L22.188 18.6462H22.2839L24.3318 27.7587H20.0672ZM29.6755 16.667H31.7589V33.3337H29.6755V16.667Z" fill="white"/>
</g>
</svg>
