<svg width="296" height="287" viewBox="0 0 296 287" fill="none" xmlns="http://www.w3.org/2000/svg">
<path d="M86.1347 176.241C85.923 176.241 85.7114 176.241 85.4997 176.241C85.3586 175.464 85.147 174.688 85.0059 173.983C86.3464 173.912 87.4752 173.842 88.4629 173.701C88.3924 174.477 88.3218 175.323 88.2513 176.099C87.5458 176.17 86.8402 176.17 86.1347 176.241ZM93.7544 99.0559C98.4814 100.044 102.856 102.372 106.383 105.617C106.454 104.912 106.666 104.347 106.666 103.642C105.466 102.442 104.196 101.384 102.856 100.326C99.6808 97.9271 96.1532 96.0927 92.4139 94.8228C91.7789 94.6111 91.0734 94.3995 90.4384 94.1878C89.5918 95.8811 88.6746 97.5038 87.828 99.1971C89.6623 98.421 91.7789 98.6326 93.7544 99.0559ZM139.755 150.066C139.755 149.995 139.755 149.995 139.755 150.066C139.755 149.713 139.755 149.431 139.825 149.148C139.966 146.679 140.037 144.28 140.107 141.811C140.107 141.67 140.107 141.458 140.107 141.317C138.767 141.105 137.356 140.894 136.015 140.682L135.451 150.136C138.061 150.066 139.755 150.066 139.755 150.066ZM205.863 97.9271C202.899 98.9148 200.007 100.326 197.396 102.019C195.28 103.36 193.304 104.982 191.54 106.746C191.54 107.17 191.611 107.593 191.752 108.016C195.844 104.982 200.853 102.16 204.522 101.384C206.286 101.031 208.191 100.82 209.955 101.314C209.249 99.9731 208.544 98.6326 207.838 97.3627C207.133 97.5038 206.498 97.7154 205.863 97.9271ZM104.126 12.77V12.3467V9.2424C104.126 4.16261 108.288 0 113.368 0H144.764C148.503 0 151.678 2.18714 153.16 5.36201C153.23 5.50311 153.301 5.57366 153.301 5.71477C153.724 6.77306 154.006 7.97246 154.006 9.2424V11.2179H181.945C182.086 11.2179 182.227 11.2179 182.369 11.2179C183.991 11.2884 185.543 11.8529 186.813 12.77C189.001 14.3222 190.412 16.8621 190.412 19.6842V38.169C190.412 42.1199 187.731 45.4359 184.062 46.3531V55.5955L176.089 46.6353H153.371C148.927 46.6353 145.258 43.1077 144.905 38.7334H144.835H120L111.11 48.5402V38.3807C107.159 37.3224 104.126 33.7242 104.126 29.4205V23.0707V22.2946V12.77Z" fill="#F5F5F5"/>
<path d="M195.208 223.087L196.549 235.716L196.619 236.139L199.583 263.867L194.714 274.943L197.889 275.72L205.015 271.486L205.791 265.56L205.015 264.361L207.414 241.572L220.396 261.397L221.101 273.462L224.276 272.756L228.721 265.772L226.745 260.127L225.475 259.422L212.847 227.038L212.705 226.615L210.095 219.771L207.978 217.725L207.485 216.173H190.834L195.208 223.087ZM146.809 142.587C148.714 143.786 149.279 145.762 150.619 147.596C150.901 147.949 151.113 148.301 151.254 148.654C151.395 148.654 151.536 148.584 151.607 148.584L182.086 150.912L183.779 147.314C184.273 144.068 184.767 140.823 185.19 137.719C185.613 134.191 184.696 131.369 183.708 128.829L176.371 142.022L151.748 142.304C150.549 141.669 149.279 141.105 148.009 140.752C147.374 140.611 146.739 140.47 146.104 140.611C145.821 140.682 145.328 140.823 144.904 141.035C145.469 141.458 146.95 142.022 146.809 142.587ZM193.233 96.8685H195.702C196.196 96.8685 196.619 96.798 197.043 96.798L197.395 102.019C200.006 100.326 202.828 98.9146 205.862 97.9268L205.297 89.2489H205.227C205.368 88.6139 205.438 87.9084 205.438 87.2028L203.604 85.7918C200.288 85.0862 197.184 83.8163 194.291 81.8408C190.975 79.5831 188.012 76.6905 186.248 73.2334L187.518 87.2028L187.8 89.9544C187.8 91.0832 188.083 92.1415 188.506 93.1292C189.494 95.3164 191.54 96.8685 193.233 96.8685ZM219.267 126.995L215.88 116.764L215.669 116.059L205.862 119.304L211.506 133.838L215.669 144.562L213.481 159.66L211.929 170.314C210.942 172.219 210.307 174.335 210.095 176.452C209.319 178.71 209.813 181.532 210.871 183.648C211.012 184.001 211.577 183.789 211.506 183.507C211.294 182.096 211.083 180.685 211.153 179.345V179.274C211.224 179.345 211.294 179.345 211.365 179.415C211.224 181.25 211.718 183.296 212.494 184.848C212.635 185.2 213.199 184.989 213.129 184.707C212.917 183.296 212.705 181.885 212.776 180.544C212.776 180.403 212.776 180.191 212.847 180.05C212.847 181.673 213.34 183.366 213.975 184.707C214.116 185.059 214.681 184.848 214.61 184.565C214.399 183.154 214.187 181.743 214.258 180.403C214.258 180.332 214.258 180.262 214.258 180.191C214.328 180.191 214.399 180.191 214.469 180.191C214.54 181.673 214.963 183.154 215.598 184.354C215.669 184.566 215.88 184.566 216.021 184.495C216.162 184.424 216.233 184.354 216.233 184.213C216.162 183.931 216.163 183.648 216.092 183.366C215.951 182.237 215.81 181.108 215.88 180.05C215.951 179.909 216.021 179.768 216.092 179.627C217.503 177.228 218.35 174.9 217.08 172.289L224.911 144.28L222.089 135.743L221.524 134.12L219.267 126.995Z" fill="#FFD3C1"/>
<path d="M88.1099 180.968C87.1222 179.415 86.2756 177.863 86.1344 176.241C86.84 176.17 87.5455 176.17 88.251 176.099C88.1805 177.652 88.1099 179.274 88.1099 180.968ZM75.481 267.677L71.8828 266.971L72.5178 262.809L80.7019 264.925L80.208 266.407L77.9503 267.395C77.1743 267.747 76.3276 267.818 75.481 267.677ZM97.3523 269.158L97.7756 273.462L101.444 273.25C102.291 273.18 103.138 272.898 103.773 272.333L105.748 270.781L105.889 269.158H97.3523ZM103.349 94.5406H104.972C108.852 94.5406 111.957 91.4363 111.957 87.5559V75.1386V69.7061H101.585L100.951 73.3748L99.0456 74.3625L97.4934 82.0528H96.1529V81.1356C96.1529 79.8656 95.0946 78.8073 93.8247 78.8073C92.5547 78.8073 91.4965 79.8656 91.4965 81.1356V82.7583C91.4965 83.6755 91.9903 84.4516 92.7664 84.8749C92.7664 85.651 92.837 86.427 93.0486 87.1326L92.9781 87.9086L92.4136 94.8228C96.1529 96.0928 99.6806 97.9977 102.855 100.326L103.349 94.5406ZM141.871 150.489C142.012 150.63 142.153 150.771 142.365 150.912C142.647 151.194 143 151.406 143.494 151.477C145.399 151.688 147.374 151.688 149.279 151.477C149.985 151.406 150.761 151.265 151.184 150.701C151.537 150.277 151.607 149.642 151.466 149.078C151.396 148.937 151.396 148.796 151.325 148.654C151.184 148.231 150.902 147.878 150.69 147.596C149.35 145.762 148.856 143.786 146.88 142.587C147.021 142.023 145.61 141.388 144.975 141.176H144.905C144.34 140.894 143.635 140.964 143 141.035C142.012 141.176 141.095 141.388 140.178 141.74C140.037 144.21 139.966 146.679 139.896 149.078C140.531 149.431 141.236 149.924 141.871 150.489Z" fill="#FFC6B5"/>
<path d="M186.249 73.1628L187.519 87.1323C186.531 85.7212 185.191 84.5924 184.062 83.2519C180.958 79.6537 179.476 74.6444 180.252 69.9174C180.817 66.6014 182.439 63.4266 184.697 60.8867C184.768 60.8161 184.768 60.8161 184.838 60.7456C184.979 60.5339 185.191 60.3928 185.332 60.2517C188.295 57.6413 192.74 57.7824 196.55 58.1351C202.617 58.6995 208.473 61.2394 212.918 65.3315C218.068 70.0585 221.314 76.8316 221.737 83.8163C222.019 87.6261 221.526 91.5771 222.725 95.1047C223.713 97.8563 225.688 100.185 226.958 102.866C230.062 109.215 228.863 117.258 224.348 122.691C223.783 123.326 223.219 123.961 222.584 124.525C222.372 124.737 222.161 124.949 221.878 125.16C221.032 125.866 220.185 126.43 219.268 126.995L215.881 116.764C216.234 113.801 216.305 110.909 215.529 108.228C214.682 105.405 213.13 102.654 210.449 101.525C210.237 101.454 210.096 101.384 209.884 101.313C209.179 99.9729 208.473 98.6324 207.768 97.3624C207.133 97.5741 206.498 97.7857 205.863 97.9974L205.298 89.3194H205.228C205.369 88.6844 205.44 87.9789 205.44 87.2734L203.605 85.8623C200.289 85.1568 197.185 83.8868 194.292 81.9114C190.976 79.5831 187.942 76.6199 186.249 73.1628ZM191.682 108.016C191.611 107.593 191.47 107.24 191.47 106.746C193.234 104.982 195.209 103.359 197.326 102.019L196.973 96.798C196.55 96.8685 196.056 96.8685 195.633 96.8685H193.163C191.541 96.8685 189.424 95.3164 188.366 93.0587C188.013 94.3992 187.378 95.7397 186.884 97.0802C185.12 102.019 184.979 107.451 186.39 112.461C187.801 111.12 189.636 109.568 191.682 108.016Z" fill="#E88C21"/>
<path d="M92.7666 84.8748C91.9905 84.4515 91.4967 83.6754 91.4967 82.7582V81.1355C91.4967 79.8655 92.555 78.8072 93.8249 78.8072C95.0949 78.8072 96.1532 79.8655 96.1532 81.1355V82.0527H97.4937L99.0458 74.3624L100.951 73.3747L101.586 69.7059H111.957V75.1385C114.215 73.7274 115.908 71.3992 116.472 68.7182C117.178 65.12 115.485 61.3102 112.521 59.123C112.098 59.8991 111.251 60.3224 110.334 60.393C109.488 60.4635 108.57 60.3224 107.724 60.1813C107.583 60.1813 107.371 60.1108 107.23 60.1108C106.877 60.0402 106.524 59.9697 106.172 59.8991C103.138 59.4053 99.963 59.2642 97.0703 60.3224C93.6838 61.5218 91.6378 64.6262 91.8495 68.2243C90.5089 68.7888 89.5918 70.1293 89.239 71.5403C89.0979 72.2458 89.0273 73.0219 89.0273 73.798C89.0273 74.1508 89.0979 74.433 89.0979 74.7857C89.1684 75.1385 89.1684 75.5618 89.239 75.9146C89.874 80.0772 91.1439 84.0987 92.9783 87.838L93.0488 87.0619C92.9077 86.3564 92.7666 85.6508 92.7666 84.8748Z" fill="#4A4A4A"/>
<path d="M94.3893 281.717C94.3893 281.788 94.3893 281.929 94.3893 281.999C94.3187 281.999 94.2482 281.999 94.1071 281.999L67.2971 275.156C66.7326 275.014 66.4504 274.45 66.6621 273.956C67.932 270.64 71.0363 266.83 71.0363 266.83L71.8124 266.971L75.4106 267.677C76.2572 267.818 77.1039 267.748 77.88 267.395L80.1376 266.407L80.7726 266.125L82.3248 269.935C83.1714 271.91 85.4291 273.251 87.4751 274.168L91.3555 276.002C93.0488 276.778 94.2482 278.26 94.6009 280.024L94.6715 280.165C94.5304 280.729 94.4598 281.223 94.3893 281.717ZM81.5487 265.067C84.9352 254.836 88.2512 244.959 92.5549 235.293C92.6255 235.152 92.696 235.011 92.7666 234.87C93.966 232.189 95.2359 229.437 96.5764 226.827C96.647 226.615 96.7881 226.404 96.8586 226.192C96.9292 226.121 96.9292 226.051 96.9997 225.91C97.6347 224.71 98.1991 223.511 98.8341 222.241C101.021 204.956 89.9445 186.189 89.9445 168.057C89.0978 167.704 88.2512 167.281 87.4046 166.857C89.8034 158.461 90.0856 149.431 88.2512 140.894C86.9812 135.038 84.7941 129.394 83.2419 123.608C82.607 121.069 82.0426 118.458 81.8309 115.848C80.2082 126.572 78.2327 138.283 77.9505 148.161C77.7388 156.133 81.6192 163.965 84.1591 171.725C84.3708 172.36 84.5825 173.066 84.7941 173.701C84.7941 173.771 84.8647 173.842 84.8647 173.842H84.9352C86.2757 173.771 87.4046 173.701 88.3923 173.56C88.3217 174.336 88.2512 175.182 88.1806 175.959C88.1101 177.581 88.0395 179.204 88.0395 180.827C87.8279 196.278 90.5089 212.505 82.1837 224.64C81.4781 225.628 80.8432 226.686 80.2082 227.744C80.1376 227.885 80.0671 228.026 79.9965 228.097C74.1407 238.257 71.248 250.744 71.6008 262.386L72.5885 262.597L80.7726 264.714L81.5487 265.067Z" fill="#333D92"/>
<path d="M224.206 272.897L221.031 273.603L220.608 279.106L219.127 281.999H219.973L225.194 279.318L229.286 268.594L233.449 275.085L234.507 274.591L230.486 263.443C230.203 262.597 229.639 261.891 228.863 261.468L226.676 260.198L228.651 265.842L224.206 272.897ZM207.697 270.287C207.838 269.44 207.697 268.523 207.133 267.747L205.792 265.63L205.016 271.557L197.89 275.79L194.715 275.014L191.823 279.741L188.577 282.069H195.774L204.31 274.308L205.016 281.999H206.145L207.697 270.287ZM216.022 183.154C216.093 181.884 216.093 180.685 216.022 179.415C215.952 179.556 215.881 179.697 215.811 179.838C215.74 180.897 215.881 182.026 216.022 183.154ZM185.191 137.789C184.767 140.964 184.344 144.139 183.78 147.384C182.58 154.792 181.028 162.412 178.841 170.243C179.335 170.455 179.899 170.667 180.393 170.808L183.074 192.679L183.145 193.455L185.967 216.173H190.694H207.344H209.672L214.117 197.688C215.176 193.243 215.811 188.799 216.022 184.213C215.881 184.283 215.669 184.283 215.599 184.072C214.964 182.872 214.541 181.391 214.47 179.909C214.399 179.909 214.329 179.909 214.258 179.909C214.258 179.98 214.258 180.05 214.258 180.121C214.188 181.532 214.399 182.943 214.611 184.283C214.682 184.565 214.117 184.777 213.976 184.424C213.271 183.084 212.847 181.391 212.847 179.768C212.847 179.909 212.777 180.121 212.777 180.262C212.706 181.673 212.918 183.084 213.13 184.424C213.2 184.707 212.636 184.918 212.495 184.565C211.718 183.013 211.225 180.967 211.366 179.133C211.295 179.062 211.225 179.062 211.154 178.992V179.062C211.084 180.473 211.295 181.884 211.507 183.225C211.577 183.507 211.013 183.719 210.872 183.366C209.814 181.32 209.32 178.427 210.096 176.17C210.307 174.053 210.942 171.937 211.93 170.032L213.482 159.378C211.084 150.841 208.261 145.832 209.32 141.246C210.025 138.212 210.801 135.884 211.507 133.556L205.863 119.022L215.669 115.777L215.881 116.482C216.234 113.519 216.304 110.626 215.528 107.945C214.682 105.123 213.13 102.372 210.449 101.243C210.237 101.172 210.096 101.102 209.884 101.031C208.12 100.537 206.286 100.678 204.452 101.102C200.853 101.878 195.774 104.7 191.682 107.734C189.565 109.286 187.731 110.838 186.461 112.249C179.688 119.516 181.804 123.679 183.709 128.617C184.767 131.439 185.685 134.261 185.191 137.789ZM123.528 281.858L122.963 280.658C122.117 279.035 120.635 277.836 118.801 277.483L114.638 276.637C112.451 276.213 109.911 275.508 108.641 273.744L106.172 270.357L105.678 270.781L103.702 272.333C103.067 272.897 102.221 273.18 101.374 273.25L97.7054 273.462L96.8588 273.532C96.8588 273.532 95.236 276.989 94.6011 280.305C94.5305 280.799 94.3894 281.293 94.3894 281.787C94.3894 281.858 94.3894 281.999 94.3894 282.069H123.528C123.598 281.999 123.598 281.928 123.528 281.858ZM88.2513 140.964C90.0857 149.501 89.8035 158.532 87.4047 166.927C88.2513 167.351 89.098 167.774 89.9446 168.127C89.874 186.259 101.021 205.026 98.8342 222.311C98.552 224.569 98.0582 226.756 97.2821 228.873C96.4354 231.201 95.8005 233.6 95.236 236.069C95.236 236.21 95.1655 236.351 95.1655 236.492C92.9784 247.146 93.5428 258.787 96.4354 269.088H97.4232H105.889H106.736C107.371 259.845 108.006 250.814 109.205 241.854C109.205 241.713 109.276 241.572 109.276 241.431C109.699 238.468 110.123 235.434 110.687 232.471C110.758 232.259 110.758 231.977 110.828 231.765C111.181 229.931 111.534 228.096 111.957 226.262C114.074 216.949 115.344 207.213 116.12 197.477C116.12 197.194 116.19 196.983 116.19 196.771C116.966 187.388 117.319 177.934 117.531 168.691C118.166 168.479 118.801 168.197 119.436 167.915C119.506 162.059 119.506 156.203 119.224 150.277C125.15 150.418 131.288 150.347 135.522 150.418V149.995L136.086 140.541L136.157 139.694C130.371 138.565 124.022 137.084 118.025 135.955C116.684 125.795 114.991 114.789 108.147 107.24C107.583 106.675 107.089 106.111 106.454 105.546C102.926 102.301 98.4815 99.9728 93.825 98.9851C91.8495 98.5618 89.7329 98.3501 87.8986 99.1262C85.2176 100.184 83.5949 103.007 82.8188 105.829C81.831 109.074 81.6899 112.461 81.9721 115.847C82.1838 118.458 82.7482 121.068 83.3832 123.608C84.7943 129.464 86.9814 135.037 88.2513 140.964Z" fill="#444DA1"/>
<path d="M32.7967 170.879C27.223 156.839 24.3303 141.811 24.3303 126.289C24.3303 103.713 30.4684 82.0528 41.9685 63.2153C42.1096 63.2858 42.1802 63.3564 42.3213 63.4269C31.1034 81.7706 24.6831 103.289 24.6831 126.289C24.6831 142.023 27.7169 156.98 33.1494 170.738C33.0083 170.808 32.8672 170.808 32.7967 170.879ZM104.125 12.7701V12.3468C87.6161 18.3438 72.5178 27.8684 59.7478 40.6384C55.2324 45.1538 51.1404 49.9514 47.4716 55.0311C47.6127 55.1017 47.6833 55.1723 47.8244 55.3134C61.8644 35.9819 81.4074 21.0248 104.125 12.7701ZM182.439 11.2179C184.062 11.2885 185.614 11.8529 186.884 12.7701C215.951 23.4235 239.869 44.9421 253.627 72.3871C253.768 72.3166 253.909 72.246 254.05 72.246C248.265 60.6754 240.645 50.0219 231.191 40.6384C210.166 19.6137 182.721 7.26699 153.23 5.43262C153.301 5.57372 153.371 5.64428 153.371 5.78538C163.46 6.3498 173.196 8.25472 182.439 11.2179ZM37.1709 179.698C37.0298 179.768 36.9593 179.839 36.8182 179.909C42.6035 191.621 50.3643 202.416 59.8183 211.94C66.027 218.149 72.8 223.581 79.9964 228.238C80.0669 228.097 80.1375 227.956 80.2081 227.885C61.8644 216.032 46.9072 199.382 37.1709 179.698ZM231.191 211.94C254.05 189.081 266.679 158.602 266.679 126.289C266.679 110.627 263.716 95.3873 258.071 81.2767C257.93 81.3473 257.789 81.4178 257.719 81.4178C263.292 95.3167 266.326 110.415 266.326 126.289C266.326 168.057 245.019 204.956 212.635 226.686L212.777 227.109C219.338 222.664 225.476 217.655 231.191 211.94ZM68.5669 121.21C68.6374 121.21 68.6374 121.21 68.708 121.21C68.9196 121.21 69.1313 121.21 69.2724 121.21C70.4012 103.36 77.7387 87.2032 89.0977 74.7153C89.0977 74.3626 89.0271 74.0804 89.0271 73.7276C77.3154 86.4271 69.7663 103.007 68.5669 121.21ZM140.248 50.0219C140.248 49.8102 140.319 49.528 140.319 49.3164C127.902 50.163 116.26 53.9023 106.171 59.9698C106.524 60.0404 106.877 60.1109 107.23 60.1815C117.107 54.4667 128.325 50.8685 140.248 50.0219ZM167.552 200.158C167.482 199.946 167.411 199.735 167.341 199.452C160.426 201.498 153.089 202.627 145.469 202.627C135.027 202.627 125.08 200.511 116.049 196.701C116.049 196.983 115.978 197.195 115.978 197.406C125.08 201.216 135.027 203.262 145.469 203.262C153.16 203.403 160.568 202.275 167.552 200.158ZM69.2724 131.087C69.0607 131.087 68.9196 131.087 68.708 131.087C68.6374 131.087 68.6374 131.087 68.5669 131.087C69.5546 147.102 75.481 161.848 84.8645 173.771C84.6529 173.136 84.4412 172.431 84.2296 171.796C75.6221 160.296 70.1896 146.256 69.2724 131.087ZM176.583 196.842C178.841 195.854 181.028 194.725 183.215 193.526L183.144 192.75C180.957 194.02 178.7 195.149 176.371 196.137C176.442 196.348 176.512 196.63 176.583 196.842ZM221.878 126.289C221.878 128.829 221.737 131.369 221.525 133.909L222.089 135.532C222.442 132.498 222.654 129.464 222.654 126.289C222.654 125.725 222.654 125.09 222.654 124.526C222.442 124.737 222.231 124.949 221.948 125.161C221.878 125.513 221.878 125.866 221.878 126.289ZM185.261 60.252C174.96 53.9729 163.037 50.0925 150.337 49.3164C150.408 49.528 150.408 49.8102 150.479 50.0219C162.966 50.798 174.608 54.6784 184.767 60.7459C184.908 60.6048 185.12 60.3932 185.261 60.252ZM288.48 281.999H286.786C289.608 278.33 292.642 274.803 295.746 271.416C295.746 269.37 295.535 267.254 295.111 265.208C295.111 265.137 295.041 264.996 295.041 264.925C292.501 267.747 290.384 270.852 289.115 274.379C288.762 275.438 287.068 274.944 287.421 273.886C288.903 269.723 291.513 266.195 294.477 262.95C293.771 260.904 292.783 258.858 291.584 257.023C288.973 262.315 286.716 267.677 284.599 273.109C283.47 276.002 282.412 278.965 281.283 281.929H279.449C280.437 279.177 281.424 276.496 282.483 273.815C284.387 268.806 286.363 263.726 288.691 258.928C289.256 257.8 289.82 256.6 290.384 255.471C290.102 255.119 289.82 254.766 289.538 254.413C288.762 255.895 287.986 257.376 287.21 258.858C284.599 264.008 282.271 269.3 279.943 274.521C278.884 276.919 277.685 279.389 276.556 281.929H274.651C275.851 279.318 277.05 276.778 278.108 274.309C280.719 268.453 283.329 262.597 286.222 256.882C286.857 255.542 287.562 254.272 288.268 252.931C287.845 252.508 287.492 252.155 287.068 251.732C285.799 253.778 284.529 255.824 283.188 257.8C282.553 258.717 281.072 257.87 281.706 256.882C283.118 254.766 284.458 252.649 285.728 250.533C284.881 249.827 284.035 249.192 283.118 248.628C281.777 251.803 280.437 255.048 279.237 258.293C276.415 265.913 273.593 273.815 271.759 281.858H269.995C271.829 273.674 274.722 265.56 277.614 257.8C278.884 254.413 280.225 251.026 281.636 247.71C280.225 246.934 278.743 246.299 277.262 245.735C275.498 250.956 273.946 256.247 273.029 261.75C272.817 262.879 271.124 262.385 271.335 261.257C272.252 255.753 273.875 250.462 275.639 245.241C274.228 244.888 272.817 244.606 271.335 244.465C268.936 256.882 266.326 269.37 266.538 281.858H264.844C264.703 269.3 267.243 256.812 269.642 244.395C269.501 244.395 269.43 244.395 269.289 244.395C267.173 244.395 265.127 244.677 263.151 245.171C262.657 252.085 262.375 258.999 263.01 265.913C263.081 267.042 261.387 267.042 261.246 265.913C260.611 259.14 260.893 252.438 261.317 245.735C259.2 246.441 257.225 247.428 255.39 248.628C256.519 259.846 258.142 270.922 260.541 281.858H258.777C256.449 271.275 254.896 260.551 253.768 249.757C252.85 250.392 252.074 251.168 251.228 251.944C251.792 253.778 252.427 255.612 253.062 257.376C253.415 258.434 251.722 258.858 251.369 257.87C250.804 256.388 250.311 254.907 249.817 253.425C249.534 253.778 249.252 254.131 248.97 254.413C252.357 263.444 255.249 272.686 258.071 281.929H256.237C253.556 273.251 250.875 264.573 247.7 256.106C246.995 257.094 246.43 258.152 245.866 259.211C247.065 261.539 248.335 263.867 249.464 266.195C249.958 267.183 248.406 268.1 247.982 267.112C247.065 265.137 246.007 263.162 245.019 261.257C244.807 261.821 244.596 262.456 244.384 263.02C247.982 269.229 251.228 275.579 254.614 281.929H252.639C249.746 276.425 246.853 270.922 243.82 265.49C243.537 267.042 243.467 268.524 243.467 270.076C244.666 272.545 246.148 274.873 247.347 277.343C248.053 278.824 248.758 280.376 249.393 281.858H219.973H219.126H206.215H205.016H195.773H188.577H123.598H94.4597H48.671C51.8459 277.625 55.3735 273.603 58.9011 269.652C58.9011 267.324 58.6895 264.996 58.1956 262.738C58.1956 262.668 58.1251 262.527 58.1251 262.456C55.303 265.631 52.9042 269.088 51.4931 273.109C51.0698 274.309 49.1649 273.815 49.5882 272.616C51.2815 267.959 54.1741 264.008 57.4901 260.339C56.714 258.011 55.5852 255.824 54.2447 253.707C51.352 259.634 48.8121 265.631 46.4133 271.769C45.1434 275.155 43.8734 278.542 42.6035 281.929H40.4869C41.6157 278.754 42.8151 275.649 44.0145 272.545C46.2017 266.901 48.3182 261.257 50.9992 255.824C51.6342 254.554 52.2692 253.214 52.9042 251.944C52.622 251.52 52.2692 251.168 51.987 250.744C51.0698 252.367 50.2232 254.06 49.3765 255.754C46.4839 261.539 43.8734 267.465 41.263 273.321C40.0636 276.073 38.6525 278.965 37.312 281.929H35.1955C36.536 278.895 37.947 275.932 39.217 273.109C42.1802 266.548 45.0728 259.987 48.3182 253.566C49.0943 252.085 49.8704 250.603 50.6465 249.192C50.2232 248.769 49.7293 248.275 49.306 247.852C47.8949 250.109 46.4839 252.438 44.9317 254.695C44.2262 255.754 42.5329 254.766 43.2385 253.707C44.7906 251.379 46.2722 248.98 47.7538 246.582C46.8366 245.806 45.8489 245.1 44.7906 244.465C43.2385 248.063 41.8274 251.661 40.4869 255.26C37.312 263.867 34.0666 272.827 32.0206 281.929H30.0451C32.0911 272.616 35.3366 263.514 38.582 254.695C39.993 250.885 41.4746 247.146 43.0974 243.407C41.5452 242.56 39.8519 241.784 38.1587 241.22C36.1832 247.076 34.4194 253.002 33.3611 259.14C33.1494 260.41 31.2445 259.846 31.4562 258.646C32.5145 252.508 34.2783 246.582 36.2537 240.655C34.7016 240.232 33.0789 239.95 31.4562 239.809C28.7046 253.849 25.8119 267.889 26.0942 281.999H24.1892C23.9776 267.889 26.8702 253.778 29.6218 239.738C29.4807 239.738 29.3396 239.738 29.1985 239.738C26.8702 239.738 24.542 240.02 22.2843 240.655C21.7199 248.416 21.4377 256.106 22.1432 263.938C22.2843 265.208 20.3088 265.208 20.1677 263.938C19.4622 256.388 19.7444 248.839 20.2383 241.29C17.91 242.066 15.6524 243.195 13.6063 244.536C14.8763 257.165 16.7107 269.723 19.4622 282.07H17.4867C14.8763 270.146 13.0419 258.011 11.772 245.806C10.7842 246.582 9.86704 247.358 8.94986 248.204C9.58483 250.25 10.2904 252.296 10.9959 254.272C11.4192 255.471 9.51428 255.965 9.09097 254.766C8.45599 253.072 7.96212 251.45 7.3977 249.757C7.04494 250.109 6.76273 250.533 6.40997 250.885C10.2198 261.115 13.4652 271.557 16.6401 281.999H14.5941C11.6309 272.192 8.52655 262.385 4.99891 252.79C4.22283 253.919 3.5173 255.048 2.95288 256.318C4.29338 258.928 5.70444 261.539 6.97439 264.149C7.53881 265.278 5.84555 266.266 5.28112 265.137C4.22283 262.95 3.09399 260.763 1.96515 258.576C1.68293 259.211 1.47128 259.916 1.25962 260.551C5.28112 267.606 9.09097 274.803 12.8303 281.999H10.6431C7.32715 275.72 4.08173 269.441 0.624649 263.303C0.342438 264.996 0.201333 266.76 0.271885 268.453C1.61239 271.205 3.30565 273.815 4.64615 276.567C5.49278 278.33 6.26886 280.165 7.11549 281.929H2.52957C1.25962 281.929 0.271885 282.916 0.271885 284.186C0.271885 285.456 1.25962 286.444 2.52957 286.444H288.48C289.749 286.444 290.737 285.456 290.737 284.186C290.737 283.057 289.749 281.999 288.48 281.999ZM111.11 232.683C111.251 232.683 111.392 232.612 111.463 232.471C111.533 232.259 111.392 232.118 111.251 232.048C111.11 231.977 110.898 231.907 110.757 231.907C110.687 232.118 110.687 232.401 110.616 232.612C110.757 232.683 110.898 232.683 111.04 232.753C111.04 232.683 111.04 232.683 111.11 232.683ZM169.739 235.434H169.81C170.727 235.223 171.644 235.011 172.561 234.799C172.773 234.729 172.844 234.588 172.844 234.376C172.773 234.164 172.632 234.094 172.42 234.094C171.503 234.305 170.586 234.517 169.669 234.729C169.457 234.799 169.387 234.94 169.387 235.152C169.457 235.364 169.598 235.434 169.739 235.434ZM191.822 228.026C191.893 228.026 191.893 228.026 191.963 228.026C192.81 227.603 193.657 227.25 194.503 226.827C194.644 226.756 194.786 226.545 194.644 226.333C194.574 226.192 194.362 226.121 194.151 226.192C193.304 226.615 192.457 227.039 191.611 227.391C191.399 227.462 191.329 227.674 191.47 227.885C191.54 227.956 191.681 228.026 191.822 228.026ZM177.289 233.529H177.359C178.276 233.247 179.193 232.965 180.04 232.683C180.252 232.612 180.322 232.401 180.252 232.259C180.181 232.048 179.97 231.977 179.828 232.048C178.911 232.33 178.065 232.612 177.147 232.894C176.936 232.965 176.865 233.177 176.936 233.318C177.006 233.388 177.147 233.529 177.289 233.529ZM184.697 231.06C184.767 231.06 184.767 231.06 184.838 231.06C185.755 230.707 186.601 230.355 187.448 230.002C187.66 229.931 187.73 229.72 187.66 229.508C187.589 229.296 187.378 229.226 187.166 229.296C186.319 229.649 185.402 230.002 184.555 230.355C184.344 230.425 184.273 230.637 184.344 230.778C184.414 230.919 184.485 231.06 184.697 231.06ZM96.929 226.686C96.9996 226.545 96.929 226.333 96.7879 226.262C96.7174 226.474 96.5763 226.686 96.5057 226.897C96.5763 226.897 96.5763 226.897 96.6468 226.897C96.7879 226.827 96.929 226.756 96.929 226.686ZM38.0176 157.191C38.0881 157.333 38.2292 157.474 38.3703 157.474H38.4409C38.6525 157.403 38.7231 157.191 38.6525 157.05C38.3703 156.133 38.1587 155.216 37.8765 154.299C37.8059 154.087 37.6648 154.017 37.4531 154.017C37.2415 154.087 37.1709 154.228 37.1709 154.44C37.4531 155.357 37.7354 156.274 38.0176 157.191ZM37.1004 100.114C36.8887 100.044 36.7476 100.185 36.6771 100.397C36.4654 101.314 36.2537 102.231 36.0421 103.148C35.9715 103.36 36.1126 103.501 36.3243 103.571H36.3948C36.536 103.571 36.6771 103.43 36.7476 103.289C36.9593 102.372 37.1709 101.455 37.3826 100.538C37.3826 100.326 37.312 100.114 37.1004 100.114ZM230.626 197.759C229.991 198.465 229.427 199.17 228.792 199.876C228.651 200.017 228.651 200.229 228.792 200.37C228.863 200.44 228.933 200.44 229.004 200.44C229.074 200.44 229.215 200.37 229.286 200.299C229.921 199.594 230.556 198.888 231.12 198.183C231.261 198.041 231.191 197.83 231.05 197.689C230.979 197.548 230.697 197.618 230.626 197.759ZM39.217 92.5652C39.0053 92.4946 38.8642 92.6357 38.7936 92.7768C38.5114 93.694 38.2292 94.6112 37.947 95.5284C37.8764 95.74 38.0176 95.8811 38.1587 95.9517H38.2292C38.3703 95.9517 38.5114 95.8811 38.582 95.6695C38.8642 94.7523 39.0758 93.8351 39.3581 92.9885C39.4992 92.8474 39.3581 92.6357 39.217 92.5652ZM78.797 36.4758C78.0209 37.0402 77.3154 37.6046 76.5393 38.1691C76.3982 38.3102 76.3277 38.5218 76.4688 38.6629C76.5393 38.7335 76.6099 38.804 76.751 38.804C76.8215 38.804 76.8921 38.804 76.9626 38.7335C77.6682 38.1691 78.4442 37.6046 79.2203 37.0402C79.3614 36.8991 79.432 36.6874 79.2909 36.5463C79.2203 36.4052 79.0087 36.3347 78.797 36.4758ZM85.2173 32.031C84.4412 32.5248 83.6651 33.0893 82.8185 33.5831C82.6774 33.7242 82.6068 33.9359 82.7479 34.077C82.8185 34.1476 82.9596 34.2181 83.0302 34.2181C83.1007 34.2181 83.1713 34.2181 83.2418 34.1476C84.0179 33.6537 84.794 33.0893 85.5701 32.5954C85.7112 32.5248 85.7817 32.2426 85.7112 32.1015C85.6406 31.9604 85.4289 31.8899 85.2173 32.031ZM72.7295 41.3439C72.0239 41.9789 71.3184 42.6139 70.6129 43.2488C70.4718 43.39 70.4718 43.6016 70.6129 43.7427C70.6834 43.8133 70.754 43.8838 70.8951 43.8838C70.9656 43.8838 71.0362 43.8838 71.1068 43.8133C71.8123 43.1783 72.5178 42.5433 73.2233 41.9789C73.3644 41.8378 73.3644 41.6261 73.2939 41.485C73.0822 41.2028 72.8706 41.2028 72.7295 41.3439ZM91.9198 28.08C91.0732 28.5033 90.2971 28.9972 89.4504 29.4911C89.3093 29.5616 89.2388 29.7733 89.3093 29.9849C89.3799 30.126 89.521 30.126 89.5916 30.126C89.6621 30.126 89.7327 30.1261 89.8032 30.0555C90.5793 29.5616 91.4259 29.1383 92.2726 28.6444C92.4137 28.5739 92.4842 28.3622 92.4137 28.1506C92.3431 28.0095 92.1314 27.9389 91.9198 28.08ZM67.5086 46.6354C67.3675 46.4943 67.1558 46.4943 67.0147 46.6354C66.3092 47.2704 65.6742 47.9759 65.0392 48.6814C64.8981 48.8225 64.8981 49.0342 65.0392 49.1753C65.1098 49.2458 65.1803 49.2458 65.2509 49.2458C65.3214 49.2458 65.4625 49.1753 65.5331 49.1047C66.1681 48.3992 66.8736 47.7642 67.5086 47.1292C67.6497 46.9881 67.6497 46.7765 67.5086 46.6354ZM146.598 238.115C147.515 238.115 148.503 238.115 149.42 238.045C149.632 238.045 149.773 237.904 149.773 237.692C149.773 237.48 149.632 237.339 149.42 237.339C148.503 237.339 147.515 237.41 146.598 237.41C146.386 237.41 146.245 237.551 146.245 237.763C146.245 237.974 146.386 238.115 146.598 238.115ZM162.12 236.845C163.107 236.704 164.025 236.563 164.942 236.352C165.153 236.352 165.295 236.14 165.224 235.928C165.224 235.717 165.012 235.575 164.801 235.646C163.884 235.787 162.966 235.928 162.049 236.069C161.837 236.069 161.696 236.281 161.767 236.493C161.767 236.775 161.908 236.845 162.12 236.845ZM118.659 234.164C117.742 233.953 116.825 233.671 115.908 233.459C115.696 233.388 115.555 233.529 115.484 233.741C115.414 233.953 115.555 234.094 115.696 234.164C116.613 234.447 117.53 234.658 118.448 234.87H118.518C118.659 234.87 118.8 234.729 118.871 234.588C118.941 234.376 118.871 234.164 118.659 234.164ZM63.1343 201.428C62.9932 201.569 62.9932 201.781 63.1343 201.922C63.7693 202.627 64.4043 203.333 65.1098 203.968C65.1803 204.038 65.2509 204.109 65.392 204.109C65.4625 204.109 65.6036 204.109 65.6036 204.038C65.7448 203.897 65.7448 203.686 65.6036 203.545C64.9687 202.839 64.3337 202.204 63.6987 201.498C63.4871 201.287 63.2754 201.287 63.1343 201.428ZM35.5482 107.734C35.3366 107.663 35.1954 107.805 35.1249 108.016C34.9838 108.933 34.8427 109.851 34.7016 110.838C34.7016 111.05 34.8427 111.191 34.9838 111.262C34.9838 111.262 34.9838 111.262 35.0544 111.262C35.1955 111.262 35.4071 111.121 35.4071 110.979C35.5482 110.062 35.6893 109.145 35.8304 108.157C35.901 107.946 35.7599 107.734 35.5482 107.734ZM34.2783 118.952C34.4899 118.952 34.631 118.811 34.631 118.599C34.7016 117.682 34.7721 116.694 34.8427 115.777C34.8427 115.565 34.7016 115.424 34.4899 115.424C34.2783 115.424 34.1372 115.565 34.1372 115.777C34.0666 116.694 33.9961 117.682 33.9255 118.599C33.9255 118.74 34.0666 118.952 34.2783 118.952ZM33.7138 123.538C33.7138 124.455 33.7138 125.372 33.7138 126.289V126.43C33.7138 126.642 33.8549 126.783 34.0666 126.783C34.2783 126.783 34.4194 126.642 34.4194 126.43V126.289C34.4194 125.372 34.4194 124.455 34.4194 123.608C34.4194 123.397 34.2783 123.256 34.0666 123.256C33.8549 123.185 33.7138 123.326 33.7138 123.538ZM46.7661 178.851C46.8366 178.992 46.9778 179.063 47.0483 179.063C47.1189 179.063 47.1894 179.063 47.1894 178.992C47.3305 178.922 47.4011 178.71 47.3305 178.498C46.9072 177.652 46.4839 176.805 46.0606 176.029C45.99 175.888 45.7784 175.817 45.5667 175.888C45.4256 175.958 45.355 176.17 45.4256 176.382C45.8489 177.158 46.3428 178.004 46.7661 178.851ZM34.2783 134.473C34.4899 134.473 34.631 134.262 34.631 134.121C34.5605 133.203 34.4899 132.216 34.4899 131.299C34.4899 131.087 34.2783 130.946 34.1372 130.946C33.9255 130.946 33.7844 131.087 33.7844 131.299C33.855 132.216 33.8549 133.203 33.9255 134.121C33.9255 134.332 34.0666 134.473 34.2783 134.473ZM43.4501 81.3473C43.5207 81.3473 43.5207 81.3473 43.5912 81.3473C43.7323 81.3473 43.8734 81.2767 43.944 81.1356C44.2967 80.289 44.7201 79.4424 45.1434 78.5957C45.2139 78.4546 45.1434 78.243 45.0023 78.1019C44.7906 78.0313 44.6495 78.1019 44.5084 78.243C44.0851 79.0896 43.7323 79.9362 43.309 80.8534C43.1679 81.0651 43.2385 81.2062 43.4501 81.3473ZM42.1802 169.256C42.5329 170.103 42.8857 171.02 43.309 171.866C43.3796 172.007 43.5207 172.078 43.6618 172.078C43.7323 172.078 43.7323 172.078 43.8029 172.078C44.0145 172.007 44.0851 171.796 44.0145 171.584C43.6618 170.738 43.2385 169.891 42.8857 168.974C42.8151 168.762 42.6035 168.691 42.3918 168.762C42.2507 168.833 42.1096 169.044 42.1802 169.256ZM41.8274 85.2277C41.6157 85.1571 41.4746 85.2277 41.4041 85.4393C41.0513 86.3565 40.6986 87.2032 40.4163 88.1204C40.3458 88.332 40.4163 88.4731 40.628 88.5437C40.6986 88.5437 40.6986 88.5437 40.7691 88.5437C40.9102 88.5437 41.0513 88.4731 41.1219 88.332C41.4746 87.4148 41.7569 86.5682 42.1096 85.651C42.0391 85.5099 41.9685 85.2982 41.8274 85.2277ZM46.8366 74.292C46.9072 74.292 46.9777 74.3626 46.9777 74.3626C47.1189 74.3626 47.26 74.292 47.26 74.1509C47.6833 73.3043 48.1771 72.4577 48.6005 71.6816C48.671 71.5405 48.671 71.3288 48.4594 71.1877C48.3183 71.1172 48.1066 71.1172 47.9655 71.3288C47.4716 72.1754 47.0483 72.9515 46.625 73.7982C46.625 74.0098 46.6955 74.2215 46.8366 74.292ZM39.7108 161.495C39.4992 161.566 39.4286 161.777 39.4992 161.918C39.7814 162.836 40.1341 163.682 40.4163 164.599C40.4869 164.741 40.628 164.811 40.7691 164.811C40.8397 164.811 40.8397 164.811 40.9102 164.811C41.1219 164.741 41.1924 164.529 41.1219 164.388C40.7691 163.471 40.4869 162.624 40.2047 161.707C40.0636 161.495 39.8519 161.425 39.7108 161.495ZM53.4686 189.222C53.3275 189.363 53.2569 189.575 53.398 189.716C53.9625 190.492 54.4563 191.268 55.0207 192.044C55.0913 192.115 55.2324 192.186 55.303 192.186C55.3735 192.186 55.4441 192.186 55.5146 192.115C55.6557 191.974 55.7263 191.762 55.5852 191.621C55.0207 190.845 54.4563 190.069 53.9625 189.293C53.8214 189.152 53.6097 189.081 53.4686 189.222ZM126.279 235.717C125.362 235.575 124.445 235.364 123.527 235.223C123.316 235.152 123.175 235.293 123.104 235.505C123.034 235.717 123.175 235.858 123.386 235.928C124.303 236.14 125.221 236.281 126.208 236.422H126.279C126.42 236.422 126.632 236.281 126.632 236.14C126.561 235.928 126.42 235.787 126.279 235.717ZM58.0545 195.502C57.9134 195.643 57.8429 195.854 57.984 195.995C58.5484 196.701 59.1834 197.477 59.7478 198.183C59.8183 198.253 59.8889 198.324 60.03 198.324C60.1005 198.324 60.1711 198.324 60.2416 198.253C60.3828 198.112 60.3827 197.9 60.3122 197.759C59.6772 197.054 59.1128 196.348 58.5484 195.572C58.4778 195.36 58.2662 195.36 58.0545 195.502ZM57.1373 58.206C56.9962 58.0649 56.7846 58.1355 56.6435 58.2766C56.079 59.0526 55.5146 59.7582 54.9502 60.5343C54.8091 60.6754 54.8796 60.887 55.0207 61.0281C55.0913 61.0987 55.1619 61.0987 55.2324 61.0987C55.3735 61.0987 55.4441 61.0281 55.5146 60.9576C56.079 60.1815 56.6435 59.476 57.2079 58.6999C57.349 58.5588 57.349 58.3471 57.1373 58.206ZM62.1466 52.209C62.0055 52.0679 61.7938 52.0679 61.6527 52.209C61.0177 52.9146 60.3828 53.6201 59.8183 54.3962C59.6772 54.5373 59.7478 54.7489 59.8889 54.89C59.9594 54.9606 60.03 54.9606 60.1005 54.9606C60.1711 54.9606 60.3122 54.89 60.3828 54.8195C61.0177 54.114 61.5822 53.4084 62.2171 52.7029C62.2877 52.5618 62.2877 52.3501 62.1466 52.209ZM35.1249 142.234C35.3366 142.234 35.4777 142.023 35.4777 141.811C35.3366 140.894 35.1954 139.977 35.1249 138.989C35.1249 138.777 34.9132 138.636 34.7016 138.707C34.4899 138.707 34.3488 138.918 34.4194 139.13C34.5605 140.047 34.631 141.035 34.7721 141.952C34.7721 142.093 34.9132 142.234 35.1249 142.234ZM52.622 64.5558C52.4809 64.4146 52.2692 64.4852 52.1281 64.6263C51.6342 65.4024 51.0698 66.249 50.5759 67.0251C50.5054 67.1662 50.5054 67.3779 50.717 67.519C50.7876 67.5895 50.8581 67.5895 50.9287 67.5895C51.0698 67.5895 51.1404 67.519 51.2109 67.4484C51.7048 66.6723 52.1986 65.8257 52.7631 65.0496C52.8336 64.9085 52.7631 64.6969 52.622 64.5558ZM36.4654 149.924H36.5359C36.7476 149.854 36.8182 149.713 36.8182 149.501C36.6065 148.584 36.4654 147.667 36.2537 146.75C36.1832 146.538 36.0421 146.397 35.8304 146.467C35.6188 146.467 35.4777 146.679 35.5482 146.891C35.6893 147.808 35.901 148.725 36.1126 149.642C36.1126 149.783 36.2537 149.924 36.4654 149.924ZM49.306 182.661C49.1649 182.731 49.0943 182.943 49.1649 183.155C49.6588 184.001 50.1526 184.778 50.6465 185.554C50.717 185.695 50.8581 185.695 50.9287 185.695C50.9993 185.695 51.0698 185.695 51.1404 185.624C51.2815 185.554 51.352 185.271 51.2815 185.13C50.7876 184.354 50.2937 183.508 49.7999 182.731C49.6587 182.59 49.4471 182.59 49.306 182.661ZM154.359 237.763C154.359 237.763 154.429 237.763 154.359 237.763C155.347 237.692 156.264 237.621 157.181 237.48C157.393 237.48 157.534 237.269 157.463 237.128C157.463 236.916 157.252 236.775 157.11 236.845C156.193 236.916 155.276 237.057 154.288 237.128C154.077 237.128 153.936 237.339 153.936 237.48C154.006 237.621 154.218 237.763 154.359 237.763ZM213.905 213.845C213.2 214.41 212.424 214.974 211.648 215.538C211.507 215.68 211.436 215.891 211.577 216.032C211.648 216.103 211.718 216.173 211.859 216.173C211.93 216.173 212 216.173 212.071 216.103C212.847 215.538 213.553 214.974 214.329 214.41C214.47 214.269 214.54 214.057 214.399 213.916C214.258 213.775 214.046 213.775 213.905 213.845ZM219.832 208.907C219.126 209.541 218.421 210.176 217.715 210.741C217.574 210.882 217.574 211.094 217.645 211.235C217.715 211.305 217.786 211.376 217.927 211.376C217.997 211.376 218.068 211.376 218.139 211.305C218.844 210.67 219.55 210.035 220.255 209.4C220.396 209.259 220.396 209.048 220.255 208.907C220.185 208.765 219.973 208.765 219.832 208.907ZM249.958 164.247C249.605 165.164 249.323 166.01 248.97 166.928C248.899 167.139 248.97 167.28 249.182 167.351C249.252 167.351 249.252 167.351 249.323 167.351C249.464 167.351 249.605 167.28 249.676 167.139C250.028 166.222 250.381 165.376 250.663 164.458C250.734 164.247 250.663 164.106 250.452 164.035C250.24 164.035 250.028 164.106 249.958 164.247ZM225.405 203.474C224.77 204.18 224.065 204.814 223.43 205.449C223.289 205.591 223.289 205.802 223.43 205.943C223.501 206.014 223.571 206.014 223.712 206.014C223.783 206.014 223.924 206.014 223.994 205.943C224.7 205.308 225.335 204.603 225.97 203.897C226.111 203.756 226.111 203.545 225.97 203.403C225.758 203.333 225.547 203.333 225.405 203.474ZM251.157 90.9425C251.228 90.9425 251.228 90.9425 251.298 90.9425C251.51 90.8719 251.58 90.6602 251.51 90.5191C251.228 89.602 250.875 88.7553 250.593 87.8381C250.522 87.6265 250.311 87.5559 250.169 87.6265C249.958 87.697 249.887 87.9087 249.958 88.0498C250.311 88.967 250.593 89.8136 250.875 90.7308C250.875 90.8719 251.016 90.9425 251.157 90.9425ZM70.8951 209.471C70.9656 209.471 71.1068 209.4 71.1773 209.33C71.3184 209.189 71.3184 208.977 71.1773 208.836C70.4718 208.201 69.7663 207.566 69.1313 206.931C68.9902 206.79 68.7785 206.79 68.6374 206.931C68.4963 207.072 68.4963 207.284 68.6374 207.425C69.3429 208.06 70.0485 208.695 70.754 209.33C70.754 209.471 70.8245 209.471 70.8951 209.471ZM225.335 48.4697C225.194 48.6108 225.194 48.8225 225.335 48.9636C225.97 49.6691 226.605 50.3041 227.24 51.0096C227.31 51.0802 227.381 51.1507 227.522 51.1507C227.593 51.1507 227.663 51.1508 227.734 51.0802C227.875 50.9391 227.875 50.7274 227.734 50.5863C227.099 49.8808 226.464 49.1753 225.758 48.5403C225.758 48.3286 225.476 48.3286 225.335 48.4697ZM76.8921 214.48C76.9626 214.48 77.1037 214.41 77.1743 214.339C77.3154 214.198 77.2448 213.986 77.1037 213.845C76.3277 213.281 75.6221 212.646 74.9166 212.081C74.7755 211.94 74.5638 212.011 74.4227 212.152C74.2816 212.293 74.3522 212.505 74.4933 212.646C75.1988 213.281 75.9749 213.845 76.6804 214.41C76.6804 214.48 76.8215 214.48 76.8921 214.48ZM83.1713 219.066C83.3124 219.066 83.3829 218.996 83.4535 218.925C83.5946 218.784 83.524 218.572 83.3829 218.431C82.6068 217.937 81.8308 217.373 81.0547 216.808C80.9136 216.667 80.7019 216.738 80.5608 216.879C80.4197 217.02 80.4903 217.232 80.6314 217.373C81.4074 217.937 82.1835 218.431 82.9596 218.996C83.0302 219.066 83.1007 219.066 83.1713 219.066ZM103.49 22.5769C103.279 22.6475 103.208 22.8591 103.279 23.0708C103.349 23.2119 103.49 23.2824 103.632 23.2824C103.702 23.2824 103.702 23.2824 103.773 23.2824C103.914 23.2119 104.055 23.1413 104.196 23.1413V22.3653C103.914 22.4358 103.702 22.5064 103.49 22.5769ZM248.406 83.6755C248.476 83.6755 248.476 83.6755 248.547 83.6755C248.758 83.605 248.829 83.3933 248.758 83.1817C248.406 82.335 248.053 81.4178 247.63 80.5712C247.559 80.3596 247.347 80.289 247.136 80.3596C246.924 80.4301 246.853 80.6418 246.924 80.8534C247.277 81.7001 247.7 82.5467 248.053 83.4639C248.123 83.605 248.265 83.6755 248.406 83.6755ZM235.353 191.621C234.789 192.397 234.225 193.103 233.66 193.879C233.519 194.02 233.59 194.232 233.731 194.373C233.801 194.443 233.872 194.443 233.942 194.443C234.013 194.443 234.154 194.373 234.225 194.302C234.789 193.526 235.353 192.821 235.918 192.044C236.059 191.903 235.988 191.692 235.847 191.551C235.706 191.409 235.494 191.48 235.353 191.621ZM237.258 63.2858C237.329 63.2858 237.399 63.2858 237.47 63.2153C237.611 63.0742 237.682 62.8625 237.541 62.7214C236.976 61.9453 236.482 61.1692 235.918 60.3932C235.777 60.252 235.565 60.1815 235.424 60.3226C235.283 60.4637 235.212 60.6754 235.353 60.8165C235.918 61.5925 236.482 62.3686 236.976 63.1447C237.047 63.2153 237.117 63.2858 237.258 63.2858ZM232.602 57.0772C232.672 57.0772 232.743 57.0772 232.813 57.0066C232.955 56.8655 233.025 56.6539 232.884 56.5128C232.32 55.8072 231.685 55.0311 231.12 54.3256C230.979 54.1845 230.767 54.1845 230.626 54.2551C230.485 54.3962 230.485 54.6078 230.556 54.7489C231.191 55.4545 231.755 56.16 232.32 56.9361C232.39 57.0066 232.531 57.0772 232.602 57.0772ZM239.728 185.201C239.234 185.977 238.74 186.824 238.175 187.6C238.034 187.741 238.105 187.952 238.246 188.093C238.317 188.164 238.387 188.164 238.458 188.164C238.599 188.164 238.669 188.093 238.74 188.023C239.234 187.247 239.798 186.471 240.292 185.624C240.363 185.483 240.363 185.271 240.151 185.13C240.08 184.989 239.869 185.06 239.728 185.201ZM247.065 171.514C246.712 172.36 246.289 173.207 245.866 174.053C245.795 174.265 245.866 174.406 246.007 174.547C246.077 174.547 246.077 174.547 246.148 174.547C246.289 174.547 246.43 174.477 246.501 174.336C246.924 173.489 247.277 172.642 247.7 171.725C247.771 171.514 247.7 171.372 247.488 171.231C247.347 171.231 247.136 171.302 247.065 171.514ZM241.421 69.8472C241.491 69.8472 241.562 69.8472 241.633 69.7767C241.774 69.7061 241.844 69.4944 241.774 69.2828C241.28 68.4361 240.786 67.6601 240.292 66.884C240.222 66.7429 239.939 66.6723 239.798 66.7429C239.657 66.8134 239.587 67.0956 239.657 67.2368C240.151 68.0128 240.645 68.8595 241.139 69.6355C241.209 69.7766 241.35 69.8472 241.421 69.8472ZM245.16 76.6203C245.231 76.6203 245.301 76.6203 245.301 76.5497C245.442 76.4792 245.513 76.2675 245.442 76.0558C245.019 75.2092 244.596 74.3626 244.172 73.5159C244.102 73.3748 243.89 73.3043 243.679 73.3748C243.537 73.4454 243.467 73.657 243.537 73.8687C243.961 74.7153 244.384 75.562 244.807 76.338C244.949 76.5497 245.019 76.6203 245.16 76.6203ZM243.608 178.498C243.185 179.345 242.691 180.192 242.268 180.968C242.197 181.109 242.197 181.32 242.409 181.462C242.479 181.462 242.55 181.532 242.55 181.532C242.691 181.532 242.761 181.462 242.832 181.32C243.326 180.474 243.749 179.698 244.172 178.851C244.243 178.71 244.172 178.498 244.031 178.357C243.961 178.216 243.749 178.287 243.608 178.498ZM256.237 113.66C256.449 113.66 256.59 113.449 256.59 113.237C256.449 112.32 256.378 111.332 256.237 110.415C256.237 110.203 256.025 110.062 255.814 110.133C255.602 110.133 255.461 110.344 255.531 110.556C255.673 111.473 255.814 112.39 255.884 113.378C255.884 113.59 256.096 113.66 256.237 113.66ZM219.761 43.1077C219.62 43.2489 219.62 43.4605 219.761 43.6016C220.467 44.2366 221.172 44.8716 221.807 45.5065C221.878 45.5771 221.948 45.5771 222.019 45.5771C222.089 45.5771 222.231 45.5065 222.301 45.436C222.442 45.2949 222.442 45.0832 222.301 44.9421C221.596 44.3071 220.89 43.6722 220.185 43.0372C220.114 42.9666 219.902 42.9666 219.761 43.1077ZM141.659 238.045C141.871 238.045 142.012 237.904 142.012 237.692C142.012 237.48 141.871 237.339 141.659 237.339C140.742 237.339 139.755 237.269 138.837 237.198C138.626 237.198 138.485 237.339 138.485 237.551C138.485 237.763 138.626 237.904 138.837 237.904C139.755 237.974 140.672 237.974 141.659 238.045ZM256.66 126.007V126.219C256.66 127.136 256.66 128.124 256.66 129.041C256.66 129.253 256.801 129.394 257.013 129.394C257.225 129.394 257.366 129.253 257.366 129.041C257.366 128.124 257.366 127.136 257.366 126.219V126.007C257.366 125.795 257.225 125.654 257.013 125.654C256.801 125.654 256.66 125.866 256.66 126.007ZM256.519 137.225C256.731 137.225 256.872 137.084 256.872 136.872C256.942 135.955 257.013 134.967 257.084 134.05C257.084 133.838 256.942 133.697 256.731 133.697C256.519 133.697 256.378 133.838 256.378 134.05C256.307 134.967 256.237 135.955 256.166 136.872C256.096 137.013 256.237 137.225 256.519 137.225C256.449 137.225 256.449 137.225 256.519 137.225ZM201.276 29.35C201.135 29.2794 200.924 29.2794 200.783 29.4911C200.712 29.6322 200.712 29.8438 200.924 29.9849C201.77 30.4788 202.546 30.9021 203.322 31.396C203.393 31.4665 203.464 31.4666 203.534 31.4666C203.675 31.4666 203.746 31.396 203.816 31.3255C203.887 31.1843 203.887 30.9727 203.675 30.8316C202.97 30.2672 202.123 29.7733 201.276 29.35ZM207.415 33.5831C207.273 33.7242 207.344 33.9359 207.485 34.077C208.261 34.5709 209.037 35.1353 209.813 35.6997C209.884 35.7703 209.954 35.7703 210.025 35.7703C210.166 35.7703 210.237 35.6997 210.307 35.6292C210.448 35.4881 210.378 35.2764 210.237 35.1353C209.461 34.5709 208.684 34.077 207.908 33.5126C207.767 33.3715 207.556 33.3715 207.415 33.5831ZM255.955 141.458C255.743 141.458 255.602 141.599 255.531 141.74C255.39 142.658 255.249 143.575 255.108 144.562C255.108 144.774 255.179 144.915 255.39 144.986H255.461C255.602 144.986 255.814 144.845 255.814 144.704C255.955 143.786 256.096 142.869 256.237 141.881C256.308 141.599 256.166 141.458 255.955 141.458ZM133.899 236.775C132.981 236.704 131.994 236.563 131.077 236.422C130.865 236.422 130.724 236.563 130.653 236.704C130.653 236.916 130.794 237.057 130.935 237.128C131.853 237.269 132.84 237.339 133.758 237.48C133.758 237.48 133.758 237.48 133.828 237.48C134.04 237.48 134.181 237.339 134.181 237.198C134.251 236.986 134.11 236.845 133.899 236.775ZM213.764 38.0985C213.623 38.2396 213.694 38.4513 213.835 38.5924C214.611 39.1568 215.316 39.7918 216.022 40.3562C216.092 40.4267 216.163 40.4267 216.234 40.4267C216.304 40.4267 216.445 40.3562 216.516 40.2856C216.657 40.1445 216.586 39.9329 216.445 39.7918C215.74 39.1568 214.964 38.5924 214.258 38.028C214.117 37.9574 213.905 37.9574 213.764 38.0985ZM252.78 156.627C252.568 156.556 252.427 156.698 252.357 156.839C252.074 157.756 251.792 158.673 251.58 159.52C251.51 159.731 251.651 159.872 251.792 159.943H251.863C252.004 159.943 252.145 159.872 252.215 159.661C252.498 158.744 252.78 157.826 253.062 156.909C253.062 156.909 252.992 156.698 252.78 156.627ZM253.838 152.535H253.909C254.05 152.535 254.191 152.394 254.261 152.253C254.473 151.336 254.685 150.418 254.896 149.501C254.967 149.29 254.826 149.148 254.614 149.078C254.403 149.007 254.261 149.148 254.191 149.36C253.979 150.277 253.768 151.194 253.556 152.112C253.556 152.323 253.697 152.464 253.838 152.535ZM194.433 25.6812C194.292 25.6107 194.08 25.6812 193.939 25.8223C193.868 25.9634 193.939 26.1751 194.08 26.3162C194.927 26.7395 195.773 27.1628 196.62 27.5862C196.691 27.5862 196.761 27.6567 196.761 27.6567C196.902 27.6567 197.043 27.5862 197.043 27.4451C197.114 27.3039 197.043 27.0923 196.902 26.9512C196.126 26.5279 195.279 26.1046 194.433 25.6812ZM253.415 98.421H253.485C253.697 98.3505 253.768 98.2094 253.768 97.9977C253.556 97.0805 253.274 96.1633 252.992 95.2462C252.921 95.0345 252.709 94.964 252.568 95.0345C252.357 95.1051 252.286 95.3167 252.357 95.4578C252.639 96.375 252.85 97.2922 253.133 98.2094C253.062 98.2799 253.203 98.421 253.415 98.421ZM254.755 105.688C254.755 105.829 254.967 105.97 255.108 105.97H255.179C255.39 105.9 255.531 105.759 255.461 105.547C255.32 104.63 255.108 103.712 254.896 102.795C254.826 102.584 254.685 102.513 254.473 102.513C254.261 102.584 254.191 102.725 254.191 102.936C254.403 103.854 254.544 104.771 254.755 105.688ZM256.378 118.317C256.449 119.234 256.519 120.222 256.519 121.139C256.519 121.351 256.66 121.492 256.872 121.492C257.084 121.492 257.225 121.351 257.225 121.139C257.154 120.222 257.154 119.234 257.084 118.317C257.084 118.105 256.872 117.964 256.731 117.964C256.449 117.894 256.307 118.105 256.378 118.317ZM98.9045 24.5524C98.0579 24.9757 97.2112 25.3285 96.3646 25.7518C96.2235 25.8223 96.0824 26.034 96.2235 26.2456C96.2941 26.3868 96.4352 26.4573 96.5057 26.4573C96.5763 26.4573 96.5763 26.4573 96.6468 26.3868C97.4935 25.9634 98.3401 25.5401 99.1867 25.1874C99.3984 25.1168 99.4689 24.9052 99.3278 24.6935C99.3278 24.5524 99.1162 24.4818 98.9045 24.5524ZM131.429 246.229C123.739 245.312 116.331 243.689 109.135 241.431C109.135 241.572 109.064 241.714 109.064 241.855C116.26 244.112 123.739 245.735 131.359 246.582C131.359 246.511 131.359 246.37 131.429 246.229ZM95.1652 236.069C94.3186 235.717 93.472 235.293 92.6959 234.87C92.6253 235.011 92.5548 235.152 92.4842 235.293C93.3308 235.717 94.1775 236.14 95.0947 236.493C95.1652 236.422 95.1652 236.21 95.1652 236.069ZM140.883 247.005C140.883 247.146 140.883 247.217 140.883 247.358C142.436 247.428 143.988 247.428 145.54 247.428C163.46 247.428 180.816 243.548 196.62 236.21L196.549 235.787C181.028 243.054 163.742 247.146 145.54 247.146C143.988 247.076 142.436 247.076 140.883 247.005ZM84.9351 173.912C84.9351 173.983 84.9351 173.983 84.9351 173.912C84.9351 173.983 84.9351 173.983 84.9351 173.912ZM119.647 15.6628C119.647 19.1198 121.481 22.1536 124.233 23.7763C124.233 23.8469 124.233 23.8469 124.233 23.9174C124.233 25.1168 125.221 26.034 126.349 26.034H131.853C133.052 26.034 133.969 25.0463 133.969 23.9174C133.969 23.8469 133.969 23.8469 133.969 23.7763C136.721 22.1536 138.555 19.1198 138.555 15.6628C138.555 10.4419 134.322 6.2087 129.101 6.2087C123.88 6.13814 119.647 10.3713 119.647 15.6628ZM132.84 26.3868H125.362C125.08 26.3868 124.797 26.669 124.797 26.9512C124.797 27.2334 125.08 27.5156 125.362 27.5156H132.84C133.123 27.5156 133.405 27.2334 133.405 26.9512C133.405 26.669 133.123 26.3868 132.84 26.3868ZM132.84 27.8684H125.362C125.08 27.8684 124.797 28.1506 124.797 28.4328C124.797 28.715 125.08 28.9972 125.362 28.9972H132.84C133.123 28.9972 133.405 28.715 133.405 28.4328C133.405 28.08 133.123 27.8684 132.84 27.8684ZM132.84 29.2794H125.362C125.08 29.2794 124.797 29.5616 124.797 29.8438C124.797 30.1261 125.08 30.4083 125.362 30.4083H132.84C133.123 30.4083 133.405 30.1261 133.405 29.8438C133.405 29.4911 133.123 29.2794 132.84 29.2794ZM163.249 37.1813L165.295 38.8746L166.706 37.1813L184.485 15.8744L165.224 31.9604L158.804 24.2702L153.794 29.2794L163.249 37.1813Z" fill="#4CD42A"/>
</svg>
