<svg width="553" height="434" viewBox="0 0 553 434" fill="none" xmlns="http://www.w3.org/2000/svg">
<g filter="url(#filter0_d_3331_12680)">
<path d="M16.0596 411.69L16.5361 411.214L26.6737 401.075L29.8905 397.858L31.8886 395.86H32.1555H37.4805H40.5279H42.9305H45.9123H55.7439H58.6251H67.3449H70.3997H77.4804H80.692H84.4679H87.6117H102.054H118.642C118.843 396.171 119.173 396.39 119.577 396.384L153.528 395.972C153.668 395.969 153.793 395.927 153.899 395.86H161.279L161.277 395.871H174.517H302.882L287.063 411.692H158.707H16.0596V411.69Z" fill="white"/>
<path d="M484.493 411.553C484.574 411.44 484.659 411.329 484.74 411.215H497.515C499.39 411.215 500.908 412.735 500.908 414.608C500.908 416.481 499.388 418.001 497.515 418.001H15.3926C13.5184 418.001 12 416.481 12 414.608C12 412.735 13.5195 411.215 15.3926 411.215H16.5362L16.0597 411.692H158.708H287.063H472.937C474.248 411.692 475.513 411.515 476.73 411.215H477.597C477.557 411.329 477.514 411.441 477.474 411.553H484.493ZM161.755 146.796C160.922 146.171 160.453 145.113 160.636 144.019L160.967 142.039C161.229 140.478 162.72 139.414 164.28 139.675C165.841 139.937 166.905 141.428 166.644 142.989L166.456 144.111L168.037 144.376L171.438 135.361L173.961 134.555L175.491 130.22L187.991 132.31L185.747 145.729C187.571 144.363 189.604 143.278 191.778 142.593C192.667 142.313 193.594 142.084 194.354 141.546C195.115 141.01 195.678 140.062 195.449 139.16C195.236 138.317 194.419 137.756 194.097 136.949C193.617 135.747 194.364 134.4 195.277 133.483C196.189 132.567 197.321 131.813 197.907 130.659C199.144 128.22 197.355 125.278 195.179 123.62C193.003 121.963 190.321 120.856 188.703 118.649C187.333 116.781 186.808 114.22 184.898 112.906C182.877 111.517 180.098 112.099 177.889 113.162C175.679 114.226 173.615 115.732 171.196 116.131C168.705 116.542 166.132 115.72 163.646 116.151C159.922 116.795 157.027 120.581 157.382 124.344C157.619 126.868 159.107 129.383 158.33 131.796C158.014 132.776 157.354 133.602 156.879 134.515C155.435 137.287 155.8 140.722 157.087 143.57C158.162 145.948 159.81 148.001 161.532 149.976L161.632 149.582C161.568 148.669 161.597 147.738 161.755 146.796ZM201.752 378.689L197.291 378.581L196.283 378.557C196.283 378.557 193.248 383.985 192.436 388.372C192.313 389.034 192.779 389.659 193.449 389.712L227.295 392.424C227.83 392.466 228.222 391.931 228.021 391.433L227.424 389.953C226.579 387.86 224.814 386.274 222.643 385.655L217.617 384.225C215.011 383.482 211.978 382.393 210.561 380.083L207.902 375.671L207.226 376.126L204.701 377.828C203.831 378.414 202.8 378.714 201.752 378.689ZM119.576 396.385L153.528 395.972C153.667 395.97 153.792 395.927 153.898 395.861C154.2 395.672 154.342 395.272 154.16 394.92L153.428 393.501C152.393 391.494 150.491 390.077 148.271 389.661L143.135 388.698C140.472 388.2 137.351 387.393 135.728 385.224L132.674 381.075L132.305 381.376L129.686 383.516C128.874 384.18 127.875 384.574 126.829 384.646L121.932 384.979L121.371 385.017C121.371 385.017 118.848 390.702 118.443 395.145C118.419 395.413 118.506 395.654 118.641 395.862C118.843 396.171 119.174 396.39 119.576 396.385Z" fill="#444444"/>
<path d="M176.041 197.939C177.602 198.069 179.169 198.165 180.743 198.214C180.089 208.767 179.457 218.639 179.169 220.889C181.189 222.815 183.547 224.923 186.076 227.124C190.289 230.79 195.004 234.727 199.571 238.585C201.172 239.937 202.754 241.28 204.289 242.596C207.748 245.563 210.972 248.403 213.632 250.938C213.624 250.945 213.618 250.953 213.61 250.961C215.754 252.518 217.57 254.456 218.978 256.666C221.078 258.693 222.092 262.11 222.108 264.953C222.11 265.389 221.456 265.488 221.341 265.115C220.833 263.462 220.263 261.82 219.417 260.331C219.402 260.304 219.384 260.279 219.37 260.253C219.31 260.352 219.251 260.452 219.19 260.545C220.365 262.497 220.939 264.959 220.951 267.096C220.953 267.532 220.298 267.631 220.184 267.258C219.676 265.605 219.106 263.963 218.26 262.474C218.155 262.289 218.042 262.11 217.925 261.933C217.922 261.935 217.92 261.937 217.917 261.939C218.8 263.738 219.236 265.837 219.246 267.692C219.248 268.128 218.593 268.227 218.479 267.854C217.971 266.201 217.401 264.559 216.555 263.07C216.509 262.989 216.458 262.911 216.409 262.832C216.322 262.87 216.234 262.908 216.144 262.945C216.847 264.605 217.197 266.458 217.206 268.115C217.208 268.551 216.554 268.649 216.44 268.277C215.931 266.624 215.362 264.981 214.516 263.493C211.48 261.541 208.967 259.476 208.952 255.78C206.522 254.964 204.118 254.072 201.731 253.135C199.99 252.452 198.262 251.74 196.548 250.993C188.592 247.527 180.927 243.398 173.697 238.608C173.433 238.432 173.173 238.249 172.91 238.071C173.065 224.605 174.005 211.215 176.041 197.939ZM201.751 378.688C202.799 378.714 203.83 378.413 204.7 377.826L207.225 376.125L207.545 374.135L197.234 373.309L197.29 378.58L201.751 378.688ZM129.686 383.516L132.305 381.376L132.633 380.065L122.43 378.359L121.932 384.977L126.83 384.644C127.877 384.574 128.874 384.179 129.686 383.516ZM168.335 170.388L169.961 170.803L171.508 164.739L172.548 160.657L174.503 160.985C179.173 161.765 183.59 158.613 184.372 153.944L185.746 145.727L187.99 132.308L175.49 130.218L173.96 134.553L171.438 135.359L168.037 144.374L166.456 144.109L166.643 142.987C166.905 141.426 165.841 139.935 164.28 139.674C162.719 139.412 161.228 140.476 160.967 142.037L160.635 144.017C160.452 145.111 160.921 146.169 161.754 146.795C161.597 147.736 161.568 148.667 161.63 149.578L161.53 149.972L159.014 159.837L158.911 160.24C162.712 162.886 165.736 166.475 168.335 170.388ZM132.098 174.922L119.119 184.856L118.277 185.5L105.668 195.15C105.661 200.34 105.954 205.525 106.514 210.682C107.928 223.707 111.101 236.544 115.831 248.769C112.994 251.143 113.016 254.397 113.455 257.98C112.849 259.582 111.951 261.07 111.004 262.518C110.791 262.844 111.284 263.284 111.618 263.004C112.886 261.937 114.088 260.486 114.915 258.883C115.001 258.929 115.087 258.972 115.171 259.015C115.142 259.103 115.114 259.192 115.081 259.279C114.476 260.882 113.578 262.369 112.63 263.817C112.417 264.143 112.911 264.583 113.244 264.303C114.664 263.109 116 261.433 116.82 259.605C116.823 259.606 116.828 259.607 116.831 259.607C116.769 259.809 116.704 260.01 116.628 260.209C116.023 261.811 115.125 263.299 114.177 264.746C113.964 265.073 114.458 265.513 114.791 265.232C116.427 263.858 117.954 261.843 118.706 259.691C118.817 259.679 118.932 259.661 119.046 259.643C119.035 259.671 119.027 259.701 119.016 259.73C118.411 261.332 117.513 262.819 116.565 264.267C116.352 264.593 116.846 265.033 117.179 264.753C119.356 262.924 121.336 259.961 121.554 257.051C122.355 254.556 122.685 251.919 122.514 249.276C122.524 249.276 122.534 249.277 122.544 249.277C122.917 243.828 123.012 236.992 123.067 229.96C123.073 229.31 123.077 228.659 123.082 228.007C123.119 222.852 123.146 217.651 123.256 212.863C123.333 209.512 123.449 206.351 123.639 203.566C124.81 202.823 128.264 200.35 132.72 197.117C135.547 195.066 138.774 192.711 142.087 190.29C138.334 185.467 135.172 180.326 132.098 174.922Z" fill="url(#paint0_linear_3331_12680)"/>
<path d="M488.099 395.551C488.58 394.193 489.155 392.891 489.783 391.619L488.748 395.872H488.737C488.737 396.258 488.706 396.636 488.679 397.015C488.179 396.764 487.853 396.242 488.099 395.551ZM535.622 203.352L494.948 370.406C494.805 370.177 494.675 369.942 494.528 369.717C490.557 377.797 487.105 386.023 483.849 394.42C481.722 399.907 479.678 405.426 477.689 410.964C477.375 411.062 477.051 411.136 476.729 411.216C475.513 411.516 474.247 411.692 472.937 411.692H287.062L302.882 395.872H424.062C424.99 397.536 425.906 399.204 426.716 400.913C428.385 404.43 429.974 407.982 431.521 411.554H436.721C436.19 410.543 435.653 409.537 435.122 408.526C432.909 404.304 430.7 400.08 428.461 395.872H431.488C433.77 400.171 436.028 404.482 438.29 408.792C438.775 409.715 439.274 410.631 439.763 411.554H441.467C439.875 406.321 438.28 401.089 436.644 395.872H439.422C441.056 401.09 442.654 406.321 444.249 411.554H445.034C443.829 406.354 442.762 401.122 441.79 395.872H444.509C445.487 401.122 446.561 406.352 447.775 411.554H453.557C453.335 406.323 453.45 401.096 453.806 395.872H456.432C456.08 401.098 455.972 406.326 456.211 411.554H460.765C461.811 406.282 463.159 401.05 464.692 395.872H467.488C465.935 401.05 464.564 406.282 463.5 411.554H467.046C469.301 406.255 471.819 401.109 474.007 396.225C474.06 396.108 474.113 395.99 474.165 395.872H475.506L477.105 389.307C480.093 382.654 483.127 376.026 486.427 369.515C487.452 367.493 488.518 365.496 489.597 363.505C489.001 362.882 488.384 362.277 487.752 361.69C485.811 364.823 483.866 367.954 481.802 371.007C481.708 371.147 481.597 371.254 481.481 371.343L483.346 363.682C484.134 362.426 484.92 361.169 485.701 359.909C485.307 359.587 484.898 359.284 484.493 358.975L524.932 192.885C527.943 180.52 518.577 168.6 505.852 168.6H508.319C517.767 168.6 525.893 173.213 530.951 180.102C535.639 186.491 537.695 194.838 535.622 203.352ZM492.766 367.217C492.354 366.674 491.928 366.142 491.491 365.62C490.281 367.887 489.092 370.165 487.941 372.465C483.984 380.374 480.392 388.444 476.798 396.521C474.67 401.305 472.183 406.354 469.928 411.555H474.626C476.556 406.154 478.539 400.774 480.597 395.421C483.559 387.72 486.508 379.966 490.131 372.547C490.998 370.774 491.89 369.001 492.766 367.217Z" fill="#2068FF"/>
<path d="M204.29 242.597C202.754 241.28 201.172 239.938 199.571 238.586L211.387 190.055C214.453 177.463 225.733 168.6 238.694 168.6H251.935H422.157H422.71H505.846C518.573 168.6 527.939 180.519 524.927 192.885L484.488 358.975C483.575 358.279 482.647 357.604 481.683 356.983C479.599 361.861 477.625 366.789 475.776 371.768C473.679 377.409 471.591 383.161 469.666 388.99L475.383 365.367C476.67 362.087 477.991 358.821 479.377 355.584C478.901 355.318 478.42 355.065 477.935 354.818L483.309 332.606L494.485 286.359L515.505 199.801C518.345 188.023 509.512 177.3 497.509 177.3H241.4C228.992 177.3 218.194 185.292 215.259 197.467L207.243 230.424L204.29 242.597ZM464.953 395.017C464.867 395.302 464.775 395.586 464.69 395.872H467.486C467.571 395.586 467.664 395.303 467.749 395.017H464.953ZM475.505 395.872L477.103 389.307C476.121 391.493 475.143 393.683 474.163 395.872H475.505ZM453.87 395.017C453.849 395.302 453.823 395.587 453.804 395.872H456.43C456.449 395.587 456.475 395.302 456.495 395.017H453.87ZM481.477 371.343L483.342 363.682C482.082 365.69 480.808 367.688 479.481 369.653C478.606 370.946 480.408 372.159 481.477 371.343ZM441.63 395.017C441.682 395.302 441.734 395.587 441.787 395.872H444.506C444.453 395.587 444.402 395.302 444.349 395.017H441.63ZM428.004 395.017C428.156 395.302 428.309 395.586 428.461 395.872H431.488C431.337 395.587 431.188 395.302 431.036 395.017H428.004ZM436.375 395.017C436.465 395.302 436.553 395.587 436.643 395.872H439.421C439.332 395.587 439.245 395.302 439.156 395.017H436.375ZM133.627 380.232C136.385 368.547 139.184 357.144 142.742 345.915C142.81 345.7 142.881 345.484 142.949 345.269C144.638 339.986 146.483 334.738 148.603 329.523C154.545 314.905 158.801 297.703 162.331 280.817L184.273 301.416L170.01 359.998L169.854 360.637L161.277 395.861L161.275 395.872H174.515H302.88H424.06C423.902 395.588 423.748 395.302 423.588 395.017H167.284L181.688 335.773L188.955 305.813L199.765 315.961C194.4 330.061 193.161 358.468 196.025 373.213L197.233 373.309L207.545 374.135L208.55 374.216C210.177 363.158 214.2 333.623 216.819 321.893C218.551 314.139 217.065 306.014 212.711 299.367L195.597 278.431L201.54 253.931L201.733 253.136C199.992 252.453 198.264 251.742 196.549 250.994L191.184 273.032L172.988 250.772C172.995 251.048 172.997 251.323 173.004 251.6C165.906 257.882 145.274 258.03 134.436 251.96C128.678 277.263 142.985 307.253 130.443 329.69C129.599 331.2 128.824 332.759 128.091 334.346C127.999 334.545 127.901 334.74 127.811 334.941C121.849 348.188 119.709 363.831 121.236 378.161L122.431 378.361L132.634 380.067L133.627 380.232Z" fill="#333D92"/>
<path d="M241.226 70.5149C241.453 70.5467 241.621 70.6864 241.623 70.9035C241.625 71.1206 241.451 71.2984 241.234 71.3006C240.184 71.3122 239.137 71.3366 238.093 71.3736C238.088 71.3736 238.083 71.3736 238.079 71.3736C237.868 71.3736 237.693 71.2063 237.686 70.9946C237.677 70.7775 237.848 70.5954 238.065 70.588C239.115 70.5509 240.169 70.5265 241.226 70.5149ZM246.764 70.5752C246.759 70.5752 246.754 70.5752 246.751 70.5752C246.54 70.5752 246.364 70.7436 246.358 70.9554C246.351 71.1725 246.521 71.3546 246.738 71.3609C247.789 71.3959 248.837 71.4435 249.88 71.5039C249.887 71.5039 249.896 71.5049 249.903 71.5049C250.111 71.5049 250.283 71.344 250.296 71.1343C250.309 70.9173 250.144 70.732 249.926 70.7192C248.875 70.6578 247.821 70.6102 246.764 70.5752ZM206.917 75.6864C205.904 75.9882 204.897 76.3027 203.895 76.6299C203.689 76.6966 203.577 76.9189 203.643 77.1254C203.697 77.2917 203.852 77.3965 204.017 77.3965C204.057 77.3965 204.099 77.3901 204.139 77.3764C205.134 77.0513 206.135 76.74 207.141 76.4393C207.349 76.3779 207.468 76.1587 207.405 75.9501C207.344 75.7425 207.126 75.6239 206.917 75.6864ZM220.768 72.4113C220.554 72.4494 220.412 72.6527 220.45 72.8666C220.484 73.0572 220.649 73.1917 220.836 73.1917C220.858 73.1917 220.882 73.1896 220.905 73.1854C221.935 73.0032 222.97 72.8338 224.008 72.6782C224.223 72.6453 224.372 72.4452 224.339 72.2303C224.306 72.0153 224.11 71.8724 223.891 71.8999C222.847 72.0577 221.806 72.2281 220.768 72.4113ZM215.338 73.4956C214.307 73.7254 213.28 73.9679 212.258 74.2241C212.048 74.277 211.919 74.4899 211.972 74.7006C212.017 74.8796 212.177 74.9981 212.354 74.9981C212.385 74.9981 212.417 74.9939 212.449 74.9865C213.464 74.7334 214.485 74.492 215.51 74.2633C215.722 74.2156 215.855 74.006 215.808 73.7942C215.761 73.5814 215.551 73.448 215.338 73.4956ZM229.385 71.1989C229.169 71.2212 229.013 71.4149 229.036 71.6309C229.057 71.8332 229.228 71.9835 229.427 71.9835C229.44 71.9835 229.454 71.9825 229.468 71.9814C230.508 71.8724 231.552 71.776 232.6 71.6924C232.816 71.6754 232.978 71.4848 232.961 71.2688C232.943 71.0517 232.759 70.8919 232.538 70.9077C231.482 70.9914 230.432 71.0888 229.385 71.1989ZM175.417 90.1305C174.53 90.698 173.65 91.2783 172.778 91.8681C172.598 91.9898 172.552 92.2344 172.673 92.4144C172.75 92.5267 172.874 92.587 173 92.587C173.075 92.587 173.152 92.5648 173.22 92.5193C174.086 91.9327 174.961 91.3566 175.842 90.7923C176.025 90.6747 176.078 90.4322 175.96 90.2491C175.844 90.0669 175.599 90.0129 175.417 90.1305ZM168.265 95.0711C167.419 95.7001 166.581 96.3397 165.753 96.9898C165.581 97.1243 165.551 97.371 165.686 97.5415C165.763 97.641 165.879 97.6929 165.996 97.6929C166.081 97.6929 166.167 97.6654 166.239 97.6093C167.062 96.9634 167.895 96.328 168.737 95.7033C168.911 95.5741 168.947 95.3274 168.818 95.1527C168.687 94.978 168.44 94.9409 168.265 95.0711ZM161.472 100.5C160.671 101.186 159.88 101.882 159.097 102.589C158.936 102.734 158.923 102.983 159.068 103.144C159.145 103.23 159.252 103.274 159.36 103.274C159.454 103.274 159.549 103.24 159.624 103.173C160.402 102.471 161.189 101.779 161.984 101.097C162.149 100.956 162.167 100.708 162.026 100.542C161.886 100.378 161.637 100.359 161.472 100.5ZM198.671 78.4638C197.682 78.8355 196.699 79.2199 195.723 79.6169C195.522 79.6985 195.424 79.9283 195.506 80.1294C195.568 80.2819 195.715 80.3751 195.87 80.3751C195.92 80.3751 195.97 80.3656 196.018 80.3465C196.988 79.9526 197.965 79.5704 198.948 79.2008C199.152 79.1246 199.254 78.898 199.178 78.6947C199.101 78.4903 198.875 78.3876 198.671 78.4638ZM182.89 85.7023C181.966 86.2074 181.049 86.7241 180.138 87.2514C179.95 87.3605 179.886 87.6008 179.995 87.7893C180.069 87.9153 180.201 87.9852 180.336 87.9852C180.403 87.9852 180.471 87.9682 180.533 87.9322C181.438 87.4081 182.349 86.8946 183.267 86.3926C183.458 86.2889 183.528 86.0496 183.424 85.859C183.32 85.6684 183.081 85.5974 182.89 85.7023ZM190.651 81.8077C189.694 82.2472 188.743 82.6983 187.799 83.1599C187.605 83.2552 187.524 83.4913 187.619 83.6862C187.688 83.8249 187.828 83.9064 187.973 83.9064C188.031 83.9064 188.091 83.8937 188.146 83.8662C189.083 83.4066 190.027 82.9587 190.979 82.5225C191.176 82.4314 191.263 82.1985 191.173 82.0005C191.082 81.8035 190.849 81.7177 190.651 81.8077ZM272.58 74.1362C272.364 74.0843 272.156 74.2135 272.103 74.4242C272.052 74.635 272.181 74.8488 272.39 74.8997C273.41 75.1517 274.424 75.4153 275.434 75.6928C275.469 75.7023 275.503 75.7065 275.538 75.7065C275.711 75.7065 275.87 75.5922 275.917 75.4175C275.975 75.2078 275.852 74.9918 275.642 74.9335C274.627 74.6551 273.605 74.3893 272.58 74.1362ZM311.666 91.8427C311.544 92.0227 311.592 92.2673 311.773 92.388C312.643 92.9746 313.506 93.5728 314.361 94.1806C314.43 94.2293 314.51 94.2537 314.588 94.2537C314.711 94.2537 314.832 94.1965 314.908 94.0885C315.034 93.9117 314.993 93.666 314.816 93.54C313.955 92.928 313.088 92.3266 312.211 91.7357C312.032 91.6161 311.789 91.6616 311.666 91.8427ZM325.375 102.475C325.23 102.637 325.243 102.885 325.405 103.031C326.184 103.732 326.955 104.443 327.717 105.163C327.794 105.235 327.891 105.271 327.987 105.271C328.092 105.271 328.196 105.23 328.273 105.148C328.423 104.991 328.415 104.742 328.257 104.593C327.491 103.868 326.714 103.152 325.93 102.447C325.772 102.3 325.52 102.313 325.375 102.475ZM155.068 106.387C154.317 107.127 153.575 107.877 152.842 108.636C152.69 108.793 152.696 109.042 152.851 109.192C152.928 109.266 153.026 109.302 153.125 109.302C153.227 109.302 153.33 109.262 153.407 109.182C154.135 108.428 154.873 107.682 155.619 106.946C155.774 106.794 155.776 106.545 155.623 106.39C155.471 106.237 155.222 106.235 155.068 106.387ZM318.706 96.921C318.573 97.0925 318.604 97.3393 318.775 97.4727C319.602 98.1186 320.421 98.774 321.231 99.4401C321.304 99.5004 321.392 99.5301 321.481 99.5301C321.594 99.5301 321.706 99.4813 321.785 99.386C321.922 99.2177 321.898 98.971 321.729 98.8323C320.914 98.162 320.09 97.5023 319.258 96.8522C319.087 96.7209 318.841 96.7484 318.706 96.921ZM337.472 114.893C337.305 115.033 337.284 115.281 337.424 115.447C338.1 116.247 338.764 117.058 339.418 117.876C339.495 117.973 339.61 118.024 339.725 118.024C339.811 118.024 339.898 117.997 339.971 117.939C340.14 117.803 340.168 117.555 340.032 117.386C339.373 116.562 338.704 115.747 338.027 114.941C337.886 114.775 337.638 114.754 337.472 114.893ZM331.641 108.475C331.485 108.627 331.48 108.876 331.631 109.031C332.36 109.784 333.08 110.547 333.79 111.317C333.867 111.401 333.973 111.444 334.079 111.444C334.174 111.444 334.271 111.41 334.346 111.341C334.506 111.194 334.515 110.945 334.368 110.785C333.653 110.01 332.93 109.242 332.196 108.485C332.046 108.329 331.796 108.325 331.641 108.475ZM304.823 87.1212C304.635 87.0131 304.394 87.0777 304.286 87.2652C304.177 87.4536 304.241 87.694 304.43 87.8031C305.339 88.3283 306.242 88.8641 307.137 89.4126C307.201 89.4517 307.272 89.4697 307.343 89.4697C307.475 89.4697 307.604 89.403 307.678 89.2812C307.792 89.0959 307.733 88.8545 307.548 88.7402C306.646 88.1895 305.738 87.6495 304.823 87.1212ZM280.95 76.5176C280.745 76.452 280.522 76.5642 280.456 76.7707C280.389 76.9772 280.502 77.1995 280.709 77.2662C281.711 77.5903 282.708 77.927 283.699 78.2753C283.743 78.2912 283.787 78.2976 283.829 78.2976C283.991 78.2976 284.144 78.197 284.2 78.035C284.272 77.8306 284.165 77.6051 283.96 77.5341C282.963 77.1826 281.959 76.8438 280.95 76.5176ZM264.063 72.3489C263.855 72.3107 263.646 72.4558 263.609 72.6697C263.571 72.8836 263.715 73.0869 263.929 73.125C264.963 73.304 265.995 73.4977 267.021 73.7021C267.046 73.7074 267.073 73.7095 267.098 73.7095C267.281 73.7095 267.445 73.5803 267.483 73.3929C267.526 73.1801 267.387 72.9725 267.173 72.9302C266.143 72.7237 265.106 72.5299 264.063 72.3489ZM297.125 83.0318C296.932 82.9376 296.695 83.018 296.599 83.2139C296.504 83.4088 296.586 83.6449 296.78 83.7402C297.726 84.2008 298.665 84.673 299.597 85.1559C299.655 85.1855 299.717 85.2004 299.778 85.2004C299.92 85.2004 300.057 85.1231 300.126 84.9886C300.227 84.7959 300.152 84.5587 299.959 84.4581C299.021 83.97 298.076 83.4956 297.125 83.0318ZM255.443 71.1619C255.231 71.146 255.034 71.2963 255.012 71.5134C254.99 71.7294 255.147 71.9221 255.364 71.9444C256.409 72.0513 257.45 72.171 258.488 72.3044C258.505 72.3065 258.522 72.3076 258.539 72.3076C258.734 72.3076 258.904 72.1625 258.929 71.9645C258.956 71.7495 258.805 71.5515 258.589 71.524C257.544 71.3895 256.496 71.2699 255.443 71.1619ZM289.153 79.4909C288.954 79.4105 288.722 79.5068 288.642 79.7091C288.56 79.9102 288.658 80.14 288.86 80.2215C289.836 80.6144 290.806 81.0199 291.77 81.4371C291.822 81.4594 291.875 81.4689 291.927 81.4689C292.079 81.4689 292.223 81.38 292.288 81.2317C292.373 81.0327 292.282 80.8007 292.083 80.7139C291.112 80.2946 290.136 79.8869 289.153 79.4909ZM126.465 149.692C126.079 150.676 125.705 151.667 125.344 152.662C125.27 152.866 125.376 153.092 125.58 153.166C125.625 153.182 125.67 153.189 125.715 153.189C125.876 153.189 126.027 153.09 126.084 152.93C126.443 151.941 126.815 150.956 127.198 149.979C127.278 149.777 127.178 149.548 126.976 149.47C126.772 149.391 126.545 149.489 126.465 149.692ZM125.794 238.221C125.838 238.221 125.884 238.213 125.929 238.197C126.133 238.122 126.238 237.896 126.164 237.691C125.805 236.708 125.457 235.72 125.123 234.723C125.054 234.518 124.832 234.408 124.624 234.476C124.419 234.544 124.307 234.768 124.376 234.973C124.713 235.975 125.062 236.971 125.423 237.96C125.483 238.121 125.633 238.221 125.794 238.221ZM149.085 112.708C148.387 113.499 147.699 114.298 147.02 115.107C146.88 115.273 146.903 115.521 147.069 115.661C147.143 115.722 147.232 115.753 147.321 115.753C147.433 115.753 147.544 115.705 147.623 115.612C148.297 114.808 148.981 114.013 149.675 113.228C149.819 113.065 149.803 112.817 149.64 112.673C149.479 112.53 149.229 112.545 149.085 112.708ZM132.846 254.011C132.909 254.011 132.972 253.996 133.03 253.964C133.222 253.863 133.295 253.624 133.192 253.432C132.701 252.509 132.22 251.581 131.751 250.646C131.655 250.451 131.419 250.372 131.224 250.47C131.03 250.567 130.951 250.804 131.049 250.997C131.52 251.939 132.004 252.874 132.499 253.802C132.57 253.936 132.706 254.011 132.846 254.011ZM359.215 152.09C359.01 152.165 358.905 152.391 358.981 152.595C359.341 153.579 359.688 154.568 360.025 155.563C360.08 155.727 360.233 155.83 360.397 155.83C360.439 155.83 360.482 155.824 360.523 155.809C360.729 155.739 360.84 155.517 360.77 155.31C360.432 154.309 360.082 153.313 359.72 152.324C359.646 152.121 359.42 152.016 359.215 152.09ZM361.937 160.327C361.728 160.388 361.609 160.606 361.668 160.814C361.958 161.82 362.236 162.831 362.5 163.847C362.547 164.024 362.706 164.141 362.88 164.141C362.912 164.141 362.946 164.137 362.98 164.129C363.191 164.073 363.317 163.859 363.262 163.649C362.995 162.626 362.716 161.608 362.424 160.596C362.363 160.388 362.143 160.267 361.937 160.327ZM166.315 292.854C165.488 292.207 164.67 291.551 163.86 290.884C163.693 290.745 163.445 290.771 163.307 290.937C163.168 291.104 163.192 291.353 163.36 291.491C164.174 292.162 164.997 292.824 165.829 293.473C165.901 293.53 165.987 293.556 166.071 293.556C166.189 293.556 166.304 293.505 166.382 293.405C166.516 293.234 166.485 292.988 166.315 292.854ZM123.108 229.973C123.144 229.973 123.181 229.969 123.217 229.959C123.425 229.898 123.546 229.68 123.486 229.473C123.346 228.988 123.219 228.496 123.085 228.009C123.081 228.661 123.076 229.313 123.071 229.963C123.084 229.963 123.094 229.973 123.108 229.973ZM355.934 144.088C355.736 144.177 355.647 144.41 355.736 144.608C356.163 145.56 356.577 146.52 356.98 147.485C357.044 147.637 357.189 147.728 357.342 147.728C357.393 147.728 357.444 147.718 357.494 147.697C357.694 147.613 357.789 147.384 357.706 147.182C357.301 146.211 356.883 145.246 356.453 144.287C356.364 144.087 356.131 143.999 355.934 144.088ZM172.871 298.597C172.939 298.643 173.015 298.664 173.092 298.664C173.218 298.664 173.342 298.604 173.418 298.492C173.54 298.312 173.492 298.067 173.312 297.945C172.441 297.357 171.58 296.758 170.725 296.15C170.548 296.025 170.304 296.066 170.177 296.242C170.051 296.419 170.092 296.664 170.269 296.79C171.13 297.402 171.997 298.006 172.871 298.597ZM119.227 183.549C119.247 183.333 119.088 183.142 118.871 183.122C118.657 183.101 118.463 183.26 118.443 183.477C118.381 184.15 118.332 184.826 118.28 185.502L119.122 184.858C119.158 184.421 119.187 183.983 119.227 183.549ZM177.534 301.599C178.435 302.15 179.342 302.691 180.258 303.22C180.321 303.256 180.388 303.273 180.455 303.273C180.591 303.273 180.723 303.202 180.796 303.076C180.905 302.888 180.84 302.647 180.653 302.539C179.743 302.013 178.841 301.475 177.946 300.926C177.76 300.813 177.518 300.871 177.404 301.056C177.29 301.243 177.348 301.484 177.534 301.599ZM129.043 246.238C129.096 246.238 129.151 246.227 129.203 246.204C129.401 246.115 129.489 245.882 129.402 245.684C128.976 244.731 128.562 243.771 128.16 242.806C128.077 242.605 127.846 242.514 127.645 242.594C127.445 242.678 127.35 242.909 127.433 243.109C127.838 244.081 128.254 245.046 128.683 246.006C128.748 246.151 128.892 246.238 129.043 246.238ZM133.953 133.954C133.433 134.874 132.924 135.801 132.428 136.735C132.326 136.926 132.398 137.164 132.59 137.266C132.648 137.298 132.712 137.313 132.774 137.313C132.915 137.313 133.052 137.237 133.121 137.104C133.615 136.175 134.12 135.255 134.637 134.341C134.744 134.152 134.677 133.913 134.488 133.806C134.3 133.699 134.06 133.765 133.953 133.954ZM129.933 141.689C129.48 142.643 129.037 143.604 128.606 144.571C128.519 144.769 128.607 145.002 128.807 145.09C128.858 145.113 128.912 145.124 128.966 145.124C129.118 145.124 129.261 145.037 129.326 144.89C129.754 143.928 130.194 142.974 130.645 142.026C130.738 141.83 130.654 141.595 130.458 141.502C130.26 141.41 130.027 141.493 129.933 141.689ZM342.843 121.697C342.669 121.826 342.629 122.071 342.758 122.247C343.375 123.092 343.982 123.945 344.578 124.807C344.654 124.918 344.777 124.977 344.901 124.977C344.978 124.977 345.056 124.955 345.124 124.907C345.303 124.784 345.348 124.538 345.224 124.36C344.624 123.492 344.013 122.632 343.393 121.782C343.265 121.607 343.018 121.569 342.843 121.697ZM138.5 126.523C137.918 127.404 137.346 128.293 136.786 129.189C136.671 129.373 136.727 129.616 136.911 129.731C136.976 129.771 137.049 129.792 137.12 129.792C137.251 129.792 137.379 129.726 137.453 129.607C138.01 128.717 138.578 127.834 139.157 126.958C139.277 126.777 139.227 126.532 139.046 126.413C138.865 126.291 138.62 126.341 138.5 126.523ZM143.553 119.429C142.912 120.268 142.281 121.114 141.659 121.969C141.531 122.144 141.57 122.39 141.746 122.518C141.816 122.569 141.896 122.593 141.977 122.593C142.099 122.593 142.218 122.537 142.295 122.431C142.913 121.582 143.541 120.741 144.178 119.909C144.31 119.736 144.278 119.49 144.105 119.357C143.932 119.224 143.686 119.257 143.553 119.429ZM121.263 166.314C121.02 167.339 120.79 168.368 120.572 169.403C120.527 169.616 120.663 169.824 120.876 169.869C120.903 169.874 120.931 169.877 120.957 169.877C121.139 169.877 121.302 169.75 121.341 169.565C121.557 168.537 121.786 167.514 122.029 166.495C122.078 166.283 121.948 166.072 121.736 166.022C121.526 165.97 121.313 166.102 121.263 166.314ZM347.727 128.854C347.543 128.97 347.488 129.212 347.603 129.397C348.159 130.282 348.704 131.175 349.239 132.077C349.312 132.2 349.443 132.269 349.577 132.269C349.646 132.269 349.714 132.251 349.777 132.214C349.963 132.103 350.026 131.862 349.915 131.675C349.377 130.769 348.828 129.87 348.269 128.979C348.153 128.794 347.91 128.74 347.727 128.854ZM119.553 174.845C119.383 175.885 119.225 176.927 119.08 177.975C119.05 178.19 119.2 178.389 119.415 178.419C119.433 178.422 119.451 178.423 119.469 178.423C119.663 178.423 119.832 178.28 119.858 178.083C120.002 177.043 120.159 176.006 120.328 174.973C120.363 174.76 120.218 174.556 120.004 174.521C119.787 174.481 119.587 174.631 119.553 174.845ZM123.567 157.923C123.253 158.928 122.95 159.94 122.661 160.955C122.602 161.164 122.722 161.382 122.931 161.441C122.967 161.451 123.004 161.456 123.039 161.456C123.209 161.456 123.367 161.344 123.417 161.171C123.705 160.161 124.005 159.157 124.318 158.158C124.383 157.95 124.267 157.73 124.061 157.665C123.851 157.599 123.632 157.715 123.567 157.923ZM352.098 136.33C351.906 136.432 351.833 136.671 351.936 136.863C352.428 137.784 352.911 138.712 353.381 139.647C353.45 139.785 353.589 139.865 353.733 139.865C353.793 139.865 353.852 139.851 353.91 139.822C354.104 139.725 354.182 139.488 354.084 139.294C353.612 138.352 353.127 137.419 352.632 136.491C352.527 136.299 352.286 136.228 352.098 136.33ZM262.134 287.355H302.781C306.107 270.252 311.776 253.971 319.202 240.195C310.899 238.237 303.102 235.463 296.006 231.944C278.37 246.768 266.364 266.412 262.134 287.355ZM404.22 226.83L402.732 225.41C402.549 225.24 402.366 225.071 402.18 224.903L401.377 224.197C401.202 224.045 401.028 223.892 400.851 223.743C400.671 223.589 400.489 223.44 400.307 223.291L399.976 223.018C399.815 222.884 399.654 222.752 399.49 222.622L398.721 222.021C398.515 221.861 398.306 221.699 398.097 221.542C397.87 221.371 397.639 221.205 397.41 221.038C397.109 220.816 396.894 220.658 396.676 220.504C396.468 220.357 396.257 220.214 396.047 220.07L395.846 219.931C395.64 219.788 395.433 219.646 395.225 219.507L394.388 218.964C394.174 218.826 393.96 218.687 393.744 218.552L392.82 217.99C392.625 217.872 392.43 217.753 392.232 217.638L391.404 217.166C391.168 217.032 390.933 216.896 390.694 216.766L389.738 216.258C389.535 216.149 389.332 216.042 389.128 215.937L388.179 215.466C387.965 215.359 387.752 215.253 387.537 215.15L386.651 214.741C386.408 214.629 386.165 214.515 385.919 214.408L384.901 213.971C384.692 213.882 384.482 213.792 384.273 213.706L383.29 213.316C383.061 213.226 382.833 213.135 382.603 213.048L381.564 212.669C381.347 212.59 381.129 212.51 380.91 212.434C380.717 212.368 380.525 212.304 380.333 212.24L379.831 212.074C379.619 212.003 379.406 211.931 379.191 211.863L378.186 211.559C377.942 211.483 377.697 211.408 377.45 211.337L376.353 211.037C376.132 210.975 375.911 210.914 375.687 210.856L374.62 210.593C374.38 210.534 374.14 210.474 373.898 210.418C373.698 210.372 373.496 210.329 373.294 210.286L372.802 210.179C372.564 210.126 372.328 210.073 372.087 210.024L370.876 209.792C370.672 209.753 370.467 209.713 370.262 209.677C370.035 209.638 369.808 209.602 369.58 209.566L369.067 209.482C368.848 209.445 368.628 209.408 368.408 209.374L367.157 209.203C366.953 209.174 366.746 209.144 366.54 209.119C366.326 209.092 366.111 209.069 365.897 209.046C373.691 213.395 379.355 223.685 382.027 238.512C390.846 236.621 399.476 233.946 407.695 230.558L407.166 229.945C406.993 229.747 406.818 229.554 406.642 229.361L406.421 229.118C406.272 228.953 406.124 228.787 405.971 228.625C405.784 228.424 405.594 228.226 405.404 228.029L404.741 227.343C404.568 227.172 404.393 227 404.22 226.83ZM421.197 289.144H380.554C377.229 306.243 371.561 322.522 364.135 336.301C372.437 338.259 380.233 341.032 387.327 344.551C404.961 329.728 416.964 310.085 421.197 289.144ZM421.538 287.355C425.31 266.415 420.815 246.774 408.859 231.957C400.369 235.502 391.447 238.289 382.323 240.249C384.532 254.01 384.038 270.272 380.892 287.355H421.538ZM357.041 208.534L356.905 208.532L356.757 208.005L356.761 208.534C345.336 208.627 332.635 219.693 321.849 238.929C330.889 240.905 340.48 241.908 350.368 241.908C360.345 241.908 370.404 240.888 380.272 238.878C376.821 219.674 368.37 208.623 357.041 208.534ZM326.431 367.97C337.894 367.97 350.648 356.9 361.486 337.566C352.452 335.59 342.861 334.588 332.97 334.588C322.999 334.588 312.939 335.606 303.061 337.616C306.527 356.916 315.029 367.97 326.431 367.97ZM379.085 287.355C382.231 270.372 382.743 254.235 380.568 240.616C370.561 242.661 360.356 243.696 350.228 243.696C340.061 243.696 330.207 242.652 320.932 240.59C313.556 254.211 307.914 270.359 304.591 287.354H379.085V287.355ZM420.758 389.764C421.641 391.541 422.619 393.28 423.592 395.017H167.287L181.691 335.774L188.958 305.813L199.768 315.961C194.402 330.061 193.164 358.468 196.028 373.213L197.236 373.309L197.292 378.581L196.284 378.556C196.284 378.556 193.249 383.985 192.437 388.372C192.314 389.034 192.78 389.658 193.451 389.711L227.296 392.423C227.831 392.465 228.224 391.931 228.023 391.433L227.425 389.953C226.58 387.859 224.815 386.273 222.645 385.655L217.618 384.224C215.012 383.482 211.98 382.392 210.563 380.083L207.903 375.671L207.228 376.126L207.547 374.136L208.552 374.217C210.18 363.159 214.202 333.624 216.822 321.894C218.553 314.14 217.068 306.015 212.714 299.369L195.6 278.433L201.542 253.932L201.735 253.137C204.122 254.074 206.527 254.966 208.957 255.782C208.973 259.479 211.484 261.544 214.52 263.495C215.366 264.985 215.936 266.626 216.444 268.279C216.558 268.652 217.213 268.552 217.211 268.117C217.201 266.46 216.852 264.608 216.148 262.948C216.238 262.911 216.326 262.872 216.413 262.834C216.462 262.914 216.513 262.991 216.559 263.073C217.405 264.562 217.975 266.204 218.483 267.857C218.598 268.229 219.252 268.13 219.25 267.695C219.239 265.84 218.803 263.742 217.921 261.942C217.924 261.94 217.926 261.937 217.93 261.935C218.046 262.112 218.158 262.291 218.264 262.476C219.11 263.966 219.68 265.607 220.188 267.26C220.302 267.633 220.957 267.534 220.955 267.098C220.943 264.962 220.369 262.5 219.194 260.547C219.255 260.453 219.315 260.354 219.374 260.255C219.39 260.281 219.407 260.307 219.421 260.333C220.267 261.823 220.837 263.464 221.345 265.117C221.46 265.49 222.114 265.39 222.112 264.955C222.096 262.112 221.083 258.695 218.982 256.669C217.575 254.459 215.758 252.52 213.615 250.963C213.622 250.956 213.628 250.949 213.636 250.94C210.976 248.405 207.753 245.565 204.293 242.598L207.247 230.423L215.262 197.466C218.197 185.291 228.996 177.299 241.404 177.299H497.513C509.516 177.299 518.349 188.023 515.509 199.8L494.488 286.358L483.313 332.605L477.938 354.817C476.228 353.947 474.461 353.194 472.651 352.566C469.945 360.587 467.566 368.703 466.119 377.081C465.826 378.783 463.239 378.057 463.53 376.367C464.981 367.96 467.372 359.816 470.09 351.769C467.931 351.179 465.724 350.766 463.488 350.565C460.602 365.351 457.573 380.178 456.498 395.018H453.873C454.963 380.129 457.984 365.265 460.859 350.428C460.676 350.425 460.493 350.415 460.31 350.415C457.12 350.408 453.957 350.839 450.891 351.645C450.116 362.236 449.695 372.832 450.686 383.457C450.847 385.179 448.161 385.162 448.002 383.457C447.036 373.108 447.411 362.787 448.146 352.473C444.947 353.568 441.881 355.069 439.033 356.916C440.327 369.692 442.035 382.417 444.354 395.018H441.635C439.435 382.994 437.784 370.858 436.521 358.673C435.167 359.697 433.877 360.802 432.659 361.98C433.574 364.766 434.495 367.551 435.495 370.31C436.085 371.939 433.49 372.635 432.906 371.023C432.083 368.754 431.316 366.466 430.56 364.176C430.101 364.689 429.644 365.206 429.211 365.741C432.841 375.392 436.071 385.18 439.159 395.018H436.38C433.554 386.035 430.598 377.096 427.319 368.269C426.265 369.797 425.324 371.398 424.499 373.056C426.38 376.606 428.252 380.16 429.975 383.788C430.713 385.342 428.397 386.703 427.657 385.143C426.218 382.113 424.679 379.134 423.121 376.166C422.772 377.065 422.458 377.978 422.182 378.905C425.237 384.22 428.163 389.607 431.042 395.019H428.009C425.809 390.897 423.578 386.791 421.278 382.724C420.859 385.053 420.699 387.413 420.758 389.764ZM388.956 345.429C406.939 330.119 419.079 309.874 423.166 288.347C427.253 266.815 422.805 246.552 410.64 231.205L410.657 231.197L409.901 230.283C397.441 215.14 378.72 206.781 357.188 206.745L357.043 206.741L356.892 206.745C335.383 206.783 313.539 215.117 295.385 230.212L294.369 231.064L294.375 231.067C276.392 246.378 264.252 266.623 260.165 288.15C256.074 309.699 260.531 329.972 272.718 345.323L272.704 345.33L273.431 346.214C285.917 361.399 304.691 369.762 326.293 369.762C347.852 369.762 369.748 361.425 387.948 346.284L388.961 345.433L388.956 345.429ZM274.473 344.539C282.963 340.994 291.884 338.207 301.011 336.246C298.802 322.487 299.296 306.227 302.442 289.145H261.793C258.021 310.083 262.517 329.723 274.473 344.539ZM345.075 209.375C344.84 209.408 344.607 209.445 344.375 209.482L343.107 209.679C342.85 209.721 342.593 209.768 342.336 209.814L339.182 210.42C338.931 210.473 338.68 210.53 338.43 210.588L337.915 210.702C337.685 210.753 337.455 210.804 337.225 210.856C336.979 210.915 336.734 210.976 336.488 211.038L335.276 211.339C334.997 211.411 334.721 211.488 334.444 211.564L333.33 211.868C333.066 211.942 332.803 212.02 332.541 212.099L331.39 212.438C331.127 212.519 330.863 212.604 330.6 212.688L329.458 213.054C329.165 213.151 328.869 213.253 328.576 213.354L327.537 213.712C327.265 213.809 326.994 213.909 326.724 214.008L325.62 214.415C325.368 214.511 325.117 214.609 324.867 214.707L323.712 215.161C323.411 215.283 323.111 215.408 322.811 215.535L321.816 215.951C321.518 216.079 321.22 216.21 320.922 216.342L319.929 216.782C319.63 216.917 319.332 217.057 319.034 217.197L318.054 217.657C317.788 217.784 317.524 217.914 317.26 218.044L316.189 218.572C315.929 218.704 315.671 218.838 315.411 218.974L311.527 221.086C311.242 221.247 310.962 221.408 310.68 221.572L304.252 225.661L303.542 226.15C303.253 226.352 302.965 226.56 302.678 226.766L301.803 227.395C301.558 227.574 301.314 227.756 301.072 227.937L300.839 228.111C300.585 228.3 300.331 228.489 300.078 228.683L299.261 229.314C298.964 229.544 298.666 229.775 298.372 230.008L297.565 230.658C304.47 234.016 312.048 236.665 320.112 238.539C328.357 223.754 337.853 213.476 347.221 209.098C347.161 209.105 347.103 209.113 347.044 209.119L345.075 209.375ZM305.87 365.16C306.123 365.232 306.379 365.302 306.637 365.371L307.636 365.643C307.889 365.709 308.144 365.77 308.399 365.833L309.425 366.082C309.681 366.141 309.937 366.195 310.195 366.25L311.236 366.474C311.514 366.532 311.791 366.583 312.069 366.634L313.069 366.824C313.317 366.867 313.569 366.907 313.821 366.948L314.921 367.127C315.196 367.168 315.474 367.204 315.751 367.241L316.793 367.383C317.011 367.409 317.228 367.435 317.446 367.457C309.648 363.111 303.981 352.817 301.309 337.981C292.481 339.875 283.852 342.548 275.639 345.937C275.847 346.18 276.011 346.373 276.177 346.561C276.324 346.728 276.47 346.891 276.617 347.053L276.896 347.36C277.054 347.534 277.211 347.709 277.371 347.881C277.535 348.058 277.703 348.23 277.869 348.403L278.599 349.159C278.781 349.342 278.966 349.524 279.15 349.705L279.859 350.397C280.048 350.577 280.24 350.754 280.432 350.932L280.629 351.115C280.802 351.275 280.975 351.436 281.15 351.593C281.346 351.769 281.542 351.94 281.74 352.113L282.476 352.753C282.676 352.922 282.881 353.089 283.084 353.257L283.298 353.433C283.476 353.581 283.653 353.727 283.834 353.871C284.017 354.018 284.2 354.159 284.384 354.301L284.555 354.433C284.828 354.645 285.024 354.799 285.224 354.949C285.44 355.111 285.657 355.271 285.875 355.428L286.105 355.596C286.284 355.726 286.462 355.857 286.644 355.985C286.874 356.147 287.107 356.307 287.338 356.466L288.093 356.982C288.28 357.106 288.468 357.226 288.657 357.349L289.573 357.938C289.841 358.104 290.114 358.269 290.387 358.432L291.08 358.851C291.295 358.977 291.513 359.099 291.73 359.222L294.183 360.553C294.418 360.674 294.656 360.791 294.895 360.908L295.771 361.339C296.013 361.453 296.252 361.563 296.493 361.674L297.395 362.085C297.625 362.188 297.859 362.287 298.093 362.386L299.038 362.786C299.275 362.884 299.514 362.978 299.754 363.071L300.71 363.446C300.957 363.539 301.206 363.629 301.455 363.719L302.405 364.062C302.674 364.156 302.948 364.244 303.22 364.334L303.59 364.456C303.768 364.517 303.946 364.576 304.126 364.633C304.382 364.715 304.64 364.791 304.898 364.869L305.87 365.16ZM464.955 395.017H467.753C468.367 392.998 469.008 390.989 469.669 388.988L475.385 365.365C474.643 367.256 473.899 369.147 473.19 371.052C470.286 378.866 467.4 386.876 464.955 395.017ZM337.378 367.242C337.676 367.205 337.974 367.168 338.271 367.126L341.275 366.64C341.587 366.586 341.897 366.532 342.207 366.473L347.137 365.392C347.453 365.315 347.77 365.238 348.085 365.155L351.017 364.339C351.337 364.245 351.656 364.152 351.975 364.054L353.056 363.711C353.341 363.621 353.625 363.531 353.91 363.438L354.714 363.161C355.09 363.034 355.463 362.908 355.836 362.776L356.832 362.412C357.139 362.3 357.446 362.188 357.751 362.072L358.749 361.684C359.051 361.567 359.355 361.447 359.658 361.325L360.629 360.923C360.938 360.795 361.248 360.667 361.556 360.535L362.527 360.108C362.831 359.975 363.136 359.841 363.439 359.703L364.524 359.198C364.787 359.076 365.051 358.954 365.314 358.827L366.327 358.331C366.611 358.191 366.895 358.051 367.177 357.909L371.872 355.374C372.142 355.22 372.412 355.067 372.68 354.909L373.694 354.306C373.957 354.149 374.221 353.99 374.483 353.829L380.759 349.657C381.018 349.473 381.276 349.288 381.532 349.1C381.761 348.934 381.987 348.766 382.212 348.596L383.25 347.819C383.533 347.603 383.813 347.384 384.096 347.164C384.382 346.944 384.665 346.723 384.946 346.499H384.947L385.766 345.838C378.863 342.481 371.286 339.832 363.223 337.959C354.974 352.751 345.473 363.032 336.102 367.407C336.167 367.4 336.232 367.392 336.298 367.385L337.378 367.242ZM378.743 289.144H304.249C301.103 306.126 300.591 322.261 302.765 335.878C312.781 333.834 322.988 332.798 333.111 332.798C343.28 332.798 353.131 333.842 362.404 335.905C369.778 322.285 375.42 306.139 378.743 289.144Z" fill="white"/>
<path d="M73.4092 260.805C65.0928 239.776 60.7314 217.154 60.7314 193.86C60.7314 159.934 69.97 127.432 87.237 99.2075C87.4096 99.3272 87.5885 99.4383 87.776 99.5421C70.9622 127.039 61.2608 159.337 61.2608 193.86C61.2608 217.421 65.7811 239.945 73.9948 260.615C73.7925 260.67 73.5977 260.734 73.4092 260.805ZM242.591 12.5294C313.537 12.5294 375.085 53.4897 404.86 112.998C405.051 112.905 405.251 112.822 405.456 112.746C396.796 95.3987 385.296 79.3759 371.187 65.2654C336.838 30.9167 291.169 12 242.592 12C194.016 12 148.347 30.9167 113.998 65.2654C107.227 72.0358 101.066 79.2531 95.5205 86.8388C95.6963 86.9617 95.8636 87.0919 96.0235 87.2285C129.026 41.9883 182.429 12.5294 242.591 12.5294ZM170.01 359.997C160.543 355.844 151.493 350.91 142.949 345.269C142.881 345.484 142.811 345.699 142.742 345.915C151.375 351.607 160.44 356.529 169.854 360.636L170.01 359.997ZM80.006 274.086C79.827 274.199 79.6385 274.3 79.4448 274.397C88.137 291.965 99.7306 308.188 113.997 322.453C118.419 326.875 123.031 331.037 127.81 334.938C127.9 334.738 127.998 334.544 128.09 334.343C108.069 317.993 91.5879 297.462 80.006 274.086ZM411.533 126.312C411.351 126.405 411.162 126.489 410.968 126.567C416.305 139.876 420.103 153.961 422.156 168.597H422.709C420.69 154.004 416.933 139.826 411.533 126.312ZM20.1491 379.927C19.6927 382.485 19.518 385.072 19.5837 387.651C21.6368 391.784 24.1495 395.727 26.1201 399.88C26.3085 400.276 26.4854 400.678 26.6717 401.076L29.8886 397.859C26.712 391.842 23.4972 385.848 20.1491 379.927ZM36.8708 353.547C35.3862 354.669 33.9716 355.883 32.6342 357.175C33.638 360.232 34.6482 363.287 35.7452 366.313C36.3932 368.1 33.547 368.864 32.9053 367.095C32.0031 364.607 31.1624 362.096 30.3323 359.584C29.8282 360.147 29.3274 360.714 28.8519 361.3C33.134 372.686 36.9068 384.246 40.526 395.861H42.9286C40.2856 381.872 38.3426 367.739 36.8708 353.547ZM26.7766 364.073C25.6213 365.75 24.5879 367.505 23.6836 369.324C25.7463 373.218 27.7994 377.116 29.6895 381.096C30.4995 382.8 27.9593 384.292 27.1472 382.582C25.5684 379.259 23.8806 375.991 22.1715 372.735C21.7893 373.721 21.4441 374.722 21.1423 375.738C24.9532 382.368 28.5777 389.101 32.1535 395.86H37.4786C34.1463 385.183 30.6721 374.555 26.7766 364.073ZM63.5681 344.503C63.3669 344.5 63.1668 344.488 62.9666 344.487C59.4671 344.48 55.9982 344.953 52.6342 345.836C51.786 357.453 51.3222 369.076 52.4097 380.73C52.5855 382.619 49.6397 382.601 49.465 380.73C48.4061 369.38 48.817 358.059 49.6228 346.745C46.1137 347.946 42.7507 349.593 39.6281 351.619C41.1306 366.46 43.1319 381.239 45.9114 395.858H55.743C56.768 378.709 60.258 361.59 63.5681 344.503ZM85.223 393.855C88.4716 385.409 91.7054 376.904 95.6804 368.766C96.6302 366.822 97.6086 364.877 98.5701 362.92C98.1179 362.325 97.652 361.742 97.1713 361.169C95.8435 363.655 94.539 366.154 93.2768 368.677C88.9365 377.352 84.9964 386.204 81.0553 395.063C80.9388 395.326 80.8107 395.597 80.6921 395.862H84.4681C84.7211 395.192 84.9668 394.521 85.223 393.855ZM77.0951 367.127C79.2192 361.412 81.4863 355.756 83.8846 350.158C81.5255 348.835 79.0509 347.733 76.5043 346.849C73.5352 355.647 70.9251 364.549 69.3389 373.739C69.017 375.605 66.1792 374.809 66.499 372.956C68.0905 363.734 70.7133 354.802 73.694 345.974C71.3254 345.327 68.9048 344.874 66.4524 344.654C63.1287 361.685 59.6291 378.765 58.6231 395.86H67.3429C70.1691 386.086 73.6189 376.479 77.0951 367.127ZM77.992 394.738C82.3958 384.903 86.7425 375.057 91.6144 365.44C92.7378 363.222 93.9079 361.031 95.0917 358.848C94.4373 358.164 93.7618 357.501 93.0682 356.857C90.9388 360.293 88.8062 363.727 86.5424 367.077C85.4856 368.64 82.9359 367.165 84 365.591C86.3666 362.088 88.5923 358.496 90.8181 354.904C89.4109 353.753 87.9412 352.678 86.4153 351.693C84.1292 357.045 81.9649 362.449 79.935 367.911C76.5551 377.005 73.1837 386.351 70.3999 395.861H77.4806C77.6479 395.488 77.8268 395.108 77.992 394.738ZM107.496 389.683C107.547 386.199 107.197 382.709 106.396 379.292C106.359 379.136 106.314 378.982 106.275 378.826C102.063 383.631 98.4123 388.794 96.2882 394.782C95.6582 396.558 92.8141 395.789 93.4483 393.999C95.9377 386.983 100.348 381.084 105.335 375.583C104.157 372.084 102.517 368.754 100.5 365.662C96.1453 374.525 92.3577 383.548 88.7872 392.759C88.3869 393.791 88.0047 394.828 87.6108 395.862H102.053C103.858 393.782 105.678 391.724 107.496 389.683ZM421.271 382.72C420.855 385.052 420.695 387.411 420.756 389.763C421.639 391.539 422.616 393.278 423.589 395.016C423.748 395.299 423.903 395.585 424.062 395.87C424.989 397.535 425.905 399.202 426.715 400.911C428.384 404.428 429.973 407.98 431.52 411.552H436.72C436.189 410.542 435.652 409.535 435.121 408.525C432.908 404.302 430.7 400.078 428.46 395.87C428.309 395.585 428.155 395.3 428.003 395.016C425.802 390.893 423.572 386.787 421.271 382.72ZM436.516 358.671C435.163 359.695 433.872 360.8 432.654 361.978C433.569 364.765 434.49 367.55 435.49 370.308C436.081 371.938 433.486 372.633 432.901 371.022C432.078 368.752 431.312 366.464 430.556 364.174C430.096 364.687 429.64 365.204 429.207 365.739C432.836 375.391 436.066 385.179 439.155 395.017C439.244 395.302 439.331 395.586 439.42 395.871C441.054 401.089 442.652 406.32 444.247 411.553H445.032C443.827 406.353 442.76 401.121 441.788 395.871C441.735 395.586 441.683 395.302 441.631 395.017C439.431 382.991 437.779 370.855 436.516 358.671ZM427.313 368.267C426.26 369.795 425.318 371.396 424.494 373.055C426.374 376.604 428.246 380.159 429.969 383.786C430.707 385.341 428.391 386.701 427.651 385.142C426.212 382.111 424.674 379.133 423.115 376.165C422.767 377.064 422.452 377.976 422.177 378.903C425.232 384.218 428.157 389.605 431.036 395.018C431.188 395.302 431.337 395.587 431.488 395.872C433.77 400.171 436.028 404.483 438.291 408.793C438.776 409.716 439.274 410.632 439.764 411.554H441.467C439.876 406.321 438.28 401.089 436.644 395.872C436.555 395.587 436.466 395.303 436.376 395.018C433.549 386.032 430.594 377.093 427.313 368.267ZM460.856 350.426C460.673 350.422 460.491 350.412 460.308 350.412C457.117 350.405 453.954 350.836 450.888 351.642C450.114 362.233 449.693 372.829 450.684 383.454C450.845 385.177 448.158 385.16 447.999 383.454C447.034 373.105 447.409 362.785 448.143 352.47C444.945 353.565 441.878 355.067 439.031 356.913C440.325 369.69 442.033 382.414 444.352 395.016C444.404 395.3 444.455 395.585 444.508 395.87C445.487 401.12 446.56 406.351 447.774 411.552H453.556C453.334 406.321 453.449 401.095 453.805 395.87C453.824 395.585 453.85 395.3 453.871 395.016C454.959 380.126 457.98 365.263 460.856 350.426ZM487.939 372.464C483.982 380.373 480.39 388.442 476.796 396.519C474.668 401.303 472.181 406.352 469.926 411.553H474.624C476.554 406.153 478.537 400.773 480.596 395.419C483.557 387.718 486.506 379.965 490.129 372.545C490.994 370.773 491.886 368.999 492.762 367.216C492.35 366.674 491.925 366.141 491.487 365.619C490.279 367.884 489.09 370.163 487.939 372.464ZM473.187 371.051C473.895 369.145 474.64 367.255 475.382 365.364C476.669 362.085 477.99 358.818 479.376 355.581C478.9 355.315 478.419 355.062 477.934 354.816C476.224 353.945 474.456 353.192 472.647 352.564C469.94 360.585 467.561 368.702 466.115 377.079C465.821 378.781 463.234 378.056 463.526 376.366C464.976 367.958 467.367 359.815 470.085 351.767C467.926 351.177 465.72 350.764 463.483 350.563C460.598 365.349 457.568 380.177 456.494 395.017C456.474 395.302 456.448 395.586 456.429 395.871C456.078 401.098 455.97 406.325 456.208 411.553H460.762C461.808 406.281 463.156 401.049 464.689 395.871C464.774 395.585 464.866 395.303 464.952 395.017C467.398 386.874 470.283 378.865 473.187 371.051ZM475.776 371.765C473.679 377.407 471.591 383.158 469.666 388.987C469.005 390.989 468.365 392.997 467.751 395.017C467.664 395.302 467.572 395.585 467.487 395.871C465.935 401.049 464.563 406.281 463.499 411.553H467.045C469.301 406.254 471.819 401.108 474.006 396.225C474.059 396.107 474.112 395.99 474.164 395.871C475.144 393.682 476.122 391.493 477.105 389.306C480.093 382.653 483.126 376.026 486.426 369.515C487.451 367.492 488.517 365.495 489.596 363.505C489 362.881 488.384 362.276 487.752 361.69C485.811 364.822 483.865 367.953 481.802 371.007C481.708 371.147 481.596 371.254 481.48 371.342C480.41 372.16 478.609 370.946 479.484 369.652C480.812 367.688 482.086 365.689 483.346 363.682C484.133 362.426 484.919 361.169 485.701 359.909C485.307 359.587 484.897 359.283 484.492 358.975C483.58 358.278 482.651 357.604 481.687 356.982C479.599 361.858 477.627 366.786 475.776 371.765ZM483.848 394.418C481.72 399.905 479.677 405.424 477.687 410.962C477.656 411.047 477.626 411.131 477.595 411.214C477.555 411.328 477.512 411.44 477.472 411.552H484.492C484.573 411.439 484.658 411.328 484.739 411.214C489.658 404.353 495.3 397.901 500.903 391.616C500.949 388.439 500.629 385.258 499.9 382.143C499.866 382 499.825 381.86 499.79 381.717C495.949 386.098 492.621 390.806 490.685 396.264C490.353 397.197 489.355 397.357 488.676 397.015C488.177 396.764 487.85 396.242 488.096 395.55C488.577 394.193 489.152 392.89 489.78 391.619C492.111 386.897 495.351 382.712 498.933 378.761C497.944 375.826 496.586 373.03 494.945 370.404C494.803 370.176 494.672 369.941 494.525 369.715C490.555 377.795 487.104 386.021 483.848 394.418ZM173.004 251.598C172.998 251.322 172.995 251.046 172.989 250.77C172.893 246.53 172.865 242.297 172.912 238.072C173.066 224.604 174.005 211.215 176.04 197.939C177.602 198.069 179.168 198.164 180.743 198.214C181.168 191.354 181.604 184.206 181.96 178.675C182.178 175.29 180.565 172.221 177.977 170.409C176.176 168.389 173.966 166.422 171.506 164.738L169.959 170.802L168.334 170.387C165.734 166.472 162.71 162.884 158.91 160.241L159.013 159.837C155.038 159.469 151.073 160.37 147.56 163.161C147.268 163.338 146.982 163.529 146.705 163.741L132.098 174.921C135.173 180.325 138.335 185.466 142.089 190.288C138.775 192.71 135.548 195.065 132.722 197.116C129.636 214.273 131.015 231.799 132.648 250.841C133.206 251.235 133.808 251.604 134.437 251.957C145.274 258.029 165.906 257.88 173.004 251.598Z" fill="url(#paint1_linear_3331_12680)"/>
</g>
<defs>
<filter id="filter0_d_3331_12680" x="0" y="0" width="552.428" height="434" filterUnits="userSpaceOnUse" color-interpolation-filters="sRGB">
<feFlood flood-opacity="0" result="BackgroundImageFix"/>
<feColorMatrix in="SourceAlpha" type="matrix" values="0 0 0 0 0 0 0 0 0 0 0 0 0 0 0 0 0 0 127 0" result="hardAlpha"/>
<feMorphology radius="2" operator="dilate" in="SourceAlpha" result="effect1_dropShadow_3331_12680"/>
<feOffset dx="2" dy="2"/>
<feGaussianBlur stdDeviation="6"/>
<feComposite in2="hardAlpha" operator="out"/>
<feColorMatrix type="matrix" values="0 0 0 0 0.580392 0 0 0 0 0.580392 0 0 0 0 0.580392 0 0 0 0.15 0"/>
<feBlend mode="normal" in2="BackgroundImageFix" result="effect1_dropShadow_3331_12680"/>
<feBlend mode="normal" in="SourceGraphic" in2="effect1_dropShadow_3331_12680" result="shape"/>
</filter>
<linearGradient id="paint0_linear_3331_12680" x1="105.742" y1="130.079" x2="302.24" y2="227.877" gradientUnits="userSpaceOnUse">
<stop stop-color="#E48D60"/>
<stop offset="1" stop-color="#FFD8C4"/>
</linearGradient>
<linearGradient id="paint1_linear_3331_12680" x1="19.2112" y1="12" x2="500.541" y2="411.305" gradientUnits="userSpaceOnUse">
<stop stop-color="#FCFF99"/>
<stop offset="1" stop-color="#E7ED32"/>
</linearGradient>
</defs>
</svg>
