<svg width="491" height="443" viewBox="0 0 491 443" fill="none" xmlns="http://www.w3.org/2000/svg">
<path d="M154.765 177.385C154.765 177.488 154.868 177.694 154.868 177.797C155.383 177.591 156.002 177.488 156.517 177.385C156.414 177.18 156.414 177.077 156.311 176.871C155.899 176.974 155.383 177.18 154.765 177.385ZM156.62 175.223C157.032 174.503 157.651 174.709 158.269 174.915C158.269 175.121 158.372 175.326 158.372 175.532C158.372 175.635 158.475 175.738 158.475 175.841C158.578 176.665 158.784 177.385 158.99 178.209C158.681 178.209 158.475 178.209 158.269 178.209C157.754 178.415 156.929 178.93 156.208 179.342C156.311 179.444 156.517 179.547 156.62 179.547C156.826 179.444 157.135 179.444 157.341 179.342C157.754 179.239 158.166 179.444 158.372 179.856C158.784 179.856 159.196 179.753 159.608 179.753C159.918 180.577 160.33 181.401 160.742 182.121H172.284C173.829 179.547 174.86 175.944 174.86 172.135C174.86 171.517 174.86 171.002 174.757 170.385H158.269C158.269 171.002 158.166 171.517 158.166 172.135C158.166 172.444 158.166 172.856 158.166 173.164C157.651 172.959 157.032 173.061 156.517 173.267C155.487 173.679 154.868 174.709 154.662 175.738C155.28 175.635 155.899 175.532 156.517 175.429C156.62 175.223 156.62 175.223 156.62 175.223ZM195.676 239.465H214.843C215.77 238.745 216.595 237.921 217.316 236.994H193.203C193.924 237.921 194.748 238.745 195.676 239.465Z" fill="#EFEBE9"/>
<path d="M486.79 435.793H481.947L461.646 244.098H469.375V239.568H422.075H421.457H366.944V244.098H369.52L358.288 349.829L358.185 350.858L349.219 435.793H320.675C320.468 433.22 318.51 431.263 315.934 431.057L321.705 376.596L321.808 375.773L329.64 301.648C330.052 300.721 330.361 299.691 330.361 298.662V297.838C330.361 297.324 330.361 296.912 330.258 296.397L335.823 244.304C335.823 244.201 335.823 244.201 335.823 244.098H332.628L327.579 292.176C326.445 291.352 325.003 290.838 323.56 290.838H306.557H301.198H284.195C280.382 290.838 277.291 293.926 277.291 297.735V298.559C277.291 302.368 280.382 305.457 284.195 305.457H301.198V315.855V316.884V385.656V386.377V430.852H292.027C289.348 430.852 287.08 432.911 286.874 435.587H275.848L271.623 395.745L271.52 395.127L265.028 333.768L264.925 332.842L255.444 243.892H263.173V239.362H238.75L248.231 198.696H246.479H185.886L180.733 220.831L180.424 222.375L180.321 222.787L179.909 224.537L179.806 224.949L179.394 226.699L179.188 227.523L178.775 229.17L176.405 239.259H160.433V243.789H163.009L158.166 289.602L154.971 319.561L149.097 374.949L148.067 385.038L147.964 385.759L144.975 413.556L143.636 426.631L143.017 432.499L142.708 435.587H133.537L133.434 436.205L131.682 436.102V435.587H114.267C114.06 433.014 112.103 431.058 109.526 430.852L116.121 368.978L116.225 368.154L121.686 317.193L126.632 270.247L129.415 244.098C129.415 243.995 129.415 243.995 129.415 243.892H126.22L123.438 270.247L118.698 314.722L113.236 366.198L113.133 367.022L106.332 430.852H99.9427V357.447V356.521V305.457H107.774C103.343 301.236 99.7366 296.191 97.2634 290.735H94.5841H77.581C73.7681 290.735 70.6766 293.823 70.6766 297.632V298.456C70.6766 302.265 73.7681 305.354 77.581 305.354H94.5841V351.991V352.917V403.878C94.6872 403.775 94.6872 403.672 94.7902 403.57C94.7902 403.775 94.8933 403.878 94.8933 404.084C95.7177 407.482 96.0268 410.982 96.0268 414.482C95.5116 414.997 95.0994 415.615 94.5841 416.13V430.852H85.4127C82.7334 430.852 80.4663 432.911 80.2602 435.587H78.5084C78.3023 435.793 78.0962 436.102 77.9932 436.308H70.2645C70.3675 436.102 70.4706 435.793 70.5736 435.587H67.4821C67.3791 435.793 67.276 436.102 67.173 436.308H62.0205C62.1236 436.102 62.2266 435.793 62.3297 435.587H59.1351C59.0321 435.793 58.929 436.102 58.826 436.308H54.9101C54.9101 436.102 55.0131 435.793 55.1162 435.587H52.1278C52.0247 435.793 52.0247 436.102 51.9217 436.308H46.8722C46.8722 436.102 46.8722 435.793 46.8722 435.587H43.9869C43.9869 435.793 43.9869 436.102 43.9869 436.308H37.5978C37.4947 436.102 37.4947 435.793 37.3917 435.587H34.4033C34.5063 435.793 34.5063 436.102 34.6094 436.308H33.6819C33.5789 436.102 33.4758 435.793 33.4758 435.587H30.3843C30.4874 435.793 30.5904 436.102 30.5904 436.308H28.7355C28.6325 436.102 28.4264 435.793 28.3233 435.587H25.0258C25.1288 435.793 25.3349 436.102 25.438 436.308H19.7702C19.6672 436.102 19.5641 435.793 19.4611 435.587H4.20978C2.14879 435.587 0.5 437.235 0.5 439.294C0.5 441.353 2.14879 443 4.20978 443H486.79C488.851 443 490.5 441.353 490.5 439.294C490.5 437.44 488.851 435.793 486.79 435.793ZM217.316 236.994C216.595 237.921 215.77 238.744 214.843 239.465H195.676C194.748 238.744 193.924 237.921 193.202 236.994H217.316ZM458.349 244.201L478.649 435.69H444.952L424.651 243.995H458.452C458.349 244.098 458.349 244.201 458.349 244.201ZM306.248 384.215V383.391V312.457V312.252V305.56H314.492H315.831H323.354C324.281 305.56 325.209 305.354 326.033 305.045L318.304 377.626L318.201 378.449L312.637 431.057H306.248V384.215ZM251.941 244.201L268.016 395.951L268.119 396.569L272.241 435.69H238.544L234.834 400.996L234.731 400.378L228.239 339.637L228.136 338.813L218.037 244.098H251.838C251.941 244.098 251.941 244.201 251.941 244.201ZM147.448 437.235L146.006 435.69H145.8V435.587L146.727 427.248L147.448 420.454L150.952 387.2L151.055 386.48L155.177 347.564L160.639 296.294L166.203 244.098C166.203 243.995 166.203 243.995 166.203 243.892H215.049C215.049 243.995 215.049 243.995 215.049 244.098L231.64 400.378L231.743 400.996L235.453 435.587H155.899L158.578 437.749L147.448 437.235ZM398.786 436.514C398.889 436.308 398.992 435.999 399.095 435.793H397.034C396.931 435.999 396.828 436.308 396.725 436.514H393.324C393.427 436.308 393.53 435.999 393.634 435.793H391.573C391.47 435.999 391.366 436.308 391.263 436.514H388.687C388.687 436.308 388.79 435.999 388.893 435.793H386.935C386.832 435.999 386.832 436.308 386.729 436.514H383.432C383.432 436.308 383.432 435.999 383.432 435.793H381.474C381.474 435.999 381.474 436.308 381.474 436.514H377.249C377.146 436.308 377.146 435.999 377.043 435.793H375.085C375.188 435.999 375.188 436.308 375.291 436.514H374.672C374.569 436.308 374.466 435.999 374.466 435.793H372.405C372.508 435.999 372.611 436.308 372.611 436.514H371.375C371.272 436.308 371.066 435.999 370.963 435.793H368.593C368.696 435.999 368.902 436.308 369.005 436.514H365.192C365.089 436.308 364.986 435.999 364.883 435.793H352.311L361.688 347.667L361.791 346.637L372.611 244.304C372.611 244.201 372.611 244.201 372.611 244.098H420.426H421.045H421.457C421.457 244.201 421.457 244.201 421.457 244.304L441.758 435.793H404.454C404.248 435.999 404.042 436.308 403.835 436.514H398.786ZM398.065 146.912H371.684H326.445H272.035L277.806 126.218H275.436H264.306H260.803H250.704H248.128L253.899 146.912H240.811V151.75H398.065V146.912Z" fill="#263238"/>
<path d="M178.26 222.375L177.745 224.331V224.537L177.229 226.493L177.126 227.008L176.714 228.964L174.859 236.686H146.211L145.49 239.568H141.162H118.697V244.098H126.014H129.208H141.986H160.432V239.568H175.993L176.714 236.686L178.363 229.479L178.775 227.832L178.981 227.008L179.393 225.258L179.496 224.743L179.909 222.993L180.012 222.478L180.321 221.037L185.473 198.902H183.618L178.672 220.213L178.26 221.963V222.375ZM366.84 244.098V239.568H357.051H356.844H325.105V244.098H332.422H335.616H366.84Z" fill="#37474F"/>
<path d="M91.4923 171.826C92.7289 167.605 95.2021 163.281 99.3241 161.634C100.252 161.222 101.282 161.016 102.313 160.913C103.446 160.81 104.683 160.81 105.919 161.016C106.331 159.986 106.641 158.957 106.95 158.03C107.053 158.133 107.259 158.339 107.465 158.442L108.186 147.838H108.289C108.083 146.809 107.98 145.779 107.98 144.647L110.763 142.485C115.812 141.455 120.552 139.499 124.983 136.513C130.033 133.116 134.567 128.689 137.246 123.336L134.979 148.765C134.979 154.633 130.136 159.369 126.632 159.369H122.819C122.098 159.369 121.48 159.266 120.758 159.163L120.243 166.369L120.346 164.928L122.304 165.855L121.789 167.296C123.953 168.634 126.014 169.973 127.972 171.414C131.166 173.782 134.052 176.253 136.01 178.312C138.38 180.886 140.029 183.15 141.162 185.21C141.265 185.107 141.368 185.107 141.471 185.004C142.914 183.048 144.666 181.4 146.624 179.959C148.479 173.782 147.963 166.884 144.357 161.531C141.677 157.516 137.349 154.015 137.658 149.177C137.865 144.647 141.987 141.558 144.563 137.852C147.551 133.631 148.479 128.071 147.242 123.13C145.799 117.365 140.029 110.158 134.464 107.687C132.506 106.761 130.342 106.143 128.281 105.731C127.972 105.628 127.56 105.628 127.25 105.525C121.274 104.599 114.885 105.422 109.423 107.893C100.148 112.217 93.2441 121.38 91.8015 131.469C90.6679 139.396 92.6259 147.529 91.1832 155.457C89.9466 161.84 86.5459 167.502 85.2063 173.885C83.9697 179.856 84.8972 186.548 88.0917 191.593C88.2978 192.004 88.6069 192.313 88.813 192.725C90.0496 194.372 91.4923 195.814 93.2442 197.049C93.4503 197.152 93.6563 197.255 93.8624 197.461C91.3893 189.225 89.1222 179.753 91.4923 171.826ZM371.684 146.912V139.19H330.258H326.445V146.912H371.684Z" fill="#E88C21"/>
<path d="M145.388 223.919C145.388 224.846 145.284 225.875 145.181 226.802C150.746 226.699 156.517 226.596 163.009 226.699C163.318 227.728 164.143 228.655 165.173 229.17C168.161 230.508 171.459 229.787 174.963 228.655C175.581 228.758 176.096 228.861 176.715 229.067L177.127 227.214C176.715 227.008 176.199 226.905 175.684 226.699C175.684 226.596 175.787 226.493 175.787 226.39C175.89 226.39 175.993 226.39 176.096 226.39C176.508 226.493 176.818 226.493 177.127 226.596L177.539 224.64C177.024 224.434 176.508 224.331 175.993 224.125C176.302 224.125 176.508 224.228 176.818 224.228C177.127 224.228 177.333 224.331 177.642 224.434L178.157 222.478C177.333 222.169 176.612 221.963 175.787 221.86C175.787 221.757 175.684 221.551 175.684 221.448H175.787C176.612 221.551 177.436 221.86 178.26 222.066L178.673 220.316C176.508 219.286 174.138 218.772 171.871 218.977C168.883 218.566 165.894 218.772 162.906 219.389C157.547 218.36 151.055 216.815 144.769 215.374C144.872 215.889 144.872 216.301 144.975 216.815C145.284 219.08 145.491 221.448 145.388 223.919ZM178.982 227.008L179.394 225.257L178.982 227.008ZM178.363 229.478L178.776 227.831L178.363 229.478ZM180.012 222.478L180.321 221.036L180.012 222.478ZM179.497 224.743L179.909 222.993L179.497 224.743ZM181.043 407.687L180.424 409.541L184.546 418.6L197.427 424.777L201.859 423.439L188.977 406.658L187.019 397.701L176.818 397.907L181.043 407.687ZM147.449 420.453L146.727 427.248L149.819 426.631L147.449 420.453ZM144.975 399.863L134.567 398.834L135.083 409.747L133.743 411.497L134.361 420.556L143.636 426.733L144.975 413.762L143.327 409.335L144.975 399.863ZM118.286 172.34L119.728 172.443L120.14 166.472L120.656 159.266C121.377 159.369 121.995 159.471 122.717 159.471H126.53C130.136 159.471 134.876 154.736 134.876 148.867L137.144 123.438C134.464 128.689 129.93 133.219 124.881 136.616C120.45 139.602 115.709 141.558 110.66 142.587L107.878 144.749C107.878 145.779 107.981 146.911 108.187 147.941H108.084L107.362 158.545C110.351 161.016 113.648 163.075 117.255 164.516C117.564 166.987 117.873 169.664 118.286 172.34ZM141.163 185.209C141.059 185.312 140.956 185.312 140.853 185.415C137.556 187.268 133.743 189.224 129.827 191.181C128.075 192.004 126.323 192.931 124.572 193.754C126.117 195.093 127.56 196.637 129.003 198.181C129.827 199.108 130.651 200.137 131.373 201.167C131.682 201.579 131.888 201.99 132.197 202.402C135.598 199.52 138.998 196.534 142.914 193.343C143.842 192.519 144.872 191.695 145.903 190.872C146.83 191.489 147.964 191.695 149.097 191.386C152.292 190.46 154.353 187.886 156.311 184.798C157.032 184.386 157.65 184.077 158.475 183.768C158.784 183.665 159.093 183.253 158.99 182.944C158.99 182.327 158.372 181.915 157.857 182.121C157.135 182.327 156.311 182.533 155.692 182.841C155.692 182.739 155.589 182.636 155.589 182.533C155.692 182.43 155.796 182.43 155.899 182.327C156.62 181.915 157.341 181.606 158.063 181.297C158.475 181.091 158.784 180.577 158.578 180.165C158.578 180.165 158.578 180.062 158.475 180.062C158.269 179.753 157.857 179.444 157.444 179.547C157.238 179.65 156.929 179.65 156.723 179.753C155.899 179.959 155.074 180.268 154.353 180.679C154.559 180.577 154.765 180.371 155.074 180.268C155.383 180.062 155.796 179.856 156.311 179.547C157.135 179.135 157.96 178.62 158.372 178.415C158.578 178.312 158.681 178.312 158.681 178.209C159.093 178.003 158.784 177.179 158.475 177.179C157.857 177.282 157.341 177.385 156.723 177.488C156.208 177.591 155.589 177.797 155.074 177.9C154.25 178.209 153.425 178.518 152.601 179.032C152.498 178.929 152.395 178.929 152.189 178.826C152.189 178.826 152.292 178.826 152.292 178.723C153.116 178.209 153.941 177.9 154.868 177.488C155.383 177.282 155.899 177.076 156.517 176.87C157.135 176.664 157.65 176.458 158.269 176.253C158.475 176.15 158.578 176.047 158.578 175.944C158.578 175.841 158.578 175.738 158.475 175.635C158.372 175.532 158.269 175.326 158.063 175.326C157.65 175.326 157.135 175.326 156.62 175.429C156.002 175.532 155.383 175.635 154.765 175.738C152.086 176.253 149.51 177.488 147.758 179.238C147.242 179.547 146.83 179.856 146.418 180.165C144.357 181.503 142.605 183.253 141.163 185.209Z" fill="#FFD2BB"/>
<path d="M144.872 256.864C145.697 260.055 146.521 263.247 147.449 266.438C142.811 268.394 137.35 269.63 131.579 270.144L154.971 319.87L158.166 289.911L145.388 256.658L144.872 256.864ZM175.581 395.127L176.818 397.907L187.02 397.701L186.814 396.981L171.974 329.136L171.768 328.106L170.326 321.62L160.639 296.397L155.177 347.667L175.272 394.407L175.581 395.127Z" fill="#87AEFF"/>
<path d="M107.671 305.56C108.289 306.177 109.011 306.795 109.732 307.413L118.594 314.928L123.335 270.453C115.606 270.35 107.774 269.115 100.87 266.85L100.354 266.953V266.644L99.5301 254.393L95.8203 264.894L94.7898 267.88L93.8624 275.189C93.5532 277.248 93.6563 279.307 94.0685 281.366C94.7898 284.661 95.9234 287.852 97.263 290.941C99.6331 296.294 103.24 301.339 107.671 305.56ZM131.475 270.144C129.827 270.247 128.075 270.35 126.426 270.453L121.48 317.399L137.761 331.195C134.052 340.254 132.403 350.035 132.815 359.815L133.639 378.655V379.479L134.464 398.937L144.872 399.966L147.242 385.759L147.345 385.038L148.994 375.155L154.868 319.767L131.475 270.144ZM124.571 193.754C126.323 192.931 128.075 192.004 129.827 191.181C130.239 184.592 129.724 177.9 127.766 171.62C125.808 170.179 123.747 168.737 121.583 167.502L122.098 166.061L120.14 165.134L120.037 166.575L119.625 172.546L118.182 172.444C117.873 169.767 117.461 167.193 117.152 164.516C113.545 163.075 110.144 161.119 107.259 158.545C107.053 158.442 106.95 158.236 106.744 158.133C106.434 159.06 106.022 160.089 105.713 161.119C104.476 161.016 103.343 160.913 102.106 161.016C112.308 170.179 120.243 181.4 124.159 193.96C124.365 193.857 124.468 193.754 124.571 193.754C126.117 195.093 127.56 196.637 129.002 198.181C127.56 196.534 126.117 195.093 124.571 193.754ZM370.756 131.366V123.645H337.986H336.853H325.414V131.366H330.258H370.756Z" fill="#87AEFF"/>
<path d="M38.8342 274.263C29.7658 251.51 24.8195 226.596 24.8195 200.652C24.8195 162.56 35.5366 126.939 54.0855 96.6714C53.8794 96.5685 53.6733 96.4655 53.4672 96.2596C34.403 127.351 24.2012 163.178 24.2012 200.652C24.2012 226.39 29.0445 251.305 38.2159 274.469C38.422 274.469 38.6281 274.366 38.8342 274.263ZM224.941 0.720665C303.259 0.720665 371.169 45.9163 404.041 111.496C404.247 111.393 404.454 111.291 404.66 111.188C395.076 92.0386 382.401 74.4339 366.84 58.7853C328.918 20.8991 278.527 0 224.941 0C171.356 0 120.862 20.8991 83.0424 58.7853C75.5198 66.3007 68.7185 74.228 62.6386 82.5671C62.8447 82.67 63.0508 82.8759 63.1538 82.9789C99.6333 33.2533 158.578 0.720665 224.941 0.720665ZM45.5324 289.191C45.3263 289.294 45.1202 289.397 44.9141 289.5C54.4977 308.854 67.2758 326.768 83.0424 342.52C86.7521 346.226 90.565 349.726 94.4809 353.021V352.094C74.1801 334.695 57.4861 313.281 45.5324 289.191ZM201.549 399.863C201.549 399.658 201.549 399.452 201.652 399.246C196.706 398.628 191.76 397.907 186.813 396.878L186.916 397.496C191.76 398.525 196.706 399.349 201.549 399.863ZM99.8394 357.55C104.064 360.948 108.496 364.139 113.03 367.228L113.133 366.404C108.599 363.316 104.168 360.124 99.9425 356.624V357.55H99.8394ZM133.64 378.553C127.56 375.464 121.686 372.067 116.018 368.36L115.915 369.184C121.686 372.89 127.56 376.288 133.64 379.376V378.553ZM147.345 385.759C147.551 385.862 147.757 385.965 147.964 386.068L148.067 385.347C147.86 385.244 147.654 385.141 147.448 385.141L147.345 385.759ZM175.272 394.407C167.028 392.245 158.887 389.671 151.055 386.48L150.952 387.2C158.99 390.392 167.131 392.966 175.581 395.128L175.272 394.407ZM321.602 376.596C334.586 369.493 346.849 360.845 358.081 350.859L358.184 349.829C347.055 359.712 334.792 368.463 321.705 375.773L321.602 376.596ZM300.889 386.48V385.759C291.305 389.671 281.413 392.863 271.211 395.334L271.314 395.951C281.413 393.48 291.305 390.392 300.889 386.48ZM425.682 200.652C425.682 174.709 420.735 149.588 411.461 126.116C411.255 126.219 411.049 126.321 410.843 126.424C420.014 149.383 425.166 174.4 425.166 200.652C425.166 213.933 423.827 226.905 421.354 239.465H421.972C424.445 226.905 425.682 213.83 425.682 200.652ZM421.044 244.098H420.426C411.564 284.043 390.645 319.561 361.791 346.638L361.688 347.667C363.44 346.02 365.295 344.27 367.047 342.52C394.355 315.031 412.904 281.058 421.044 244.098ZM318.304 377.523C314.388 379.582 310.369 381.538 306.247 383.391V384.215C310.266 382.465 314.285 380.509 318.201 378.45L318.304 377.523ZM217.316 400.481C217.316 400.687 217.316 400.893 217.316 401.099C219.892 401.202 222.365 401.305 224.941 401.305C227.209 401.305 229.373 401.305 231.64 401.202L231.537 400.584C229.373 400.687 227.105 400.687 224.941 400.687C222.468 400.687 219.892 400.584 217.316 400.481ZM234.834 400.996C246.17 400.481 257.299 398.937 268.119 396.569L268.016 395.951C257.196 398.319 246.067 399.863 234.731 400.378L234.834 400.996ZM25.3347 436.514C25.2317 436.308 25.0256 435.999 24.9225 435.794C24.5103 434.97 23.9951 434.043 23.5829 433.22C18.6365 423.748 13.6901 414.174 8.33155 404.908C7.91935 407.482 7.71325 410.056 7.8163 412.629C9.87729 416.748 12.3505 420.66 14.4115 424.881C16.1633 428.484 17.709 432.087 19.3578 435.794C19.4609 435.999 19.5639 436.308 19.667 436.514H25.3347ZM34.5061 436.514C34.4031 436.308 34.403 435.999 34.3 435.794C29.9719 416.953 27.0865 397.804 25.1286 378.553C23.6859 379.685 22.2432 380.92 20.9036 382.156C21.9341 385.244 22.9646 388.23 23.9951 391.319C24.6134 393.069 21.831 393.892 21.1097 392.142C20.1822 389.671 19.3578 387.098 18.5334 384.627C18.0182 385.141 17.5029 385.759 17.0907 386.377C23.1707 402.643 28.3231 419.218 33.3726 435.897C33.4756 436.102 33.5787 436.411 33.5787 436.617H34.5061V436.514ZM30.5902 436.514C30.4872 436.308 30.3841 435.999 30.3841 435.794C25.6439 420.145 20.8005 404.393 15.0298 389.054C13.8962 390.701 12.8657 392.451 11.9383 394.304C13.9993 398.216 16.0602 402.128 17.9151 406.041C18.7395 407.791 16.1633 409.232 15.3389 407.482C13.7932 404.187 12.0413 400.893 10.3925 397.599C9.98034 398.628 9.67119 399.555 9.36204 400.584C15.545 411.394 21.3158 422.41 27.0865 433.426C27.4987 434.146 27.9109 434.97 28.3231 435.691C28.4262 435.896 28.6323 436.205 28.7353 436.411H30.5902V436.514ZM43.8836 436.514C43.8836 436.308 43.8836 435.999 43.8836 435.794C43.0592 413.659 47.6964 391.524 51.9214 369.493C51.7153 369.493 51.5093 369.493 51.3032 369.493C47.7995 369.493 44.2958 370.008 40.9982 370.831C40.1738 382.465 39.6586 394.098 40.7921 405.732C40.9982 407.585 38.0098 407.585 37.8037 405.732C36.7732 394.407 37.1854 383.082 38.0098 371.758C34.5061 372.993 31.1055 374.64 28.014 376.596C30.075 396.569 32.9604 416.336 37.4945 435.794C37.5976 435.999 37.5976 436.308 37.7006 436.514H43.8836ZM66.9667 436.514C67.0697 436.308 67.1728 435.999 67.2758 435.794C69.3368 430.131 71.3978 424.469 73.5618 418.807C76.8594 410.365 80.0539 401.82 84.0729 393.686C85.0003 391.73 86.0308 389.774 86.9583 387.818C86.5461 387.2 86.0308 386.686 85.5156 386.068C84.1759 388.539 82.8363 391.01 81.5997 393.583C77.2716 402.231 73.3557 411.085 69.3368 419.939C67.0697 424.984 64.4935 430.234 62.1233 435.691C62.0203 435.896 61.9172 436.205 61.8142 436.411H66.9667V436.514ZM51.8184 436.514C51.8184 436.308 51.9215 435.999 52.0245 435.794C55.116 420.866 60.2684 406.144 65.524 392.142C67.688 386.377 69.9551 380.715 72.3252 375.155C69.9551 373.817 67.4819 372.684 64.9057 371.861C61.9172 380.715 59.341 389.568 57.6922 398.731C57.3831 400.584 54.4977 399.761 54.8068 397.907C56.3526 388.642 59.0319 379.788 62.0203 370.934C59.6502 370.316 57.177 369.802 54.8068 369.596C50.4788 391.627 45.9446 413.659 46.769 435.794C46.769 435.999 46.769 436.308 46.769 436.514H51.8184ZM58.7227 436.514C58.8258 436.308 58.9288 435.999 59.0319 435.794C61.402 430.234 64.0813 424.881 66.3484 419.733C70.7795 409.85 75.1076 400.069 79.9509 390.392C81.0844 388.127 82.218 385.965 83.4546 383.803C82.8363 383.082 82.1149 382.465 81.3936 381.847C79.2295 385.244 77.1686 388.745 74.9015 392.039C73.871 393.583 71.2947 392.142 72.3252 390.598C74.6954 387.098 76.9625 383.494 79.1265 379.891C77.6838 378.758 76.2411 377.626 74.6954 376.699C72.4283 382.053 70.2642 387.509 68.2033 392.966C63.0508 406.761 57.8983 421.174 54.9099 435.897C54.8068 436.102 54.8068 436.411 54.7038 436.617H58.7227V436.514ZM77.8899 436.514C78.096 436.308 78.3021 435.999 78.4051 435.794C83.3515 428.999 88.8131 422.616 94.3778 416.336C94.8931 415.821 95.3053 415.203 95.8205 414.689C95.8205 411.188 95.5114 407.688 94.687 404.29C94.687 404.085 94.5839 403.982 94.5839 403.776C94.4809 403.879 94.3778 403.982 94.3778 404.085C90.2558 408.82 86.6491 413.865 84.5881 419.733C83.9698 421.483 81.0844 420.763 81.7027 418.91C84.1759 411.909 88.607 405.938 93.6565 400.481C92.5229 396.981 90.8741 393.686 88.8131 390.598C84.4851 399.452 80.6722 408.511 77.0655 417.674C74.6954 423.645 72.5313 429.719 70.3673 435.691C70.2643 435.896 70.1612 436.205 70.0582 436.411H77.8899V436.514ZM357.669 415.409C357.36 417.159 357.257 418.807 357.257 420.557C358.597 423.336 360.348 425.91 361.585 428.69C362.719 431.058 363.749 433.323 364.779 435.691C364.883 435.896 364.986 436.205 365.089 436.411H368.901C368.798 436.205 368.592 435.896 368.489 435.691C368.283 435.176 367.974 434.764 367.768 434.249C364.47 427.969 361.173 421.689 357.669 415.409ZM366.016 400.275C366.634 402.334 367.356 404.393 368.077 406.349C368.489 407.585 366.634 407.997 366.222 406.864C365.604 405.217 365.089 403.57 364.47 401.82C364.161 402.231 363.852 402.54 363.44 402.952C367.459 413.659 370.859 424.675 374.157 435.588C374.26 435.794 374.363 436.102 374.363 436.308H374.981C374.878 436.102 374.878 435.794 374.775 435.588C371.89 423.131 370.035 410.467 368.695 397.702C367.871 398.628 366.944 399.452 366.016 400.275ZM360.039 408.408C361.379 410.982 362.822 413.556 364.058 416.233C364.573 417.365 362.925 418.395 362.409 417.262C361.379 415.1 360.245 412.835 359.112 410.673C358.906 411.291 358.597 412.012 358.39 412.629C362.512 419.836 366.325 427.146 370.138 434.455C370.344 434.867 370.55 435.279 370.859 435.691C370.962 435.896 371.169 436.205 371.272 436.411H372.508C372.405 436.205 372.302 435.896 372.302 435.691C369.108 425.292 366.016 414.997 362.203 404.805C361.379 406.041 360.658 407.173 360.039 408.408ZM386.626 391.936C386.523 391.936 386.317 391.936 386.214 391.936C383.844 391.936 381.577 392.245 379.309 392.863C378.794 400.584 378.485 408.306 379.206 416.13C379.309 417.365 377.352 417.365 377.248 416.13C376.527 408.614 376.836 400.996 377.352 393.48C374.981 394.304 372.817 395.334 370.653 396.775C371.993 409.953 373.951 423.028 376.836 435.897C376.939 436.102 376.939 436.411 377.042 436.617H381.267C381.267 436.411 381.267 436.102 381.267 435.897C380.752 421.072 383.741 406.452 386.626 391.936ZM408.06 407.997C408.679 406.658 409.297 405.423 410.018 404.085C409.709 403.673 409.4 403.261 409.091 402.952C408.163 404.599 407.339 406.246 406.514 407.997C403.629 413.762 400.95 419.63 398.374 425.601C396.931 428.896 395.282 432.293 393.736 435.794C393.633 435.999 393.53 436.308 393.427 436.514H396.828C396.931 436.308 397.034 435.999 397.137 435.794C398.477 432.087 399.816 428.381 401.259 424.778C403.217 419.115 405.381 413.453 408.06 407.997ZM400.125 395.642C398.58 394.716 396.931 393.995 395.179 393.48C393.221 399.349 391.469 405.217 390.439 411.394C390.233 412.629 388.378 412.115 388.584 410.879C389.614 404.702 391.366 398.834 393.427 392.966C391.882 392.554 390.233 392.245 388.584 392.039C385.699 406.555 382.71 421.174 383.225 435.794C383.225 435.999 383.225 436.308 383.225 436.514H386.523C386.523 436.308 386.626 435.999 386.729 435.794C388.79 425.91 392.191 416.233 395.591 406.967C397.034 403.158 398.58 399.349 400.125 395.642ZM405.278 405.835C405.999 404.393 406.824 402.849 407.545 401.408C407.133 400.996 406.618 400.481 406.205 400.069C404.763 402.334 403.32 404.599 401.877 406.864C401.156 407.894 399.507 406.967 400.229 405.835C401.774 403.467 403.32 401.099 404.763 398.731C403.835 398.01 402.805 397.29 401.877 396.569C400.332 400.172 398.889 403.776 397.549 407.379C394.149 416.542 390.748 426.013 388.79 435.691C388.687 435.896 388.687 436.205 388.584 436.411H391.16C391.263 436.205 391.366 435.896 391.469 435.691C393.015 432.087 394.767 428.587 396.21 425.293C399.198 418.807 402.083 412.218 405.278 405.835ZM415.892 421.998C415.892 419.63 415.686 417.365 415.171 415.1C415.171 414.997 415.068 414.894 415.068 414.791C412.285 417.983 409.812 421.38 408.369 425.395C407.957 426.528 406.102 426.116 406.514 424.881C408.163 420.248 411.152 416.336 414.449 412.629C413.625 410.262 412.594 408.1 411.255 406.041C408.369 411.909 405.793 417.983 403.423 424.057C401.877 427.969 400.435 431.881 398.992 435.794C398.889 435.999 398.786 436.308 398.683 436.514H403.835C404.041 436.308 404.247 435.999 404.454 435.794C407.957 430.955 411.976 426.425 415.892 421.998ZM263.07 110.261C262.967 110.467 262.761 110.673 262.658 110.879C262.142 111.599 261.215 112.011 260.287 111.496C259.566 111.085 259.154 109.849 259.669 109.129C260.7 107.79 261.73 106.555 262.761 105.216C262.348 102.231 261.73 99.2452 260.597 96.3626C260.287 95.539 259.978 94.8183 259.669 94.0976C258.536 95.539 257.402 97.0832 256.268 98.5246C254.929 100.275 251.94 98.5246 253.28 96.7744C254.826 94.7154 256.372 92.6563 257.917 90.7002C256.165 87.5087 254.001 84.6261 251.528 81.9494C250.498 83.1848 249.467 84.4202 248.437 85.6556C246.994 87.4058 244.624 84.935 245.964 83.1848C246.994 81.9494 248.025 80.714 249.055 79.3756C245.345 75.8752 241.223 72.8896 236.689 70.4188C234.628 75.1546 233.288 80.3021 232.876 85.5527C234.216 86.0674 235.556 86.5822 236.895 87.0969C238.956 87.8176 238.029 91.112 235.968 90.3914C234.834 89.9796 233.804 89.5678 232.773 89.156C232.773 92.3475 233.082 95.436 233.701 98.6275C236.277 99.657 238.853 100.892 241.532 101.613C243.696 102.231 242.769 105.525 240.605 104.908C238.544 104.29 236.586 103.466 234.628 102.746C234.937 103.672 235.246 104.599 235.556 105.525C236.277 107.481 237.101 109.437 238.132 111.291C239.987 111.908 241.842 112.423 243.696 112.938C245.86 113.555 244.933 116.85 242.769 116.232C242.048 116.026 241.429 115.82 240.708 115.717C243.387 119.733 246.788 123.336 250.498 126.321H260.7C262.348 120.968 263.173 115.614 263.07 110.261ZM280.897 120.865C280.691 120.865 280.485 120.968 280.279 120.968C279.455 121.174 278.733 120.865 278.424 120.041C278.218 119.321 278.527 118.291 279.352 118.188C280.691 117.879 282.134 117.674 283.474 117.365C284.916 115.203 286.153 112.835 287.08 110.467C287.286 109.849 287.595 109.129 287.699 108.408C286.153 108.717 284.607 109.129 283.061 109.437C281.206 109.849 280.279 107.07 282.134 106.658C284.298 106.246 286.359 105.731 288.523 105.319C289.141 102.231 289.347 99.1423 289.244 96.0537C287.905 96.2596 286.462 96.5685 285.122 96.7744C283.267 97.0832 283.061 94.2006 284.916 93.8917C286.256 93.6858 287.699 93.377 289.038 93.1711C288.626 88.8471 287.492 84.6261 286.05 80.508C282.031 82.4641 278.321 85.0379 275.23 88.2294C275.745 89.3619 276.363 90.3914 276.981 91.4209C277.909 93.0681 275.539 94.7154 274.508 93.0681C273.993 92.2445 273.581 91.318 273.065 90.4943C271.314 92.5534 269.768 94.7153 268.428 97.0832C269.562 99.2452 270.489 101.407 271.829 103.363C272.859 104.908 270.386 106.555 269.356 105.011C268.325 103.466 267.501 101.922 266.78 100.275C266.47 100.995 266.058 101.819 265.852 102.643C265.234 104.29 264.719 106.04 264.306 107.79C265.131 109.232 266.058 110.57 266.986 111.908C268.016 113.453 265.646 115.1 264.512 113.555C264.203 113.041 263.791 112.526 263.482 112.114C262.967 116.85 263.276 121.689 264.306 126.321H275.436C277.394 124.571 279.248 122.821 280.897 120.865Z" fill="#EFF44E"/>
<path d="M304.496 90.803C304.599 90.803 304.805 90.7001 304.805 90.5971C304.908 90.3912 304.908 90.0823 304.702 89.9794C303.775 89.2587 302.744 88.641 301.817 88.0233C301.611 87.9204 301.302 87.9204 301.199 88.1263C301.096 88.3322 301.096 88.641 301.302 88.744C302.229 89.3617 303.26 90.0823 304.187 90.7C304.29 90.803 304.393 90.803 304.496 90.803ZM296.252 85.5525C296.355 85.5525 296.355 85.6554 296.458 85.6554C296.561 85.6554 296.768 85.5525 296.871 85.4495C296.974 85.2436 296.974 84.9348 296.768 84.8318C295.737 84.2141 294.81 83.5964 293.779 83.0816C293.573 82.9787 293.264 83.0816 293.161 83.2875C293.058 83.4934 293.161 83.8023 293.367 83.9053C294.191 84.3171 295.222 84.9348 296.252 85.5525ZM287.905 80.8167C288.008 80.8167 288.008 80.8167 288.111 80.8167C288.317 80.8167 288.421 80.7137 288.524 80.6108C288.627 80.4049 288.524 80.096 288.317 79.9931C287.287 79.4783 286.256 78.9636 285.226 78.4488C285.02 78.3459 284.711 78.4488 284.608 78.6547C284.505 78.8606 284.608 79.1695 284.814 79.2724C285.844 79.7872 286.875 80.302 287.905 80.8167ZM261.215 70.4186H261.319C261.525 70.4186 261.731 70.3157 261.731 70.1098C261.834 69.9038 261.628 69.595 261.422 69.595C260.288 69.2861 259.154 68.9773 258.021 68.6684C257.815 68.5655 257.506 68.7714 257.506 68.9773C257.403 69.1832 257.609 69.4921 257.815 69.4921C258.948 69.8009 260.082 70.1098 261.215 70.4186ZM270.387 73.1983H270.49C270.696 73.1983 270.799 73.0953 270.902 72.8894C271.005 72.6835 270.902 72.3747 270.593 72.3747C269.459 71.9629 268.429 71.654 267.295 71.2422C267.089 71.1393 266.78 71.3452 266.78 71.5511C266.677 71.757 266.78 72.0658 267.089 72.0658C268.12 72.4776 269.253 72.8894 270.387 73.1983ZM279.249 76.6987C279.352 76.6987 279.352 76.6987 279.455 76.6987C279.661 76.6987 279.764 76.5957 279.867 76.3898C279.97 76.1839 279.867 75.875 279.661 75.7721C278.631 75.2573 277.497 74.8455 276.467 74.4337C276.261 74.3308 275.952 74.4337 275.952 74.6396C275.848 74.8455 275.952 75.1544 276.158 75.1544C277.085 75.7721 278.219 76.2868 279.249 76.6987ZM332.217 117.056C332.32 117.056 332.423 117.056 332.526 116.953C332.732 116.85 332.732 116.541 332.629 116.335C331.907 115.408 331.186 114.482 330.465 113.658C330.259 113.452 330.052 113.452 329.846 113.555C329.64 113.658 329.64 113.967 329.743 114.173C330.465 115.1 331.186 115.923 331.907 116.85C331.907 117.056 332.113 117.056 332.217 117.056ZM219.996 64.7563C219.79 64.7563 219.583 64.9622 219.583 65.1681C219.583 65.374 219.79 65.5799 219.996 65.5799C221.129 65.5799 222.263 65.4769 223.499 65.4769C223.705 65.4769 223.912 65.271 223.912 65.0651C223.912 64.8592 223.705 64.6533 223.499 64.6533C222.263 64.6533 221.129 64.7563 219.996 64.7563ZM325.931 109.849C326.034 109.849 326.137 109.849 326.24 109.746C326.446 109.54 326.446 109.334 326.24 109.128C325.415 108.305 324.694 107.378 323.87 106.555C323.663 106.349 323.457 106.349 323.251 106.555C323.045 106.76 323.045 106.966 323.251 107.172C324.076 107.996 324.9 108.82 325.621 109.643C325.724 109.746 325.827 109.849 325.931 109.849ZM319.232 102.951C319.335 102.951 319.438 102.951 319.541 102.848C319.748 102.642 319.748 102.437 319.541 102.231C318.717 101.407 317.79 100.686 316.965 99.8627C316.759 99.6568 316.553 99.7598 316.347 99.8627C316.141 100.069 316.244 100.275 316.347 100.48C317.171 101.304 318.099 102.025 318.923 102.848C319.026 102.951 319.129 102.951 319.232 102.951ZM200.932 66.7123C200.725 66.7123 200.519 67.0212 200.622 67.2271C200.622 67.433 200.828 67.536 201.035 67.536C201.035 67.536 201.035 67.536 201.138 67.536C202.271 67.3301 203.405 67.1242 204.538 67.0212C204.744 67.0212 204.95 66.8153 204.95 66.5064C204.95 66.3005 204.744 66.0947 204.435 66.0947C203.199 66.4035 202.065 66.5064 200.932 66.7123ZM312.019 96.6712C312.122 96.6712 312.225 96.5683 312.328 96.4653C312.431 96.2594 312.431 96.0535 312.225 95.8476C311.297 95.127 310.37 94.4063 309.546 93.6856C309.34 93.5827 309.133 93.5827 308.927 93.7886C308.824 93.9945 308.824 94.2004 309.03 94.4063C309.958 95.127 310.885 95.8476 311.71 96.5683C311.813 96.6712 311.916 96.6712 312.019 96.6712ZM194.852 67.9478C193.718 68.1537 192.585 68.4625 191.451 68.7714C191.245 68.8743 191.039 69.0802 191.142 69.2861C191.142 69.492 191.348 69.595 191.554 69.595H191.657C192.791 69.2861 193.924 69.0802 195.058 68.7714C195.264 68.6684 195.47 68.4625 195.367 68.2566C195.367 68.0507 195.161 67.9478 194.852 67.9478ZM210.412 65.374C210.206 65.374 210 65.5799 210 65.8888C210 66.0947 210.206 66.3005 210.412 66.3005C211.546 66.1976 212.679 66.0946 213.916 65.9917C214.122 65.9917 214.328 65.7858 214.328 65.4769C214.328 65.271 214.122 65.0651 213.813 65.0651C212.679 65.1681 211.546 65.271 210.412 65.374ZM336.235 121.174C336.132 120.968 335.823 120.968 335.617 121.071C335.411 121.174 335.411 121.483 335.514 121.688C335.926 122.306 336.442 122.924 336.854 123.542H337.884C337.369 122.821 336.854 121.997 336.235 121.174ZM358.185 167.399C357.876 166.266 357.567 165.134 357.258 164.001C357.154 163.796 356.948 163.59 356.742 163.693C356.536 163.796 356.33 164.001 356.433 164.207C356.742 165.34 357.051 166.472 357.361 167.502C357.361 167.708 357.567 167.811 357.773 167.811H357.876C358.082 167.811 358.288 167.605 358.185 167.399ZM361.586 215.58C361.792 215.58 361.998 215.374 361.998 215.168C362.101 214.036 362.204 212.903 362.307 211.668C362.307 211.462 362.101 211.256 361.895 211.256C361.689 211.256 361.483 211.462 361.483 211.668C361.38 212.8 361.276 213.933 361.173 215.168C361.07 215.374 361.276 215.58 361.586 215.58ZM361.379 192.416C361.483 193.549 361.483 194.681 361.586 195.916C361.586 196.122 361.792 196.328 361.998 196.328C362.204 196.328 362.41 196.122 362.41 195.916C362.307 194.784 362.307 193.549 362.204 192.416C362.204 192.21 361.998 192.004 361.689 192.004C361.586 191.901 361.379 192.107 361.379 192.416ZM358.391 234.523C358.7 234.523 358.906 234.42 358.906 234.214C359.215 233.082 359.422 231.949 359.628 230.817C359.628 230.611 359.525 230.302 359.319 230.302C359.112 230.302 358.803 230.405 358.803 230.611C358.597 231.744 358.288 232.876 358.082 234.008C357.979 234.214 358.082 234.42 358.391 234.523ZM359.937 177.282C360.143 177.282 360.349 176.973 360.246 176.767C360.04 175.635 359.834 174.503 359.525 173.37C359.525 173.164 359.215 172.958 359.009 173.061C358.803 173.061 358.597 173.37 358.7 173.576C358.906 174.708 359.215 175.841 359.422 176.973C359.422 177.076 359.628 177.282 359.937 177.282C359.834 177.282 359.937 177.282 359.937 177.282ZM360.246 225.155C360.349 225.155 360.349 225.155 360.246 225.155C360.555 225.155 360.761 225.052 360.761 224.846C360.967 223.713 361.173 222.581 361.276 221.345C361.276 221.14 361.173 220.934 360.864 220.831C360.658 220.831 360.452 220.934 360.349 221.242C360.143 222.375 360.04 223.507 359.834 224.64C359.834 224.846 360.04 225.052 360.246 225.155ZM362.616 205.697C362.616 204.564 362.616 203.329 362.616 202.196V201.888C362.616 201.682 362.41 201.476 362.204 201.476C361.998 201.476 361.792 201.682 361.792 201.888V202.196C361.792 203.329 361.792 204.461 361.792 205.697C361.792 205.903 361.998 206.109 362.204 206.109C362.41 206.109 362.616 205.903 362.616 205.697ZM276.261 328.93C275.23 329.342 274.097 329.753 273.066 330.165C272.86 330.268 272.757 330.474 272.86 330.68C272.963 330.886 273.066 330.989 273.272 330.989H273.375C274.509 330.577 275.539 330.165 276.673 329.753C276.879 329.65 276.982 329.444 276.879 329.239C276.776 328.93 276.467 328.827 276.261 328.93ZM233.495 65.374C233.495 65.1681 233.289 64.9622 233.083 64.9622C231.949 64.8592 230.713 64.8592 229.579 64.7563C229.373 64.7563 229.167 64.9622 229.167 65.1681C229.167 65.374 229.373 65.5799 229.579 65.5799C230.713 65.5799 231.846 65.6828 233.083 65.7858C233.289 65.7858 233.495 65.5799 233.495 65.374ZM242.564 66.6094C242.873 66.6094 242.976 66.4035 243.079 66.1976C243.079 65.9917 242.976 65.7858 242.667 65.6828C241.533 65.5799 240.399 65.374 239.163 65.271C238.957 65.271 238.751 65.374 238.648 65.6828C238.648 65.8887 238.751 66.0946 239.06 66.1976C240.193 66.4035 241.43 66.5065 242.564 66.6094ZM353.754 154.633C353.548 154.736 353.445 154.942 353.445 155.148C353.857 156.28 354.269 157.31 354.578 158.442C354.681 158.648 354.784 158.751 354.99 158.751H355.093C355.3 158.648 355.403 158.442 355.403 158.236C354.99 157.104 354.681 156.074 354.269 154.942C354.166 154.633 353.96 154.53 353.754 154.633ZM185.577 70.4186C184.444 70.7275 183.31 71.1393 182.28 71.4481C182.074 71.5511 181.97 71.757 181.97 71.9629C182.074 72.1688 182.177 72.2717 182.383 72.2717H182.486C183.619 71.9629 184.65 71.5511 185.783 71.2422C185.989 71.1393 186.195 70.9334 186.092 70.7275C186.092 70.4186 185.783 70.3157 185.577 70.4186ZM251.941 68.1537C251.941 68.1537 252.044 68.1537 251.941 68.1537C252.25 68.1537 252.456 68.0507 252.456 67.8448C252.456 67.6389 252.353 67.3301 252.147 67.3301C251.014 67.1242 249.88 66.9183 248.746 66.7123C248.54 66.7123 248.334 66.8153 248.231 67.0212C248.231 67.2271 248.334 67.433 248.54 67.536C249.674 67.7419 250.807 67.9478 251.941 68.1537ZM360.761 182.43C360.555 182.43 360.349 182.636 360.349 182.945C360.555 184.077 360.658 185.209 360.761 186.342C360.761 186.548 360.967 186.754 361.173 186.754C361.379 186.754 361.586 186.548 361.586 186.239C361.483 185.107 361.276 183.974 361.173 182.739C361.276 182.533 360.967 182.327 360.761 182.43ZM235.865 339.225C235.968 339.225 235.968 339.225 235.865 339.225C237.102 339.122 238.235 339.019 239.369 338.916C239.575 338.916 239.781 338.71 239.781 338.401C239.781 338.195 239.575 337.989 239.266 337.989C238.132 338.092 236.999 338.195 235.762 338.298C235.556 338.298 235.35 338.504 235.35 338.813C235.453 339.122 235.659 339.225 235.865 339.225ZM173.417 329.753C173.52 329.753 173.52 329.753 173.623 329.753C173.83 329.753 173.933 329.65 174.036 329.444C174.139 329.239 174.036 328.93 173.83 328.93C173.108 328.621 172.49 328.415 171.769 328.106L171.975 329.136C172.49 329.341 173.005 329.547 173.417 329.753ZM216.801 339.431C217.935 339.534 219.171 339.534 220.305 339.637C220.511 339.637 220.717 339.431 220.717 339.225C220.717 339.019 220.511 338.813 220.305 338.813C219.171 338.813 218.038 338.71 216.801 338.607C216.595 338.607 216.389 338.813 216.389 339.019C216.286 339.225 216.492 339.431 216.801 339.431ZM182.795 332.224C181.661 331.915 180.631 331.504 179.497 331.092C179.291 330.989 178.982 331.092 178.982 331.401C178.879 331.606 178.982 331.915 179.291 331.915C180.425 332.327 181.455 332.636 182.589 333.048H182.692C182.898 333.048 183.001 332.945 183.104 332.739C183.104 332.533 183.001 332.224 182.795 332.224ZM254.826 336.445C254.826 336.445 254.929 336.445 254.826 336.445C256.063 336.136 257.197 335.93 258.33 335.622C258.536 335.519 258.742 335.313 258.639 335.107C258.536 334.901 258.33 334.695 258.124 334.798C256.99 335.107 255.857 335.313 254.723 335.622C254.517 335.725 254.311 335.93 254.414 336.136C254.414 336.239 254.62 336.445 254.826 336.445ZM230.301 339.122C230.301 338.916 230.095 338.71 229.888 338.71C229.373 338.71 228.858 338.71 228.343 338.71L228.446 339.534C228.961 339.534 229.476 339.534 229.888 339.534C230.095 339.637 230.301 339.431 230.301 339.122ZM245.449 338.195C246.685 337.989 247.819 337.784 248.953 337.681C249.159 337.681 249.365 337.372 249.262 337.166C249.262 336.96 248.953 336.754 248.746 336.857C247.613 337.063 246.479 337.269 245.346 337.372C245.14 337.372 244.934 337.578 244.934 337.886C245.037 337.989 245.243 338.195 245.449 338.195ZM306.66 312.766C306.763 312.766 306.866 312.766 306.969 312.663C307.897 311.943 308.824 311.222 309.752 310.501C309.958 310.398 309.958 310.09 309.855 309.884C309.752 309.678 309.443 309.678 309.236 309.781C308.309 310.501 307.382 311.222 306.454 311.84C306.351 311.943 306.351 311.943 306.351 312.046V312.252C306.351 312.252 306.351 312.355 306.454 312.355C306.351 312.663 306.557 312.766 306.66 312.766ZM191.966 334.798C190.833 334.489 189.699 334.18 188.566 333.871C188.36 333.768 188.05 333.974 188.05 334.18C187.947 334.386 188.153 334.695 188.36 334.695C189.493 335.004 190.627 335.313 191.76 335.622H191.863C192.069 335.622 192.275 335.519 192.275 335.313C192.378 335.107 192.172 334.901 191.966 334.798ZM210.721 338.092C209.588 337.989 208.454 337.887 207.321 337.681C207.115 337.681 206.908 337.784 206.805 338.092C206.805 338.298 206.908 338.504 207.218 338.607C208.351 338.71 209.485 338.916 210.721 339.019C210.927 339.019 211.133 338.813 211.133 338.607C211.133 338.298 211.03 338.092 210.721 338.092ZM90.7717 231.229C90.7717 231.229 90.8748 231.229 90.7717 231.229C91.0809 231.126 91.287 230.92 91.1839 230.714C90.9778 229.582 90.6687 228.449 90.4626 227.317C90.4626 227.111 90.1534 226.905 89.9473 227.008C89.7412 227.008 89.5351 227.317 89.6382 227.523C89.8443 228.655 90.0504 229.787 90.3595 230.92C90.3595 231.126 90.5656 231.229 90.7717 231.229ZM93.0388 240.494H93.1419C93.348 240.391 93.5541 240.186 93.451 239.98C93.1419 238.847 92.8327 237.715 92.5236 236.582C92.4205 236.376 92.2144 236.17 92.0083 236.273C91.8022 236.376 91.5961 236.582 91.6992 236.788C92.0083 237.921 92.3175 239.053 92.6266 240.186C92.7297 240.391 92.9358 240.494 93.0388 240.494ZM282.031 327.283C282.134 327.283 282.135 327.283 282.238 327.283C283.268 326.768 284.299 326.253 285.432 325.841C285.638 325.738 285.741 325.429 285.638 325.223C285.535 325.018 285.226 324.915 285.02 325.018C283.989 325.532 282.959 326.047 281.928 326.459C281.722 326.562 281.619 326.768 281.722 327.077C281.722 327.18 281.825 327.283 282.031 327.283ZM201.344 336.754C200.21 336.548 199.077 336.342 197.943 336.136C197.737 336.136 197.428 336.239 197.428 336.445C197.428 336.651 197.531 336.96 197.737 336.96C198.871 337.166 200.004 337.372 201.138 337.578C201.138 337.578 201.138 337.578 201.241 337.578C201.447 337.578 201.653 337.475 201.653 337.269C201.653 337.063 201.55 336.857 201.344 336.754ZM290.585 323.061C290.688 323.061 290.688 323.061 290.791 322.959C291.821 322.444 292.852 321.826 293.779 321.208C293.985 321.105 294.088 320.797 293.985 320.591C293.882 320.385 293.573 320.282 293.367 320.385C292.336 321.002 291.409 321.517 290.378 322.032C290.172 322.135 290.069 322.444 290.172 322.65C290.275 322.959 290.378 323.061 290.585 323.061ZM87.7833 198.387C87.5772 198.387 87.3711 198.593 87.3711 198.799C87.3711 199.932 87.3711 201.064 87.3711 202.196V202.299C87.3711 202.505 87.5772 202.711 87.7833 202.711C87.9894 202.711 88.1955 202.505 88.1955 202.299V202.196C88.1955 201.064 88.1955 199.932 88.1955 198.902C88.2985 198.593 88.0924 198.387 87.7833 198.387ZM313.771 306.692C313.874 306.795 313.977 306.795 314.08 306.795C314.183 306.795 314.286 306.795 314.389 306.692C314.801 306.28 315.316 305.869 315.729 305.56H314.389C314.183 305.766 313.977 305.869 313.771 306.074C313.668 306.177 313.668 306.486 313.771 306.692ZM87.8863 207.962C87.6802 207.962 87.4741 208.168 87.4741 208.374C87.5772 209.506 87.5772 210.741 87.6802 211.874C87.6802 212.08 87.8863 212.286 88.0924 212.286C88.2985 212.286 88.5046 212.08 88.5046 211.874C88.4016 210.741 88.4016 209.609 88.2985 208.374C88.2985 208.168 88.0924 207.962 87.8863 207.962ZM88.1955 217.948C88.2985 219.08 88.5046 220.213 88.6077 221.448C88.6077 221.654 88.8138 221.86 89.0199 221.86C89.0199 221.86 89.0199 221.86 89.1229 221.86C89.329 221.86 89.5351 221.654 89.5351 221.345C89.329 220.213 89.226 219.08 89.1229 217.948C89.1229 217.742 88.9168 217.536 88.6077 217.536C88.4016 217.536 88.1955 217.742 88.1955 217.948ZM87.6802 192.725C87.6802 192.931 87.8863 193.137 88.0924 193.137C88.2985 193.137 88.4016 193.034 88.5046 192.828C88.1955 192.416 87.9894 192.107 87.7833 191.695C87.6802 192.107 87.6802 192.416 87.6802 192.725ZM135.392 97.7007C134.465 98.4214 133.64 99.245 132.816 99.9657C132.61 100.172 132.61 100.377 132.816 100.583C132.919 100.686 133.022 100.686 133.125 100.686C133.228 100.686 133.331 100.686 133.434 100.583C134.259 99.7598 135.186 99.0391 136.01 98.3185C136.217 98.1126 136.217 97.9066 136.01 97.7007C135.907 97.5978 135.598 97.5978 135.392 97.7007ZM298.519 317.399C298.313 317.502 298.21 317.811 298.416 318.017C298.519 318.12 298.622 318.223 298.828 318.223C298.932 318.223 299.035 318.223 299.035 318.12C299.653 317.708 300.271 317.296 300.889 316.884V315.855C300.065 316.37 299.344 316.884 298.519 317.399ZM176.509 73.4042C175.375 73.816 174.345 74.2278 173.211 74.6396C173.005 74.7426 172.902 74.9485 173.005 75.1544C173.108 75.3603 173.211 75.4632 173.417 75.4632C173.52 75.4632 173.52 75.4632 173.623 75.4632C174.654 75.0514 175.787 74.6396 176.818 74.2278C177.024 74.1249 177.127 73.919 177.024 73.7131C176.921 73.5071 176.715 73.3012 176.509 73.4042ZM267.605 332.945C267.811 332.842 267.914 332.636 267.914 332.43C267.811 332.224 267.605 332.121 267.398 332.121C266.471 332.43 265.647 332.739 264.719 332.945L264.822 333.871C265.647 333.563 266.574 333.254 267.605 332.945ZM129.003 104.804C129.209 104.598 129.209 104.393 129.003 104.187C128.797 103.981 128.591 103.981 128.385 104.187C127.87 104.701 127.354 105.216 126.942 105.628C127.251 105.731 127.663 105.731 127.973 105.834C128.282 105.525 128.591 105.216 129.003 104.804ZM167.647 77.1105C166.616 77.6252 165.586 78.14 164.452 78.5518C164.246 78.6547 164.143 78.9636 164.246 79.1695C164.349 79.2724 164.452 79.3754 164.658 79.3754C164.761 79.3754 164.761 79.3754 164.864 79.3754C165.895 78.8606 166.925 78.3459 167.956 77.9341C168.162 77.8311 168.265 77.6252 168.162 77.3164C168.162 77.1104 167.853 77.0075 167.647 77.1105ZM159.093 81.4344C158.063 81.9492 157.033 82.5669 156.105 83.1846C155.899 83.2875 155.796 83.5964 155.899 83.8023C156.002 83.9052 156.105 84.0082 156.311 84.0082C156.414 84.0082 156.414 84.0082 156.517 83.9053C157.548 83.2875 158.475 82.7728 159.506 82.258C159.712 82.1551 159.815 81.8462 159.712 81.6403C159.506 81.3315 159.3 81.3315 159.093 81.4344ZM150.85 86.2731C149.819 86.8908 148.892 87.5086 147.964 88.2292C147.758 88.3322 147.758 88.641 147.861 88.8469C147.964 88.9499 148.067 89.0528 148.17 89.0528C148.273 89.0528 148.376 89.0528 148.376 88.9499C149.304 88.3322 150.334 87.7145 151.262 86.9938C151.468 86.8908 151.571 86.582 151.365 86.3761C151.262 86.2731 151.056 86.1702 150.85 86.2731ZM142.915 91.7296C141.987 92.4502 141.06 93.1709 140.132 93.8915C139.926 93.9945 139.926 94.3033 140.029 94.5092C140.132 94.6122 140.235 94.7152 140.338 94.7152C140.442 94.7152 140.545 94.7152 140.648 94.6122C141.575 93.8915 142.503 93.1709 143.43 92.5532C143.636 92.4502 143.636 92.1414 143.533 91.9355C143.43 91.6266 143.121 91.6266 142.915 91.7296ZM357.051 239.568C356.948 239.568 356.845 239.568 356.845 239.568H357.051ZM344.273 270.041C344.376 270.041 344.376 270.144 344.479 270.144C344.582 270.144 344.789 270.041 344.892 269.939C345.51 268.909 346.025 267.879 346.54 266.85C346.643 266.644 346.54 266.335 346.334 266.232C346.128 266.129 345.819 266.232 345.716 266.438C345.201 267.468 344.582 268.497 344.067 269.527C343.964 269.63 344.067 269.836 344.273 270.041ZM348.704 261.497C348.807 261.497 348.807 261.497 348.911 261.497C349.117 261.497 349.22 261.394 349.323 261.291C349.838 260.261 350.353 259.129 350.765 258.099C350.868 257.893 350.765 257.584 350.559 257.481C350.353 257.378 350.044 257.481 349.941 257.687C349.426 258.717 349.014 259.849 348.498 260.879C348.395 261.188 348.498 261.394 348.704 261.497ZM335.617 282.499C334.896 283.425 334.277 284.352 333.556 285.278C333.453 285.484 333.453 285.69 333.659 285.896C333.762 285.999 333.865 285.999 333.968 285.999C334.071 285.999 334.278 285.896 334.278 285.793C334.999 284.867 335.72 283.94 336.339 283.013C336.442 282.807 336.442 282.499 336.235 282.396C336.029 282.293 335.72 282.293 335.617 282.499ZM352.517 252.746C352.62 252.746 352.62 252.746 352.723 252.746C352.929 252.746 353.033 252.643 353.136 252.437C353.548 251.304 353.96 250.275 354.372 249.142C354.475 248.936 354.372 248.628 354.063 248.628C353.857 248.525 353.548 248.628 353.548 248.936C353.136 250.069 352.723 251.098 352.311 252.231C352.208 252.437 352.311 252.643 352.517 252.746ZM339.224 278.175C339.327 278.175 339.43 278.278 339.43 278.278C339.533 278.278 339.739 278.175 339.842 278.072C340.46 277.145 341.079 276.116 341.697 275.086C341.8 274.88 341.8 274.571 341.594 274.468C341.388 274.365 341.079 274.365 340.976 274.571C340.357 275.601 339.739 276.527 339.121 277.454C338.915 277.763 339.018 277.969 339.224 278.175ZM180.425 409.541L179.394 412.732C178.982 413.968 179.188 415.306 179.806 416.644L187.947 434.455H189.699L187.02 422.719L203.714 434.146L214.534 433.94L208.454 430.543L201.756 423.439L197.325 424.778L184.444 418.6L180.425 409.541ZM153.735 434.043L149.819 426.631L146.728 427.248L145.903 435.587L146.006 435.793L147.449 437.235L158.372 437.852L155.796 435.793L153.735 434.043ZM133.743 411.497L131.476 414.585C130.652 415.718 130.24 417.056 130.446 418.395L131.682 435.793V436.308L133.434 436.411L133.537 435.793L135.289 424.88L143.018 432.705L143.636 426.837L134.465 420.659L133.743 411.497ZM99.3248 254.393L100.149 266.644C100.355 266.747 100.561 266.747 100.768 266.85C107.672 269.012 115.504 270.247 123.232 270.453L126.015 244.098H118.595V239.568H141.06C140.235 235.244 139.617 231.023 138.999 226.802C141.06 226.802 143.018 226.802 145.079 226.802C145.182 225.875 145.285 224.949 145.285 223.919C145.388 221.551 145.182 219.081 144.873 216.713C144.77 216.198 144.77 215.786 144.667 215.271C142.193 214.654 139.72 214.139 137.35 213.624C137.556 205.388 142.399 199.829 142.606 193.137C138.793 196.328 135.289 199.314 131.888 202.196C131.682 201.785 131.373 201.373 131.064 200.961C130.343 199.932 129.518 198.902 128.694 197.975C127.354 196.431 125.809 194.887 124.263 193.549C124.16 193.652 124.057 193.651 123.954 193.754C120.038 181.194 112.103 169.973 101.901 160.81C100.871 160.913 99.8401 161.119 98.9126 161.531C94.7906 163.178 92.4205 167.502 91.0809 171.723C88.7107 179.65 91.0809 189.122 93.2449 197.461C93.451 198.284 93.6571 199.211 93.9663 200.034C96.2333 208.888 98.6035 213.624 100.664 222.581C102.107 228.964 98.7065 235.759 95.4089 246.672C95.3059 246.363 95.2028 246.054 95.0998 245.745C94.9968 245.539 94.7907 245.436 94.5846 245.436C94.3785 245.539 94.2754 245.745 94.2754 245.951C94.4815 246.671 94.7906 247.392 94.9967 248.01C93.6571 252.334 92.4205 257.173 91.4931 262.938C92.7297 263.556 94.0693 264.276 95.4089 264.791L99.3248 254.393ZM129.827 191.078C133.743 189.122 137.659 187.166 140.854 185.312C139.72 183.253 138.071 180.886 135.701 178.415C133.743 176.253 130.858 173.885 127.663 171.517C129.724 177.797 130.24 184.489 129.827 191.078ZM147.346 266.438C146.418 263.247 145.594 260.055 144.77 256.864C143.739 252.54 142.812 248.319 141.987 244.098H129.209C129.209 244.201 129.209 244.201 129.209 244.304L126.427 270.453C128.179 270.453 129.827 270.35 131.476 270.144C137.247 269.63 142.709 268.394 147.346 266.438ZM371.684 139.19H375.6V131.366H370.757H330.259V139.19H371.684Z" fill="#182171"/>
</svg>
