<svg width="988" height="276" viewBox="0 0 988 276" fill="none" xmlns="http://www.w3.org/2000/svg">
<path d="M219.44 191V104.06H243.02V191H219.44ZM243.02 142.94L233.84 136.82C234.92 126.14 238.04 117.74 243.2 111.62C248.36 105.38 255.8 102.26 265.52 102.26C269.72 102.26 273.5 102.98 276.86 104.42C280.22 105.74 283.28 107.96 286.04 111.08L271.28 128C269.96 126.56 268.34 125.48 266.42 124.76C264.62 124.04 262.52 123.68 260.12 123.68C255.08 123.68 250.94 125.3 247.7 128.54C244.58 131.66 243.02 136.46 243.02 142.94ZM330.742 192.8C321.382 192.8 313.042 190.82 305.722 186.86C298.522 182.78 292.822 177.32 288.622 170.48C284.542 163.64 282.502 155.9 282.502 147.26C282.502 138.74 284.542 131.12 288.622 124.4C292.822 117.56 298.402 112.16 305.362 108.2C312.442 104.12 320.422 102.08 329.302 102.08C338.662 102.08 346.522 104.18 352.882 108.38C359.242 112.46 364.282 118.34 368.002 126.02L315.982 177.14L303.202 164.18L350.182 118.1L349.462 134.66C347.902 130.7 345.502 127.64 342.262 125.48C339.142 123.32 334.942 122.24 329.662 122.24C324.622 122.24 320.242 123.32 316.522 125.48C312.802 127.52 309.922 130.4 307.882 134.12C305.962 137.84 305.002 142.1 305.002 146.9C305.002 152.06 306.082 156.62 308.242 160.58C310.402 164.42 313.402 167.42 317.242 169.58C321.202 171.74 325.822 172.82 331.102 172.82C335.782 172.82 339.922 172.1 343.522 170.66C347.122 169.1 350.302 166.82 353.062 163.82L366.922 177.68C362.482 182.72 357.142 186.5 350.902 189.02C344.782 191.54 338.062 192.8 330.742 192.8ZM401.222 191L368.642 104.06H392.402L413.642 167.24L406.442 167.42L428.222 104.06H445.322L467.102 167.42L459.902 167.24L481.142 104.06H504.902L472.502 191H455.402L433.442 130.88H440.102L418.142 191H401.222ZM551.668 192.8C542.908 192.8 534.988 190.82 527.908 186.86C520.948 182.78 515.368 177.32 511.168 170.48C507.088 163.52 505.048 155.78 505.048 147.26C505.048 138.74 507.088 131.12 511.168 124.4C515.248 117.56 520.828 112.16 527.908 108.2C534.988 104.12 542.848 102.08 551.488 102.08C560.368 102.08 568.288 104.12 575.248 108.2C582.328 112.16 587.908 117.56 591.988 124.4C596.068 131.12 598.108 138.74 598.108 147.26C598.108 155.78 596.068 163.52 591.988 170.48C587.908 177.32 582.328 182.78 575.248 186.86C568.288 190.82 560.428 192.8 551.668 192.8ZM551.488 170.84C555.928 170.84 559.828 169.88 563.188 167.96C566.668 165.92 569.308 163.16 571.108 159.68C573.028 156.08 573.988 152 573.988 147.44C573.988 142.88 573.028 138.86 571.108 135.38C569.188 131.9 566.548 129.2 563.188 127.28C559.828 125.24 555.928 124.22 551.488 124.22C547.168 124.22 543.328 125.24 539.968 127.28C536.608 129.2 533.968 131.9 532.048 135.38C530.128 138.86 529.168 142.88 529.168 147.44C529.168 152 530.128 156.08 532.048 159.68C533.968 163.16 536.608 165.92 539.968 167.96C543.328 169.88 547.168 170.84 551.488 170.84ZM609.688 191V104.06H633.268V191H609.688ZM633.268 142.94L624.088 136.82C625.168 126.14 628.288 117.74 633.448 111.62C638.608 105.38 646.048 102.26 655.768 102.26C659.968 102.26 663.748 102.98 667.108 104.42C670.468 105.74 673.528 107.96 676.288 111.08L661.528 128C660.208 126.56 658.588 125.48 656.668 124.76C654.868 124.04 652.768 123.68 650.368 123.68C645.328 123.68 641.188 125.3 637.948 128.54C634.828 131.66 633.268 136.46 633.268 142.94ZM743.791 194.06L702.751 146.18L743.431 100.64L759.631 114.68L724.711 152.12L725.611 139.52L761.431 179.48L743.791 194.06ZM680.971 191V60.86H704.551V191H680.971ZM767.495 191.5C766.295 191.5 765.312 191.1 764.545 190.3C763.779 189.5 763.395 188.517 763.395 187.35C763.395 186.183 763.779 185.2 764.545 184.4C765.312 183.6 766.295 183.2 767.495 183.2C768.662 183.2 769.629 183.6 770.395 184.4C771.162 185.2 771.545 186.183 771.545 187.35C771.545 188.517 771.162 189.5 770.395 190.3C769.629 191.1 768.662 191.5 767.495 191.5ZM787.409 191.5C784.942 191.5 782.726 190.95 780.759 189.85C778.792 188.75 777.242 187.25 776.109 185.35C774.976 183.45 774.409 181.317 774.409 178.95C774.409 176.55 774.976 174.4 776.109 172.5C777.242 170.6 778.792 169.1 780.759 168C782.759 166.867 784.976 166.3 787.409 166.3C789.309 166.3 791.059 166.65 792.659 167.35C794.259 168.05 795.642 169.05 796.809 170.35L792.609 174.6C791.976 173.9 791.209 173.367 790.309 173C789.442 172.633 788.476 172.45 787.409 172.45C786.209 172.45 785.126 172.733 784.159 173.3C783.226 173.833 782.476 174.583 781.909 175.55C781.376 176.483 781.109 177.6 781.109 178.9C781.109 180.167 781.376 181.3 781.909 182.3C782.476 183.267 783.226 184.033 784.159 184.6C785.126 185.133 786.209 185.4 787.409 185.4C788.509 185.4 789.492 185.217 790.359 184.85C791.259 184.45 792.026 183.883 792.659 183.15L796.909 187.4C795.676 188.733 794.259 189.75 792.659 190.45C791.059 191.15 789.309 191.5 787.409 191.5ZM799.618 191V154.85H806.168V191H799.618ZM821.272 191.5C819.139 191.5 817.239 191.05 815.572 190.15C813.939 189.25 812.655 188 811.722 186.4C810.789 184.8 810.322 182.95 810.322 180.85V166.85H816.922V180.7C816.922 181.7 817.089 182.567 817.422 183.3C817.755 184 818.255 184.533 818.922 184.9C819.589 185.267 820.372 185.45 821.272 185.45C822.639 185.45 823.705 185.033 824.472 184.2C825.239 183.367 825.622 182.2 825.622 180.7V166.85H832.172V180.85C832.172 182.983 831.705 184.85 830.772 186.45C829.872 188.05 828.589 189.3 826.922 190.2C825.289 191.067 823.405 191.5 821.272 191.5ZM849.788 191.5C848.055 191.5 846.488 191.133 845.088 190.4C843.688 189.667 842.571 188.667 841.738 187.4C840.905 186.133 840.455 184.717 840.388 183.15V174.55C840.455 172.983 840.905 171.583 841.738 170.35C842.605 169.083 843.738 168.1 845.138 167.4C846.538 166.7 848.088 166.35 849.788 166.35C852.021 166.35 854.021 166.9 855.788 168C857.555 169.1 858.938 170.6 859.938 172.5C860.971 174.4 861.488 176.55 861.488 178.95C861.488 181.317 860.971 183.45 859.938 185.35C858.938 187.25 857.555 188.75 855.788 189.85C854.021 190.95 852.021 191.5 849.788 191.5ZM848.688 185.45C849.888 185.45 850.938 185.183 851.838 184.65C852.771 184.083 853.488 183.317 853.988 182.35C854.521 181.35 854.788 180.2 854.788 178.9C854.788 177.633 854.521 176.517 853.988 175.55C853.488 174.55 852.771 173.783 851.838 173.25C850.905 172.683 849.838 172.4 848.638 172.4C847.438 172.4 846.371 172.683 845.438 173.25C844.538 173.783 843.821 174.55 843.288 175.55C842.788 176.517 842.538 177.633 842.538 178.9C842.538 180.2 842.788 181.35 843.288 182.35C843.821 183.317 844.555 184.083 845.488 184.65C846.421 185.183 847.488 185.45 848.688 185.45ZM836.388 191V154.85H842.938V172.8L841.838 178.6L842.888 184.5V191H836.388Z" fill="#2068FF"/>
<rect width="31.4293" height="95.4243" rx="15.7147" transform="matrix(0.835727 0.549145 -0.480813 0.876823 118.242 96.0703)" fill="#2068FF"/>
<rect width="31.4293" height="95.4243" rx="15.7147" transform="matrix(0.835727 0.549145 -0.480813 0.876823 167.734 96)" fill="#2068FF"/>
<circle cx="72" cy="121" r="18" fill="#2068FF"/>
</svg>
