<svg width="70" height="65" viewBox="0 0 70 65" fill="none" xmlns="http://www.w3.org/2000/svg">
<path d="M12.759 61.3419L2.65256 46.1344C2.53254 45.9547 2.44931 45.753 2.40765 45.541C2.36599 45.3289 2.36674 45.1107 2.40985 44.899C2.45297 44.6872 2.53759 44.4861 2.65884 44.3072C2.78008 44.1283 2.93556 43.9752 3.11628 43.8567L9.49931 39.7651C9.85674 39.5362 10.2886 39.4539 10.7051 39.5352C11.1217 39.6165 11.4909 39.8551 11.7361 40.2015L22.0471 55.2043C22.1684 55.3824 22.2534 55.5827 22.2971 55.7937C22.3409 56.0047 22.3425 56.2222 22.3019 56.4338C22.2614 56.6454 22.1795 56.847 22.0608 57.0269C21.9422 57.2067 21.7892 57.3614 21.6107 57.482L15.0367 61.7919C14.8578 61.9126 14.6568 61.9967 14.4453 62.0394C14.2338 62.0821 14.0159 62.0825 13.8042 62.0407C13.5926 61.9989 13.3912 61.9156 13.2118 61.7956C13.0325 61.6757 12.8786 61.5215 12.759 61.3419V61.3419Z" stroke="#2068FF" stroke-width="4.09168" stroke-linecap="round"/>
<path d="M12.8682 41.7427L23.5065 35.0596C23.8475 34.8433 24.229 34.6991 24.6278 34.6358C25.0265 34.5724 25.434 34.5913 25.8252 34.6914C29.6031 35.6597 40.9644 38.783 45.1515 40.2561C48.3021 41.3608 49.5706 44.4705 48.3021 46.5163C46.5836 49.2441 43.9649 48.985 42.0828 48.4531L41.3326 48.1803L33.8858 45.0024" stroke="#2068FF" stroke-width="4.09168" stroke-linecap="round"/>
<path d="M21.1201 53.8132L24.598 51.8219L44.279 57.2775C44.481 57.3347 44.6929 57.3473 44.9002 57.3143C45.1075 57.2813 45.3051 57.2036 45.4793 57.0866C48.207 55.3135 60.0866 47.4575 65.9377 43.3249C66.4121 43.0616 66.8136 42.6846 67.1061 42.2278C67.3987 41.7709 67.5731 41.2484 67.6137 40.7074C67.6542 40.1664 67.5597 39.6238 67.3386 39.1284C67.1175 38.633 66.7767 38.2003 66.3468 37.8693C65.6661 37.2562 64.8045 36.8808 63.892 36.7996C62.9794 36.7184 62.0651 36.9359 61.2868 37.4192C59.241 38.5649 53.5535 42.7929 53.5535 42.7929" stroke="#2068FF" stroke-width="4.09168" stroke-linecap="round"/>
<path d="M51.5485 9.74576C50.9045 8.26215 49.8352 7.00265 48.4758 6.12633C47.1165 5.25001 45.5279 4.79616 43.9107 4.8221C37.023 4.8221 36.7639 9.74576 36.7639 9.74576C36.7639 9.74576 35.7273 15.8287 44.1562 16.4698C52.926 17.1381 51.5485 23.1937 51.5485 23.1937C51.5485 23.1937 50.662 28.4584 44.1562 28.7857C37.6504 29.1131 35.6455 22.2936 35.6455 22.2936" stroke="#2068FF" stroke-width="4.09168"/>
<path d="M43.9102 0.443848V33.832" stroke="#2068FF" stroke-width="4.09168"/>
</svg>
