<svg width="28" height="28" viewBox="0 0 28 28" fill="none" xmlns="http://www.w3.org/2000/svg">
<path d="M23.8507 23.4618H19.8686V17.2255C19.8686 15.7384 19.842 13.824 17.7974 13.824C15.7234 13.824 15.406 15.4443 15.406 17.1173V23.4614H11.424V10.637H15.2467V12.3896H15.3003C15.6829 11.7355 16.2357 11.1973 16.8999 10.8325C17.5641 10.4677 18.3149 10.2899 19.0722 10.318C23.1083 10.318 23.8524 12.9728 23.8524 16.4266L23.8507 23.4618ZM6.93064 8.88413C5.65435 8.88434 4.61952 7.84983 4.61932 6.57354C4.61911 5.29726 5.65351 4.26244 6.9298 4.26223C8.2061 4.26191 9.24092 5.29642 9.24113 6.5727C9.24125 7.1856 8.99788 7.77344 8.56459 8.20692C8.13129 8.64039 7.54355 8.88399 6.93064 8.88413ZM8.92177 23.4619H4.93542V10.637H8.92167V23.4618L8.92177 23.4619ZM25.836 0.563968H2.93443C1.85204 0.55179 0.9644 1.41885 0.951172 2.50123V25.4982C0.96398 26.5811 1.85152 27.449 2.93432 27.4377H25.836C26.9211 27.4511 27.8121 26.5832 27.8271 25.4982V2.49945C27.8117 1.41496 26.9206 0.54801 25.836 0.562183" fill="#0A66C2"/>
</svg>
