<svg width="414" height="380" viewBox="0 0 414 380" fill="none" xmlns="http://www.w3.org/2000/svg">
<path d="M200.899 68.5031C196.246 68.5031 192.236 71.2741 190.408 75.2481L194.001 76.5311C195.287 74.0241 197.893 72.3011 200.899 72.3011C205.175 72.3011 208.654 75.7801 208.654 80.0551C208.654 84.3301 205.175 87.8091 200.899 87.8091C196.623 87.8091 193.145 84.3301 193.145 80.0551C193.145 79.4911 193.209 78.9431 193.324 78.4131L189.736 77.1321C189.491 78.0671 189.347 79.0431 189.347 80.0551C189.347 86.4251 194.529 91.6071 200.899 91.6071C207.269 91.6071 212.451 86.4251 212.451 80.0551C212.451 73.6851 207.268 68.5031 200.899 68.5031ZM225.69 95.7401V63.5651C225.69 61.3401 223.886 59.5361 221.661 59.5361H169.612C167.387 59.5361 165.583 61.3401 165.583 63.5651V95.7401C165.583 97.9651 167.387 99.7691 169.612 99.7691H212.184L224.787 110.299L221.418 99.7691H221.661C223.886 99.7681 225.69 97.9651 225.69 95.7401ZM200.899 94.6881C192.83 94.6881 186.266 88.1231 186.266 80.0551C186.266 78.6811 186.47 77.3551 186.826 76.0931L177.322 72.7001L177.995 70.8161L187.494 74.2071C189.756 69.0421 194.91 65.4211 200.9 65.4211C208.969 65.4211 215.533 71.9851 215.533 80.0541C215.532 88.1241 208.967 94.6881 200.899 94.6881ZM196.225 80.0551C196.225 82.6321 198.321 84.7281 200.898 84.7281C203.475 84.7281 205.571 82.6321 205.571 80.0551C205.571 77.4781 203.475 75.3821 200.898 75.3821C199.231 75.3821 197.776 76.2661 196.948 77.5831L199.822 78.6091C200.123 78.3841 200.493 78.2471 200.898 78.2471C201.897 78.2471 202.706 79.0571 202.706 80.0551C202.706 81.0541 201.896 81.8631 200.898 81.8631C200.051 81.8631 199.346 81.2781 199.149 80.4931L196.284 79.4701C196.26 79.6641 196.225 79.8551 196.225 80.0551Z" fill="#EFEBE9"/>
<path d="M214.743 251.518L263.69 241.059C253.798 242.218 243.495 241.541 235.361 238.679L235.332 238.683L214.743 251.518ZM220.656 287.52L221.466 289.869L221.727 290.625L237.309 335.823L246.854 333.226L242.325 296.284C241.621 290.542 240.146 284.937 237.955 279.617C236.961 277.203 235.806 274.855 234.521 272.572C230.454 272.548 226.746 272.385 223.661 272.183C223.291 277.397 222.273 282.544 220.656 287.52Z" fill="#182171"/>
<path d="M284.641 235.247C283.834 235.644 283.005 236.025 282.146 236.388L279.097 227.676H278.556L277.833 238C274.622 239.053 271.189 239.889 267.644 240.488V267.771C271.145 266.024 274.237 263.661 276.802 260.839C282.905 254.121 286.025 244.835 284.641 235.247ZM214.743 251.518L208.251 252.905L208.325 253.07L208.151 253.244L195.25 324.116L204.843 326.529L218.995 292.106C219.615 290.598 220.154 289.064 220.657 287.518C222.274 282.542 223.292 277.395 223.661 272.181C226.747 272.383 230.454 272.547 234.521 272.57C242.246 272.615 251.262 272.152 259.768 270.464C261.674 270.086 263.502 269.533 265.246 268.84V240.846C264.728 240.917 264.212 240.995 263.69 241.056L214.743 251.518Z" fill="#444DA1"/>
<path d="M408.522 372.759H398.295H390.143H387.19H382.522H379.519H375.318H372.477H367.165H364.423H357.963H355.127H354.112H351.233H348.918H345.78H340.602H319.538V316.861V316.142V229.871C319.538 229.066 319.473 228.321 319.368 227.675H317.31C317.204 228.321 317.14 229.066 317.14 229.871V248.31V249.447V317.64V318.349V372.758H290.881C290.764 367.467 286.446 363.211 281.127 363.211H267.643V338.809V338.248V279.616H276.048H277.641H287.263C292.449 279.616 296.653 275.412 296.653 270.226C296.653 265.04 292.449 260.836 287.263 260.836H276.801C274.237 263.659 271.144 266.022 267.643 267.768V240.485V229.869C267.643 229.064 267.578 228.319 267.473 227.673H265.415C265.309 228.319 265.245 229.064 265.245 229.869V240.845V268.839C263.5 269.532 261.673 270.084 259.767 270.463C251.261 272.151 242.245 272.614 234.52 272.569C235.805 274.852 236.96 277.2 237.954 279.614H252.255V341.207V341.736V347.436C253.214 348.372 253.736 349.579 253.814 350.8L253.824 350.783L255.488 367.811L253.86 368.185L252.206 363.209H246.402L240.805 371.181L230.688 373.503L234.487 369.203L236.476 363.209H229.355C224.035 363.209 219.718 367.465 219.601 372.756H171.665V353.913L171.014 353.721L171.665 353.494V334.221V333.604V229.872C171.665 229.067 171.6 228.322 171.495 227.676H235.745H263.258V223.389H236.74H233.094H204.351L195.446 185.004H138.281H136.583L145.488 223.389H109.627V227.676H121.193C121.087 228.322 121.023 229.067 121.023 229.872V305.698V306.476V372.759H3.204C1.434 372.759 0 374.194 0 375.963C0 377.732 1.435 379.167 3.204 379.167H408.523C410.293 379.167 411.727 377.732 411.727 375.963C411.727 374.194 410.292 372.759 408.522 372.759ZM258.227 340.775V340.243V279.617H265.245V338.811V339.373V363.212H258.227V340.775ZM123.42 308.347V307.583V229.872C123.42 229.082 123.357 228.352 123.255 227.714C123.253 227.702 123.251 227.688 123.249 227.676H124.072H169.437C169.331 228.322 169.267 229.067 169.267 229.872V332.756V333.39V372.759H123.421V308.347H123.42ZM276.821 198.657C276.623 203.42 278.78 208.723 281.214 216.123H289.248C294.725 216.123 299.165 211.683 299.165 206.206V185.531C299.165 180.054 294.725 175.614 289.248 175.614H283.265C281.739 181.313 280.22 185.253 278.782 190.063C278.111 192.852 277.452 195.692 276.821 198.657ZM250.649 87.2903C250.654 87.2473 250.668 87.2083 250.674 87.1663C250.917 85.5043 252.327 84.2173 254.056 84.2173H258.119H263.568C266.905 84.2173 269.62 86.9313 269.62 90.2683V111.87C267.144 112.163 265.216 114.245 265.216 116.8C265.216 117.878 265.566 118.869 266.147 119.685C266.45 120.11 266.82 120.479 267.238 120.79L266.398 122.218C263.626 126.934 259.233 130.458 254.027 132.139C253.502 132.309 253.214 132.872 253.383 133.398C253.52 133.821 253.911 134.091 254.334 134.091C254.436 134.091 254.539 134.075 254.642 134.042C260.314 132.209 265.101 128.37 268.122 123.231L269.056 121.642C269.39 121.721 269.736 121.769 270.093 121.777C270.131 121.778 270.167 121.788 270.205 121.788C272.96 121.788 275.194 119.554 275.194 116.799C275.194 114.539 273.681 112.652 271.62 112.039V90.2673C271.62 85.8283 268.008 82.2163 263.568 82.2163H260.105H254.056C251.054 82.2163 248.612 84.6583 248.612 87.6603C248.612 87.8353 248.674 87.9873 248.757 88.1273C248.779 88.1643 248.794 88.2053 248.82 88.2403L250.649 87.2903Z" fill="#263238"/>
<path d="M204.35 223.389H233.093L232.467 220.69H205.422L204.538 216.882L202.178 206.708L197.143 185.003H195.445L204.35 223.389ZM263.257 227.676H265.416H267.473H278.555H279.096H284.512H317.31H319.368H325.918V223.389H283.421H263.257V227.676Z" fill="#37474F"/>
<path d="M228.505 206.796C229.52 206.605 230.599 206.38 231.733 206.123C231.432 204.011 231.304 201.876 231.285 199.793C226.674 201.651 221.936 203.6 217.709 205.181C218.592 205.155 219.462 205.227 220.291 205.421C223.077 205.404 225.85 205.882 228.505 206.796ZM210.182 216.397C210.859 216.095 211.413 215.599 211.799 214.993C211.33 215.113 210.863 215.239 210.397 215.371C209.955 215.496 209.633 214.783 210.067 214.507C211.717 213.455 213.778 212.616 215.875 212.251C215.854 212.138 215.835 212.026 215.818 211.915C215.708 211.918 215.598 211.917 215.488 211.923C213.469 212.038 211.475 212.523 209.51 213.078C209.068 213.203 208.746 212.491 209.18 212.214C211.026 211.037 213.388 210.126 215.737 209.85C215.737 209.846 215.738 209.841 215.738 209.837C215.488 209.834 215.238 209.838 214.987 209.852C212.968 209.967 210.974 210.452 209.009 211.007C208.567 211.132 208.245 210.419 208.679 210.143C210.806 208.787 213.616 207.78 216.305 207.695C216.359 207.574 216.419 207.451 216.48 207.329C216.444 207.331 216.408 207.33 216.371 207.332C214.352 207.447 212.358 207.932 210.393 208.487C209.951 208.612 209.629 207.9 210.063 207.623C210.425 207.392 210.808 207.172 211.206 206.964C208.735 206.516 206.22 206.431 203.743 206.738C203.229 206.68 202.704 206.681 202.175 206.709L204.535 216.882C206.508 217.227 208.393 217.195 210.182 216.397ZM239.805 343.065L240.275 344.427L236.996 361.647L241.751 361.76L250.419 353.497L249.614 344.898L248.107 343.452L247.966 342.298L247.903 341.784L246.854 333.226L237.309 335.822L239.634 342.566L239.805 343.065ZM193.62 333.072L188.975 338.584L188.574 339.06L182.324 346.476L186.414 348.905L198.018 345.949L199.1 343.518L201.53 338.058L200.925 336.059L204.843 326.53H204.842L195.25 324.117L193.62 333.072ZM259.377 148.556L260.701 148.416C261.03 145.901 261.358 143.385 261.687 140.87C265.098 139.527 268.304 137.611 271.1 135.236L270.571 127.388L270.422 125.17L270.296 125.183C270.505 124.22 270.622 123.223 270.622 122.197L270.095 121.777C269.738 121.769 269.393 121.722 269.058 121.642L268.124 123.231C265.103 128.37 260.315 132.209 254.644 134.042C254.541 134.075 254.438 134.091 254.336 134.091C253.913 134.091 253.522 133.821 253.385 133.398C253.215 132.872 253.503 132.309 254.029 132.139C259.235 130.457 263.628 126.933 266.4 122.218L267.24 120.79C266.822 120.479 266.452 120.11 266.149 119.685C262.061 118.624 258.132 116.883 254.522 114.434C249.773 111.211 245.39 106.956 242.893 101.932L243.942 113.577L245.073 126.13C245.073 131.719 249.635 136.237 253.013 136.237H256.583C257.248 136.237 257.898 136.175 258.538 136.085L258.905 141.529L259.377 148.556ZM210.397 208.486C212.362 207.931 214.356 207.446 216.375 207.331C216.411 207.329 216.447 207.33 216.484 207.328C216.423 207.45 216.362 207.573 216.309 207.694C213.62 207.779 210.81 208.785 208.683 210.142C208.249 210.419 208.57 211.131 209.013 211.006C210.978 210.451 212.972 209.966 214.991 209.851C215.242 209.837 215.492 209.834 215.742 209.836C215.742 209.84 215.741 209.845 215.741 209.849C213.391 210.125 211.03 211.036 209.184 212.213C208.75 212.49 209.071 213.202 209.514 213.077C211.479 212.522 213.473 212.037 215.492 211.922C215.602 211.916 215.712 211.917 215.822 211.914C215.839 212.025 215.858 212.136 215.879 212.25C213.782 212.615 211.721 213.454 210.071 214.506C209.637 214.783 209.958 215.495 210.401 215.37C210.867 215.239 211.334 215.112 211.803 214.992C213.313 214.607 214.838 214.302 216.379 214.215C219.543 215.652 222.558 216.702 225.557 215.766C226.711 215.406 227.608 214.507 227.979 213.371C231.843 213.086 235.46 212.934 238.9 212.835C242.263 212.738 245.468 212.684 248.568 212.596C247.971 209.014 248.072 205.285 248.456 201.743C242.682 203.315 236.709 204.998 231.737 206.123C230.603 206.38 229.524 206.605 228.509 206.796C225.854 205.882 223.081 205.404 220.295 205.421C219.467 205.227 218.596 205.155 217.713 205.181C215.477 205.246 213.157 205.949 211.214 206.964C210.816 207.172 210.433 207.392 210.071 207.623C209.633 207.899 209.954 208.611 210.397 208.486Z" fill="#FFD2BB"/>
<path d="M254.52 114.434C258.13 116.884 262.059 118.624 266.147 119.685C265.566 118.869 265.216 117.878 265.216 116.8C265.216 114.245 267.144 112.163 269.62 111.87V90.2679C269.62 86.9309 266.905 84.2169 263.568 84.2169H258.119C258.108 84.2319 258.095 84.2459 258.083 84.2609C257.767 84.6779 257.49 85.1219 257.241 85.5809C254.984 85.7289 252.751 86.2689 250.675 87.1659C250.669 87.2079 250.654 87.2469 250.65 87.2899L248.82 88.2419C248.794 88.2069 248.779 88.1659 248.757 88.1289C245.945 89.7249 243.541 91.9999 241.957 94.8259C238.669 100.693 239.391 108.664 243.94 113.577L242.891 101.932C245.388 106.955 249.77 111.211 254.52 114.434ZM271.62 90.2679V112.04C273.681 112.653 275.194 114.54 275.194 116.8C275.194 119.555 272.96 121.789 270.205 121.789C270.167 121.789 270.131 121.779 270.093 121.778L270.62 122.198C270.62 123.224 270.503 124.221 270.294 125.184L270.42 125.171L270.569 127.389C275.196 124.846 278.774 120.361 280.254 115.26C281.352 111.478 281.332 107.437 280.385 103.611C280.883 102.903 281.314 102.149 281.666 101.36C283.531 97.1799 283.252 92.1759 281.214 88.0779C279.134 83.8939 275.17 80.5979 270.582 79.7109C266.944 79.0069 262.992 79.9449 260.104 82.2189H263.567C268.008 82.2169 271.62 85.8289 271.62 90.2679Z" fill="#F5A74A"/>
<path d="M338.817 135.831C338.856 135.831 338.897 135.825 338.936 135.811C339.13 135.745 339.235 135.535 339.169 135.34C338.85 134.394 338.519 133.455 338.177 132.52C338.107 132.328 337.894 132.229 337.7 132.299C337.507 132.37 337.408 132.583 337.479 132.776C337.819 133.705 338.147 134.639 338.465 135.579C338.517 135.733 338.662 135.831 338.817 135.831ZM344.285 164.619C344.355 165.604 344.413 166.592 344.458 167.584C344.467 167.783 344.631 167.939 344.829 167.939C344.834 167.939 344.84 167.939 344.846 167.939C345.051 167.93 345.209 167.756 345.2 167.551C345.155 166.553 345.097 165.558 345.027 164.566C345.012 164.361 344.82 164.204 344.63 164.222C344.425 164.237 344.271 164.414 344.285 164.619ZM344.43 184.542C344.619 184.542 344.781 184.398 344.799 184.206C344.893 183.216 344.974 182.223 345.042 181.226C345.056 181.021 344.901 180.844 344.697 180.83C344.492 180.821 344.315 180.971 344.301 181.175C344.233 182.165 344.153 183.152 344.059 184.135C344.04 184.339 344.19 184.521 344.394 184.54C344.406 184.541 344.418 184.542 344.43 184.542ZM334.486 220.634C334.081 221.542 333.666 222.443 333.238 223.338C333.149 223.524 333.228 223.745 333.413 223.833C333.465 223.858 333.52 223.869 333.573 223.869C333.712 223.869 333.844 223.791 333.908 223.658C334.338 222.757 334.757 221.85 335.165 220.937C335.248 220.749 335.164 220.53 334.977 220.446C334.79 220.364 334.57 220.447 334.486 220.634ZM335.933 128.178C335.981 128.178 336.029 128.169 336.076 128.149C336.265 128.07 336.355 127.853 336.276 127.663C335.894 126.746 335.499 125.834 335.093 124.929C335.009 124.741 334.789 124.658 334.603 124.741C334.416 124.825 334.332 125.045 334.416 125.232C334.819 126.131 335.21 127.037 335.591 127.949C335.65 128.092 335.787 128.178 335.933 128.178ZM337.555 213.045C337.215 213.979 336.864 214.908 336.5 215.831C336.425 216.022 336.518 216.238 336.709 216.313C336.754 216.331 336.8 216.339 336.845 216.339C336.993 216.339 337.133 216.25 337.19 216.104C337.556 215.174 337.91 214.239 338.252 213.299C338.322 213.106 338.223 212.893 338.03 212.823C337.838 212.754 337.625 212.853 337.555 213.045ZM345.288 176.002C345.313 175.009 345.325 174.013 345.325 173.014V172.781C345.325 172.576 345.159 172.41 344.954 172.41C344.749 172.41 344.583 172.576 344.583 172.781V173.014C344.583 174.007 344.571 174.997 344.546 175.984C344.541 176.189 344.703 176.36 344.908 176.365C344.912 176.365 344.915 176.365 344.917 176.365C345.117 176.365 345.283 176.204 345.288 176.002ZM340.541 205.01C340.341 204.949 340.138 205.067 340.082 205.265C339.809 206.218 339.525 207.166 339.229 208.11C339.167 208.305 339.276 208.514 339.472 208.575C339.509 208.587 339.546 208.592 339.583 208.592C339.741 208.592 339.888 208.49 339.937 208.332C340.236 207.382 340.522 206.428 340.796 205.469C340.852 205.272 340.738 205.067 340.541 205.01ZM341.163 143.68C341.193 143.68 341.225 143.676 341.257 143.668C341.456 143.616 341.575 143.413 341.523 143.215C341.271 142.249 341.008 141.288 340.732 140.332C340.675 140.135 340.467 140.022 340.272 140.078C340.075 140.135 339.961 140.341 340.018 140.538C340.292 141.488 340.554 142.443 340.804 143.402C340.847 143.569 340.997 143.68 341.163 143.68ZM343.741 156.079C343.538 156.108 343.396 156.296 343.425 156.499C343.563 157.477 343.689 158.459 343.803 159.445C343.826 159.634 343.986 159.774 344.172 159.774C344.187 159.774 344.201 159.773 344.216 159.771C344.42 159.747 344.566 159.563 344.542 159.359C344.427 158.367 344.3 157.379 344.161 156.395C344.133 156.191 343.947 156.047 343.741 156.079ZM332.522 120.753C332.579 120.753 332.635 120.74 332.689 120.713C332.873 120.621 332.946 120.397 332.854 120.214C332.408 119.325 331.95 118.443 331.482 117.567C331.384 117.385 331.157 117.319 330.979 117.415C330.798 117.511 330.729 117.737 330.826 117.918C331.291 118.788 331.747 119.665 332.191 120.548C332.256 120.678 332.386 120.753 332.522 120.753ZM341.673 200.686C341.702 200.693 341.731 200.696 341.759 200.696C341.927 200.696 342.08 200.581 342.12 200.411C342.351 199.442 342.569 198.47 342.776 197.494C342.818 197.293 342.69 197.096 342.489 197.054C342.287 197.016 342.091 197.14 342.049 197.341C341.844 198.312 341.627 199.277 341.398 200.239C341.351 200.438 341.474 200.639 341.673 200.686ZM343.316 192.66C343.337 192.664 343.357 192.665 343.378 192.665C343.556 192.665 343.713 192.536 343.744 192.355C343.907 191.373 344.057 190.388 344.195 189.399C344.223 189.195 344.082 189.008 343.879 188.98C343.682 188.957 343.487 189.093 343.46 189.296C343.323 190.279 343.174 191.258 343.012 192.233C342.977 192.435 343.113 192.627 343.316 192.66ZM343.018 151.668C343.22 151.63 343.352 151.436 343.315 151.235C343.131 150.254 342.936 149.277 342.728 148.304C342.684 148.104 342.489 147.974 342.287 148.019C342.087 148.061 341.958 148.259 342.001 148.46C342.207 149.426 342.402 150.397 342.585 151.373C342.618 151.551 342.774 151.676 342.949 151.676C342.972 151.675 342.995 151.672 343.018 151.668ZM196.237 286.564C197.196 286.828 198.16 287.08 199.129 287.32C199.159 287.327 199.189 287.331 199.219 287.331C199.386 287.331 199.537 287.218 199.579 287.049C199.628 286.85 199.507 286.649 199.308 286.599C198.346 286.36 197.388 286.11 196.435 285.847C196.238 285.794 196.033 285.909 195.978 286.107C195.923 286.305 196.039 286.51 196.237 286.564ZM309.878 257.08C309.972 257.08 310.067 257.044 310.138 256.973C310.848 256.274 311.55 255.566 312.242 254.85C312.385 254.702 312.381 254.467 312.233 254.325C312.085 254.183 311.849 254.186 311.708 254.334C311.02 255.046 310.323 255.749 309.617 256.444C309.47 256.588 309.469 256.823 309.613 256.969C309.686 257.043 309.783 257.08 309.878 257.08ZM271.441 281.528C270.524 281.899 269.601 282.259 268.673 282.608C268.481 282.68 268.384 282.894 268.456 283.086C268.512 283.235 268.653 283.327 268.804 283.327C268.848 283.327 268.892 283.32 268.935 283.303C269.869 282.953 270.797 282.591 271.72 282.218C271.91 282.141 272.002 281.924 271.925 281.734C271.847 281.544 271.629 281.453 271.441 281.528ZM134.029 101.454C133.423 102.246 132.826 103.045 132.24 103.852C132.119 104.018 132.156 104.25 132.322 104.371C132.388 104.419 132.464 104.442 132.54 104.442C132.655 104.442 132.768 104.389 132.841 104.289C133.424 103.487 134.017 102.693 134.619 101.906C134.744 101.743 134.713 101.51 134.55 101.385C134.387 101.261 134.155 101.292 134.029 101.454ZM303.844 262.617C303.93 262.617 304.015 262.588 304.086 262.528C304.843 261.88 305.591 261.223 306.331 260.558C306.484 260.421 306.496 260.186 306.359 260.033C306.221 259.879 305.985 259.867 305.835 260.005C305.099 260.667 304.356 261.32 303.603 261.964C303.447 262.097 303.429 262.332 303.562 262.488C303.635 262.572 303.739 262.617 303.844 262.617ZM139.253 95.1063C138.594 95.8533 137.944 96.6083 137.303 97.3723C137.171 97.5293 137.192 97.7632 137.349 97.8952C137.419 97.9532 137.503 97.9823 137.587 97.9823C137.693 97.9823 137.798 97.9373 137.872 97.8493C138.509 97.0903 139.155 96.3393 139.81 95.5973C139.946 95.4433 139.931 95.2093 139.777 95.0733C139.625 94.9383 139.389 94.9533 139.253 95.1063ZM297.442 267.72C297.519 267.72 297.596 267.696 297.663 267.647C298.462 267.054 299.255 266.451 300.038 265.838C300.2 265.712 300.229 265.478 300.102 265.317C299.975 265.153 299.741 265.126 299.581 265.253C298.802 265.862 298.015 266.461 297.22 267.051C297.055 267.173 297.02 267.406 297.143 267.57C297.216 267.667 297.329 267.72 297.442 267.72ZM245.053 289.481C245.071 289.481 245.09 289.48 245.108 289.477C246.096 289.33 247.079 289.17 248.059 288.998C248.261 288.962 248.396 288.77 248.361 288.568C248.326 288.365 248.122 288.225 247.931 288.266C246.957 288.437 245.98 288.595 244.999 288.742C244.796 288.772 244.656 288.961 244.686 289.164C244.713 289.349 244.872 289.481 245.053 289.481ZM144.903 89.1383C144.194 89.8373 143.493 90.5453 142.801 91.2623C142.658 91.4103 142.663 91.6453 142.81 91.7873C142.882 91.8573 142.975 91.8913 143.068 91.8913C143.165 91.8913 143.262 91.8533 143.335 91.7773C144.022 91.0653 144.719 90.3613 145.424 89.6663C145.57 89.5223 145.572 89.2873 145.428 89.1413C145.285 88.9953 145.049 88.9943 144.903 89.1383ZM276.018 279.969C276.08 280.105 276.215 280.186 276.356 280.186C276.408 280.186 276.46 280.175 276.511 280.153C276.891 279.979 277.265 279.795 277.643 279.618H276.05C275.984 279.72 275.964 279.85 276.018 279.969ZM315.27 251.042C315.34 251.105 315.428 251.136 315.516 251.136C315.618 251.136 315.721 251.094 315.794 251.011C316.25 250.496 316.695 249.972 317.141 249.448V248.311C316.516 249.054 315.882 249.79 315.238 250.519C315.102 250.671 315.116 250.907 315.27 251.042ZM141.359 252.149C141.22 251.997 140.984 251.988 140.834 252.126C140.683 252.265 140.673 252.5 140.811 252.651C141.485 253.385 142.168 254.111 142.86 254.827C142.933 254.902 143.03 254.94 143.127 254.94C143.22 254.94 143.313 254.905 143.385 254.836C143.532 254.694 143.536 254.459 143.394 254.311C142.707 253.598 142.028 252.878 141.359 252.149ZM136.048 245.949C135.92 245.788 135.686 245.762 135.526 245.89C135.366 246.018 135.34 246.251 135.467 246.412C136.088 247.191 136.719 247.961 137.36 248.723C137.434 248.811 137.539 248.856 137.645 248.856C137.729 248.856 137.814 248.828 137.884 248.769C138.041 248.637 138.061 248.403 137.929 248.246C137.293 247.488 136.665 246.723 136.048 245.949ZM147.087 257.966C146.938 257.827 146.703 257.832 146.562 257.981C146.421 258.13 146.427 258.365 146.576 258.506C147.299 259.192 148.031 259.867 148.771 260.534C148.842 260.599 148.931 260.63 149.02 260.63C149.122 260.63 149.223 260.589 149.296 260.507C149.433 260.355 149.421 260.12 149.269 259.982C148.533 259.32 147.806 258.647 147.087 257.966ZM153.207 263.376C153.049 263.245 152.814 263.269 152.684 263.426C152.553 263.584 152.576 263.818 152.734 263.949C153.503 264.583 154.28 265.208 155.066 265.821C155.134 265.875 155.215 265.9 155.295 265.9C155.406 265.9 155.515 265.851 155.588 265.757C155.714 265.596 155.686 265.362 155.524 265.236C154.744 264.626 153.971 264.006 153.207 263.376ZM264.237 284.563C264.173 284.368 263.964 284.262 263.769 284.324C262.829 284.63 261.883 284.924 260.932 285.206C260.735 285.265 260.624 285.471 260.682 285.668C260.73 285.829 260.878 285.934 261.038 285.934C261.073 285.934 261.108 285.929 261.144 285.919C262.101 285.635 263.052 285.339 263.998 285.031C264.193 284.967 264.3 284.758 264.237 284.563ZM131.184 239.399C131.067 239.23 130.835 239.188 130.667 239.304C130.498 239.421 130.456 239.652 130.572 239.821C131.138 240.641 131.713 241.453 132.299 242.256C132.372 242.356 132.485 242.409 132.6 242.409C132.676 242.409 132.752 242.386 132.818 242.338C132.984 242.217 133.02 241.985 132.9 241.819C132.318 241.02 131.746 240.214 131.184 239.399ZM330.893 227.985C330.426 228.861 329.948 229.73 329.459 230.593C329.358 230.771 329.421 230.998 329.6 231.099C329.658 231.132 329.72 231.147 329.783 231.147C329.912 231.147 330.038 231.08 330.107 230.958C330.598 230.09 331.079 229.215 331.549 228.334C331.645 228.153 331.577 227.928 331.396 227.831C331.215 227.737 330.99 227.804 330.893 227.985ZM123.918 228.554C123.977 228.554 124.037 228.54 124.092 228.51C124.273 228.414 124.342 228.189 124.245 228.007C124.186 227.897 124.132 227.785 124.073 227.675H123.25C123.252 227.687 123.254 227.701 123.256 227.713C123.368 227.927 123.475 228.144 123.589 228.357C123.656 228.483 123.785 228.554 123.918 228.554ZM126.788 232.53C126.684 232.354 126.456 232.296 126.279 232.399C126.103 232.504 126.044 232.732 126.149 232.908C126.656 233.765 127.174 234.614 127.701 235.456C127.772 235.568 127.893 235.63 128.016 235.63C128.083 235.63 128.152 235.612 128.213 235.573C128.387 235.464 128.439 235.235 128.331 235.061C127.806 234.226 127.292 233.381 126.788 232.53ZM191.227 285.062C191.265 285.074 191.304 285.08 191.342 285.08C191.499 285.08 191.645 284.98 191.695 284.823C191.758 284.628 191.651 284.418 191.456 284.355C190.51 284.048 189.569 283.73 188.633 283.4C188.439 283.33 188.227 283.433 188.159 283.626C188.091 283.82 188.192 284.032 188.386 284.1C189.327 284.433 190.275 284.754 191.227 285.062ZM129.257 108.153C128.707 108.986 128.167 109.825 127.638 110.671C127.529 110.845 127.582 111.074 127.756 111.183C127.817 111.221 127.885 111.24 127.953 111.24C128.077 111.24 128.198 111.178 128.268 111.066C128.794 110.225 129.33 109.391 129.877 108.564C129.99 108.393 129.943 108.162 129.772 108.049C129.601 107.934 129.37 107.982 129.257 108.153ZM112.737 197.905C112.762 197.905 112.789 197.902 112.815 197.897C113.016 197.854 113.144 197.657 113.101 197.457C112.895 196.49 112.702 195.519 112.521 194.543C112.484 194.341 112.29 194.209 112.088 194.246C111.886 194.283 111.753 194.477 111.791 194.679C111.974 195.66 112.169 196.637 112.375 197.61C112.411 197.785 112.566 197.905 112.737 197.905ZM113.425 145.457C113.226 145.408 113.025 145.533 112.978 145.733C112.748 146.701 112.531 147.673 112.325 148.65C112.283 148.851 112.411 149.048 112.612 149.09C112.638 149.095 112.664 149.098 112.689 149.098C112.861 149.098 113.015 148.978 113.052 148.803C113.256 147.832 113.472 146.866 113.701 145.904C113.748 145.704 113.624 145.504 113.425 145.457ZM183.76 281.558C182.838 281.186 181.922 280.802 181.012 280.407C180.825 280.325 180.606 280.412 180.523 280.6C180.442 280.789 180.528 281.007 180.716 281.089C181.632 281.486 182.553 281.872 183.48 282.247C183.526 282.265 183.573 282.274 183.619 282.274C183.766 282.274 183.905 282.186 183.963 282.042C184.042 281.852 183.95 281.635 183.76 281.558ZM220.173 290.176C220.161 290.381 220.317 290.557 220.522 290.569C220.922 290.592 221.325 290.605 221.726 290.625L221.465 289.869C221.165 289.854 220.864 289.845 220.565 289.827C220.366 289.809 220.185 289.972 220.173 290.176ZM176.285 278.229C175.392 277.793 174.506 277.346 173.627 276.888C173.444 276.793 173.22 276.863 173.126 277.046C173.031 277.227 173.102 277.452 173.284 277.547C174.169 278.008 175.061 278.457 175.959 278.896C176.012 278.921 176.067 278.934 176.122 278.934C176.26 278.934 176.392 278.857 176.456 278.726C176.545 278.542 176.469 278.319 176.285 278.229ZM114.363 205.583C114.41 205.746 114.558 205.852 114.72 205.852C114.754 205.852 114.789 205.848 114.823 205.837C115.02 205.78 115.134 205.574 115.077 205.378C114.804 204.428 114.543 203.472 114.293 202.512C114.241 202.313 114.039 202.196 113.84 202.246C113.642 202.298 113.523 202.501 113.574 202.699C113.826 203.666 114.088 204.627 114.363 205.583ZM111.316 189.838C111.333 189.838 111.35 189.837 111.368 189.834C111.571 189.806 111.713 189.618 111.684 189.415C111.547 188.437 111.422 187.455 111.309 186.468C111.286 186.265 111.101 186.116 110.898 186.142C110.694 186.165 110.548 186.35 110.572 186.553C110.686 187.545 110.812 188.533 110.95 189.518C110.975 189.703 111.134 189.838 111.316 189.838ZM115.619 137.564C115.422 137.502 115.215 137.611 115.154 137.807C114.857 138.757 114.571 139.712 114.298 140.671C114.242 140.868 114.356 141.074 114.553 141.13C114.587 141.139 114.622 141.144 114.655 141.144C114.816 141.144 114.965 141.038 115.012 140.874C115.284 139.92 115.567 138.972 115.863 138.028C115.924 137.834 115.815 137.626 115.619 137.564ZM111.789 153.484C111.584 153.446 111.395 153.588 111.362 153.79C111.201 154.772 111.052 155.756 110.915 156.746C110.887 156.949 111.029 157.137 111.232 157.165C111.249 157.168 111.266 157.169 111.283 157.169C111.466 157.169 111.625 157.034 111.65 156.848C111.786 155.865 111.934 154.886 112.094 153.911C112.129 153.708 111.992 153.517 111.789 153.484ZM119.006 217.771C118.817 217.85 118.727 218.068 118.806 218.257C119.188 219.175 119.581 220.087 119.986 220.993C120.048 221.131 120.183 221.213 120.326 221.213C120.376 221.213 120.428 221.203 120.477 221.181C120.664 221.097 120.748 220.877 120.665 220.69C120.263 219.79 119.872 218.884 119.492 217.972C119.413 217.781 119.195 217.695 119.006 217.771ZM121.661 122.301C121.475 122.214 121.254 122.292 121.166 122.477C120.738 123.378 120.32 124.286 119.913 125.199C119.83 125.386 119.914 125.606 120.102 125.689C120.151 125.711 120.202 125.721 120.253 125.721C120.396 125.721 120.531 125.639 120.593 125.5C120.997 124.592 121.412 123.691 121.838 122.795C121.925 122.611 121.847 122.389 121.661 122.301ZM124.962 115.171C124.471 116.04 123.991 116.915 123.522 117.797C123.426 117.978 123.494 118.203 123.675 118.299C123.73 118.329 123.79 118.343 123.849 118.343C123.982 118.343 124.111 118.272 124.177 118.146C124.643 117.269 125.12 116.4 125.608 115.537C125.709 115.358 125.646 115.132 125.468 115.031C125.29 114.931 125.063 114.993 124.962 115.171ZM118.372 129.824C118.181 129.75 117.966 129.843 117.891 130.034C117.526 130.963 117.173 131.899 116.832 132.839C116.762 133.032 116.862 133.245 117.055 133.315C117.097 133.33 117.14 133.337 117.182 133.337C117.334 133.337 117.476 133.243 117.531 133.092C117.87 132.158 118.221 131.228 118.583 130.305C118.657 130.114 118.563 129.899 118.372 129.824ZM110.462 181.691C110.471 181.691 110.479 181.691 110.488 181.69C110.693 181.675 110.847 181.498 110.833 181.294C110.764 180.309 110.708 179.32 110.663 178.328C110.654 178.123 110.477 177.956 110.275 177.974C110.07 177.983 109.912 178.157 109.921 178.362C109.966 179.36 110.023 180.355 110.092 181.346C110.105 181.541 110.268 181.691 110.462 181.691ZM116.153 210.106C115.959 210.171 115.854 210.382 115.919 210.576C116.237 211.522 116.567 212.463 116.908 213.397C116.963 213.547 117.105 213.641 117.257 213.641C117.299 213.641 117.342 213.634 117.384 213.619C117.577 213.549 117.676 213.335 117.606 213.142C117.267 212.213 116.939 211.28 116.623 210.339C116.558 210.145 116.348 210.041 116.153 210.106ZM110.446 165.316C110.64 165.316 110.803 165.166 110.816 164.97C110.883 163.98 110.963 162.993 111.055 162.009C111.074 161.805 110.924 161.624 110.719 161.605C110.517 161.586 110.334 161.736 110.315 161.941C110.223 162.931 110.143 163.924 110.075 164.921C110.061 165.126 110.216 165.303 110.421 165.317C110.429 165.316 110.438 165.316 110.446 165.316ZM109.836 170.143C109.813 171.097 109.802 172.054 109.802 173.014V173.131C109.802 173.336 109.968 173.502 110.173 173.502C110.378 173.502 110.544 173.336 110.544 173.131V173.014C110.544 172.06 110.556 171.109 110.578 170.161C110.583 169.956 110.421 169.786 110.216 169.781C110.008 169.769 109.841 169.938 109.836 170.143ZM159.691 268.349C159.524 268.231 159.293 268.27 159.173 268.436C159.054 268.603 159.093 268.835 159.26 268.954C160.072 269.532 160.891 270.102 161.718 270.66C161.782 270.704 161.854 270.724 161.926 270.724C162.045 270.724 162.162 270.667 162.234 270.561C162.349 270.39 162.304 270.16 162.134 270.045C161.312 269.49 160.498 268.925 159.691 268.349ZM207.08 57.7823C208.053 57.6103 209.03 57.4503 210.011 57.3033C210.214 57.2733 210.354 57.0832 210.323 56.8802C210.293 56.6772 210.107 56.5423 209.9 56.5683C208.913 56.7173 207.93 56.8773 206.95 57.0503C206.748 57.0863 206.613 57.2783 206.649 57.4803C206.681 57.6603 206.837 57.7873 207.014 57.7873C207.037 57.7883 207.059 57.7863 207.08 57.7823ZM215.167 56.6443C216.149 56.5413 217.135 56.4503 218.125 56.3713C218.329 56.3553 218.482 56.1763 218.466 55.9713C218.449 55.7663 218.275 55.6152 218.066 55.6302C217.07 55.7102 216.078 55.8023 215.09 55.9062C214.886 55.9273 214.738 56.1103 214.76 56.3143C214.78 56.5053 214.941 56.6472 215.129 56.6472C215.141 56.6462 215.154 56.6453 215.167 56.6443ZM271.534 63.7373C271.346 63.6613 271.127 63.7523 271.051 63.9433C270.974 64.1333 271.066 64.3503 271.257 64.4273C272.179 64.7983 273.095 65.1813 274.005 65.5753C274.054 65.5963 274.104 65.6053 274.153 65.6053C274.297 65.6053 274.433 65.5213 274.494 65.3813C274.575 65.1933 274.489 64.9743 274.301 64.8923C273.384 64.4953 272.462 64.1103 271.534 63.7373ZM279.062 67.0803C278.88 66.9913 278.656 67.0673 278.566 67.2523C278.476 67.4363 278.553 67.6593 278.737 67.7493C279.63 68.1843 280.517 68.6303 281.397 69.0863C281.452 69.1143 281.51 69.1283 281.568 69.1283C281.702 69.1283 281.831 69.0553 281.897 68.9283C281.992 68.7463 281.921 68.5223 281.739 68.4273C280.853 67.9673 279.961 67.5183 279.062 67.0803ZM255.882 58.6803C255.678 58.6313 255.481 58.7533 255.432 58.9523C255.383 59.1513 255.505 59.3523 255.703 59.4013C256.666 59.6393 257.624 59.8883 258.577 60.1503C258.61 60.1593 258.643 60.1633 258.676 60.1633C258.839 60.1633 258.989 60.0553 259.034 59.8903C259.088 59.6923 258.972 59.4883 258.774 59.4333C257.815 59.1703 256.851 58.9193 255.882 58.6803ZM286.332 70.9423C286.155 70.8403 285.927 70.9013 285.825 71.0783C285.722 71.2563 285.783 71.4833 285.961 71.5853C286.82 72.0813 287.673 72.5873 288.518 73.1053C288.578 73.1423 288.645 73.1593 288.712 73.1593C288.837 73.1593 288.959 73.0963 289.029 72.9813C289.136 72.8063 289.081 72.5783 288.906 72.4703C288.054 71.9513 287.197 71.4413 286.332 70.9423ZM247.839 56.9922C247.642 56.9562 247.445 57.0923 247.41 57.2943C247.374 57.4963 247.51 57.6883 247.713 57.7243C248.69 57.8933 249.664 58.0763 250.633 58.2693C250.657 58.2743 250.682 58.2763 250.706 58.2763C250.879 58.2763 251.034 58.1542 251.069 57.9772C251.11 57.7762 250.979 57.5803 250.777 57.5403C249.803 57.3453 248.824 57.1632 247.839 56.9922ZM322.216 241.834C321.633 242.635 321.039 243.429 320.436 244.214C320.311 244.377 320.342 244.61 320.504 244.735C320.571 244.787 320.651 244.812 320.73 244.812C320.841 244.812 320.951 244.762 321.024 244.667C321.631 243.875 322.228 243.077 322.816 242.271C322.936 242.106 322.9 241.873 322.734 241.752C322.569 241.631 322.336 241.668 322.216 241.834ZM199.004 59.4942C199.034 59.4942 199.064 59.4903 199.094 59.4833C200.053 59.2443 201.016 59.0163 201.985 58.8003C202.185 58.7553 202.311 58.5573 202.266 58.3573C202.221 58.1573 202.024 58.0312 201.823 58.0762C200.849 58.2932 199.879 58.5223 198.914 58.7643C198.715 58.8143 198.594 59.0152 198.644 59.2142C198.686 59.3812 198.838 59.4942 199.004 59.4942ZM239.699 55.8703C239.499 55.8553 239.313 55.9973 239.292 56.2023C239.271 56.4063 239.419 56.5883 239.624 56.6093C240.611 56.7103 241.594 56.8232 242.575 56.9492C242.591 56.9512 242.607 56.9523 242.623 56.9523C242.807 56.9523 242.967 56.8153 242.991 56.6283C243.017 56.4253 242.873 56.2382 242.67 56.2122C241.682 56.0862 240.693 55.9723 239.699 55.8703ZM263.787 60.9293C263.593 60.8673 263.383 60.9733 263.32 61.1683C263.257 61.3633 263.364 61.5733 263.559 61.6363C264.505 61.9423 265.447 62.2602 266.383 62.5892C266.424 62.6042 266.466 62.6103 266.506 62.6103C266.659 62.6103 266.803 62.5153 266.856 62.3623C266.924 62.1693 266.823 61.9563 266.629 61.8893C265.688 61.5563 264.74 61.2373 263.787 60.9293ZM322.239 103.596C322.074 103.717 322.037 103.949 322.158 104.115C322.741 104.913 323.314 105.719 323.877 106.533C323.949 106.637 324.065 106.693 324.182 106.693C324.255 106.693 324.329 106.672 324.393 106.627C324.562 106.511 324.604 106.279 324.487 106.11C323.921 105.291 323.344 104.48 322.758 103.676C322.637 103.512 322.404 103.475 322.239 103.596ZM326.795 235.062C326.268 235.903 325.731 236.736 325.184 237.562C325.071 237.733 325.118 237.964 325.288 238.077C325.351 238.118 325.422 238.139 325.493 238.139C325.613 238.139 325.731 238.08 325.803 237.973C326.354 237.141 326.895 236.302 327.424 235.457C327.533 235.283 327.48 235.054 327.306 234.945C327.132 234.836 326.904 234.888 326.795 235.062ZM328.598 113.58C328.663 113.58 328.728 113.563 328.787 113.528C328.963 113.423 329.022 113.195 328.917 113.019C328.409 112.163 327.891 111.314 327.363 110.473C327.253 110.299 327.024 110.248 326.851 110.356C326.677 110.465 326.625 110.694 326.734 110.868C327.259 111.704 327.774 112.548 328.279 113.399C328.348 113.515 328.472 113.58 328.598 113.58ZM317.166 97.1703C317.009 97.3023 316.989 97.5363 317.121 97.6933C317.759 98.4493 318.386 99.2143 319.004 99.9873C319.077 100.079 319.185 100.127 319.294 100.127C319.375 100.127 319.457 100.101 319.526 100.046C319.686 99.9183 319.712 99.6843 319.584 99.5243C318.962 98.7463 318.33 97.9763 317.69 97.2153C317.558 97.0583 317.323 97.0393 317.166 97.1703ZM311.659 91.1093C311.512 91.2523 311.507 91.4873 311.65 91.6343C312.338 92.3453 313.018 93.0653 313.689 93.7933C313.762 93.8723 313.862 93.9133 313.962 93.9133C314.052 93.9133 314.143 93.8803 314.214 93.8153C314.365 93.6763 314.374 93.4413 314.235 93.2903C313.56 92.5583 312.877 91.8333 312.184 91.1183C312.042 90.9713 311.807 90.9673 311.659 91.1093ZM292.795 75.4023C292.68 75.5723 292.725 75.8033 292.896 75.9173C293.718 76.4713 294.533 77.0363 295.34 77.6103C295.405 77.6563 295.481 77.6793 295.555 77.6793C295.671 77.6793 295.785 77.6253 295.858 77.5233C295.977 77.3563 295.938 77.1242 295.771 77.0052C294.958 76.4272 294.139 75.8593 293.311 75.3013C293.141 75.1883 292.911 75.2313 292.795 75.4023ZM299.444 80.1983C299.318 80.3603 299.347 80.5933 299.509 80.7193C300.29 81.3293 301.063 81.9483 301.828 82.5773C301.897 82.6343 301.98 82.6623 302.064 82.6623C302.171 82.6623 302.277 82.6163 302.351 82.5263C302.481 82.3673 302.458 82.1332 302.299 82.0033C301.529 81.3703 300.751 80.7473 299.965 80.1333C299.804 80.0083 299.571 80.0353 299.444 80.1983ZM305.742 85.4423C305.605 85.5953 305.617 85.8293 305.77 85.9673C306.506 86.6293 307.234 87.3013 307.954 87.9813C308.026 88.0493 308.118 88.0833 308.209 88.0833C308.308 88.0833 308.406 88.0443 308.479 87.9673C308.62 87.8183 308.613 87.5833 308.464 87.4423C307.74 86.7583 307.007 86.0823 306.266 85.4163C306.117 85.2783 305.879 85.2903 305.742 85.4423ZM231.501 55.3173C231.497 55.3173 231.492 55.3173 231.489 55.3173C231.289 55.3173 231.124 55.4763 231.118 55.6763C231.111 55.8813 231.273 56.0532 231.477 56.0592C232.469 56.0922 233.459 56.1373 234.444 56.1943C234.451 56.1943 234.458 56.1953 234.466 56.1953C234.662 56.1953 234.825 56.0433 234.837 55.8453C234.849 55.6403 234.693 55.4643 234.488 55.4533C233.495 55.3953 232.5 55.3503 231.501 55.3173ZM157.367 78.4512C156.568 79.0452 155.776 79.6503 154.994 80.2633C154.832 80.3903 154.804 80.6233 154.931 80.7843C155.004 80.8783 155.113 80.9273 155.224 80.9273C155.304 80.9273 155.385 80.9013 155.453 80.8483C156.231 80.2383 157.017 79.6382 157.812 79.0482C157.977 78.9262 158.011 78.6933 157.889 78.5283C157.765 78.3633 157.532 78.3282 157.367 78.4512ZM150.951 83.5783C150.195 84.2263 149.448 84.8833 148.708 85.5513C148.556 85.6883 148.544 85.9232 148.681 86.0762C148.754 86.1572 148.855 86.1992 148.957 86.1992C149.046 86.1992 149.135 86.1673 149.206 86.1033C149.941 85.4403 150.684 84.7872 151.435 84.1432C151.591 84.0103 151.608 83.7752 151.475 83.6192C151.342 83.4632 151.108 83.4453 150.951 83.5783ZM164.121 73.7852C163.283 74.3212 162.452 74.8693 161.629 75.4263C161.459 75.5413 161.415 75.7723 161.53 75.9423C161.602 76.0483 161.719 76.1053 161.838 76.1053C161.909 76.1053 161.982 76.0843 162.046 76.0413C162.864 75.4873 163.69 74.9432 164.522 74.4102C164.695 74.2992 164.745 74.0702 164.634 73.8972C164.524 73.7252 164.293 73.6732 164.121 73.7852ZM226.647 55.6273C226.645 55.4223 226.487 55.2903 226.272 55.2603C225.273 55.2713 224.279 55.2943 223.287 55.3303C223.082 55.3373 222.921 55.5092 222.929 55.7142C222.936 55.9152 223.101 56.0723 223.3 56.0723C223.305 56.0723 223.309 56.0723 223.313 56.0723C224.299 56.0373 225.288 56.0143 226.28 56.0033C226.485 56.0003 226.649 55.8323 226.647 55.6273ZM169.064 274.384C168.205 273.887 167.353 273.379 166.507 272.861C166.332 272.754 166.103 272.809 165.996 272.984C165.889 273.159 165.944 273.387 166.119 273.495C166.97 274.016 167.827 274.527 168.692 275.026C168.751 275.06 168.815 275.076 168.878 275.076C169.006 275.076 169.131 275.009 169.2 274.89C169.303 274.714 169.242 274.486 169.064 274.384ZM252.631 182.116C253.59 164.861 262.83 149.454 275.925 137.637C274.811 137.526 273.673 137.576 272.543 137.708C272.196 136.73 271.834 135.726 271.547 134.86C271.401 134.989 271.248 135.11 271.1 135.236C268.305 137.611 265.099 139.528 261.687 140.87C261.358 143.385 261.03 145.901 260.701 148.416L259.377 148.556L258.904 141.529L257.08 142.39L257.588 143.753C255.578 144.982 253.595 146.318 251.742 147.681C248.206 158.767 249.473 171.062 252.631 182.116ZM200.899 65.4212C194.909 65.4212 189.755 69.0423 187.493 74.2073L177.994 70.8163L177.321 72.7003L186.825 76.0933C186.469 77.3553 186.265 78.6803 186.265 80.0553C186.265 88.1243 192.829 94.6882 200.898 94.6882C208.967 94.6882 215.531 88.1233 215.531 80.0553C215.532 71.9863 208.967 65.4212 200.899 65.4212ZM200.899 91.6073C194.529 91.6073 189.347 86.4253 189.347 80.0553C189.347 79.0443 189.491 78.0682 189.736 77.1322L193.324 78.4133C193.209 78.9433 193.145 79.4913 193.145 80.0553C193.145 84.3313 196.624 87.8092 200.899 87.8092C205.174 87.8092 208.654 84.3303 208.654 80.0553C208.654 75.7803 205.175 72.3013 200.899 72.3013C197.893 72.3013 195.287 74.0243 194.001 76.5312L190.408 75.2483C192.236 71.2743 196.246 68.5033 200.899 68.5033C207.269 68.5033 212.451 73.6853 212.451 80.0553C212.451 86.4253 207.268 91.6073 200.899 91.6073ZM199.15 80.4933C199.347 81.2793 200.052 81.8633 200.899 81.8633C201.898 81.8633 202.707 81.0533 202.707 80.0553C202.707 79.0563 201.897 78.2473 200.899 78.2473C200.494 78.2473 200.124 78.3853 199.823 78.6093L196.949 77.5833C197.776 76.2663 199.232 75.3822 200.899 75.3822C203.476 75.3822 205.572 77.4783 205.572 80.0553C205.572 82.6323 203.476 84.7283 200.899 84.7283C198.322 84.7283 196.226 82.6323 196.226 80.0553C196.226 79.8553 196.261 79.6643 196.285 79.4703L199.15 80.4933Z" fill="#FBC02D"/>
<path d="M345.395 372.029C340.7 363.069 336.025 354.101 331.048 345.298C330.617 347.714 330.452 350.157 330.514 352.593C332.453 356.496 334.827 360.22 336.688 364.142C338.04 366.992 339.332 369.87 340.603 372.758H345.781C345.652 372.515 345.522 372.273 345.395 372.029ZM346.839 320.385C345.437 321.445 344.102 322.591 342.839 323.811C343.786 326.698 344.74 329.583 345.776 332.441C346.388 334.129 343.7 334.85 343.094 333.18C342.242 330.83 341.448 328.459 340.664 326.086C340.188 326.618 339.715 327.153 339.266 327.707C344.833 342.511 349.497 357.626 354.112 372.759H355.128C351.263 355.52 348.666 338.002 346.839 320.385ZM337.306 330.327C336.215 331.91 335.24 333.568 334.385 335.286C336.333 338.963 338.272 342.645 340.057 346.403C340.823 348.013 338.423 349.422 337.656 347.807C336.165 344.668 334.571 341.582 332.957 338.507C332.596 339.438 332.27 340.384 331.985 341.343C337.828 351.51 343.226 361.921 348.676 372.305C348.756 372.457 348.838 372.608 348.918 372.759H351.233C346.894 358.508 342.493 344.282 337.306 330.327ZM372.053 311.845C371.863 311.842 371.674 311.831 371.485 311.83C368.18 311.823 364.904 312.27 361.727 313.104C360.926 324.075 360.488 335.052 361.516 346.058C361.681 347.842 358.9 347.825 358.734 346.058C357.734 335.339 358.122 324.647 358.883 313.962C355.569 315.096 352.393 316.652 349.444 318.565C351.29 336.797 353.938 354.928 357.965 372.758H364.425C363.936 352.405 368.127 332.102 372.053 311.845ZM392.503 358.452C395.571 350.475 398.625 342.443 402.379 334.758C403.276 332.922 404.2 331.085 405.108 329.237C404.681 328.675 404.241 328.124 403.787 327.583C402.533 329.931 401.301 332.291 400.109 334.674C396.01 342.866 392.289 351.226 388.568 359.593C386.694 363.805 384.557 368.223 382.523 372.76H387.191C388.917 367.974 390.677 363.201 392.503 358.452ZM384.827 333.21C386.833 327.813 388.974 322.471 391.24 317.184C389.012 315.935 386.674 314.894 384.269 314.059C381.465 322.368 379 330.775 377.503 339.454C377.199 341.217 374.518 340.465 374.82 338.715C376.323 330.006 378.8 321.57 381.615 313.233C379.378 312.622 377.092 312.194 374.776 311.986C370.832 332.192 366.629 352.472 367.167 372.758H372.478C375.389 359.234 380.083 345.973 384.827 333.21ZM385.674 359.286C389.833 349.998 393.938 340.699 398.539 331.617C399.6 329.522 400.705 327.453 401.823 325.391C401.205 324.745 400.567 324.119 399.912 323.511C397.901 326.756 395.887 329.999 393.749 333.163C392.751 334.639 390.343 333.246 391.348 331.759C393.583 328.451 395.685 325.059 397.787 321.666C396.458 320.579 395.07 319.564 393.629 318.634C391.47 323.688 389.426 328.792 387.509 333.95C382.857 346.466 378.224 359.486 375.32 372.759H379.521C381.569 368.12 383.742 363.6 385.674 359.286ZM413.538 354.512C413.586 351.222 413.255 347.926 412.499 344.699C412.464 344.551 412.422 344.406 412.385 344.258C408.408 348.796 404.96 353.672 402.953 359.327C402.358 361.005 399.672 360.278 400.271 358.588C402.622 351.962 406.788 346.391 411.497 341.196C410.384 337.891 408.835 334.746 406.931 331.826C402.818 340.197 399.241 348.718 395.869 357.417C393.896 362.508 392 367.627 390.143 372.76H398.295C403.022 366.413 408.297 360.393 413.538 354.512ZM68.3395 234.792C60.5825 215.271 56.3135 193.999 56.3135 171.748C56.3135 139.145 65.4755 108.642 81.3545 82.674C81.1775 82.576 81.0085 82.47 80.8455 82.358C64.5385 109.013 55.8135 139.708 55.8135 171.748C55.8135 193.747 59.9325 215.111 67.7865 234.971C67.9645 234.904 68.1495 234.845 68.3395 234.792ZM227.562 0.5C294.563 0.5 352.689 39.183 380.809 95.383C380.989 95.295 381.178 95.217 381.372 95.145C373.194 78.762 362.333 63.63 349.008 50.304C316.569 17.865 273.439 0 227.563 0C181.687 0 138.557 17.865 106.118 50.304C99.7245 56.698 93.9055 63.514 88.6685 70.678C88.8345 70.794 88.9925 70.917 89.1435 71.046C120.311 28.32 170.745 0.5 227.562 0.5ZM169.267 332.755C152.64 326.715 137.204 318.176 123.421 307.583V308.347C137.432 319.073 152.87 327.49 169.267 333.389V332.755ZM74.0165 247.515C73.8475 247.621 73.6695 247.717 73.4865 247.808C81.6955 264.4 92.6445 279.721 106.117 293.193C110.863 297.939 115.843 302.365 121.022 306.476V305.698C101.395 290.053 85.2595 270.206 74.0165 247.515ZM188.974 338.584C183.084 337.222 177.307 335.562 171.665 333.608V334.225C177.202 336.124 182.844 337.737 188.573 339.061L188.974 338.584ZM227.562 342.998C225.374 342.998 223.196 342.955 221.028 342.873C221.026 343.037 221.02 343.2 221.008 343.363C223.186 343.444 225.37 343.498 227.562 343.498C231.667 343.498 235.749 343.349 239.805 343.065L239.633 342.567C235.644 342.845 231.621 342.998 227.562 342.998ZM267.643 338.81C285.141 334.646 301.811 327.756 317.141 318.35V317.641C302.029 326.954 285.369 333.982 267.643 338.249V338.81ZM247.965 342.298C249.399 342.129 250.829 341.944 252.255 341.74V341.211C250.81 341.421 249.359 341.612 247.902 341.785L247.965 342.298ZM349.007 293.193C381.445 260.755 399.311 217.624 399.311 171.748C399.311 149.539 395.112 127.978 387.111 107.957C386.939 108.044 386.761 108.124 386.577 108.197C394.462 127.857 398.81 149.303 398.81 171.748C398.81 232.349 367.167 285.696 319.537 316.142V316.861C330.077 310.152 339.959 302.241 349.007 293.193ZM265.245 338.811C262.922 339.335 260.584 339.815 258.227 340.243V340.775C260.579 340.353 262.92 339.891 265.245 339.373V338.811ZM248.451 201.744C248.068 205.286 247.966 209.015 248.563 212.597C245.463 212.685 242.258 212.739 238.895 212.836C238.252 216.318 237.532 219.838 236.739 223.389H263.257H283.42C282.696 220.751 281.943 218.341 281.214 216.123C278.78 208.723 276.623 203.421 276.821 198.657C277.451 195.692 278.111 192.852 278.782 190.063C280.22 185.253 281.739 181.313 283.265 175.614C283.333 175.36 283.401 175.113 283.469 174.851C285.658 166.443 288.585 156.329 286.141 147.992C284.959 143.958 282.653 139.882 278.756 138.305C277.845 137.936 276.892 137.734 275.922 137.637C262.827 149.454 253.587 164.861 252.628 182.116C249.47 171.062 248.203 158.767 251.738 147.68C248.692 149.92 245.992 152.227 244.113 154.239C229.135 170.276 244.193 175.891 242.282 190.809C242.07 192.464 241.846 194.133 241.615 195.808C238.456 196.931 234.912 198.331 231.282 199.793C231.301 201.876 231.43 204.011 231.73 206.123C236.704 204.998 242.677 203.316 248.451 201.744ZM249.613 344.898L250.417 353.497L241.75 361.76L236.995 361.647L236.476 363.211L234.487 369.205L230.688 373.505L240.805 371.183L246.402 363.211L250.341 357.601L252.206 363.211L253.86 368.187L255.488 367.813L253.824 350.785L253.814 350.802C253.736 349.581 253.214 348.375 252.255 347.438C252.244 347.427 252.237 347.415 252.226 347.404L249.613 344.898ZM195.939 349.488L193.82 360.441L195.422 360.913L202.315 345.254L202.297 345.264C202.81 344.196 202.945 342.937 202.611 341.691C204.25 341.928 205.892 342.15 207.542 342.341C207.551 342.171 207.566 342.002 207.586 341.834C205.87 341.634 204.164 341.403 202.464 341.152L201.528 338.06L199.098 343.52L198.016 345.95L186.412 348.907L182.322 346.478L176.432 351.838L171.664 353.498L171.013 353.725L171.664 353.917L180.97 356.658L195.939 349.488ZM235.745 227.676C234.937 231.032 234.07 234.41 233.093 237.822C233.822 238.133 234.59 238.408 235.361 238.679C243.495 241.541 253.798 242.218 263.69 241.059C264.211 240.998 264.727 240.92 265.246 240.849V229.873C265.246 229.068 265.311 228.323 265.416 227.677H263.258L235.745 227.676ZM277.832 238L278.555 227.676H267.473C267.579 228.322 267.643 229.067 267.643 229.872V240.488C271.188 239.888 274.621 239.053 277.832 238ZM282.145 236.388C283.004 236.026 283.833 235.644 284.64 235.247C285.063 235.039 285.504 234.843 285.911 234.626C285.495 232.154 285.02 229.845 284.512 227.676H279.096L282.145 236.388Z" fill="url(#paint0_linear_3398_14262)"/>
<defs>
<linearGradient id="paint0_linear_3398_14262" x1="413.543" y1="373.505" x2="-11.1067" y2="106.385" gradientUnits="userSpaceOnUse">
<stop stop-color="#2068FF"/>
<stop offset="1" stop-color="#444DA1"/>
</linearGradient>
</defs>
</svg>
