<svg width="24" height="25" viewBox="0 0 24 25" fill="none" xmlns="http://www.w3.org/2000/svg">
<g id="cross-circle">
<g id="primary">
<path d="M21 12.8789C21 14.6589 20.4722 16.399 19.4832 17.879C18.4943 19.3591 17.0887 20.5126 15.4442 21.1938C13.7996 21.875 11.99 22.0532 10.2442 21.706C8.49836 21.3587 6.89472 20.5015 5.63604 19.2429C4.37737 17.9842 3.5202 16.3805 3.17294 14.6347C2.82567 12.8889 3.0039 11.0793 3.68509 9.43476C4.36628 7.79022 5.51983 6.38461 6.99987 5.39568C8.47991 4.40675 10.22 3.87891 12 3.87891C14.387 3.87891 16.6761 4.82712 18.364 6.51495C20.0518 8.20277 21 10.492 21 12.8789ZM15 15.8789L9 9.87891L15 15.8789ZM9 15.8789L15 9.87891L9 15.8789Z" fill="white"/>
<path d="M15 15.8789L9 9.87891M9 15.8789L15 9.87891M21 12.8789C21 14.6589 20.4722 16.399 19.4832 17.879C18.4943 19.3591 17.0887 20.5126 15.4442 21.1938C13.7996 21.875 11.99 22.0532 10.2442 21.706C8.49836 21.3587 6.89472 20.5015 5.63604 19.2429C4.37737 17.9842 3.5202 16.3805 3.17294 14.6347C2.82567 12.8889 3.0039 11.0793 3.68509 9.43476C4.36628 7.79022 5.51983 6.38461 6.99987 5.39568C8.47991 4.40675 10.22 3.87891 12 3.87891C14.387 3.87891 16.6761 4.82712 18.364 6.51495C20.0518 8.20277 21 10.492 21 12.8789Z" stroke="#D20000" stroke-width="2" stroke-linecap="round" stroke-linejoin="round"/>
</g>
</g>
</svg>
