<svg width="303" height="329" viewBox="0 0 303 329" fill="none" xmlns="http://www.w3.org/2000/svg">
<path d="M300.177 326.13C300.177 327.399 299.148 328.428 297.879 328.428H7.17146C5.90195 328.428 4.87305 327.399 4.87305 326.13C4.87305 324.861 5.90195 323.831 7.17146 323.831H8.19456H11.9083H14.159H15.8194H17.8843H18.6126H20.6465H25.2801H27.247H31.0568H33.0946H34.8724H108.106H108.747H180.849H181.981H250.453C250.467 323.864 250.482 323.896 250.497 323.929H254.36C254.343 323.897 254.326 323.864 254.308 323.831H254.725H256.568C256.585 323.864 256.603 323.896 256.62 323.929H257.885C257.876 323.897 257.865 323.864 257.856 323.831H259.922C259.931 323.864 259.942 323.897 259.951 323.929H260.535C260.527 323.897 260.521 323.864 260.514 323.831H262.55C262.558 323.864 262.564 323.897 262.572 323.929H266.869C266.867 323.897 266.867 323.864 266.866 323.831H268.837C268.839 323.864 268.839 323.897 268.841 323.929H272.224C272.23 323.897 272.239 323.864 272.245 323.831H274.277C274.271 323.864 274.263 323.896 274.256 323.929H276.891C276.905 323.896 276.92 323.864 276.934 323.831H279.077C279.063 323.864 279.048 323.896 279.034 323.929H282.523C282.535 323.897 282.547 323.864 282.559 323.831H284.675C284.663 323.864 284.651 323.896 284.639 323.929H289.855C289.879 323.896 289.903 323.864 289.926 323.831H297.881C299.148 323.832 300.177 324.861 300.177 326.13ZM58.9539 313.143C58.8591 313.651 59.2119 314.096 59.7222 314.096H79.3584H105.139C105.546 314.096 105.79 313.664 105.59 313.297L104.994 312.205C104.151 310.66 102.665 309.559 100.967 309.22L97.0374 308.437C95.0002 308.03 92.607 307.384 91.3117 305.71L88.8733 302.508L88.4088 302.896L86.6723 304.347C86.0743 304.847 85.3273 305.14 84.5345 305.185L81.1607 305.375L80.3982 305.418C80.3982 305.418 79.8183 306.85 79.2913 308.711L78.1488 308.479C76.1652 308.076 73.8571 307.435 72.7837 305.773L70.7685 302.595L70.2531 302.98L68.3249 304.421C67.6605 304.917 66.8748 305.208 66.0762 305.252L62.6773 305.44L61.9096 305.483C61.9096 305.483 61.1942 306.805 60.4492 308.556C59.9647 309.695 59.4712 311.014 59.1506 312.273C59.0758 312.566 59.0068 312.859 58.9539 313.143ZM137.46 286.731C137.676 286.917 137.974 286.894 138.169 286.731C138.253 286.661 138.319 286.567 138.349 286.448L138.644 285.272C139.062 283.609 138.688 281.848 137.632 280.497L135.831 278.195L135.473 277.737L135.187 277.372C133.92 275.751 132.546 273.726 132.709 271.676L133.05 267.779L132.432 267.756L130.122 267.671C129.326 267.642 128.559 267.366 127.927 266.881L125.238 264.82L124.63 264.354C124.63 264.354 120.34 266.329 117.881 268.658C117.51 269.009 117.516 269.6 117.903 269.933L124.827 275.879L125.48 276.44L137.46 286.731ZM149.197 278.96L145.814 279.149L145.05 279.191C145.05 279.191 143.132 283.38 142.75 286.73C142.745 286.771 142.738 286.813 142.734 286.854C142.681 287.362 143.071 287.806 143.582 287.806H169.362C169.769 287.806 170.035 287.377 169.853 287.014L169.711 286.731L169.311 285.93C168.544 284.396 167.112 283.303 165.431 282.967L161.54 282.189C159.523 281.786 157.161 281.145 155.949 279.483L155.808 279.286L155.532 278.902L153.669 276.305L153.186 276.69L151.378 278.131C150.754 278.626 149.992 278.917 149.197 278.96Z" fill="#444DA1"/>
<path d="M89.9707 154.558L92.7587 154.474L91.793 173.854L115.1 199.992C116.743 200.576 118.563 201.136 119.823 202.268C121.618 203.239 122.943 205.35 123.487 207.262C123.57 207.555 123.148 207.744 123.001 207.515C122.349 206.497 121.656 205.499 120.807 204.654C120.792 204.64 120.776 204.625 120.76 204.611C120.74 204.689 120.718 204.767 120.694 204.841C121.852 205.936 122.701 207.486 123.11 208.924C123.194 209.216 122.772 209.406 122.625 209.177C121.972 208.159 121.28 207.161 120.431 206.316C120.325 206.211 120.216 206.112 120.104 206.014C120.102 206.016 120.1 206.018 120.099 206.021C121.031 207.067 121.72 208.398 122.075 209.645C122.158 209.938 121.736 210.128 121.589 209.899C120.937 208.881 120.244 207.882 119.395 207.038C119.349 206.992 119.3 206.949 119.252 206.905C119.201 206.948 119.149 206.99 119.095 207.032C119.88 208.017 120.464 209.199 120.781 210.314C120.864 210.607 120.442 210.796 120.295 210.567C119.643 209.549 118.95 208.551 118.101 207.706C115.814 207.001 112.554 205.612 111.604 203.34L93.5864 189.681C91.524 178.028 90.1926 166.328 89.9707 154.558ZM68.3264 304.418L70.2545 302.977L70.5035 301.452H62.649L62.6787 305.438L66.0776 305.249C66.8762 305.205 67.6619 304.915 68.3264 304.418ZM80.6016 301.358L81.1621 305.374L84.5359 305.183C85.3287 305.139 86.0757 304.846 86.6737 304.346L88.4102 302.895L88.456 301.358H80.6016V301.358ZM80.7383 133.903L82.0072 134.01L82.4233 129.073L82.771 124.947L84.3514 124.701C87.9032 124.149 90.3339 120.821 89.781 117.269L88.2625 107.513L87.2194 100.812L77.7116 102.293L77.6452 105.783L76.0196 106.966L75.7228 114.276L74.5204 114.463L74.3875 113.61C74.2024 112.422 73.0799 111.602 71.8924 111.787C70.7048 111.972 69.8842 113.094 70.0694 114.282L70.3042 115.788C70.4338 116.62 71.0241 117.271 71.7743 117.522C71.9614 118.723 72.38 119.83 72.9735 120.809L72.789 123.002L72.502 126.411L72.4116 127.485C75.5874 128.989 78.3012 131.297 80.7383 133.903ZM65.0294 215.819C65.5396 213.898 65.4809 211.407 64.4352 209.654C64.3365 209.338 64.2004 209.032 64.0495 208.731C63.4289 207.49 62.4368 206.363 61.5408 205.283L54.8816 170.902L58.3547 165.677L65.6241 154.743L52.1904 147.279L43.2954 165.912C42.3052 167.987 42.2329 170.382 43.0967 172.513L56.8259 206.369C56.4808 208.807 58.5715 211.668 60.1758 213.444C60.4738 214.604 60.5577 215.816 60.5977 217.025C60.6067 217.297 61.0666 217.35 61.1447 217.056C61.4421 215.936 61.5453 214.622 61.375 213.373C61.4427 213.365 61.5092 213.355 61.5743 213.345C61.5924 213.407 61.613 213.469 61.6291 213.533C61.9272 214.692 62.011 215.905 62.051 217.113C62.0601 217.386 62.52 217.439 62.5981 217.144C62.9309 215.891 63.0206 214.395 62.7542 213.019C62.7567 213.018 62.7587 213.017 62.7613 213.016C62.8077 213.157 62.8509 213.298 62.8877 213.442C63.1857 214.602 63.2696 215.814 63.3096 217.023C63.3186 217.295 63.7786 217.348 63.8566 217.054C64.2398 215.61 64.3036 213.844 63.8682 212.311C63.9269 212.259 63.985 212.202 64.043 212.146C64.0488 212.167 64.0559 212.187 64.0611 212.208C64.3591 213.368 64.443 214.58 64.483 215.789C64.4894 215.976 64.7075 216.056 64.8694 215.994C64.9416 215.966 65.0048 215.911 65.0294 215.819ZM200.381 193.321C200.978 191.237 201.522 189.333 202.02 187.548C201.305 187.151 200.595 186.744 199.903 186.306C198.343 189.771 196.629 193.002 194.075 197.202C192.327 197.672 190.669 198.415 189.166 199.403C186.947 200.201 185.068 202.382 184.115 204.472C183.968 204.792 184.418 205.081 184.626 204.845C185.548 203.795 186.511 202.775 187.628 201.957C187.648 201.942 187.669 201.93 187.689 201.915C187.7 202.008 187.71 202.101 187.725 202.191C186.212 203.24 184.973 204.864 184.257 206.435C184.111 206.755 184.561 207.044 184.768 206.808C185.69 205.758 186.654 204.738 187.77 203.92C187.909 203.819 188.052 203.724 188.196 203.633C188.198 203.635 188.199 203.638 188.2 203.64C186.954 204.674 185.937 206.076 185.315 207.439C185.169 207.759 185.618 208.048 185.826 207.812C186.748 206.762 187.712 205.741 188.828 204.924C188.889 204.88 188.953 204.839 189.015 204.796C189.066 204.854 189.118 204.911 189.172 204.968C188.104 205.957 187.233 207.207 186.678 208.425C186.531 208.745 186.981 209.034 187.189 208.798C188.11 207.748 189.074 206.728 190.191 205.91C192.878 205.508 194.974 204.1 196.244 201.699C198.358 199.538 200.428 197.074 202.531 194.458L202.459 194.1C201.744 193.864 201.048 193.605 200.381 193.321ZM217.851 297.303L217.365 295.267L216.746 297.027L217.851 297.303ZM220.606 286.045L219.704 288.609C219.83 288.997 219.896 289.398 219.889 289.796L219.897 289.785L220.024 297.797L226.648 293.646L226.915 287.788L226.027 286.593L226.131 280.224H219.475L220.606 286.045ZM216.406 284.342L216.119 277.135L209.466 278.405L211.011 284.578L207.818 296.408L211.054 296.758L217.424 291.485L217.353 285.438L216.406 284.342ZM219.266 132.186C219.493 130.452 219.719 128.718 219.946 126.984C222.272 126.069 224.459 124.763 226.367 123.145L225.949 116.94L225.866 116.949C226.003 116.319 226.079 115.666 226.079 114.995L224.372 113.636C221.258 112.991 218.263 111.76 215.544 109.914C212.436 107.805 209.568 105.021 207.934 101.733L209.361 117.567C209.361 121.225 212.346 124.181 214.557 124.181H216.893C217.328 124.181 217.753 124.14 218.172 124.081L218.449 128.185L218.723 132.242L219.266 132.186ZM231.111 171.752C229.27 172.715 227.267 173.68 224.926 174.734C223.218 174.131 221.431 173.806 219.633 173.769C217.352 173.171 214.568 173.906 212.6 175.089C212.298 175.27 212.505 175.764 212.809 175.686C214.163 175.343 215.536 175.047 216.919 175.005C216.944 175.005 216.969 175.006 216.993 175.005C216.949 175.088 216.905 175.17 216.867 175.252C215.026 175.261 213.085 175.899 211.606 176.788C211.304 176.97 211.511 177.463 211.816 177.386C213.17 177.042 214.543 176.746 215.926 176.704C216.097 176.699 216.269 176.702 216.44 176.708C216.439 176.71 216.439 176.713 216.438 176.717C214.826 176.863 213.194 177.443 211.91 178.215C211.608 178.396 211.815 178.89 212.12 178.813C213.474 178.469 214.846 178.173 216.229 178.131C216.305 178.129 216.38 178.132 216.455 178.132C216.465 178.208 216.476 178.285 216.488 178.362C215.048 178.574 213.622 179.111 212.475 179.8C212.173 179.981 212.38 180.475 212.685 180.397C214.039 180.054 215.411 179.758 216.794 179.716C219.238 180.905 221.763 180.931 224.168 179.67C226.982 179.116 229.915 178.315 232.953 177.409C234.975 176.806 237.041 176.16 239.146 175.514C238.037 173.373 236.847 171.271 235.897 169.052C234.346 169.992 232.794 170.872 231.111 171.752ZM152.483 27.4112C152.626 27.717 152.764 28.0253 152.897 28.335C153.16 28.9484 153.391 29.5729 153.572 30.2102C153.626 30.4044 153.684 30.5979 153.728 30.7953C153.33 32.2642 152.957 34.2123 153.1 35.9559C153.196 37.1268 153.521 38.2066 154.233 38.9846L158.54 37.9034C158.929 36.0804 159.55 34.0639 159.242 32.2461C159.381 30.2102 158.306 27.9621 156.981 26.4797C156.778 26.2527 156.392 26.5081 156.507 26.7545C157.019 27.8505 157.492 28.9691 157.752 30.1386C157.757 30.1599 157.76 30.1805 157.764 30.2018C157.687 30.178 157.609 30.1541 157.534 30.1341C157.228 28.5704 156.372 27.0235 155.377 25.9101C155.173 25.6831 154.788 25.9385 154.903 26.1849C155.415 27.2809 155.888 28.3995 156.148 29.569C156.18 29.7142 156.206 29.8599 156.228 30.0064C156.225 30.0064 156.223 30.007 156.22 30.007C155.835 28.6594 155.077 27.3667 154.213 26.3997C154.01 26.1727 153.625 26.4281 153.74 26.6745C154.252 27.7705 154.725 28.8891 154.985 30.0586C154.996 30.1089 155.004 30.1599 155.013 30.2102C155.016 30.2238 155.019 30.2373 155.021 30.2502C154.958 30.2709 154.895 30.2921 154.83 30.3154C154.818 30.2799 154.8 30.2457 154.787 30.2096C154.411 29.1704 153.829 28.1943 153.168 27.3964C153.097 27.3106 153.03 27.2171 152.958 27.1358C152.754 26.9094 152.369 27.1648 152.483 27.4112ZM130.122 267.672L132.433 267.757L133.519 266.679L127.561 261.561L125.239 264.822L127.928 266.883C128.559 267.366 129.326 267.642 130.122 267.672ZM145.815 279.149L149.197 278.961C149.992 278.917 150.754 278.626 151.376 278.13L153.185 276.689L153.306 275.163H145.451L145.815 279.149ZM160.267 74.5233L150.759 76.0031L150.693 79.493L149.067 80.6767L148.77 87.9867L147.568 88.1738L147.435 87.3203C147.25 86.1328 146.127 85.3122 144.94 85.4973C143.752 85.6825 142.932 86.8049 143.117 87.9925L143.352 89.4988C143.481 90.3309 144.072 90.9812 144.822 91.2327C145.009 92.4339 145.427 93.5402 146.021 94.5194L145.924 95.6793L145.673 98.6512L153 101.032V106.797C153.265 107.066 153.528 107.337 153.787 107.613L155.056 107.72L155.448 103.073L155.62 101.017L155.819 98.6576L157.399 98.4118C160.951 97.859 163.382 94.5317 162.829 90.9799L161.736 83.9543L161.245 80.8012L160.267 74.5233ZM140.247 30.2102C140.234 30.1625 140.22 30.1115 140.206 30.0644C140.397 29.1091 140.732 28.1847 141.113 27.277C141.2 27.0687 141.287 26.861 141.378 26.6545C141.488 26.4055 141.097 26.1585 140.899 26.3894C140.889 26.4017 140.879 26.4165 140.869 26.4288C140.128 27.3041 139.478 28.4259 139.096 29.6084C139.032 29.5864 138.968 29.5664 138.904 29.5471C138.915 29.4826 138.923 29.4181 138.936 29.3542C139.17 28.1802 139.62 27.0506 140.108 25.9443C140.218 25.6953 139.827 25.4482 139.629 25.6792C138.786 26.6642 138.056 27.9737 137.7 29.329C137.697 29.329 137.695 29.329 137.692 29.3284C137.712 29.182 137.734 29.0355 137.763 28.8891C137.997 27.7144 138.447 26.5855 138.935 25.4792C139.045 25.2302 138.654 24.9831 138.456 25.2141C137.485 26.3494 136.662 27.9137 136.39 29.4839C136.314 29.5051 136.238 29.5303 136.161 29.5561C136.165 29.5348 136.167 29.5135 136.171 29.4929C136.405 28.3182 136.855 27.1893 137.343 26.083C137.452 25.834 137.061 25.5869 136.863 25.8179C135.571 27.3287 134.544 29.5987 134.727 31.6313C134.459 33.4556 135.122 35.4586 135.55 37.2725L139.879 38.2608C140.424 37.639 140.729 36.8365 140.87 35.954C141.165 34.0917 140.724 31.8687 140.247 30.2102Z" fill="#FFD2BB"/>
<path d="M72.9719 120.809L72.7874 123.003C70.9245 120.934 69.3311 118.546 68.1835 115.995C68.0693 115.741 67.9642 115.484 67.859 115.227C66.4399 111.761 65.8522 108.041 66.5547 104.459C66.803 103.195 67.3294 101.768 68.557 101.376C68.1338 98.3289 71.4031 94.9687 74.1021 93.4908C76.1219 92.3851 78.4403 92.0091 80.7613 92.0316C80.9096 92.0329 81.058 92.0433 81.2064 92.0478C81.8385 92.0678 82.4694 92.1084 83.0926 92.1774C85.3955 92.4335 87.81 93.0399 89.4085 94.7171C91.0071 96.395 91.356 99.4165 89.5956 100.924C89.5653 103.206 89.1086 105.445 88.2616 107.513L87.2185 100.812L77.7107 102.292L77.6442 105.782L76.0186 106.966L75.7219 114.276L74.5195 114.463L74.3866 113.61C74.2015 112.422 73.079 111.601 71.8914 111.787C70.7038 111.972 69.8833 113.094 70.0684 114.282L70.3032 115.788C70.4329 116.62 71.0232 117.27 71.7734 117.522C71.9598 118.724 72.3791 119.83 72.9719 120.809ZM217.14 128.957L216.792 128.024L218.041 127.435L218.104 128.382C218.219 128.316 218.333 128.251 218.448 128.186L218.171 124.082C217.752 124.141 217.326 124.182 216.891 124.182H214.555C212.344 124.182 209.36 121.226 209.36 117.568L207.933 101.734C209.567 105.022 212.435 107.806 215.542 109.915C218.262 111.761 221.257 112.993 224.371 113.637L226.078 114.996C226.078 115.667 226.001 116.319 225.865 116.95L225.947 116.941L226.365 123.146C226.474 123.055 226.584 122.966 226.69 122.872C226.887 123.464 227.134 124.152 227.372 124.821C228.145 124.73 228.924 124.697 229.685 124.772C230.349 124.838 231.001 124.976 231.625 125.229C233.742 126.086 235.171 128.022 236.076 130.165L236.417 130.852C236.588 130.788 236.761 130.73 236.932 130.665C236.746 129.617 236.591 128.57 236.496 127.525C236.047 122.545 236.963 117.504 236.697 112.526C236.665 111.926 236.616 111.327 236.545 110.728C236.541 110.689 236.538 110.649 236.533 110.609C235.747 104.249 232.316 98.3508 227.429 94.6803C227.05 94.3952 226.663 94.1236 226.267 93.8662C225.814 93.5721 225.353 93.2908 224.88 93.0354C219.371 90.0667 211.863 89.6726 206.183 92.4916C199.264 95.926 201.926 103.461 202.851 109.731C204.016 117.617 200.618 125.722 199.377 133.557C202.541 134.4 205.711 134.927 208.877 135.173C210.056 134.045 211.525 132.831 213.14 131.643C214.408 130.712 215.765 129.797 217.14 128.957ZM158.329 62.9186C157.195 63.0257 155.846 63.2708 155.089 62.4186C154.736 62.0206 154.617 61.473 154.38 60.9969C153.792 59.817 152.428 59.121 151.112 59.1836C149.795 59.2462 148.564 59.9983 147.768 61.0498C146.968 62.1084 146.374 63.5946 145.063 63.8043C144.207 63.941 143.385 63.4411 142.526 63.325C140.708 63.0799 138.944 64.957 139.299 66.7555C139.492 67.7315 140.161 68.8075 139.583 69.6171C139.12 70.2641 138.177 70.2402 137.415 70.4699C135.672 70.9963 134.81 73.3779 135.814 74.8971C136.317 75.6589 137.139 76.1388 137.824 76.7413C138.511 77.3438 139.108 78.2211 138.91 79.1126C138.747 79.8474 138.094 80.368 137.782 81.053C137.388 81.9194 137.592 82.9593 138.056 83.7901C138.52 84.621 139.216 85.2925 139.869 85.9847C142.5 88.7746 144.563 92.0929 145.922 95.6789L146.019 94.5191C145.426 93.5405 145.007 92.4335 144.82 91.2324C144.07 90.9802 143.48 90.3299 143.35 89.4984L143.115 87.9922C142.93 86.8046 143.751 85.6815 144.938 85.497C146.126 85.3119 147.249 86.1324 147.433 87.32L147.566 88.1734L148.769 87.9863L149.065 80.6763L150.691 79.4926L150.757 76.0027L160.265 74.5229L161.243 80.8015C161.383 80.6808 161.532 80.5705 161.703 80.4867C162.146 80.2706 162.637 80.2267 163.134 80.1977C163.659 80.1674 164.191 80.1532 164.678 79.9712C166.191 79.4081 166.603 77.0619 165.372 76.0176C164.849 75.5737 164.066 75.2596 163.993 74.5777C163.887 73.5772 165.358 73.2153 165.827 72.3251C166.363 71.3098 165.397 70.1531 164.439 69.521C163.481 68.8881 162.31 68.1869 162.254 67.04C162.23 66.5381 162.44 66.0517 162.461 65.5492C162.499 64.6222 161.861 63.7604 161.04 63.3276C160.534 63.0611 159.972 62.9457 159.399 62.9083C159.044 62.885 158.684 62.885 158.329 62.9186Z" fill="#F5A74A"/>
<path d="M70.5037 301.453H62.6492H61.7293C59.3922 289.483 61.0404 269.593 66.1868 257.943C67.4802 255.017 68.242 252.031 68.6226 249.001C68.6458 248.814 68.6607 248.626 68.6813 248.438C69.8347 237.966 66.5577 226.97 64.8683 215.994C64.9418 215.966 65.0044 215.911 65.0289 215.82C65.5391 213.898 65.4804 211.407 64.4348 209.655C64.3361 209.339 64.2 209.032 64.049 208.731C63.8387 205.392 63.9097 202.066 64.4186 198.769C72.6266 202.469 88.0788 200.219 93.631 194.955C94.0949 213.971 94.9973 236.67 91.8055 255.109C91.3675 257.641 91.0114 260.392 90.7192 263.279C90.7017 263.449 90.6875 263.625 90.6708 263.795C89.4774 275.965 89.4006 290.456 89.2213 301.359H88.4556H80.6017H79.6819C77.0132 293.172 75.6972 281.308 76.2513 270.86C74.18 281.297 72.5982 292.573 71.2687 301.453H70.5037ZM209.465 278.405L216.119 277.135L215.587 263.792L215.566 263.265L215.408 259.301L216.121 262.971L216.214 263.449L219.474 280.225H226.131L225.514 257.909L225.499 257.36L225.292 249.861C225.187 246.057 224.365 242.307 222.869 238.808L221.939 236.634L228.177 213.964C232.853 208.656 235.661 201.882 236.12 194.722L236.521 191.251L236.363 191.217C235.596 191.62 234.789 191.998 233.948 192.352L231.55 185.499L230.993 193.453C222.149 196.353 210.759 196.833 202.46 194.101L202.532 194.459L205.184 207.594L198.59 225.808L198.327 226.533L197.237 229.546L206.755 267.578L206.871 268.04L209.465 278.405ZM227.373 124.82C227.136 124.152 226.888 123.464 226.692 122.872C226.586 122.965 226.475 123.054 226.367 123.146C224.459 124.763 222.272 126.069 219.946 126.985C219.719 128.719 219.493 130.452 219.267 132.186L218.722 132.243L218.449 128.186C218.334 128.251 218.22 128.316 218.105 128.383L218.042 127.435L216.793 128.024L217.141 128.957C215.766 129.797 214.409 130.712 213.141 131.644C210.722 139.23 211.589 147.643 213.75 155.206C214.406 143.4 220.728 132.857 229.689 124.772C228.925 124.696 228.147 124.73 227.373 124.82ZM34.874 323.832V316.711V314.096H35.6204H40.5552H42.7272H45.2224H47.3544H50.9352H52.9556H57.5447H59.7231H79.3593H108.107V286.731H137.46C137.676 286.917 137.974 286.895 138.169 286.731H142.75C142.745 286.772 142.738 286.814 142.734 286.855C142.681 287.363 143.071 287.807 143.582 287.807H169.363C169.77 287.807 170.035 287.378 169.853 287.015L169.712 286.732H181.983V303.645H203.55L205.688 301.54L207.818 296.408L211.055 296.758L217.425 291.484L217.354 285.438L218.996 287.336C219.328 287.72 219.559 288.156 219.705 288.61C219.83 288.998 219.897 289.398 219.89 289.797L219.898 289.785L220.025 297.797L226.649 293.647L226.916 287.789L228.456 289.861C229.033 290.638 229.278 291.534 229.214 292.369L229.223 292.36L228.756 303.644H242.711C242.534 305.005 242.465 306.374 242.5 307.74C243.891 310.539 245.592 313.211 246.927 316.024C248.151 318.604 249.318 321.211 250.455 323.832H181.982H180.851H108.748H108.108H34.874ZM226.208 296.372L218.769 303.644H227.54L226.208 296.372ZM207.434 303.644H211.76L214.325 301.684L216.746 297.027L217.851 297.303L217.366 295.268L217.145 294.343L209.887 303.28L207.434 303.644ZM254.309 323.832H254.725V320.351C251.792 314.756 248.856 309.163 245.786 303.644H243.513C246.846 309.593 250.007 315.638 253.173 321.68C253.549 322.398 253.931 323.114 254.309 323.832ZM254.725 307.1C254.354 305.947 253.976 304.796 253.597 303.644H251.526C252.626 306.964 253.685 310.297 254.726 313.637V307.1H254.725ZM249.44 303.644H247.296C247.403 303.866 247.517 304.084 247.622 304.307C248.117 305.348 249.551 304.637 249.44 303.644ZM134.099 267.178C136.154 265.083 139.008 261.172 142.145 256.702C142.287 263.462 143.104 270.039 144.532 275.164H145.452H153.307H154.072C154.835 263.656 155.682 248.123 157.729 235.613C158.358 234.936 158.959 234.334 159.517 233.843C164.047 229.859 166.768 224.208 167.068 218.183L167.453 167.846C162.923 173.439 147.491 176.134 138.615 172.945C137.562 191.063 149.74 210.025 146.527 227.263C138.571 236.253 130.835 252.476 126.863 260.962L127.561 261.561L133.519 266.678L134.099 267.178ZM158.136 160.171L161.847 164.442L163.736 159.521L156.25 107.721H155.055H152.998L158.136 160.171Z" fill="#F9807D"/>
<path d="M184.761 232.575C184.705 232.426 184.779 232.261 184.928 232.206C185.646 231.936 186.36 231.658 187.07 231.37C187.216 231.312 187.384 231.382 187.444 231.529C187.504 231.676 187.433 231.844 187.286 231.903C186.571 232.192 185.853 232.472 185.13 232.743C185.097 232.756 185.063 232.762 185.029 232.762C184.914 232.762 184.804 232.691 184.761 232.575ZM117.103 230.503C116.958 230.44 116.789 230.507 116.725 230.652C116.662 230.798 116.729 230.967 116.875 231.03C117.583 231.338 118.296 231.636 119.014 231.926C119.049 231.941 119.085 231.947 119.121 231.947C119.235 231.947 119.343 231.879 119.388 231.768C119.447 231.621 119.376 231.453 119.229 231.394C118.516 231.105 117.807 230.809 117.103 230.503ZM190.873 230.331C190.913 230.331 190.954 230.323 190.993 230.305C191.693 229.985 192.387 229.656 193.078 229.319C193.22 229.249 193.279 229.077 193.209 228.935C193.139 228.791 192.965 228.734 192.825 228.803C192.139 229.138 191.449 229.465 190.753 229.782C190.609 229.849 190.546 230.019 190.612 230.163C190.661 230.269 190.764 230.331 190.873 230.331ZM111.388 227.78C111.247 227.706 111.073 227.761 111 227.902C110.927 228.043 110.982 228.217 111.122 228.29C111.807 228.646 112.498 228.994 113.192 229.334C113.232 229.353 113.276 229.363 113.318 229.363C113.424 229.363 113.526 229.304 113.576 229.202C113.646 229.059 113.587 228.887 113.445 228.817C112.754 228.48 112.069 228.134 111.388 227.78ZM105.88 224.664C105.744 224.581 105.567 224.624 105.484 224.76C105.401 224.895 105.444 225.072 105.579 225.155C106.238 225.558 106.901 225.953 107.57 226.34C107.615 226.367 107.665 226.379 107.714 226.379C107.813 226.379 107.91 226.327 107.963 226.235C108.043 226.098 107.995 225.921 107.858 225.843C107.193 225.458 106.534 225.065 105.88 224.664ZM122.632 232.993C122.58 233.143 122.658 233.308 122.808 233.361C123.536 233.618 124.27 233.866 125.006 234.104C125.036 234.114 125.066 234.118 125.095 234.118C125.216 234.118 125.329 234.041 125.368 233.92C125.417 233.769 125.335 233.606 125.184 233.558C124.452 233.321 123.723 233.075 123 232.819C122.849 232.764 122.685 232.844 122.632 232.993ZM175.06 235.274C174.318 235.459 173.572 235.635 172.823 235.801C172.668 235.835 172.57 235.989 172.604 236.144C172.634 236.278 172.753 236.369 172.885 236.369C172.905 236.369 172.926 236.367 172.947 236.363C173.701 236.196 174.452 236.019 175.199 235.833C175.352 235.795 175.446 235.639 175.408 235.485C175.37 235.329 175.214 235.236 175.06 235.274ZM97.326 76.0967C97.9279 75.6252 98.5362 75.1607 99.151 74.704C99.2787 74.6092 99.3045 74.4292 99.2103 74.3021C99.1155 74.1744 98.9355 74.1479 98.8084 74.2428C98.1898 74.7027 97.5776 75.1704 96.9719 75.6445C96.8467 75.7426 96.8248 75.9232 96.9229 76.0477C96.9796 76.12 97.0641 76.158 97.1493 76.158C97.2112 76.158 97.2731 76.138 97.326 76.0967ZM156.158 56.3431C156.004 56.3431 155.875 56.4657 155.871 56.6212C155.866 56.7798 155.99 56.9127 156.149 56.9179C156.81 56.9398 157.469 56.9721 158.126 57.0076L158 56.4263C157.391 56.3941 156.78 56.3631 156.168 56.3431C156.164 56.3431 156.161 56.3431 156.158 56.3431ZM166.611 236.952C166.454 236.976 166.346 237.122 166.369 237.279C166.39 237.422 166.513 237.524 166.653 237.524C166.667 237.524 166.681 237.523 166.695 237.521C167.46 237.407 168.22 237.283 168.978 237.15C169.135 237.123 169.239 236.974 169.212 236.818C169.185 236.661 169.027 236.552 168.879 236.585C168.126 236.716 167.37 236.839 166.611 236.952ZM107.772 69.026C108.432 68.6428 109.099 68.2681 109.77 67.901C109.909 67.8249 109.96 67.6501 109.884 67.5114C109.808 67.372 109.633 67.3204 109.494 67.3972C108.819 67.7668 108.149 68.1435 107.483 68.5293C107.346 68.6093 107.299 68.7848 107.379 68.9222C107.432 69.0138 107.529 69.0654 107.628 69.0654C107.677 69.0647 107.727 69.0525 107.772 69.026ZM102.427 72.3785C103.061 71.9502 103.699 71.5289 104.343 71.1161C104.477 71.0303 104.516 70.8529 104.43 70.7194C104.345 70.5858 104.166 70.5458 104.034 70.6323C103.385 71.0471 102.742 71.4709 102.105 71.9024C101.973 71.9914 101.939 72.1701 102.028 72.3017C102.083 72.3837 102.174 72.4282 102.266 72.4282C102.322 72.4282 102.378 72.412 102.427 72.3785ZM113.209 66.0845C113.251 66.0845 113.294 66.0754 113.335 66.0554C114.02 65.7194 114.71 65.3923 115.405 65.0736C115.55 65.0072 115.613 64.8369 115.546 64.6924C115.48 64.5479 115.31 64.4853 115.165 64.5511C114.466 64.8724 113.771 65.2013 113.081 65.5394C112.939 65.609 112.88 65.7813 112.95 65.9238C113 66.0251 113.102 66.0845 113.209 66.0845ZM100.205 221.241C100.113 221.37 100.143 221.55 100.272 221.641C100.9 222.089 101.535 222.53 102.174 222.962C102.223 222.995 102.28 223.012 102.334 223.012C102.427 223.012 102.517 222.967 102.572 222.885C102.661 222.753 102.627 222.575 102.495 222.486C101.86 222.055 101.229 221.619 100.605 221.174C100.477 221.081 100.297 221.112 100.205 221.241ZM238.225 178.382C237.962 179.105 237.691 179.824 237.409 180.538C237.351 180.685 237.424 180.852 237.571 180.91C237.606 180.925 237.642 180.93 237.677 180.93C237.792 180.93 237.9 180.861 237.944 180.749C238.227 180.029 238.502 179.306 238.766 178.578C238.82 178.429 238.743 178.265 238.594 178.21C238.444 178.157 238.279 178.234 238.225 178.382ZM124.843 60.7664C124.692 60.8155 124.61 60.978 124.659 61.129C124.669 61.1574 124.693 61.1741 124.71 61.1973L124.905 60.7471C124.884 60.7542 124.864 60.76 124.843 60.7664ZM118.979 63.5035C119.016 63.5035 119.052 63.4971 119.087 63.4822C119.796 63.1945 120.51 62.9152 121.228 62.6449C121.376 62.5888 121.451 62.4236 121.395 62.2746C121.339 62.1263 121.175 62.0514 121.025 62.1069C120.302 62.3791 119.584 62.6597 118.871 62.9494C118.724 63.0094 118.653 63.1771 118.713 63.3235C118.758 63.4358 118.866 63.5035 118.979 63.5035ZM95.1844 217.364C95.0831 217.486 95.1005 217.668 95.2231 217.768C95.8178 218.259 96.4197 218.742 97.0274 219.217C97.0803 219.258 97.1422 219.278 97.2041 219.278C97.2899 219.278 97.3744 219.24 97.4312 219.168C97.5286 219.044 97.5067 218.863 97.3815 218.765C96.7777 218.292 96.1797 217.812 95.5882 217.325C95.4669 217.224 95.285 217.243 95.1844 217.364ZM198.391 225.838C197.729 226.221 197.063 226.596 196.391 226.961C196.252 227.037 196.201 227.212 196.277 227.351C196.329 227.447 196.428 227.501 196.529 227.501C196.576 227.501 196.623 227.49 196.667 227.466C197.225 227.161 197.776 226.848 198.327 226.533L198.59 225.808C198.523 225.794 198.453 225.801 198.391 225.838ZM67.444 116.325C67.3905 116.474 67.4673 116.639 67.6163 116.693C67.6485 116.705 67.6814 116.71 67.7143 116.71C67.8317 116.71 67.942 116.638 67.9846 116.521C68.0485 116.344 68.1182 116.17 68.1833 115.995C68.0691 115.741 67.964 115.484 67.8588 115.227C67.7201 115.593 67.5776 115.957 67.444 116.325ZM65.0211 126.433C65.0579 126.279 64.9624 126.124 64.8076 126.087C64.6541 126.049 64.498 126.146 64.4618 126.301C64.2857 127.042 64.1193 127.787 63.9619 128.535C64.1851 128.398 64.4096 128.267 64.6379 128.144C64.7624 127.573 64.8863 127.001 65.0211 126.433ZM226.776 93.7609C226.682 93.6332 226.502 93.6048 226.374 93.6984C226.316 93.7409 226.282 93.8016 226.267 93.8667C226.663 94.1241 227.05 94.3957 227.429 94.6808C227.212 94.3744 226.998 94.0648 226.776 93.7609ZM131.12 235.852C131.144 235.858 131.167 235.86 131.189 235.86C131.318 235.86 131.436 235.772 131.468 235.642C131.506 235.488 131.412 235.332 131.258 235.294C130.514 235.109 129.773 234.915 129.036 234.713C128.883 234.672 128.724 234.76 128.682 234.913C128.64 235.067 128.73 235.225 128.883 235.267C129.625 235.471 130.371 235.665 131.12 235.852ZM137.342 237.164C137.359 237.167 137.376 237.168 137.392 237.168C137.529 237.168 137.651 237.07 137.675 236.93C137.702 236.774 137.598 236.625 137.442 236.598C136.686 236.466 135.933 236.324 135.183 236.174C135.028 236.141 134.876 236.243 134.844 236.399C134.813 236.554 134.914 236.706 135.07 236.738C135.824 236.889 136.581 237.032 137.342 237.164ZM236.375 184.489C236.44 184.344 236.375 184.175 236.23 184.109C236.086 184.046 235.915 184.11 235.85 184.255C235.68 184.636 235.501 185.013 235.325 185.392C235.399 185.689 235.472 185.986 235.544 186.291C235.826 185.694 236.106 185.094 236.375 184.489ZM236.704 112.542C236.75 112.652 236.857 112.719 236.969 112.719C237.006 112.719 237.044 112.711 237.08 112.697C237.226 112.635 237.295 112.468 237.234 112.32C237.011 111.786 236.779 111.257 236.546 110.728C236.617 111.326 236.666 111.926 236.697 112.526C236.7 112.531 236.702 112.537 236.704 112.542ZM160.333 237.668C160.175 237.68 160.057 237.818 160.07 237.977C160.081 238.127 160.207 238.242 160.355 238.242C160.363 238.242 160.371 238.241 160.379 238.241C161.15 238.18 161.917 238.11 162.682 238.03C162.84 238.013 162.954 237.872 162.938 237.714C162.922 237.556 162.776 237.439 162.622 237.458C161.862 237.537 161.099 237.607 160.333 237.668ZM168.809 57.6391C168.656 57.6114 168.504 57.7171 168.478 57.8733C168.45 58.0294 168.555 58.1784 168.712 58.2055C169.468 58.3364 170.221 58.4777 170.971 58.6274C170.99 58.6312 171.009 58.6332 171.028 58.6332C171.162 58.6332 171.282 58.539 171.31 58.4022C171.341 58.2468 171.24 58.0952 171.084 58.0642C170.328 57.9126 169.57 57.7713 168.809 57.6391ZM243.631 136.844C243.542 136.077 243.444 135.312 243.336 134.551C243.314 134.393 243.17 134.282 243.011 134.306C242.853 134.328 242.744 134.474 242.766 134.631C242.873 135.387 242.971 136.147 243.058 136.91C243.076 137.057 243.2 137.164 243.344 137.164C243.354 137.164 243.366 137.164 243.377 137.162C243.536 137.144 243.649 137.003 243.631 136.844ZM240.326 121.926C240.174 121.97 240.087 122.129 240.13 122.282C240.342 123.017 240.545 123.756 240.738 124.498C240.772 124.627 240.888 124.712 241.016 124.712C241.04 124.712 241.064 124.709 241.088 124.703C241.242 124.663 241.334 124.507 241.293 124.353C241.099 123.606 240.895 122.862 240.682 122.122C240.638 121.97 240.477 121.882 240.326 121.926ZM241.886 128.069C241.731 128.102 241.632 128.255 241.664 128.41C241.824 129.158 241.975 129.909 242.117 130.664C242.142 130.802 242.263 130.898 242.398 130.898C242.417 130.898 242.435 130.896 242.452 130.893C242.608 130.864 242.711 130.714 242.682 130.558C242.539 129.798 242.388 129.042 242.228 128.289C242.193 128.135 242.042 128.035 241.886 128.069ZM222.449 88.7267C222.328 88.8287 222.313 89.0099 222.415 89.1318C222.908 89.7169 223.394 90.3085 223.871 90.9065C223.928 90.9774 224.012 91.0148 224.096 91.0148C224.159 91.0148 224.222 90.9942 224.276 90.9516C224.399 90.8523 224.42 90.6716 224.321 90.5478C223.84 89.9459 223.351 89.3499 222.855 88.7609C222.752 88.6396 222.571 88.6248 222.449 88.7267ZM243.853 143.482C243.857 143.482 243.862 143.482 243.866 143.482C244.025 143.475 244.147 143.341 244.14 143.182C244.105 142.41 244.06 141.64 244.006 140.873C243.994 140.714 243.846 140.593 243.699 140.607C243.541 140.618 243.421 140.756 243.433 140.914C243.487 141.676 243.532 142.441 243.567 143.208C243.573 143.362 243.7 143.482 243.853 143.482ZM238.338 115.907C238.189 115.962 238.112 116.127 238.167 116.276C238.43 116.995 238.684 117.717 238.93 118.445C238.971 118.565 239.082 118.64 239.202 118.64C239.232 118.64 239.264 118.636 239.294 118.625C239.445 118.575 239.526 118.411 239.474 118.261C239.227 117.53 238.971 116.802 238.707 116.079C238.652 115.929 238.487 115.853 238.338 115.907ZM208.738 75.5942C208.64 75.7194 208.662 75.9 208.787 75.9974C209.392 76.4689 209.99 76.9482 210.582 77.4353C210.635 77.4791 210.7 77.5004 210.764 77.5004C210.848 77.5004 210.93 77.4649 210.987 77.3953C211.088 77.2727 211.07 77.0914 210.947 76.9908C210.352 76.5012 209.749 76.0187 209.141 75.5445C209.015 75.4478 208.835 75.4684 208.738 75.5942ZM81.2062 92.0476C81.1907 92.0263 81.1758 92.0044 81.1539 91.9876C81.032 91.8941 80.8604 91.916 80.7617 92.0315C80.9094 92.0334 81.0578 92.0431 81.2062 92.0476ZM149.821 56.9269C149.825 56.9269 149.828 56.9269 149.832 56.9269C150.594 56.8998 151.36 56.8818 152.127 56.8734C152.285 56.8714 152.413 56.7411 152.411 56.5831C152.409 56.4244 152.287 56.3225 152.121 56.2986C151.348 56.307 150.579 56.3251 149.812 56.3528C149.653 56.3586 149.528 56.4915 149.534 56.6502C149.54 56.805 149.668 56.9269 149.821 56.9269ZM143.499 57.3714C143.509 57.3714 143.519 57.3707 143.529 57.3694C144.289 57.2895 145.052 57.2191 145.818 57.1579C145.976 57.145 146.094 57.0069 146.082 56.8482C146.069 56.6902 145.934 56.5728 145.772 56.5844C145.002 56.6463 144.234 56.7173 143.469 56.7979C143.311 56.8147 143.197 56.956 143.214 57.114C143.229 57.2617 143.354 57.3714 143.499 57.3714ZM137.222 58.2545C137.239 58.2545 137.256 58.2532 137.273 58.25C138.025 58.1171 138.781 57.9932 139.541 57.8797C139.698 57.8565 139.806 57.7094 139.783 57.5527C139.759 57.3959 139.615 57.2907 139.456 57.3107C138.692 57.4256 137.931 57.5501 137.173 57.6842C137.017 57.712 136.913 57.861 136.94 58.0171C136.964 58.1571 137.085 58.2545 137.222 58.2545ZM213.611 79.6524C213.505 79.7705 213.514 79.9524 213.632 80.0582C214.202 80.571 214.765 81.0903 215.322 81.616C215.377 81.6683 215.449 81.6947 215.519 81.6947C215.595 81.6947 215.672 81.6644 215.728 81.6044C215.837 81.489 215.832 81.307 215.717 81.198C215.157 80.6684 214.59 80.1459 214.016 79.6305C213.9 79.5247 213.716 79.5344 213.611 79.6524ZM203.592 71.8837C203.504 72.0153 203.539 72.194 203.671 72.2824C204.307 72.7114 204.937 73.1481 205.562 73.5925C205.612 73.6287 205.671 73.6461 205.728 73.6461C205.818 73.6461 205.906 73.6041 205.962 73.5255C206.055 73.3958 206.024 73.2165 205.895 73.1249C205.266 72.6772 204.632 72.2379 203.992 71.8063C203.861 71.7179 203.683 71.7515 203.592 71.8837ZM183.252 61.9856C183.371 61.9856 183.482 61.9121 183.523 61.7934C183.576 61.6437 183.498 61.4799 183.348 61.427C182.619 61.1709 181.886 60.9232 181.148 60.6852C180.999 60.6368 180.835 60.7193 180.787 60.8703C180.738 61.0212 180.821 61.1838 180.972 61.2322C181.704 61.4689 182.433 61.7147 183.158 61.9695C183.189 61.9805 183.221 61.9856 183.252 61.9856ZM87.9518 84.5544C88.4839 84.0035 89.0226 83.4584 89.5677 82.921C89.6806 82.8094 89.6819 82.6275 89.5703 82.5146C89.4587 82.4017 89.2767 82.4004 89.1639 82.512C88.6149 83.0533 88.073 83.6009 87.5376 84.1557C87.4273 84.2699 87.4305 84.4518 87.5447 84.5621C87.6008 84.6163 87.6724 84.6427 87.744 84.6427C87.8202 84.6421 87.895 84.6124 87.9518 84.5544ZM175.032 58.9454C174.874 58.9073 174.722 59.0015 174.684 59.1557C174.646 59.3098 174.74 59.4653 174.894 59.5034C175.639 59.6872 176.38 59.8801 177.118 60.0826C177.144 60.0891 177.169 60.093 177.194 60.093C177.32 60.093 177.436 60.0091 177.471 59.8814C177.513 59.7285 177.423 59.5698 177.271 59.5279C176.527 59.3247 175.781 59.1305 175.032 58.9454ZM83.7239 89.2525C84.2167 88.6654 84.7167 88.0842 85.2231 87.5101C85.3282 87.3914 85.3166 87.2095 85.1973 87.1044C85.0792 86.9999 84.8967 87.0108 84.7915 87.1302C84.2813 87.7082 83.7787 88.2926 83.2827 88.8835C83.1807 89.0048 83.1969 89.186 83.3182 89.2886C83.3717 89.3338 83.4375 89.3557 83.5026 89.3557C83.5859 89.355 83.6671 89.3202 83.7239 89.2525ZM92.4931 80.1627C93.0621 79.6498 93.6368 79.1447 94.2181 78.6461C94.3387 78.5429 94.3522 78.3616 94.249 78.241C94.1464 78.121 93.9645 78.1068 93.8439 78.21C93.2595 78.7112 92.6808 79.2202 92.1086 79.7363C91.9906 79.8421 91.9816 80.024 92.088 80.142C92.1448 80.2046 92.2228 80.2368 92.3015 80.2368C92.3693 80.2368 92.4383 80.2123 92.4931 80.1627ZM181.134 233.534C180.406 233.771 179.675 233.999 178.939 234.217C178.787 234.262 178.701 234.422 178.746 234.574C178.783 234.698 178.898 234.779 179.021 234.779C179.049 234.779 179.076 234.775 179.103 234.767C179.844 234.548 180.58 234.318 181.311 234.08C181.462 234.031 181.545 233.869 181.496 233.719C181.447 233.568 181.284 233.486 181.134 233.534ZM218.189 84.037C218.075 84.1473 218.071 84.3292 218.182 84.4434C218.715 84.9937 219.24 85.551 219.76 86.1142C219.817 86.1754 219.894 86.2071 219.971 86.2071C220.041 86.2071 220.111 86.1819 220.166 86.1309C220.283 86.0232 220.29 85.8413 220.182 85.7245C219.66 85.1582 219.131 84.5976 218.595 84.0435C218.484 83.9299 218.302 83.9267 218.189 84.037ZM198.592 68.4332C198.455 68.3545 198.278 68.4016 198.2 68.5383C198.12 68.6757 198.167 68.8518 198.305 68.9312C198.969 69.315 199.63 69.7066 200.283 70.1072C200.33 70.1356 200.381 70.1491 200.433 70.1491C200.53 70.1491 200.624 70.1001 200.678 70.0117C200.761 69.8762 200.718 69.6995 200.583 69.6163C199.925 69.2137 199.261 68.819 198.592 68.4332ZM187.142 62.8578C186.997 62.7991 186.828 62.8694 186.768 63.0171C186.709 63.1642 186.78 63.3319 186.928 63.3913C187.641 63.679 188.35 63.9744 189.054 64.2802C189.091 64.2963 189.13 64.3034 189.168 64.3034C189.279 64.3034 189.385 64.2383 189.432 64.1305C189.494 63.9847 189.428 63.8157 189.282 63.7525C188.574 63.4448 187.86 63.1468 187.142 62.8578ZM192.967 65.4452C192.826 65.3768 192.653 65.4349 192.583 65.5781C192.513 65.7206 192.573 65.8929 192.715 65.9625C193.406 66.2993 194.092 66.6437 194.773 66.9972C194.816 67.0192 194.861 67.0295 194.905 67.0295C195.009 67.0295 195.109 66.9734 195.16 66.8747C195.234 66.7341 195.179 66.5605 195.037 66.487C194.353 66.1309 193.662 65.7839 192.967 65.4452ZM65.7604 122.751C65.8855 122.751 66.0004 122.669 66.0365 122.543C66.2468 121.805 66.4661 121.071 66.6945 120.341C66.7422 120.189 66.6577 120.028 66.5061 119.981C66.3539 119.932 66.1932 120.018 66.1461 120.169C65.9158 120.904 65.6952 121.643 65.4837 122.385C65.4404 122.538 65.5288 122.697 65.681 122.74C65.7075 122.748 65.7339 122.751 65.7604 122.751ZM155.019 30.251C155.017 30.2374 155.014 30.2239 155.012 30.211H154.785C154.798 30.2465 154.815 30.2806 154.828 30.3168C154.893 30.2929 154.957 30.2716 155.019 30.251ZM141.378 26.6547C141.287 26.8611 141.2 27.0688 141.112 27.2772L141.958 30.2103H140.247C140.724 31.8688 141.164 34.0911 140.868 35.9561H153.1C152.958 34.2124 153.329 32.2643 153.727 30.7954C153.683 30.5987 153.626 30.4045 153.571 30.2103H152.356L152.896 28.3351C152.763 28.0255 152.625 27.7171 152.483 27.4113C152.367 27.1649 152.753 26.9088 152.956 27.1365C153.029 27.2178 153.096 27.3113 153.167 27.3971L157.033 13.9911L157.143 13.6079L158.413 9.2027H151.219C152.109 8.22476 152.658 6.92879 152.658 5.50188C152.658 2.46291 150.194 0 147.156 0C144.117 0 141.654 2.46355 141.654 5.50188C141.654 6.92879 142.202 8.22476 143.093 9.2027H135.899L137.415 14.4614L137.527 14.8497L140.866 26.4295C140.877 26.4173 140.886 26.4024 140.897 26.3902C141.096 26.1586 141.487 26.4057 141.378 26.6547Z" fill="#F5A74A"/>
<path d="M29.4969 195.348C23.4202 179.981 20.2329 163.451 20.2329 146.429C20.2329 121.639 26.9837 97.8893 39.6007 77.2654C39.7272 77.3525 39.8581 77.4344 39.9949 77.5099C27.7087 97.6022 20.6199 121.203 20.6199 146.429C20.6199 163.645 23.9234 180.104 29.9246 195.208C29.7775 195.25 29.6349 195.296 29.4969 195.348ZM271.693 87.3428C271.832 87.2751 271.978 87.2145 272.128 87.159C265.8 74.4832 257.397 62.7744 247.087 52.4641C222.939 28.3156 191.132 14.6121 157.144 13.6084L157.034 13.9916C207.217 15.4546 250.485 44.9573 271.693 87.3428ZM59.155 52.4641C54.2073 57.4118 49.7053 62.6847 45.6535 68.2285C45.7819 68.3182 45.9038 68.413 46.0206 68.5136C67.243 39.4219 100.011 19.2696 137.528 14.8502L137.417 14.4618C107.865 17.9188 80.5142 31.1049 59.155 52.4641ZM137.665 278.029C136.931 277.944 136.203 277.835 135.472 277.737L135.83 278.195C136.43 278.273 137.029 278.353 137.63 278.422C137.638 278.291 137.65 278.16 137.665 278.029ZM125.479 276.441L124.827 275.88C112.764 273.246 101.314 268.96 90.7187 263.278C90.7013 263.447 90.6871 263.624 90.6704 263.794C101.601 269.626 113.299 273.878 125.479 276.441ZM34.3176 205.052C34.1866 205.134 34.0492 205.209 33.9073 205.279C40.2587 218.116 48.7305 229.971 59.155 240.395C62.1921 243.432 65.3542 246.298 68.6228 249C68.6461 248.813 68.6609 248.625 68.6815 248.437C54.4021 236.596 42.63 221.83 34.3176 205.052ZM247.087 240.396C272.185 215.297 286.008 181.925 286.008 146.43C286.008 129.246 282.759 112.563 276.569 97.0726C276.436 97.1403 276.298 97.2022 276.156 97.2584C282.257 112.47 285.621 129.064 285.621 146.43C285.621 192.801 261.672 233.677 225.499 257.36L225.514 257.908C233.208 252.889 240.44 247.042 247.087 240.396ZM216.121 262.97C215.938 263.07 215.751 263.165 215.566 263.264L215.587 263.791C215.798 263.678 216.005 263.562 216.214 263.448L216.121 262.97ZM206.871 268.039L206.756 267.578C191.042 274.562 173.729 278.574 155.532 278.9L155.808 279.285C173.673 278.933 190.958 275.078 206.871 268.039ZM11.6327 323.308C8.26539 316.882 4.91228 310.449 1.34241 304.136C1.03342 305.869 0.914722 307.622 0.959232 309.369C2.35002 312.168 4.05174 314.839 5.38641 317.652C6.35661 319.696 7.28358 321.761 8.19508 323.832H11.9088C11.8172 323.657 11.7243 323.483 11.6327 323.308ZM12.6687 286.268C11.663 287.028 10.7044 287.85 9.79939 288.725C10.4793 290.796 11.1631 292.865 11.9062 294.914C12.3449 296.125 10.4167 296.642 9.98259 295.445C9.37106 293.759 8.8021 292.059 8.23959 290.357C7.89834 290.738 7.55904 291.123 7.23714 291.519C11.2302 302.137 14.5749 312.978 17.8848 323.832H18.6131C15.8406 311.468 13.9789 298.903 12.6687 286.268ZM5.83151 293.398C5.04903 294.534 4.34912 295.723 3.7363 296.955C5.13354 299.593 6.52433 302.233 7.80481 304.929C8.35313 306.083 6.6327 307.094 6.08245 305.936C5.01291 303.684 3.86983 301.471 2.71191 299.265C2.45323 299.933 2.21907 300.611 2.01458 301.299C6.20501 308.591 10.0768 316.058 13.986 323.506C14.0434 323.615 14.1021 323.723 14.1595 323.832H15.8199C12.7081 313.611 9.55104 303.408 5.83151 293.398ZM30.7522 280.143C30.6161 280.14 30.4806 280.132 30.3445 280.132C27.9738 280.127 25.6245 280.449 23.3454 281.047C22.7706 288.915 22.4571 296.788 23.1938 304.682C23.3132 305.962 21.3173 305.95 21.1992 304.682C20.4819 296.994 20.7606 289.325 21.3063 281.663C18.9292 282.476 16.6514 283.591 14.5362 284.963C15.8606 298.04 17.7597 311.044 20.6477 323.833H25.2813C24.931 309.234 27.9371 294.672 30.7522 280.143ZM45.42 313.571C47.6204 307.849 49.8111 302.088 52.503 296.576C53.1461 295.26 53.8093 293.942 54.4601 292.616C54.1537 292.213 53.8383 291.817 53.5125 291.43C52.6133 293.114 51.7295 294.807 50.8748 296.516C47.9829 302.296 45.3536 308.192 42.7268 314.095H45.222C45.2891 313.921 45.3529 313.746 45.42 313.571ZM39.9143 295.467C41.3528 291.595 42.8887 287.764 44.513 283.973C42.9145 283.077 41.2386 282.33 39.5137 281.732C37.5029 287.691 35.7348 293.721 34.6607 299.946C34.4427 301.21 32.521 300.671 32.7371 299.416C33.815 293.169 35.5916 287.119 37.6113 281.139C36.007 280.701 34.3672 280.394 32.7061 280.245C29.8775 294.737 26.8617 309.282 27.2481 323.833H31.058C33.1454 314.132 36.5121 304.62 39.9143 295.467ZM34.8736 316.711C34.2137 319.071 33.6176 321.446 33.0958 323.832H34.8736V316.711ZM49.7491 294.324C50.5103 292.822 51.3025 291.337 52.1043 289.859C51.6611 289.396 51.2038 288.946 50.7335 288.511C49.2918 290.838 47.8468 293.164 46.3128 295.433C45.5974 296.492 43.8699 295.492 44.5904 294.426C46.1935 292.053 47.701 289.62 49.2085 287.187C48.2551 286.408 47.2598 285.679 46.2264 285.012C44.6782 288.637 43.2119 292.298 41.8372 295.997C39.6465 301.892 37.4565 307.941 35.6193 314.096H40.5542C43.5273 307.459 46.4612 300.814 49.7491 294.324ZM59.1518 312.271C59.4724 311.012 59.9659 309.693 60.4503 308.554C60.3555 306.926 60.1362 305.305 59.762 303.707C59.7369 303.601 59.7066 303.497 59.6801 303.391C56.8515 306.617 54.3995 310.085 52.9552 314.096H57.5443C58.079 313.485 58.6151 312.877 59.1518 312.271ZM50.9916 313.669C52.6778 308.916 55.6652 304.921 59.0434 301.194C58.2448 298.824 57.134 296.568 55.769 294.474C52.8191 300.478 50.2536 306.589 47.8352 312.828C47.672 313.25 47.5165 313.674 47.354 314.096H50.9348C50.9212 313.966 50.9367 313.823 50.9916 313.669ZM65.6232 154.743L58.3538 165.677C59.0983 176.306 60.9909 186.56 64.0867 198.622C64.1937 198.673 64.3079 198.719 64.4182 198.769C72.6262 202.469 88.0784 200.219 93.6306 194.955C93.9119 194.689 94.1757 194.416 94.4041 194.134C94.1183 192.65 93.848 191.164 93.5848 189.678C91.5238 178.028 90.1917 166.328 89.9698 154.557L92.7578 154.474L92.0121 138.647C91.8431 135.055 89.3473 131.996 85.8639 131.109C84.7634 130.353 83.6113 129.669 82.4224 129.073L82.0063 134.01L80.7374 133.903C78.3003 131.297 75.5865 128.989 72.4095 127.484L72.4998 126.411C69.7304 126.329 67.0398 126.855 64.6382 128.143C64.4098 128.266 64.1847 128.397 63.9622 128.534C63.6712 128.712 63.3842 128.898 63.1029 129.099C62.8449 129.285 62.6036 129.477 62.3759 129.674C61.0619 130.344 59.9111 131.39 59.1041 132.793L52.1895 147.278L65.6232 154.743ZM200.381 193.321C201.048 193.605 201.743 193.863 202.459 194.1C210.758 196.831 222.149 196.352 230.992 193.452L231.549 185.498L233.948 192.351C234.788 191.997 235.596 191.619 236.362 191.216C236.414 191.189 236.469 191.162 236.521 191.135C236.23 189.411 235.899 187.801 235.543 186.292C235.472 185.987 235.398 185.689 235.325 185.392C234.57 182.346 233.729 179.721 232.952 177.407C229.915 178.313 226.981 179.114 224.168 179.668C221.761 180.928 219.237 180.903 216.794 179.714C215.411 179.756 214.038 180.052 212.684 180.395C212.379 180.473 212.172 179.98 212.474 179.798C213.622 179.109 215.047 178.572 216.487 178.36C216.475 178.282 216.464 178.205 216.454 178.13C216.379 178.13 216.304 178.127 216.229 178.129C214.845 178.171 213.473 178.467 212.119 178.811C211.814 178.888 211.607 178.395 211.909 178.213C213.193 177.442 214.825 176.861 216.438 176.715C216.438 176.711 216.438 176.709 216.439 176.706C216.268 176.699 216.097 176.697 215.925 176.702C214.542 176.744 213.17 177.04 211.815 177.384C211.51 177.461 211.303 176.968 211.605 176.786C213.084 175.897 215.025 175.259 216.866 175.25C216.905 175.168 216.948 175.086 216.992 175.003C216.967 175.004 216.943 175.003 216.918 175.003C215.535 175.045 214.162 175.341 212.808 175.684C212.503 175.762 212.297 175.269 212.599 175.087C214.567 173.904 217.351 173.169 219.632 173.767C221.43 173.804 223.217 174.13 224.925 174.732C227.266 173.678 229.269 172.713 231.11 171.75C230.371 169.165 230.033 166.975 230.52 164.867C231.824 159.227 233.274 156.142 234.732 150.672L243.477 164.058C240.626 166.026 238.255 167.613 235.896 169.047C236.846 171.267 238.036 173.369 239.145 175.51C241.398 174.818 243.694 174.128 246.027 173.494C248.82 172.736 251.309 171.044 252.835 168.585C253.461 167.576 253.767 166.646 253.57 165.594C253.581 165.504 253.561 165.392 253.491 165.249L253.485 165.237C253.427 165.037 253.356 164.834 253.261 164.622C253.184 164.452 253.073 164.298 252.947 164.153L236.418 130.85L236.076 130.163C235.172 128.02 233.743 126.084 231.625 125.226C231.002 124.974 230.35 124.835 229.686 124.77C220.726 132.856 214.404 143.398 213.748 155.204C211.587 147.64 210.72 139.227 213.139 131.642C211.524 132.829 210.054 134.043 208.875 135.171C208.533 135.499 208.211 135.82 207.922 136.13C201.833 142.649 202.968 148.329 204.619 154.007L205.31 174.001C205.276 174.182 205.242 174.367 205.207 174.547C204.405 175.652 203.775 176.727 203.497 177.458C202.186 180.901 201.087 183.671 199.903 186.304C200.595 186.742 201.305 187.148 202.02 187.546C201.521 189.334 200.978 191.237 200.381 193.321ZM242.499 307.741C243.89 310.54 245.591 313.211 246.926 316.024C248.15 318.604 249.317 321.212 250.454 323.833C250.468 323.865 250.483 323.897 250.497 323.93H254.36C254.344 323.898 254.326 323.866 254.309 323.833C253.931 323.115 253.549 322.399 253.173 321.681C250.007 315.638 246.847 309.594 243.513 303.645C243.302 303.267 243.096 302.886 242.883 302.509C242.815 302.887 242.761 303.266 242.711 303.645C242.533 305.005 242.464 306.374 242.499 307.741ZM259.922 323.832C259.931 323.864 259.942 323.897 259.951 323.929H260.535C260.527 323.897 260.521 323.864 260.514 323.832C257.534 310.944 255.576 297.829 254.208 284.64C253.203 285.4 252.244 286.221 251.339 287.097C252.019 289.167 252.703 291.237 253.446 293.286C253.884 294.497 251.956 295.014 251.522 293.816C250.911 292.131 250.342 290.43 249.779 288.728C249.438 289.109 249.099 289.494 248.777 289.891C250.487 294.439 252.075 299.03 253.596 303.644C253.975 304.794 254.353 305.946 254.724 307.1C256.514 312.657 258.219 318.244 259.922 323.832ZM255.526 321.877C255.869 322.531 256.222 323.18 256.568 323.832C256.585 323.864 256.603 323.897 256.619 323.929H257.885C257.875 323.897 257.865 323.864 257.855 323.832C256.821 320.43 255.782 317.03 254.724 313.637C253.683 310.296 252.624 306.963 251.524 303.644C250.205 299.663 248.831 295.701 247.37 291.77C246.587 292.905 245.887 294.095 245.274 295.327C246.672 297.964 248.063 300.605 249.343 303.3C249.398 303.417 249.426 303.532 249.438 303.644C249.549 304.636 248.115 305.347 247.621 304.306C247.515 304.084 247.401 303.866 247.294 303.644C246.318 301.621 245.294 299.623 244.25 297.636C243.991 298.304 243.757 298.982 243.553 299.67C244.31 300.987 245.046 302.315 245.785 303.643C248.854 309.162 251.79 314.755 254.724 320.35C254.992 320.859 255.258 321.368 255.526 321.877ZM266.868 323.929C266.867 323.897 266.867 323.864 266.865 323.832C266.237 308.688 269.372 293.584 272.292 278.514C272.156 278.511 272.02 278.504 271.884 278.504C269.513 278.498 267.164 278.82 264.885 279.418C264.31 287.286 263.997 295.159 264.733 303.053C264.853 304.333 262.857 304.32 262.739 303.053C262.021 295.365 262.3 287.697 262.846 280.033C260.469 280.847 258.191 281.962 256.076 283.334C257.456 296.965 259.449 310.52 262.55 323.832C262.557 323.864 262.564 323.897 262.572 323.929H266.868ZM282.522 323.929C282.534 323.897 282.546 323.865 282.557 323.832C283.981 319.853 285.442 315.887 286.96 311.942C289.16 306.22 291.351 300.46 294.042 294.947C294.686 293.631 295.349 292.313 296 290.988C295.693 290.585 295.378 290.189 295.052 289.802C294.153 291.486 293.269 293.178 292.414 294.887C289.475 300.763 286.806 306.759 284.136 312.76C282.568 316.285 280.738 320.003 279.075 323.832C279.061 323.865 279.046 323.897 279.032 323.929H282.522ZM272.223 323.929C272.229 323.897 272.237 323.865 272.244 323.832C274.291 313.567 277.861 303.504 281.454 293.838C282.892 289.967 284.428 286.136 286.053 282.344C284.454 281.448 282.778 280.701 281.053 280.103C279.042 286.063 277.274 292.092 276.2 298.317C275.982 299.582 274.06 299.042 274.277 297.787C275.355 291.541 277.131 285.49 279.151 279.511C277.547 279.073 275.907 278.766 274.246 278.616C271.312 293.649 268.166 308.739 268.836 323.833C268.837 323.865 268.837 323.898 268.839 323.93H272.223V323.929ZM276.89 323.929C276.904 323.897 276.919 323.865 276.932 323.832C278.597 319.929 280.45 316.139 282.061 312.541C285.045 305.879 287.988 299.209 291.289 292.696C292.05 291.194 292.842 289.709 293.644 288.231C293.201 287.768 292.743 287.318 292.273 286.883C290.831 289.21 289.386 291.535 287.852 293.805C287.137 294.864 285.409 293.865 286.13 292.798C287.733 290.425 289.24 287.992 290.748 285.559C289.795 284.78 288.799 284.051 287.766 283.384C286.218 287.008 284.751 290.67 283.377 294.369C279.85 303.858 276.322 313.748 274.276 323.833C274.27 323.865 274.261 323.897 274.255 323.93H276.89V323.929ZM289.853 323.929C289.877 323.897 289.901 323.865 289.924 323.832C293.604 318.676 297.841 313.835 302.046 309.116C302.08 306.757 301.843 304.393 301.301 302.079C301.276 301.973 301.245 301.868 301.219 301.763C298.366 305.017 295.893 308.515 294.454 312.57C294.027 313.773 292.101 313.252 292.53 312.04C294.217 307.288 297.204 303.292 300.582 299.565C299.784 297.195 298.673 294.94 297.308 292.845C294.358 298.849 291.792 304.96 289.374 311.199C287.75 315.389 286.189 319.604 284.673 323.833C284.661 323.865 284.649 323.897 284.637 323.93H289.853V323.929ZM167.452 167.845C164.249 151.212 162.441 134.481 163.131 117.597L178.641 80.5818L158.932 37.8047L158.54 37.9027L154.234 38.9839L158.001 56.4255L158.127 57.0067L159.402 62.9079C159.974 62.9453 160.537 63.0608 161.043 63.3272C161.863 63.7594 162.501 64.6219 162.463 65.5489C162.442 66.0514 162.232 66.5371 162.257 67.0396C162.313 68.1859 163.484 68.8878 164.442 69.5206C165.4 70.1534 166.365 71.3094 165.83 72.3248C165.361 73.215 163.889 73.5769 163.996 74.5774C164.069 75.2592 164.852 75.5734 165.375 76.0172C166.606 77.0616 166.194 79.4077 164.681 79.9709C164.193 80.1522 163.662 80.1664 163.137 80.1973L163.266 80.7953L161.735 83.9549L162.829 90.9804C163.382 94.5322 160.951 97.8596 157.399 98.4124L155.819 98.6582L155.62 101.018L155.447 103.073L155.056 107.721H156.251L163.736 159.521L161.848 164.442L158.137 160.171L153 107.722H155.056L153.787 107.614C153.529 107.338 153.266 107.067 153 106.798V101.033L145.674 98.6524L144.564 98.2918V100.121C143.706 100.141 142.857 100.223 142.025 100.372L131.748 80.2592L139.879 38.264L135.156 37.1854L124.908 60.7475L124.712 61.1978L116.371 80.376L131.597 114.628C130.024 135.99 131.779 151.455 137.138 172.333C137.606 172.558 138.102 172.76 138.617 172.945C147.491 176.133 162.922 173.438 167.452 167.845Z" fill="#444DA1"/>
</svg>
