<svg width="809" height="227" viewBox="0 0 809 227" fill="none" xmlns="http://www.w3.org/2000/svg">
<path d="M165.44 180V93.06H189.02V180H165.44ZM189.02 131.94L179.84 125.82C180.92 115.14 184.04 106.74 189.2 100.62C194.36 94.38 201.8 91.26 211.52 91.26C215.72 91.26 219.5 91.98 222.86 93.42C226.22 94.74 229.28 96.96 232.04 100.08L217.28 117C215.96 115.56 214.34 114.48 212.42 113.76C210.62 113.04 208.52 112.68 206.12 112.68C201.08 112.68 196.94 114.3 193.7 117.54C190.58 120.66 189.02 125.46 189.02 131.94ZM276.742 181.8C267.382 181.8 259.042 179.82 251.722 175.86C244.522 171.78 238.822 166.32 234.622 159.48C230.542 152.64 228.502 144.9 228.502 136.26C228.502 127.74 230.542 120.12 234.622 113.4C238.822 106.56 244.402 101.16 251.362 97.2C258.442 93.12 266.422 91.08 275.302 91.08C284.662 91.08 292.522 93.18 298.882 97.38C305.242 101.46 310.282 107.34 314.002 115.02L261.982 166.14L249.202 153.18L296.182 107.1L295.462 123.66C293.902 119.7 291.502 116.64 288.262 114.48C285.142 112.32 280.942 111.24 275.662 111.24C270.622 111.24 266.242 112.32 262.522 114.48C258.802 116.52 255.922 119.4 253.882 123.12C251.962 126.84 251.002 131.1 251.002 135.9C251.002 141.06 252.082 145.62 254.242 149.58C256.402 153.42 259.402 156.42 263.242 158.58C267.202 160.74 271.822 161.82 277.102 161.82C281.782 161.82 285.922 161.1 289.522 159.66C293.122 158.1 296.302 155.82 299.062 152.82L312.922 166.68C308.482 171.72 303.142 175.5 296.902 178.02C290.782 180.54 284.062 181.8 276.742 181.8ZM347.222 180L314.642 93.06H338.402L359.642 156.24L352.442 156.42L374.222 93.06H391.322L413.102 156.42L405.902 156.24L427.142 93.06H450.902L418.502 180H401.402L379.442 119.88H386.102L364.142 180H347.222ZM497.668 181.8C488.908 181.8 480.988 179.82 473.908 175.86C466.948 171.78 461.368 166.32 457.168 159.48C453.088 152.52 451.048 144.78 451.048 136.26C451.048 127.74 453.088 120.12 457.168 113.4C461.248 106.56 466.828 101.16 473.908 97.2C480.988 93.12 488.848 91.08 497.488 91.08C506.368 91.08 514.288 93.12 521.248 97.2C528.328 101.16 533.908 106.56 537.988 113.4C542.068 120.12 544.108 127.74 544.108 136.26C544.108 144.78 542.068 152.52 537.988 159.48C533.908 166.32 528.328 171.78 521.248 175.86C514.288 179.82 506.428 181.8 497.668 181.8ZM497.488 159.84C501.928 159.84 505.828 158.88 509.188 156.96C512.668 154.92 515.308 152.16 517.108 148.68C519.028 145.08 519.988 141 519.988 136.44C519.988 131.88 519.028 127.86 517.108 124.38C515.188 120.9 512.548 118.2 509.188 116.28C505.828 114.24 501.928 113.22 497.488 113.22C493.168 113.22 489.328 114.24 485.968 116.28C482.608 118.2 479.968 120.9 478.048 124.38C476.128 127.86 475.168 131.88 475.168 136.44C475.168 141 476.128 145.08 478.048 148.68C479.968 152.16 482.608 154.92 485.968 156.96C489.328 158.88 493.168 159.84 497.488 159.84ZM555.688 180V93.06H579.268V180H555.688ZM579.268 131.94L570.088 125.82C571.168 115.14 574.288 106.74 579.448 100.62C584.608 94.38 592.048 91.26 601.768 91.26C605.968 91.26 609.748 91.98 613.108 93.42C616.468 94.74 619.528 96.96 622.288 100.08L607.528 117C606.208 115.56 604.588 114.48 602.668 113.76C600.868 113.04 598.768 112.68 596.368 112.68C591.328 112.68 587.188 114.3 583.948 117.54C580.828 120.66 579.268 125.46 579.268 131.94ZM689.791 183.06L648.751 135.18L689.431 89.64L705.631 103.68L670.711 141.12L671.611 128.52L707.431 168.48L689.791 183.06ZM626.971 180V49.86H650.551V180H626.971ZM713.495 180.5C712.295 180.5 711.312 180.1 710.545 179.3C709.779 178.5 709.395 177.517 709.395 176.35C709.395 175.183 709.779 174.2 710.545 173.4C711.312 172.6 712.295 172.2 713.495 172.2C714.662 172.2 715.629 172.6 716.395 173.4C717.162 174.2 717.545 175.183 717.545 176.35C717.545 177.517 717.162 178.5 716.395 179.3C715.629 180.1 714.662 180.5 713.495 180.5ZM733.409 180.5C730.942 180.5 728.726 179.95 726.759 178.85C724.792 177.75 723.242 176.25 722.109 174.35C720.976 172.45 720.409 170.317 720.409 167.95C720.409 165.55 720.976 163.4 722.109 161.5C723.242 159.6 724.792 158.1 726.759 157C728.759 155.867 730.976 155.3 733.409 155.3C735.309 155.3 737.059 155.65 738.659 156.35C740.259 157.05 741.642 158.05 742.809 159.35L738.609 163.6C737.976 162.9 737.209 162.367 736.309 162C735.442 161.633 734.476 161.45 733.409 161.45C732.209 161.45 731.126 161.733 730.159 162.3C729.226 162.833 728.476 163.583 727.909 164.55C727.376 165.483 727.109 166.6 727.109 167.9C727.109 169.167 727.376 170.3 727.909 171.3C728.476 172.267 729.226 173.033 730.159 173.6C731.126 174.133 732.209 174.4 733.409 174.4C734.509 174.4 735.492 174.217 736.359 173.85C737.259 173.45 738.026 172.883 738.659 172.15L742.909 176.4C741.676 177.733 740.259 178.75 738.659 179.45C737.059 180.15 735.309 180.5 733.409 180.5ZM745.618 180V143.85H752.168V180H745.618ZM767.272 180.5C765.139 180.5 763.239 180.05 761.572 179.15C759.939 178.25 758.655 177 757.722 175.4C756.789 173.8 756.322 171.95 756.322 169.85V155.85H762.922V169.7C762.922 170.7 763.089 171.567 763.422 172.3C763.755 173 764.255 173.533 764.922 173.9C765.589 174.267 766.372 174.45 767.272 174.45C768.639 174.45 769.705 174.033 770.472 173.2C771.239 172.367 771.622 171.2 771.622 169.7V155.85H778.172V169.85C778.172 171.983 777.705 173.85 776.772 175.45C775.872 177.05 774.589 178.3 772.922 179.2C771.289 180.067 769.405 180.5 767.272 180.5ZM795.788 180.5C794.055 180.5 792.488 180.133 791.088 179.4C789.688 178.667 788.571 177.667 787.738 176.4C786.905 175.133 786.455 173.717 786.388 172.15V163.55C786.455 161.983 786.905 160.583 787.738 159.35C788.605 158.083 789.738 157.1 791.138 156.4C792.538 155.7 794.088 155.35 795.788 155.35C798.021 155.35 800.021 155.9 801.788 157C803.555 158.1 804.938 159.6 805.938 161.5C806.971 163.4 807.488 165.55 807.488 167.95C807.488 170.317 806.971 172.45 805.938 174.35C804.938 176.25 803.555 177.75 801.788 178.85C800.021 179.95 798.021 180.5 795.788 180.5ZM794.688 174.45C795.888 174.45 796.938 174.183 797.838 173.65C798.771 173.083 799.488 172.317 799.988 171.35C800.521 170.35 800.788 169.2 800.788 167.9C800.788 166.633 800.521 165.517 799.988 164.55C799.488 163.55 798.771 162.783 797.838 162.25C796.905 161.683 795.838 161.4 794.638 161.4C793.438 161.4 792.371 161.683 791.438 162.25C790.538 162.783 789.821 163.55 789.288 164.55C788.788 165.517 788.538 166.633 788.538 167.9C788.538 169.2 788.788 170.35 789.288 171.35C789.821 172.317 790.555 173.083 791.488 173.65C792.421 174.183 793.488 174.45 794.688 174.45ZM782.388 180V143.85H788.938V161.8L787.838 167.6L788.888 173.5V180H782.388Z" fill="white"/>
<rect width="31.4293" height="95.4243" rx="15.7147" transform="matrix(0.835727 0.549145 -0.480813 0.876823 64.2422 85.0706)" fill="white"/>
<rect width="31.4293" height="95.4243" rx="15.7147" transform="matrix(0.835727 0.549145 -0.480813 0.876823 113.734 85)" fill="white"/>
<circle cx="18" cy="110" r="18" fill="white"/>
</svg>
