<svg width="534" height="486" viewBox="0 0 534 486" fill="none" xmlns="http://www.w3.org/2000/svg">
<g filter="url(#filter0_d_2909_407)">
<g filter="url(#filter1_bd_2909_407)">
<rect x="98.3379" y="50.4258" width="333.858" height="214.724" rx="13.9107" fill="white"/>
</g>
<line x1="146.825" y1="221.599" x2="405.157" y2="221.599" stroke="#E6E6E6" stroke-width="1.78677"/>
<line x1="146.825" y1="192.324" x2="405.157" y2="192.324" stroke="#E6E6E6" stroke-width="0.273504"/>
<line x1="146.825" y1="163.063" x2="405.157" y2="163.063" stroke="#E6E6E6" stroke-width="0.273504"/>
<line x1="146.825" y1="133.803" x2="405.157" y2="133.803" stroke="#E6E6E6" stroke-width="0.273504"/>
<line x1="146.755" y1="104.541" x2="405.087" y2="104.541" stroke="#E6E6E6" stroke-width="0.273504"/>
<path d="M167.84 242.812C167.005 242.812 166.42 242.476 166.086 241.802L166.99 241.286C167.157 241.62 167.44 241.787 167.84 241.787C168.119 241.787 168.326 241.721 168.463 241.59C168.6 241.458 168.668 241.278 168.668 241.051V237.39H169.708V241.051C169.708 241.607 169.534 242.04 169.184 242.349C168.835 242.658 168.387 242.812 167.84 242.812ZM172.635 242.812C172.042 242.812 171.556 242.645 171.177 242.311C170.797 241.977 170.607 241.529 170.607 240.967V237.39H171.647V240.884C171.647 241.162 171.726 241.382 171.883 241.544C172.045 241.706 172.295 241.787 172.635 241.787C172.974 241.787 173.222 241.706 173.379 241.544C173.541 241.382 173.622 241.162 173.622 240.884V237.39H174.67V240.967C174.67 241.529 174.48 241.977 174.1 242.311C173.721 242.645 173.232 242.812 172.635 242.812ZM176.662 241.704H178.689V242.706H175.614V237.39H176.662V241.704Z" fill="#7B7B7B"/>
<g opacity="0.5">
<path d="M121.774 113.522V114.182H121.129V115.192H120.423V114.182H117.712V113.522L119.618 109.877H120.377L118.471 113.522H120.423V112.018H121.129V113.522H121.774ZM125.838 114.539C125.478 115.041 124.974 115.291 124.326 115.291C123.678 115.291 123.175 115.041 122.815 114.539C122.456 114.038 122.276 113.37 122.276 112.535C122.276 111.699 122.456 111.031 122.815 110.53C123.175 110.029 123.678 109.778 124.326 109.778C124.974 109.778 125.478 110.029 125.838 110.53C126.197 111.031 126.377 111.699 126.377 112.535C126.377 113.37 126.197 114.038 125.838 114.539ZM123.332 114.061C123.564 114.42 123.896 114.6 124.326 114.6C124.757 114.6 125.088 114.42 125.321 114.061C125.559 113.701 125.678 113.193 125.678 112.535C125.678 111.876 125.559 111.368 125.321 111.008C125.088 110.644 124.757 110.461 124.326 110.461C123.896 110.461 123.564 110.641 123.332 111.001C123.099 111.36 122.982 111.871 122.982 112.535C122.982 113.193 123.099 113.701 123.332 114.061ZM130.621 114.539C130.261 115.041 129.758 115.291 129.11 115.291C128.462 115.291 127.958 115.041 127.598 114.539C127.239 114.038 127.059 113.37 127.059 112.535C127.059 111.699 127.239 111.031 127.598 110.53C127.958 110.029 128.462 109.778 129.11 109.778C129.758 109.778 130.261 110.029 130.621 110.53C130.98 111.031 131.16 111.699 131.16 112.535C131.16 113.37 130.98 114.038 130.621 114.539ZM128.115 114.061C128.348 114.42 128.679 114.6 129.11 114.6C129.54 114.6 129.871 114.42 130.104 114.061C130.342 113.701 130.461 113.193 130.461 112.535C130.461 111.876 130.342 111.368 130.104 111.008C129.871 110.644 129.54 110.461 129.11 110.461C128.679 110.461 128.348 110.641 128.115 111.001C127.882 111.36 127.765 111.871 127.765 112.535C127.765 113.193 127.882 113.701 128.115 114.061Z" fill="black"/>
<path d="M120.27 141.147C120.675 141.223 121.007 141.398 121.265 141.671C121.523 141.944 121.652 142.291 121.652 142.711C121.652 143.228 121.475 143.635 121.121 143.934C120.766 144.233 120.336 144.382 119.83 144.382C119.425 144.382 119.065 144.291 118.751 144.109C118.437 143.921 118.215 143.653 118.083 143.304L118.675 142.954C118.832 143.445 119.217 143.691 119.83 143.691C120.159 143.691 120.427 143.605 120.635 143.433C120.842 143.261 120.946 143.02 120.946 142.711C120.946 142.402 120.842 142.162 120.635 141.99C120.427 141.813 120.159 141.724 119.83 141.724H119.647L119.366 141.291L120.597 139.628H118.235V138.968H121.424V139.59L120.27 141.147ZM125.838 143.63C125.478 144.131 124.974 144.382 124.326 144.382C123.678 144.382 123.175 144.131 122.815 143.63C122.456 143.129 122.276 142.461 122.276 141.625C122.276 140.79 122.456 140.122 122.815 139.621C123.175 139.119 123.678 138.869 124.326 138.869C124.974 138.869 125.478 139.119 125.838 139.621C126.197 140.122 126.377 140.79 126.377 141.625C126.377 142.461 126.197 143.129 125.838 143.63ZM123.332 143.152C123.564 143.511 123.896 143.691 124.326 143.691C124.757 143.691 125.088 143.511 125.321 143.152C125.559 142.792 125.678 142.284 125.678 141.625C125.678 140.967 125.559 140.458 125.321 140.099C125.088 139.735 124.757 139.552 124.326 139.552C123.896 139.552 123.564 139.732 123.332 140.091C123.099 140.451 122.982 140.962 122.982 141.625C122.982 142.284 123.099 142.792 123.332 143.152ZM130.621 143.63C130.261 144.131 129.758 144.382 129.11 144.382C128.462 144.382 127.958 144.131 127.598 143.63C127.239 143.129 127.059 142.461 127.059 141.625C127.059 140.79 127.239 140.122 127.598 139.621C127.958 139.119 128.462 138.869 129.11 138.869C129.758 138.869 130.261 139.119 130.621 139.621C130.98 140.122 131.16 140.79 131.16 141.625C131.16 142.461 130.98 143.129 130.621 143.63ZM128.115 143.152C128.348 143.511 128.679 143.691 129.11 143.691C129.54 143.691 129.871 143.511 130.104 143.152C130.342 142.792 130.461 142.284 130.461 141.625C130.461 140.967 130.342 140.458 130.104 140.099C129.871 139.735 129.54 139.552 129.11 139.552C128.679 139.552 128.348 139.732 128.115 140.091C127.882 140.451 127.765 140.962 127.765 141.625C127.765 142.284 127.882 142.792 128.115 143.152Z" fill="black"/>
<path d="M118.277 173.374V172.797L120.153 170.883C120.654 170.382 120.905 169.952 120.905 169.592C120.905 169.294 120.814 169.061 120.631 168.894C120.449 168.727 120.226 168.643 119.963 168.643C119.462 168.643 119.097 168.881 118.87 169.357L118.277 169.008C118.444 168.663 118.675 168.403 118.968 168.225C119.267 168.048 119.596 167.96 119.956 167.96C120.401 167.96 120.788 168.106 121.117 168.4C121.446 168.694 121.611 169.089 121.611 169.585C121.611 170.121 121.295 170.706 120.662 171.339L119.302 172.691H121.71V173.374H118.277ZM125.838 172.721C125.478 173.222 124.974 173.473 124.326 173.473C123.678 173.473 123.175 173.222 122.815 172.721C122.456 172.22 122.276 171.552 122.276 170.716C122.276 169.881 122.456 169.213 122.815 168.711C123.175 168.21 123.678 167.96 124.326 167.96C124.974 167.96 125.478 168.21 125.838 168.711C126.197 169.213 126.377 169.881 126.377 170.716C126.377 171.552 126.197 172.22 125.838 172.721ZM123.332 172.243C123.564 172.602 123.896 172.782 124.326 172.782C124.757 172.782 125.088 172.602 125.321 172.243C125.559 171.883 125.678 171.374 125.678 170.716C125.678 170.058 125.559 169.549 125.321 169.19C125.088 168.825 124.757 168.643 124.326 168.643C123.896 168.643 123.564 168.823 123.332 169.182C123.099 169.542 122.982 170.053 122.982 170.716C122.982 171.374 123.099 171.883 123.332 172.243ZM130.621 172.721C130.261 173.222 129.758 173.473 129.11 173.473C128.462 173.473 127.958 173.222 127.598 172.721C127.239 172.22 127.059 171.552 127.059 170.716C127.059 169.881 127.239 169.213 127.598 168.711C127.958 168.21 128.462 167.96 129.11 167.96C129.758 167.96 130.261 168.21 130.621 168.711C130.98 169.213 131.16 169.881 131.16 170.716C131.16 171.552 130.98 172.22 130.621 172.721ZM128.115 172.243C128.348 172.602 128.679 172.782 129.11 172.782C129.54 172.782 129.871 172.602 130.104 172.243C130.342 171.883 130.461 171.374 130.461 170.716C130.461 170.058 130.342 169.549 130.104 169.19C129.871 168.825 129.54 168.643 129.11 168.643C128.679 168.643 128.348 168.823 128.115 169.182C127.882 169.542 127.765 170.053 127.765 170.716C127.765 171.374 127.882 171.883 128.115 172.243Z" fill="black"/>
<path d="M120.731 197.149H121.339V202.465H120.64V197.909L119.509 198.243L119.334 197.635L120.731 197.149ZM125.838 201.812C125.478 202.313 124.974 202.564 124.326 202.564C123.678 202.564 123.175 202.313 122.815 201.812C122.456 201.311 122.276 200.642 122.276 199.807C122.276 198.972 122.456 198.303 122.815 197.802C123.175 197.301 123.678 197.05 124.326 197.05C124.974 197.05 125.478 197.301 125.838 197.802C126.197 198.303 126.377 198.972 126.377 199.807C126.377 200.642 126.197 201.311 125.838 201.812ZM123.332 201.333C123.564 201.693 123.896 201.873 124.326 201.873C124.757 201.873 125.088 201.693 125.321 201.333C125.559 200.974 125.678 200.465 125.678 199.807C125.678 199.149 125.559 198.64 125.321 198.281C125.088 197.916 124.757 197.734 124.326 197.734C123.896 197.734 123.564 197.914 123.332 198.273C123.099 198.633 122.982 199.144 122.982 199.807C122.982 200.465 123.099 200.974 123.332 201.333ZM130.621 201.812C130.261 202.313 129.758 202.564 129.11 202.564C128.462 202.564 127.958 202.313 127.598 201.812C127.239 201.311 127.059 200.642 127.059 199.807C127.059 198.972 127.239 198.303 127.598 197.802C127.958 197.301 128.462 197.05 129.11 197.05C129.758 197.05 130.261 197.301 130.621 197.802C130.98 198.303 131.16 198.972 131.16 199.807C131.16 200.642 130.98 201.311 130.621 201.812ZM128.115 201.333C128.348 201.693 128.679 201.873 129.11 201.873C129.54 201.873 129.871 201.693 130.104 201.333C130.342 200.974 130.461 200.465 130.461 199.807C130.461 199.149 130.342 198.64 130.104 198.281C129.871 197.916 129.54 197.734 129.11 197.734C128.679 197.734 128.348 197.914 128.115 198.273C127.882 198.633 127.765 199.144 127.765 199.807C127.765 200.465 127.882 200.974 128.115 201.333Z" fill="black"/>
<path d="M129.74 230.904C129.38 231.405 128.877 231.655 128.229 231.655C127.581 231.655 127.077 231.405 126.718 230.904C126.358 230.402 126.178 229.734 126.178 228.899C126.178 228.064 126.358 227.395 126.718 226.894C127.077 226.393 127.581 226.142 128.229 226.142C128.877 226.142 129.38 226.393 129.74 226.894C130.099 227.395 130.279 228.064 130.279 228.899C130.279 229.734 130.099 230.402 129.74 230.904ZM127.234 230.425C127.467 230.785 127.798 230.964 128.229 230.964C128.659 230.964 128.991 230.785 129.223 230.425C129.461 230.066 129.58 229.557 129.58 228.899C129.58 228.241 129.461 227.732 129.223 227.372C128.991 227.008 128.659 226.826 128.229 226.826C127.798 226.826 127.467 227.005 127.234 227.365C127.001 227.724 126.885 228.236 126.885 228.899C126.885 229.557 127.001 230.066 127.234 230.425Z" fill="black"/>
</g>
<path d="M211.932 242.706L211.613 241.749H209.495L209.176 242.706H208.044L209.905 237.39H211.203L213.071 242.706H211.932ZM209.829 240.77H211.287L210.558 238.598L209.829 240.77ZM215.421 242.812C214.829 242.812 214.343 242.645 213.963 242.311C213.583 241.977 213.394 241.529 213.394 240.967V237.39H214.434V240.884C214.434 241.162 214.512 241.382 214.669 241.544C214.831 241.706 215.082 241.787 215.421 241.787C215.76 241.787 216.008 241.706 216.165 241.544C216.327 241.382 216.408 241.162 216.408 240.884V237.39H217.456V240.967C217.456 241.529 217.266 241.977 216.887 242.311C216.507 242.645 216.018 242.812 215.421 242.812ZM223.617 239.851V240.261C223.617 241.02 223.374 241.635 222.888 242.106C222.402 242.577 221.774 242.812 221.005 242.812C220.185 242.812 219.504 242.547 218.962 242.015C218.426 241.478 218.157 240.825 218.157 240.056C218.157 239.281 218.423 238.626 218.955 238.089C219.491 237.552 220.154 237.284 220.944 237.284C221.44 237.284 221.893 237.398 222.303 237.626C222.714 237.849 223.032 238.147 223.26 238.522L222.364 239.038C222.238 238.821 222.045 238.643 221.787 238.507C221.534 238.37 221.25 238.302 220.937 238.302C220.43 238.302 220.013 238.469 219.684 238.803C219.36 239.132 219.198 239.55 219.198 240.056C219.198 240.557 219.362 240.972 219.691 241.301C220.025 241.625 220.466 241.787 221.013 241.787C221.418 241.787 221.752 241.699 222.015 241.521C222.283 241.339 222.465 241.091 222.562 240.777H220.952V239.851H223.617Z" fill="#7B7B7B"/>
<path d="M255.653 242.812C255.126 242.812 254.683 242.696 254.324 242.463C253.964 242.225 253.711 241.904 253.564 241.499L254.46 240.975C254.668 241.516 255.075 241.787 255.683 241.787C255.977 241.787 256.192 241.734 256.328 241.628C256.465 241.521 256.533 241.387 256.533 241.225C256.533 241.038 256.45 240.894 256.283 240.792C256.116 240.686 255.817 240.572 255.387 240.451C255.149 240.38 254.946 240.309 254.779 240.238C254.617 240.167 254.453 240.074 254.286 239.957C254.124 239.836 254 239.684 253.914 239.501C253.827 239.319 253.784 239.107 253.784 238.864C253.784 238.383 253.954 238 254.293 237.717C254.637 237.428 255.05 237.284 255.531 237.284C255.961 237.284 256.338 237.39 256.662 237.603C256.992 237.811 257.247 238.102 257.429 238.476L256.549 238.985C256.336 238.529 255.997 238.302 255.531 238.302C255.313 238.302 255.141 238.352 255.015 238.454C254.893 238.55 254.832 238.676 254.832 238.833C254.832 239 254.901 239.137 255.037 239.243C255.179 239.345 255.447 239.456 255.842 239.577C256.004 239.628 256.126 239.669 256.207 239.699C256.293 239.724 256.407 239.767 256.549 239.828C256.695 239.884 256.807 239.937 256.883 239.987C256.964 240.038 257.055 240.106 257.156 240.193C257.257 240.279 257.333 240.367 257.384 240.458C257.44 240.549 257.485 240.661 257.521 240.792C257.561 240.919 257.581 241.058 257.581 241.21C257.581 241.701 257.402 242.091 257.042 242.38C256.688 242.668 256.225 242.812 255.653 242.812ZM259.276 241.704H261.516V242.706H258.228V237.39H261.478V238.393H259.276V239.524H261.288V240.511H259.276V241.704ZM264.237 237.39C264.748 237.39 265.178 237.563 265.527 237.907C265.877 238.251 266.051 238.674 266.051 239.175C266.051 239.676 265.877 240.099 265.527 240.443C265.178 240.787 264.748 240.959 264.237 240.959H263.302V242.706H262.255V237.39H264.237ZM264.237 239.98C264.459 239.98 264.644 239.904 264.791 239.752C264.938 239.595 265.011 239.403 265.011 239.175C265.011 238.942 264.938 238.75 264.791 238.598C264.644 238.446 264.459 238.37 264.237 238.37H263.302V239.98H264.237Z" fill="#7B7B7B"/>
<path d="M342.722 237.39H343.77V242.706H342.973L340.695 239.456V242.706H339.647V237.39H340.444L342.722 240.633V237.39ZM349.229 242.015C348.692 242.547 348.039 242.812 347.27 242.812C346.5 242.812 345.847 242.547 345.311 242.015C344.779 241.478 344.513 240.823 344.513 240.048C344.513 239.274 344.779 238.621 345.311 238.089C345.847 237.552 346.5 237.284 347.27 237.284C348.039 237.284 348.692 237.552 349.229 238.089C349.766 238.621 350.034 239.274 350.034 240.048C350.034 240.823 349.766 241.478 349.229 242.015ZM346.047 241.301C346.376 241.625 346.784 241.787 347.27 241.787C347.756 241.787 348.163 241.625 348.492 241.301C348.821 240.972 348.986 240.554 348.986 240.048C348.986 239.542 348.821 239.124 348.492 238.795C348.163 238.466 347.756 238.302 347.27 238.302C346.784 238.302 346.376 238.466 346.047 238.795C345.718 239.124 345.554 239.542 345.554 240.048C345.554 240.554 345.718 240.972 346.047 241.301ZM351.847 242.706L350.062 237.39H351.201L352.5 241.476L353.791 237.39H354.938L353.145 242.706H351.847Z" fill="#7B7B7B"/>
<path d="M385.439 243.706H383.568V238.183H385.477C386.025 238.183 386.496 238.294 386.89 238.515C387.285 238.734 387.589 239.05 387.801 239.462C388.014 239.873 388.12 240.366 388.12 240.939C388.12 241.515 388.013 242.009 387.799 242.422C387.587 242.836 387.28 243.153 386.879 243.374C386.48 243.595 386 243.706 385.439 243.706ZM384.568 242.84H385.391C385.775 242.84 386.096 242.77 386.353 242.63C386.61 242.488 386.804 242.277 386.933 241.996C387.063 241.714 387.127 241.362 387.127 240.939C387.127 240.517 387.063 240.166 386.933 239.888C386.804 239.607 386.612 239.398 386.359 239.259C386.107 239.119 385.794 239.049 385.42 239.049H384.568V242.84ZM389.07 243.706V238.183H392.662V239.022H390.071V240.521H392.476V241.36H390.071V242.867H392.684V243.706H389.07ZM398.41 240.047H397.401C397.373 239.881 397.32 239.735 397.242 239.607C397.165 239.478 397.069 239.368 396.954 239.278C396.839 239.188 396.708 239.121 396.56 239.076C396.415 239.029 396.257 239.006 396.088 239.006C395.788 239.006 395.522 239.081 395.29 239.232C395.058 239.382 394.877 239.601 394.745 239.89C394.614 240.178 394.548 240.529 394.548 240.945C394.548 241.367 394.614 241.723 394.745 242.013C394.878 242.3 395.06 242.518 395.29 242.665C395.522 242.811 395.787 242.884 396.086 242.884C396.251 242.884 396.406 242.862 396.549 242.819C396.695 242.774 396.825 242.708 396.94 242.622C397.057 242.536 397.155 242.43 397.234 242.304C397.315 242.178 397.371 242.034 397.401 241.872L398.41 241.878C398.372 242.14 398.29 242.386 398.165 242.617C398.041 242.847 397.878 243.05 397.677 243.226C397.475 243.4 397.24 243.537 396.97 243.636C396.7 243.733 396.401 243.782 396.072 243.782C395.587 243.782 395.153 243.669 394.772 243.444C394.391 243.22 394.091 242.895 393.872 242.471C393.652 242.047 393.543 241.538 393.543 240.945C393.543 240.35 393.653 239.841 393.874 239.418C394.095 238.994 394.397 238.67 394.778 238.445C395.159 238.22 395.59 238.108 396.072 238.108C396.379 238.108 396.665 238.151 396.93 238.237C397.194 238.324 397.429 238.45 397.636 238.617C397.843 238.783 398.013 238.986 398.146 239.227C398.281 239.466 398.369 239.739 398.41 240.047Z" fill="#7B7B7B"/>
<path d="M300.617 242.015C300.081 242.547 299.428 242.812 298.658 242.812C297.889 242.812 297.236 242.547 296.699 242.015C296.168 241.478 295.902 240.823 295.902 240.048C295.902 239.274 296.168 238.621 296.699 238.089C297.236 237.552 297.889 237.284 298.658 237.284C299.428 237.284 300.081 237.552 300.617 238.089C301.154 238.621 301.422 239.274 301.422 240.048C301.422 240.823 301.154 241.478 300.617 242.015ZM297.436 241.301C297.765 241.625 298.172 241.787 298.658 241.787C299.144 241.787 299.552 241.625 299.881 241.301C300.21 240.972 300.374 240.554 300.374 240.048C300.374 239.542 300.21 239.124 299.881 238.795C299.552 238.466 299.144 238.302 298.658 238.302C298.172 238.302 297.765 238.466 297.436 238.795C297.107 239.124 296.942 239.542 296.942 240.048C296.942 240.554 297.107 240.972 297.436 241.301ZM304.68 242.812C303.88 242.812 303.22 242.547 302.698 242.015C302.177 241.483 301.916 240.828 301.916 240.048C301.916 239.264 302.177 238.608 302.698 238.081C303.22 237.55 303.88 237.284 304.68 237.284C305.161 237.284 305.604 237.398 306.009 237.626C306.419 237.849 306.738 238.152 306.966 238.537L306.062 239.061C305.931 238.823 305.743 238.638 305.5 238.507C305.257 238.37 304.984 238.302 304.68 238.302C304.164 238.302 303.746 238.464 303.427 238.788C303.113 239.112 302.956 239.532 302.956 240.048C302.956 240.56 303.113 240.977 303.427 241.301C303.746 241.625 304.164 241.787 304.68 241.787C304.984 241.787 305.257 241.721 305.5 241.59C305.748 241.453 305.936 241.268 306.062 241.035L306.966 241.559C306.738 241.944 306.422 242.25 306.017 242.478C305.612 242.701 305.166 242.812 304.68 242.812ZM311.103 237.39V238.393H309.668V242.706H308.62V238.393H307.192V237.39H311.103Z" fill="#7B7B7B"/>
<line x1="146.814" y1="222.492" x2="146.814" y2="104.678" stroke="#E6E6E6" stroke-width="1.78677"/>
<path d="M311.73 102.775V104.894H313.778V105.813H311.73V109.584C311.73 109.895 311.735 110.154 311.744 110.361C311.763 110.569 311.796 110.733 311.843 110.856C311.89 110.978 311.956 111.068 312.041 111.124C312.126 111.171 312.234 111.195 312.366 111.195C312.724 111.185 313.138 111.054 313.609 110.799L313.948 111.661C313.637 111.868 313.345 112.005 313.072 112.071C312.808 112.146 312.545 112.184 312.281 112.184C311.659 112.184 311.221 112.009 310.967 111.661C310.722 111.303 310.6 110.714 310.6 109.895V105.813H309.3V104.894H310.6V102.917L311.73 102.775ZM315.973 108.482C315.973 109.396 316.175 110.079 316.58 110.531C316.995 110.973 317.55 111.195 318.247 111.195C318.935 111.195 319.472 110.973 319.858 110.531C320.244 110.088 320.437 109.424 320.437 108.539C320.437 107.597 320.23 106.896 319.815 106.434C319.41 105.973 318.855 105.742 318.148 105.742C317.442 105.742 316.901 105.973 316.524 106.434C316.157 106.886 315.973 107.569 315.973 108.482ZM314.772 108.468C314.772 107.753 314.885 107.159 315.111 106.688C315.337 106.208 315.625 105.827 315.973 105.544C316.321 105.252 316.693 105.05 317.089 104.937C317.494 104.814 317.875 104.753 318.233 104.753C318.572 104.753 318.94 104.81 319.335 104.923C319.74 105.026 320.112 105.219 320.451 105.502C320.79 105.775 321.073 106.147 321.299 106.618C321.525 107.079 321.638 107.668 321.638 108.384C321.638 109.128 321.52 109.744 321.285 110.234C321.059 110.724 320.771 111.115 320.423 111.407C320.074 111.689 319.698 111.887 319.293 112C318.888 112.122 318.511 112.184 318.163 112.184C317.805 112.184 317.428 112.127 317.032 112.014C316.637 111.901 316.27 111.708 315.931 111.435C315.601 111.152 315.323 110.771 315.097 110.291C314.881 109.81 314.772 109.203 314.772 108.468ZM324.877 102.775V104.894H326.925V105.813H324.877V109.584C324.877 109.895 324.882 110.154 324.891 110.361C324.91 110.569 324.943 110.733 324.99 110.856C325.037 110.978 325.103 111.068 325.188 111.124C325.273 111.171 325.381 111.195 325.513 111.195C325.871 111.185 326.285 111.054 326.756 110.799L327.095 111.661C326.784 111.868 326.492 112.005 326.219 112.071C325.955 112.146 325.692 112.184 325.428 112.184C324.806 112.184 324.369 112.009 324.114 111.661C323.869 111.303 323.747 110.714 323.747 109.895V105.813H322.447V104.894H323.747V102.917L324.877 102.775ZM332.325 108.737C332.137 108.746 331.958 108.756 331.789 108.765C331.619 108.774 331.45 108.789 331.28 108.807C331.12 108.817 330.974 108.831 330.842 108.85C330.164 108.935 329.684 109.085 329.401 109.302C329.119 109.509 328.977 109.81 328.977 110.206C328.977 110.536 329.076 110.785 329.274 110.955C329.481 111.115 329.75 111.195 330.079 111.195C330.531 111.195 330.932 111.119 331.28 110.969C331.638 110.809 331.986 110.601 332.325 110.347V108.737ZM332.311 111.336C331.869 111.59 331.454 111.798 331.068 111.958C330.691 112.108 330.282 112.184 329.839 112.184C329.208 112.184 328.704 112.033 328.328 111.732C327.96 111.421 327.777 110.912 327.777 110.206C327.777 109.839 327.871 109.518 328.059 109.245C328.248 108.972 328.492 108.746 328.794 108.567C329.105 108.379 329.453 108.233 329.839 108.129C330.225 108.026 330.621 107.96 331.026 107.932C331.195 107.913 331.417 107.899 331.69 107.889C331.963 107.87 332.175 107.856 332.325 107.847C332.325 107.517 332.316 107.225 332.297 106.971C332.278 106.707 332.222 106.486 332.128 106.307C332.034 106.119 331.892 105.977 331.704 105.883C331.525 105.789 331.266 105.742 330.927 105.742C330.654 105.742 330.39 105.761 330.136 105.798C329.882 105.827 329.656 105.86 329.458 105.897C329.222 105.944 329.006 105.996 328.808 106.053L328.582 105.078C328.817 105.021 329.072 104.97 329.345 104.923C329.58 104.876 329.853 104.838 330.164 104.81C330.475 104.772 330.809 104.753 331.167 104.753C331.647 104.753 332.034 104.824 332.325 104.965C332.627 105.106 332.858 105.299 333.018 105.544C333.187 105.78 333.3 106.053 333.357 106.363C333.423 106.665 333.456 106.985 333.456 107.324V110.714C333.456 110.846 333.456 110.988 333.456 111.138C333.465 111.28 333.474 111.421 333.484 111.562C333.503 111.703 333.522 111.849 333.54 112L332.453 112.113L332.311 111.336ZM335.447 101.419L336.577 101.292V112H335.447V101.419ZM346.087 111.223H346.058C345.973 111.289 345.851 111.378 345.691 111.491C345.531 111.595 345.347 111.699 345.14 111.802C344.933 111.906 344.702 111.995 344.448 112.071C344.203 112.146 343.953 112.184 343.699 112.184C343.351 112.184 343.054 112.137 342.809 112.042C342.564 111.958 342.367 111.812 342.216 111.604C342.065 111.397 341.957 111.124 341.891 110.785C341.825 110.446 341.792 110.022 341.792 109.514V104.894H342.922V109.344C342.922 109.627 342.927 109.881 342.936 110.107C342.946 110.333 342.979 110.526 343.035 110.686C343.092 110.846 343.181 110.973 343.304 111.068C343.435 111.152 343.619 111.195 343.855 111.195C344.099 111.195 344.354 111.143 344.617 111.039C344.881 110.936 345.121 110.818 345.338 110.686C345.592 110.536 345.842 110.366 346.087 110.178V104.894H347.217V111.082C347.226 111.421 347.25 111.727 347.287 112L346.171 112.113L346.087 111.223ZM353.113 106.053C352.717 105.93 352.364 105.85 352.053 105.813C351.752 105.765 351.474 105.742 351.22 105.742C350.89 105.742 350.612 105.822 350.386 105.982C350.17 106.142 350.061 106.349 350.061 106.604C350.071 106.83 350.17 107.023 350.358 107.183C350.546 107.343 350.763 107.489 351.008 107.621C351.262 107.743 351.54 107.88 351.841 108.03C352.152 108.181 352.439 108.351 352.703 108.539C352.976 108.727 353.197 108.953 353.367 109.217C353.536 109.481 353.626 109.796 353.635 110.164C353.626 110.559 353.536 110.889 353.367 111.152C353.207 111.407 352.995 111.614 352.731 111.774C352.477 111.925 352.199 112.028 351.898 112.085C351.596 112.151 351.314 112.184 351.05 112.184C350.711 112.184 350.358 112.165 349.991 112.127C349.633 112.089 349.247 112.009 348.832 111.887L349.044 110.87C349.468 110.983 349.854 111.068 350.203 111.124C350.551 111.171 350.838 111.195 351.064 111.195C351.234 111.195 351.399 111.176 351.559 111.138C351.728 111.101 351.879 111.049 352.011 110.983C352.143 110.908 352.246 110.813 352.322 110.7C352.406 110.587 352.449 110.46 352.449 110.319C352.439 110.055 352.35 109.834 352.18 109.655C352.011 109.467 351.789 109.302 351.516 109.161C351.253 109.01 350.965 108.864 350.655 108.723C350.353 108.572 350.066 108.402 349.793 108.214C349.529 108.016 349.308 107.786 349.129 107.522C348.95 107.249 348.861 106.914 348.861 106.519C348.861 106.236 348.931 105.987 349.072 105.77C349.223 105.544 349.411 105.361 349.637 105.219C349.873 105.069 350.127 104.956 350.4 104.88C350.683 104.795 350.956 104.753 351.22 104.753C351.493 104.753 351.799 104.777 352.138 104.824C352.477 104.861 352.868 104.937 353.31 105.05L353.113 106.053ZM360.416 111.83C360.199 111.896 359.973 111.953 359.738 112C359.512 112.047 359.258 112.089 358.975 112.127C358.702 112.165 358.415 112.184 358.113 112.184C357.642 112.184 357.204 112.118 356.8 111.986C356.395 111.854 356.041 111.642 355.74 111.35C355.439 111.058 355.199 110.682 355.02 110.22C354.85 109.749 354.765 109.175 354.765 108.497C354.765 107.884 354.85 107.348 355.02 106.886C355.189 106.415 355.42 106.024 355.712 105.714C356.013 105.393 356.362 105.153 356.757 104.993C357.162 104.833 357.6 104.753 358.071 104.753C358.532 104.753 358.933 104.843 359.272 105.021C359.611 105.2 359.889 105.445 360.105 105.756C360.331 106.057 360.496 106.415 360.6 106.83C360.713 107.235 360.769 107.663 360.769 108.115L360.557 108.737H355.994C355.994 109.029 356.032 109.321 356.107 109.613C356.183 109.905 356.31 110.168 356.489 110.404C356.677 110.639 356.917 110.832 357.209 110.983C357.511 111.124 357.883 111.195 358.325 111.195C358.608 111.195 358.867 111.181 359.102 111.152C359.338 111.115 359.54 111.077 359.71 111.039C359.889 110.992 360.053 110.941 360.204 110.884L360.416 111.83ZM359.597 107.833C359.597 107.767 359.582 107.621 359.554 107.395C359.526 107.169 359.46 106.933 359.356 106.688C359.253 106.444 359.093 106.227 358.876 106.039C358.66 105.841 358.372 105.742 358.014 105.742C357.619 105.742 357.294 105.827 357.04 105.996C356.785 106.156 356.583 106.349 356.432 106.575C356.282 106.801 356.178 107.032 356.121 107.268C356.065 107.503 356.037 107.691 356.037 107.833H359.597ZM362.321 106.039C362.321 105.822 362.297 105.483 362.25 105.021L363.296 104.88L363.409 105.911H363.423C363.592 105.695 363.757 105.506 363.917 105.346C364.077 105.186 364.242 105.05 364.412 104.937C364.591 104.814 364.76 104.753 364.92 104.753C365.137 104.744 365.438 104.767 365.824 104.824L365.57 105.911C365.259 105.855 365.043 105.831 364.92 105.841C364.76 105.841 364.591 105.916 364.412 106.067C364.233 106.218 364.077 106.378 363.946 106.547C363.776 106.754 363.611 106.99 363.451 107.253V112H362.321V106.039ZM370.909 106.053C370.513 105.93 370.16 105.85 369.849 105.813C369.548 105.765 369.27 105.742 369.016 105.742C368.686 105.742 368.408 105.822 368.182 105.982C367.966 106.142 367.857 106.349 367.857 106.604C367.867 106.83 367.966 107.023 368.154 107.183C368.342 107.343 368.559 107.489 368.804 107.621C369.058 107.743 369.336 107.88 369.637 108.03C369.948 108.181 370.235 108.351 370.499 108.539C370.772 108.727 370.994 108.953 371.163 109.217C371.333 109.481 371.422 109.796 371.431 110.164C371.422 110.559 371.333 110.889 371.163 111.152C371.003 111.407 370.791 111.614 370.527 111.774C370.273 111.925 369.995 112.028 369.694 112.085C369.393 112.151 369.11 112.184 368.846 112.184C368.507 112.184 368.154 112.165 367.787 112.127C367.429 112.089 367.043 112.009 366.628 111.887L366.84 110.87C367.264 110.983 367.65 111.068 367.999 111.124C368.347 111.171 368.634 111.195 368.86 111.195C369.03 111.195 369.195 111.176 369.355 111.138C369.524 111.101 369.675 111.049 369.807 110.983C369.939 110.908 370.042 110.813 370.118 110.7C370.202 110.587 370.245 110.46 370.245 110.319C370.235 110.055 370.146 109.834 369.976 109.655C369.807 109.467 369.586 109.302 369.312 109.161C369.049 109.01 368.762 108.864 368.451 108.723C368.149 108.572 367.862 108.402 367.589 108.214C367.325 108.016 367.104 107.786 366.925 107.522C366.746 107.249 366.657 106.914 366.657 106.519C366.657 106.236 366.727 105.987 366.869 105.77C367.019 105.544 367.208 105.361 367.434 105.219C367.669 105.069 367.923 104.956 368.196 104.88C368.479 104.795 368.752 104.753 369.016 104.753C369.289 104.753 369.595 104.777 369.934 104.824C370.273 104.861 370.664 104.937 371.107 105.05L370.909 106.053Z" fill="#5C27C0"/>
</g>
<g filter="url(#filter2_d_2909_407)">
<rect x="4" width="233.874" height="95.6364" rx="13.9107" fill="white" shape-rendering="crispEdges"/>
<path d="M33.2071 38.0702L32.8094 39.4736H25.3605L25.7583 38.0702H33.2071ZM29.5821 46.9111L25.5139 41.9736L25.5026 40.8657H27.5196C28.0234 40.8657 28.4495 40.788 28.798 40.6327C29.1465 40.4774 29.4117 40.252 29.5935 39.9566C29.7753 39.6573 29.8662 39.2937 29.8662 38.8657C29.8662 38.2293 29.6768 37.7236 29.298 37.3486C28.9192 36.9736 28.3264 36.7861 27.5196 36.7861H25.3605L25.7753 35.2748H27.5196C28.459 35.2748 29.2336 35.4244 29.8435 35.7236C30.4533 36.0229 30.9079 36.4376 31.2071 36.968C31.5064 37.4983 31.656 38.11 31.656 38.8032C31.656 39.4206 31.5329 39.9793 31.2867 40.4793C31.0405 40.9793 30.6484 41.3865 30.1105 41.7009C29.5727 42.0153 28.8662 42.199 27.9912 42.252L27.9401 42.2634L31.656 46.8145V46.9111H29.5821ZM33.2128 35.2748L32.8094 36.6895L26.8548 36.6555L27.2583 35.2748H33.2128ZM41.9346 29.4184H52.9589V31.8528H44.5081L43.8821 39.608C44.1371 39.5384 44.4038 39.4805 44.682 39.4341C44.9602 39.3646 45.2732 39.3182 45.621 39.295C45.9687 39.2486 46.3513 39.2254 46.7686 39.2254C48.9479 39.2254 50.6752 39.8051 51.9503 40.9643C53.2255 42.1235 53.8631 43.8624 53.8631 46.1808C53.8631 47.6878 53.6312 48.9282 53.1675 49.9019C52.7038 50.8757 52.0895 51.6408 51.3244 52.1972C50.5593 52.7536 49.6899 53.1362 48.7161 53.3449C47.7655 53.5767 46.7918 53.6926 45.7948 53.6926C43.5228 53.6463 41.297 53.0087 39.1177 51.7799L40.0567 49.4498C42.2824 50.6554 44.2067 51.2582 45.8296 51.2582C47.638 51.2582 48.9364 50.8177 49.7246 49.9367C50.5129 49.0789 50.907 47.8269 50.907 46.1808C50.907 45.5085 50.8259 44.8941 50.6636 44.3376C50.5013 43.7812 50.2463 43.3059 49.8985 42.9118C49.5507 42.5177 49.0871 42.2163 48.5074 42.0076C47.951 41.7757 47.2671 41.6598 46.4556 41.6598C45.8992 41.6598 45.3659 41.7062 44.8559 41.7989C44.3458 41.8685 43.8705 41.9612 43.43 42.0771C43.0127 42.1931 42.607 42.3322 42.2128 42.4945L40.8565 42.2858L41.9346 29.4184ZM59.9895 38.2169C59.9895 39.0516 60.117 39.863 60.3721 40.6513C60.6271 41.4164 61.0096 42.0887 61.5197 42.6684C62.0298 43.248 62.6441 43.7117 63.3629 44.0594C64.0816 44.4072 64.9162 44.5811 65.8668 44.5811C66.7942 44.5811 67.6172 44.4072 68.336 44.0594C69.0547 43.7117 69.6575 43.248 70.1444 42.6684C70.6544 42.0887 71.037 41.4164 71.292 40.6513C71.547 39.863 71.6745 39.0516 71.6745 38.2169C71.6745 37.3591 71.547 36.5476 71.292 35.7825C71.037 34.9943 70.6544 34.3103 70.1444 33.7307C69.6575 33.1511 69.0547 32.699 68.336 32.3744C67.6172 32.0266 66.7942 31.8528 65.8668 31.8528C64.9162 31.8528 64.0816 32.0266 63.3629 32.3744C62.6441 32.699 62.0298 33.1511 61.5197 33.7307C61.0096 34.3103 60.6271 34.9943 60.3721 35.7825C60.117 36.5476 59.9895 37.3591 59.9895 38.2169ZM57.0335 38.2169C57.0335 36.9418 57.2537 35.7478 57.6942 34.6349C58.1347 33.522 58.7491 32.5599 59.5374 31.7484C60.3257 30.9138 61.2531 30.2646 62.3196 29.8009C63.4092 29.314 64.5916 29.0706 65.8668 29.0706C67.1188 29.0706 68.278 29.314 69.3445 29.8009C70.4342 30.2646 71.3615 30.9138 72.1266 31.7484C72.9149 32.5599 73.5293 33.522 73.9698 34.6349C74.4103 35.7478 74.6306 36.9418 74.6306 38.2169C74.6306 39.4689 74.4103 40.6513 73.9698 41.7642C73.5293 42.877 72.9149 43.8508 72.1266 44.6854C71.3615 45.5201 70.4342 46.1808 69.3445 46.6677C68.278 47.1314 67.1188 47.3632 65.8668 47.3632C64.5916 47.3632 63.4092 47.1314 62.3196 46.6677C61.2531 46.1808 60.3257 45.5201 59.5374 44.6854C58.7491 43.8508 58.1347 42.877 57.6942 41.7642C57.2537 40.6513 57.0335 39.4689 57.0335 38.2169ZM78.7869 42.3901H81.743L79.7955 51.3626L77.6045 50.9452L78.7869 42.3901ZM88.3136 38.2169C88.3136 39.0516 88.4411 39.863 88.6962 40.6513C88.9512 41.4164 89.3338 42.0887 89.8438 42.6684C90.3539 43.248 90.9683 43.7117 91.687 44.0594C92.4057 44.4072 93.2404 44.5811 94.1909 44.5811C95.1183 44.5811 95.9414 44.4072 96.6601 44.0594C97.3788 43.7117 97.9816 43.248 98.4685 42.6684C98.9785 42.0887 99.3611 41.4164 99.6161 40.6513C99.8711 39.863 99.9987 39.0516 99.9987 38.2169C99.9987 37.3591 99.8711 36.5476 99.6161 35.7825C99.3611 34.9943 98.9785 34.3103 98.4685 33.7307C97.9816 33.1511 97.3788 32.699 96.6601 32.3744C95.9414 32.0266 95.1183 31.8528 94.1909 31.8528C93.2404 31.8528 92.4057 32.0266 91.687 32.3744C90.9683 32.699 90.3539 33.1511 89.8438 33.7307C89.3338 34.3103 88.9512 34.9943 88.6962 35.7825C88.4411 36.5476 88.3136 37.3591 88.3136 38.2169ZM85.3576 38.2169C85.3576 36.9418 85.5778 35.7478 86.0184 34.6349C86.4589 33.522 87.0733 32.5599 87.8615 31.7484C88.6498 30.9138 89.5772 30.2646 90.6437 29.8009C91.7334 29.314 92.9158 29.0706 94.1909 29.0706C95.4429 29.0706 96.6021 29.314 97.6686 29.8009C98.7583 30.2646 99.6857 30.9138 100.451 31.7484C101.239 32.5599 101.853 33.522 102.294 34.6349C102.734 35.7478 102.955 36.9418 102.955 38.2169C102.955 39.4689 102.734 40.6513 102.294 41.7642C101.853 42.877 101.239 43.8508 100.451 44.6854C99.6857 45.5201 98.7583 46.1808 97.6686 46.6677C96.6021 47.1314 95.4429 47.3632 94.1909 47.3632C92.9158 47.3632 91.7334 47.1314 90.6437 46.6677C89.5772 46.1808 88.6498 45.5201 87.8615 44.6854C87.0733 43.8508 86.4589 42.877 86.0184 41.7642C85.5778 40.6513 85.3576 39.4689 85.3576 38.2169ZM109.302 38.2169C109.302 39.0516 109.43 39.863 109.685 40.6513C109.94 41.4164 110.322 42.0887 110.832 42.6684C111.342 43.248 111.957 43.7117 112.675 44.0594C113.394 44.4072 114.229 44.5811 115.179 44.5811C116.107 44.5811 116.93 44.4072 117.648 44.0594C118.367 43.7117 118.97 43.248 119.457 42.6684C119.967 42.0887 120.349 41.4164 120.604 40.6513C120.86 39.863 120.987 39.0516 120.987 38.2169C120.987 37.3591 120.86 36.5476 120.604 35.7825C120.349 34.9943 119.967 34.3103 119.457 33.7307C118.97 33.1511 118.367 32.699 117.648 32.3744C116.93 32.0266 116.107 31.8528 115.179 31.8528C114.229 31.8528 113.394 32.0266 112.675 32.3744C111.957 32.699 111.342 33.1511 110.832 33.7307C110.322 34.3103 109.94 34.9943 109.685 35.7825C109.43 36.5476 109.302 37.3591 109.302 38.2169ZM106.346 38.2169C106.346 36.9418 106.566 35.7478 107.007 34.6349C107.447 33.522 108.062 32.5599 108.85 31.7484C109.638 30.9138 110.566 30.2646 111.632 29.8009C112.722 29.314 113.904 29.0706 115.179 29.0706C116.431 29.0706 117.59 29.314 118.657 29.8009C119.747 30.2646 120.674 30.9138 121.439 31.7484C122.227 32.5599 122.842 33.522 123.282 34.6349C123.723 35.7478 123.943 36.9418 123.943 38.2169C123.943 39.4689 123.723 40.6513 123.282 41.7642C122.842 42.877 122.227 43.8508 121.439 44.6854C120.674 45.5201 119.747 46.1808 118.657 46.6677C117.59 47.1314 116.431 47.3632 115.179 47.3632C113.904 47.3632 112.722 47.1314 111.632 46.6677C110.566 46.1808 109.638 45.5201 108.85 44.6854C108.062 43.8508 107.447 42.877 107.007 41.7642C106.566 40.6513 106.346 39.4689 106.346 38.2169ZM130.29 38.2169C130.29 39.0516 130.418 39.863 130.673 40.6513C130.928 41.4164 131.311 42.0887 131.821 42.6684C132.331 43.248 132.945 43.7117 133.664 44.0594C134.382 44.4072 135.217 44.5811 136.168 44.5811C137.095 44.5811 137.918 44.4072 138.637 44.0594C139.356 43.7117 139.958 43.248 140.445 42.6684C140.955 42.0887 141.338 41.4164 141.593 40.6513C141.848 39.863 141.975 39.0516 141.975 38.2169C141.975 37.3591 141.848 36.5476 141.593 35.7825C141.338 34.9943 140.955 34.3103 140.445 33.7307C139.958 33.1511 139.356 32.699 138.637 32.3744C137.918 32.0266 137.095 31.8528 136.168 31.8528C135.217 31.8528 134.382 32.0266 133.664 32.3744C132.945 32.699 132.331 33.1511 131.821 33.7307C131.311 34.3103 130.928 34.9943 130.673 35.7825C130.418 36.5476 130.29 37.3591 130.29 38.2169ZM127.334 38.2169C127.334 36.9418 127.555 35.7478 127.995 34.6349C128.436 33.522 129.05 32.5599 129.838 31.7484C130.627 30.9138 131.554 30.2646 132.62 29.8009C133.71 29.314 134.893 29.0706 136.168 29.0706C137.42 29.0706 138.579 29.314 139.645 29.8009C140.735 30.2646 141.662 30.9138 142.428 31.7484C143.216 32.5599 143.83 33.522 144.271 34.6349C144.711 35.7478 144.931 36.9418 144.931 38.2169C144.931 39.4689 144.711 40.6513 144.271 41.7642C143.83 42.877 143.216 43.8508 142.428 44.6854C141.662 45.5201 140.735 46.1808 139.645 46.6677C138.579 47.1314 137.42 47.3632 136.168 47.3632C134.893 47.3632 133.71 47.1314 132.62 46.6677C131.554 46.1808 130.627 45.5201 129.838 44.6854C129.05 43.8508 128.436 42.877 127.995 41.7642C127.555 40.6513 127.334 39.4689 127.334 38.2169Z" fill="#202020"/>
<path d="M27.5162 69.5292C27.697 70.4613 28.1213 71.1846 28.789 71.6993C29.4707 72.214 30.3053 72.4714 31.293 72.4714C32.6701 72.4714 33.6717 71.9636 34.2977 70.9481L35.8418 71.8245C34.8263 73.3964 33.2961 74.1824 31.2512 74.1824C29.5959 74.1824 28.2465 73.6677 27.2032 72.6383C26.1738 71.595 25.6591 70.2804 25.6591 68.6946C25.6591 67.1227 26.1669 65.8151 27.1823 64.7718C28.1978 63.7285 29.5124 63.2068 31.126 63.2068C32.6562 63.2068 33.9012 63.7493 34.8611 64.8344C35.8348 65.9055 36.3217 67.1992 36.3217 68.7155C36.3217 68.9798 36.3008 69.251 36.2591 69.5292H27.5162ZM31.126 64.9178C30.1523 64.9178 29.3455 65.1961 28.7056 65.7525C28.0657 66.295 27.6692 67.0253 27.5162 67.9434H34.4855C34.3325 66.9558 33.943 66.2046 33.317 65.6899C32.691 65.1752 31.9607 64.9178 31.126 64.9178ZM47.0267 63.4781H48.842V73.9111H47.0267V72.1166C46.1225 73.4938 44.8079 74.1824 43.083 74.1824C41.6224 74.1824 40.3773 73.6538 39.3479 72.5966C38.3186 71.5254 37.8039 70.2248 37.8039 68.6946C37.8039 67.1644 38.3186 65.8707 39.3479 64.8135C40.3773 63.7424 41.6224 63.2068 43.083 63.2068C44.8079 63.2068 46.1225 63.8954 47.0267 65.2726V63.4781ZM43.3125 72.4296C44.3697 72.4296 45.2531 72.0749 45.9625 71.3655C46.672 70.6421 47.0267 69.7518 47.0267 68.6946C47.0267 67.6374 46.672 66.7541 45.9625 66.0446C45.2531 65.3212 44.3697 64.9596 43.3125 64.9596C42.2692 64.9596 41.3928 65.3212 40.6834 66.0446C39.9739 66.7541 39.6192 67.6374 39.6192 68.6946C39.6192 69.7518 39.9739 70.6421 40.6834 71.3655C41.3928 72.0749 42.2692 72.4296 43.3125 72.4296ZM53.4078 65.2308C54.006 63.9371 55.091 63.2903 56.6629 63.2903V65.1891C55.7726 65.1474 55.0075 65.3838 54.3676 65.8985C53.7277 66.4132 53.4078 67.2409 53.4078 68.3816V73.9111H51.5924V63.4781H53.4078V65.2308ZM63.6348 63.2068C64.8589 63.2068 65.8397 63.5963 66.5769 64.3753C67.3142 65.1404 67.6828 66.1837 67.6828 67.5052V73.9111H65.8675V67.6096C65.8675 66.761 65.6379 66.1072 65.1789 65.6482C64.7198 65.1752 64.0869 64.9387 63.2801 64.9387C62.3759 64.9387 61.6456 65.2239 61.0891 65.7942C60.5327 66.3506 60.2545 67.2131 60.2545 68.3816V73.9111H58.4391V63.4781H60.2545V64.9804C60.9918 63.798 62.1185 63.2068 63.6348 63.2068ZM71.4899 69.5292C71.6708 70.4613 72.095 71.1846 72.7627 71.6993C73.4444 72.214 74.279 72.4714 75.2667 72.4714C76.6438 72.4714 77.6454 71.9636 78.2714 70.9481L79.8155 71.8245C78.8 73.3964 77.2698 74.1824 75.225 74.1824C73.5696 74.1824 72.2202 73.6677 71.1769 72.6383C70.1475 71.595 69.6328 70.2804 69.6328 68.6946C69.6328 67.1227 70.1406 65.8151 71.1561 64.7718C72.1715 63.7285 73.4861 63.2068 75.0998 63.2068C76.6299 63.2068 77.8749 63.7493 78.8348 64.8344C79.8085 65.9055 80.2954 67.1992 80.2954 68.7155C80.2954 68.9798 80.2746 69.251 80.2328 69.5292H71.4899ZM75.0998 64.9178C74.126 64.9178 73.3192 65.1961 72.6793 65.7525C72.0394 66.295 71.6429 67.0253 71.4899 67.9434H78.4592C78.3062 66.9558 77.9167 66.2046 77.2907 65.6899C76.6647 65.1752 75.9344 64.9178 75.0998 64.9178ZM91.0004 59.3049H92.8157V73.9111H91.0004V72.1166C90.0962 73.4938 88.7816 74.1824 87.0567 74.1824C85.5961 74.1824 84.351 73.6538 83.3217 72.5966C82.2923 71.5254 81.7776 70.2248 81.7776 68.6946C81.7776 67.1644 82.2923 65.8707 83.3217 64.8135C84.351 63.7424 85.5961 63.2068 87.0567 63.2068C88.7816 63.2068 90.0962 63.8954 91.0004 65.2726V59.3049ZM87.2862 72.4296C88.3434 72.4296 89.2268 72.0749 89.9362 71.3655C90.6457 70.6421 91.0004 69.7518 91.0004 68.6946C91.0004 67.6374 90.6457 66.7541 89.9362 66.0446C89.2268 65.3212 88.3434 64.9596 87.2862 64.9596C86.2429 64.9596 85.3665 65.3212 84.6571 66.0446C83.9476 66.7541 83.5929 67.6374 83.5929 68.6946C83.5929 69.7518 83.9476 70.6421 84.6571 71.3655C85.3665 72.0749 86.2429 72.4296 87.2862 72.4296ZM106.542 63.2068C108.002 63.2068 109.247 63.7424 110.277 64.8135C111.306 65.8707 111.821 67.1644 111.821 68.6946C111.821 70.2248 111.306 71.5254 110.277 72.5966C109.247 73.6538 108.002 74.1824 106.542 74.1824C104.817 74.1824 103.502 73.4938 102.598 72.1166V73.9111H100.783V59.3049H102.598V65.2726C103.502 63.8954 104.817 63.2068 106.542 63.2068ZM106.312 72.4296C107.356 72.4296 108.232 72.0749 108.941 71.3655C109.651 70.6421 110.006 69.7518 110.006 68.6946C110.006 67.6374 109.651 66.7541 108.941 66.0446C108.232 65.3212 107.356 64.9596 106.312 64.9596C105.255 64.9596 104.372 65.3212 103.662 66.0446C102.953 66.7541 102.598 67.6374 102.598 68.6946C102.598 69.7518 102.953 70.6421 103.662 71.3655C104.372 72.0749 105.255 72.4296 106.312 72.4296ZM120.862 63.4781H122.802L118.546 74.558C118.1 75.7404 117.474 76.6376 116.668 77.2497C115.875 77.8757 114.957 78.1539 113.913 78.0844V76.3942C115.193 76.4916 116.132 75.7821 116.73 74.2659L116.918 73.8694L112.369 63.4781H114.31L117.857 71.6576L120.862 63.4781ZM131.35 65.2308C131.948 63.9371 133.033 63.2903 134.605 63.2903V65.1891C133.715 65.1474 132.95 65.3838 132.31 65.8985C131.67 66.4132 131.35 67.2409 131.35 68.3816V73.9111H129.535V63.4781H131.35V65.2308ZM137.084 69.5292C137.265 70.4613 137.689 71.1846 138.357 71.6993C139.038 72.214 139.873 72.4714 140.86 72.4714C142.238 72.4714 143.239 71.9636 143.865 70.9481L145.409 71.8245C144.394 73.3964 142.864 74.1824 140.819 74.1824C139.163 74.1824 137.814 73.6677 136.771 72.6383C135.741 71.595 135.227 70.2804 135.227 68.6946C135.227 67.1227 135.734 65.8151 136.75 64.7718C137.765 63.7285 139.08 63.2068 140.694 63.2068C142.224 63.2068 143.469 63.7493 144.429 64.8344C145.402 65.9055 145.889 67.1992 145.889 68.7155C145.889 68.9798 145.868 69.251 145.827 69.5292H137.084ZM140.694 64.9178C139.72 64.9178 138.913 65.1961 138.273 65.7525C137.633 66.295 137.237 67.0253 137.084 67.9434H144.053C143.9 66.9558 143.51 66.2046 142.884 65.6899C142.258 65.1752 141.528 64.9178 140.694 64.9178ZM152.859 74.1824C151.287 74.1824 149.98 73.6607 148.936 72.6174C147.893 71.5602 147.371 70.2526 147.371 68.6946C147.371 67.1366 147.893 65.8359 148.936 64.7926C149.98 63.7354 151.287 63.2068 152.859 63.2068C153.889 63.2068 154.814 63.4572 155.634 63.958C156.455 64.4449 157.067 65.1056 157.471 65.9403L155.947 66.8167C155.683 66.2602 155.273 65.8151 154.716 65.4812C154.174 65.1474 153.555 64.9804 152.859 64.9804C151.816 64.9804 150.939 65.3352 150.23 66.0446C149.534 66.7541 149.187 67.6374 149.187 68.6946C149.187 69.7379 149.534 70.6143 150.23 71.3237C150.939 72.0332 151.816 72.3879 152.859 72.3879C153.555 72.3879 154.181 72.2279 154.737 71.908C155.294 71.5741 155.718 71.129 156.01 70.5726L157.554 71.4698C157.109 72.2905 156.469 72.9513 155.634 73.4521C154.8 73.939 153.875 74.1824 152.859 74.1824ZM161.182 65.2308C161.78 63.9371 162.865 63.2903 164.437 63.2903V65.1891C163.547 65.1474 162.782 65.3838 162.142 65.8985C161.502 66.4132 161.182 67.2409 161.182 68.3816V73.9111H159.367V63.4781H161.182V65.2308ZM173.412 63.4781H175.228V73.9111H173.412V72.4088C172.675 73.5912 171.548 74.1824 170.032 74.1824C168.808 74.1824 167.827 73.7998 167.09 73.0348C166.353 72.2558 165.984 71.2055 165.984 69.884V63.4781H167.799V69.7796C167.799 70.6282 168.029 71.289 168.488 71.7619C168.947 72.221 169.58 72.4505 170.387 72.4505C171.291 72.4505 172.021 72.1723 172.578 71.6159C173.134 71.0455 173.412 70.1761 173.412 69.0076V63.4781ZM178.91 61.5793C178.562 61.5793 178.27 61.461 178.033 61.2245C177.797 60.9881 177.678 60.7029 177.678 60.369C177.678 60.0352 177.797 59.75 178.033 59.5135C178.27 59.2631 178.562 59.1379 178.91 59.1379C179.243 59.1379 179.529 59.2631 179.765 59.5135C180.001 59.75 180.12 60.0352 180.12 60.369C180.12 60.7029 180.001 60.9881 179.765 61.2245C179.529 61.461 179.243 61.5793 178.91 61.5793ZM177.991 73.9111V63.4781H179.807V73.9111H177.991ZM188.252 65.2308H185.477V70.8855C185.477 71.4002 185.574 71.7689 185.769 71.9915C185.977 72.2001 186.29 72.3114 186.708 72.3253C187.125 72.3253 187.64 72.3114 188.252 72.2836V73.9111C186.666 74.1198 185.504 73.9946 184.767 73.5355C184.03 73.0626 183.661 72.1792 183.661 70.8855V65.2308H181.596V63.4781H183.661V61.0993L185.477 60.5568V63.4781H188.252V65.2308ZM191.144 69.5292C191.325 70.4613 191.749 71.1846 192.417 71.6993C193.099 72.214 193.933 72.4714 194.921 72.4714C196.298 72.4714 197.3 71.9636 197.926 70.9481L199.47 71.8245C198.454 73.3964 196.924 74.1824 194.879 74.1824C193.224 74.1824 191.874 73.6677 190.831 72.6383C189.802 71.595 189.287 70.2804 189.287 68.6946C189.287 67.1227 189.795 65.8151 190.81 64.7718C191.826 63.7285 193.14 63.2068 194.754 63.2068C196.284 63.2068 197.529 63.7493 198.489 64.8344C199.463 65.9055 199.95 67.1992 199.95 68.7155C199.95 68.9798 199.929 69.251 199.887 69.5292H191.144ZM194.754 64.9178C193.78 64.9178 192.973 65.1961 192.333 65.7525C191.694 66.295 191.297 67.0253 191.144 67.9434H198.113C197.96 66.9558 197.571 66.2046 196.945 65.6899C196.319 65.1752 195.589 64.9178 194.754 64.9178ZM203.852 65.2308C204.45 63.9371 205.535 63.2903 207.107 63.2903V65.1891C206.217 65.1474 205.451 65.3838 204.812 65.8985C204.172 66.4132 203.852 67.2409 203.852 68.3816V73.9111H202.036V63.4781H203.852V65.2308ZM210.061 66.295C210.061 66.6984 210.263 67.0253 210.666 67.2757C211.069 67.5122 211.556 67.7069 212.127 67.86C212.697 67.9991 213.267 68.166 213.838 68.3607C214.408 68.5416 214.895 68.8615 215.298 69.3206C215.702 69.7657 215.903 70.343 215.903 71.0525C215.903 71.9984 215.535 72.7565 214.797 73.3269C214.074 73.8972 213.142 74.1824 212.001 74.1824C210.986 74.1824 210.116 73.9598 209.393 73.5147C208.67 73.0695 208.155 72.4783 207.849 71.7411L209.414 70.8438C209.581 71.3446 209.894 71.7411 210.353 72.0332C210.812 72.3253 211.361 72.4714 212.001 72.4714C212.6 72.4714 213.093 72.3601 213.483 72.1375C213.872 71.901 214.067 71.5394 214.067 71.0525C214.067 70.6491 213.865 70.3291 213.462 70.0926C213.059 69.8422 212.572 69.6475 212.001 69.5084C211.431 69.3554 210.861 69.1815 210.29 68.9867C209.72 68.792 209.233 68.472 208.83 68.0269C208.426 67.5817 208.225 67.0114 208.225 66.3159C208.225 65.4117 208.572 64.6674 209.268 64.0832C209.977 63.4989 210.861 63.2068 211.918 63.2068C212.766 63.2068 213.518 63.4016 214.171 63.7911C214.839 64.1667 215.34 64.6953 215.674 65.3769L214.151 66.2324C213.775 65.3421 213.031 64.897 211.918 64.897C211.403 64.897 210.965 65.0222 210.603 65.2726C210.242 65.509 210.061 65.8499 210.061 66.295Z" fill="#5C27C0"/>
</g>
<g filter="url(#filter3_d_2909_407)">
<rect x="325.686" y="247.785" width="204.314" height="95.6364" rx="13.9107" fill="white" shape-rendering="crispEdges"/>
<path d="M352.394 280.403L347.839 281.272L347.282 278.908L353.472 277.204H355.176V294.696H352.394V280.403ZM362.691 286.002C362.691 286.837 362.818 287.648 363.073 288.436C363.329 289.202 363.711 289.874 364.221 290.454C364.731 291.033 365.346 291.497 366.064 291.845C366.783 292.192 367.618 292.366 368.568 292.366C369.496 292.366 370.319 292.192 371.037 291.845C371.756 291.497 372.359 291.033 372.846 290.454C373.356 289.874 373.738 289.202 373.993 288.436C374.248 287.648 374.376 286.837 374.376 286.002C374.376 285.144 374.248 284.333 373.993 283.568C373.738 282.779 373.356 282.095 372.846 281.516C372.359 280.936 371.756 280.484 371.037 280.16C370.319 279.812 369.496 279.638 368.568 279.638C367.618 279.638 366.783 279.812 366.064 280.16C365.346 280.484 364.731 280.936 364.221 281.516C363.711 282.095 363.329 282.779 363.073 283.568C362.818 284.333 362.691 285.144 362.691 286.002ZM359.735 286.002C359.735 284.727 359.955 283.533 360.396 282.42C360.836 281.307 361.451 280.345 362.239 279.534C363.027 278.699 363.954 278.05 365.021 277.586C366.111 277.099 367.293 276.856 368.568 276.856C369.82 276.856 370.979 277.099 372.046 277.586C373.136 278.05 374.063 278.699 374.828 279.534C375.616 280.345 376.231 281.307 376.671 282.42C377.112 283.533 377.332 284.727 377.332 286.002C377.332 287.254 377.112 288.436 376.671 289.549C376.231 290.662 375.616 291.636 374.828 292.471C374.063 293.305 373.136 293.966 372.046 294.453C370.979 294.917 369.82 295.148 368.568 295.148C367.293 295.148 366.111 294.917 365.021 294.453C363.954 293.966 363.027 293.305 362.239 292.471C361.451 291.636 360.836 290.662 360.396 289.549C359.955 288.436 359.735 287.254 359.735 286.002ZM382.08 270.978H385.001V281.933L394.947 270.978H398.599L389.487 280.925L399.99 294.696H396.338L387.47 283.081L385.001 285.793V294.696H382.08V270.978ZM401.266 284.472H407.526V278.212H410.308V284.472H416.568V287.045H410.308V293.305H407.526V287.045H401.266V284.472Z" fill="#202020"/>
<path d="M352.832 321.968C351.261 321.968 349.953 321.446 348.91 320.403C347.866 319.345 347.345 318.038 347.345 316.48C347.345 314.922 347.866 313.621 348.91 312.578C349.953 311.521 351.261 310.992 352.832 310.992C353.862 310.992 354.787 311.242 355.608 311.743C356.428 312.23 357.04 312.891 357.444 313.725L355.921 314.602C355.656 314.045 355.246 313.6 354.69 313.266C354.147 312.933 353.528 312.766 352.832 312.766C351.789 312.766 350.913 313.12 350.203 313.83C349.508 314.539 349.16 315.423 349.16 316.48C349.16 317.523 349.508 318.399 350.203 319.109C350.913 319.818 351.789 320.173 352.832 320.173C353.528 320.173 354.154 320.013 354.71 319.693C355.267 319.359 355.691 318.914 355.983 318.358L357.527 319.255C357.082 320.076 356.442 320.736 355.608 321.237C354.773 321.724 353.848 321.968 352.832 321.968ZM367.816 311.263H369.631V321.696H367.816V319.902C366.911 321.279 365.597 321.968 363.872 321.968C362.411 321.968 361.166 321.439 360.137 320.382C359.108 319.311 358.593 318.01 358.593 316.48C358.593 314.95 359.108 313.656 360.137 312.599C361.166 311.528 362.411 310.992 363.872 310.992C365.597 310.992 366.911 311.681 367.816 313.058V311.263ZM364.101 320.215C365.159 320.215 366.042 319.86 366.751 319.151C367.461 318.427 367.816 317.537 367.816 316.48C367.816 315.423 367.461 314.539 366.751 313.83C366.042 313.106 365.159 312.745 364.101 312.745C363.058 312.745 362.182 313.106 361.472 313.83C360.763 314.539 360.408 315.423 360.408 316.48C360.408 317.537 360.763 318.427 361.472 319.151C362.182 319.86 363.058 320.215 364.101 320.215ZM377.577 310.992C378.801 310.992 379.782 311.381 380.519 312.16C381.256 312.926 381.625 313.969 381.625 315.29V321.696H379.81V315.395C379.81 314.546 379.58 313.892 379.121 313.433C378.662 312.96 378.029 312.724 377.222 312.724C376.318 312.724 375.588 313.009 375.031 313.579C374.475 314.136 374.197 314.998 374.197 316.167V321.696H372.381V311.263H374.197V312.766C374.934 311.583 376.061 310.992 377.577 310.992ZM392.798 307.09H394.613V321.696H392.798V319.902C391.894 321.279 390.579 321.968 388.854 321.968C387.394 321.968 386.149 321.439 385.119 320.382C384.09 319.311 383.575 318.01 383.575 316.48C383.575 314.95 384.09 313.656 385.119 312.599C386.149 311.528 387.394 310.992 388.854 310.992C390.579 310.992 391.894 311.681 392.798 313.058V307.09ZM389.084 320.215C390.141 320.215 391.024 319.86 391.734 319.151C392.443 318.427 392.798 317.537 392.798 316.48C392.798 315.423 392.443 314.539 391.734 313.83C391.024 313.106 390.141 312.745 389.084 312.745C388.04 312.745 387.164 313.106 386.455 313.83C385.745 314.539 385.39 315.423 385.39 316.48C385.39 317.537 385.745 318.427 386.455 319.151C387.164 319.86 388.04 320.215 389.084 320.215ZM398.282 309.364C397.934 309.364 397.642 309.246 397.405 309.01C397.169 308.773 397.051 308.488 397.051 308.154C397.051 307.82 397.169 307.535 397.405 307.299C397.642 307.048 397.934 306.923 398.282 306.923C398.616 306.923 398.901 307.048 399.137 307.299C399.374 307.535 399.492 307.82 399.492 308.154C399.492 308.488 399.374 308.773 399.137 309.01C398.901 309.246 398.616 309.364 398.282 309.364ZM397.364 321.696V311.263H399.179V321.696H397.364ZM410.587 307.09H412.402V321.696H410.587V319.902C409.683 321.279 408.368 321.968 406.643 321.968C405.183 321.968 403.938 321.439 402.908 320.382C401.879 319.311 401.364 318.01 401.364 316.48C401.364 314.95 401.879 313.656 402.908 312.599C403.938 311.528 405.183 310.992 406.643 310.992C408.368 310.992 409.683 311.681 410.587 313.058V307.09ZM406.873 320.215C407.93 320.215 408.813 319.86 409.523 319.151C410.232 318.427 410.587 317.537 410.587 316.48C410.587 315.423 410.232 314.539 409.523 313.83C408.813 313.106 407.93 312.745 406.873 312.745C405.83 312.745 404.953 313.106 404.244 313.83C403.534 314.539 403.18 315.423 403.18 316.48C403.18 317.537 403.534 318.427 404.244 319.151C404.953 319.86 405.83 320.215 406.873 320.215ZM423.791 311.263H425.607V321.696H423.791V319.902C422.887 321.279 421.573 321.968 419.848 321.968C418.387 321.968 417.142 321.439 416.113 320.382C415.083 319.311 414.569 318.01 414.569 316.48C414.569 314.95 415.083 313.656 416.113 312.599C417.142 311.528 418.387 310.992 419.848 310.992C421.573 310.992 422.887 311.681 423.791 313.058V311.263ZM420.077 320.215C421.134 320.215 422.018 319.86 422.727 319.151C423.437 318.427 423.791 317.537 423.791 316.48C423.791 315.423 423.437 314.539 422.727 313.83C422.018 313.106 421.134 312.745 420.077 312.745C419.034 312.745 418.158 313.106 417.448 313.83C416.739 314.539 416.384 315.423 416.384 316.48C416.384 317.537 416.739 318.427 417.448 319.151C418.158 319.86 419.034 320.215 420.077 320.215ZM434.033 313.016H431.258V318.671C431.258 319.185 431.355 319.554 431.55 319.777C431.758 319.985 432.071 320.097 432.489 320.11C432.906 320.11 433.421 320.097 434.033 320.069V321.696C432.447 321.905 431.285 321.78 430.548 321.321C429.811 320.848 429.442 319.964 429.442 318.671V313.016H427.376V311.263H429.442V308.884L431.258 308.342V311.263H434.033V313.016ZM436.925 317.314C437.106 318.246 437.53 318.97 438.198 319.484C438.879 319.999 439.714 320.257 440.702 320.257C442.079 320.257 443.081 319.749 443.707 318.733L445.251 319.61C444.235 321.182 442.705 321.968 440.66 321.968C439.005 321.968 437.655 321.453 436.612 320.423C435.583 319.38 435.068 318.066 435.068 316.48C435.068 314.908 435.576 313.6 436.591 312.557C437.607 311.514 438.921 310.992 440.535 310.992C442.065 310.992 443.31 311.534 444.27 312.62C445.244 313.691 445.731 314.984 445.731 316.501C445.731 316.765 445.71 317.036 445.668 317.314H436.925ZM440.535 312.703C439.561 312.703 438.754 312.981 438.114 313.538C437.474 314.08 437.078 314.81 436.925 315.729H443.894C443.741 314.741 443.352 313.99 442.726 313.475C442.1 312.96 441.37 312.703 440.535 312.703ZM448.975 314.08C448.975 314.484 449.176 314.81 449.58 315.061C449.983 315.297 450.47 315.492 451.04 315.645C451.611 315.784 452.181 315.951 452.751 316.146C453.322 316.327 453.809 316.647 454.212 317.106C454.616 317.551 454.817 318.128 454.817 318.838C454.817 319.784 454.449 320.542 453.711 321.112C452.988 321.682 452.056 321.968 450.915 321.968C449.9 321.968 449.03 321.745 448.307 321.3C447.584 320.855 447.069 320.263 446.763 319.526L448.328 318.629C448.495 319.13 448.808 319.526 449.267 319.818C449.726 320.11 450.275 320.257 450.915 320.257C451.513 320.257 452.007 320.145 452.397 319.923C452.786 319.686 452.981 319.325 452.981 318.838C452.981 318.434 452.779 318.114 452.376 317.878C451.972 317.627 451.486 317.433 450.915 317.294C450.345 317.141 449.775 316.967 449.204 316.772C448.634 316.577 448.147 316.257 447.744 315.812C447.34 315.367 447.138 314.797 447.138 314.101C447.138 313.197 447.486 312.453 448.182 311.868C448.891 311.284 449.775 310.992 450.832 310.992C451.68 310.992 452.432 311.187 453.085 311.576C453.753 311.952 454.254 312.48 454.588 313.162L453.064 314.018C452.689 313.127 451.945 312.682 450.832 312.682C450.317 312.682 449.879 312.807 449.517 313.058C449.156 313.294 448.975 313.635 448.975 314.08ZM467.379 310.992C468.603 310.992 469.584 311.381 470.321 312.16C471.058 312.926 471.427 313.969 471.427 315.29V321.696H469.611V315.395C469.611 314.546 469.382 313.892 468.923 313.433C468.464 312.96 467.831 312.724 467.024 312.724C466.12 312.724 465.39 313.009 464.833 313.579C464.277 314.136 463.998 314.998 463.998 316.167V321.696H462.183V307.09H463.998V312.766C464.736 311.583 465.863 310.992 467.379 310.992ZM474.879 309.364C474.531 309.364 474.239 309.246 474.003 309.01C473.766 308.773 473.648 308.488 473.648 308.154C473.648 307.82 473.766 307.535 474.003 307.299C474.239 307.048 474.531 306.923 474.879 306.923C475.213 306.923 475.498 307.048 475.735 307.299C475.971 307.535 476.089 307.82 476.089 308.154C476.089 308.488 475.971 308.773 475.735 309.01C475.498 309.246 475.213 309.364 474.879 309.364ZM473.961 321.696V311.263H475.776V321.696H473.961ZM480.361 313.016C480.959 311.722 482.044 311.075 483.616 311.075V312.974C482.726 312.933 481.961 313.169 481.321 313.684C480.681 314.198 480.361 315.026 480.361 316.167V321.696H478.546V311.263H480.361V313.016ZM486.095 317.314C486.276 318.246 486.7 318.97 487.368 319.484C488.049 319.999 488.884 320.257 489.872 320.257C491.249 320.257 492.25 319.749 492.876 318.733L494.42 319.61C493.405 321.182 491.875 321.968 489.83 321.968C488.175 321.968 486.825 321.453 485.782 320.423C484.752 319.38 484.238 318.066 484.238 316.48C484.238 314.908 484.746 313.6 485.761 312.557C486.777 311.514 488.091 310.992 489.705 310.992C491.235 310.992 492.48 311.534 493.44 312.62C494.414 313.691 494.9 314.984 494.9 316.501C494.9 316.765 494.88 317.036 494.838 317.314H486.095ZM489.705 312.703C488.731 312.703 487.924 312.981 487.284 313.538C486.644 314.08 486.248 314.81 486.095 315.729H493.064C492.911 314.741 492.522 313.99 491.896 313.475C491.27 312.96 490.539 312.703 489.705 312.703ZM505.605 307.09H507.421V321.696H505.605V319.902C504.701 321.279 503.387 321.968 501.662 321.968C500.201 321.968 498.956 321.439 497.927 320.382C496.897 319.311 496.383 318.01 496.383 316.48C496.383 314.95 496.897 313.656 497.927 312.599C498.956 311.528 500.201 310.992 501.662 310.992C503.387 310.992 504.701 311.681 505.605 313.058V307.09ZM501.891 320.215C502.948 320.215 503.832 319.86 504.541 319.151C505.251 318.427 505.605 317.537 505.605 316.48C505.605 315.423 505.251 314.539 504.541 313.83C503.832 313.106 502.948 312.745 501.891 312.745C500.848 312.745 499.971 313.106 499.262 313.83C498.553 314.539 498.198 315.423 498.198 316.48C498.198 317.537 498.553 318.427 499.262 319.151C499.971 319.86 500.848 320.215 501.891 320.215Z" fill="#5C27C0"/>
</g>
<path d="M166 218L202.453 195.135C203.952 194.195 205.686 193.696 207.455 193.696L228.462 193.696C229.234 193.696 230.003 193.602 230.752 193.414L256.595 186.934C257.359 186.742 258.096 186.455 258.789 186.08L289.046 169.687C289.451 169.468 289.871 169.279 290.303 169.121L309.903 161.967C310.937 161.59 312.029 161.397 313.131 161.397L330.524 161.397C333.09 161.397 335.544 160.35 337.319 158.498L353.288 141.835L372.577 126.14L389.008 108.663" stroke="url(#paint0_linear_2909_407)" stroke-width="4.5584" stroke-linecap="round"/>
<circle cx="391.396" cy="107.395" r="6.79492" fill="white" stroke="#5C27C0" stroke-width="3.2"/>
<path d="M114.136 427.416C114.136 427.949 114.424 428.376 115 428.696C115.597 428.995 116.312 429.261 117.144 429.496C117.997 429.709 118.85 429.965 119.704 430.264C120.557 430.563 121.272 431.075 121.848 431.8C122.445 432.504 122.744 433.4 122.744 434.488C122.744 436.024 122.146 437.229 120.952 438.104C119.778 438.979 118.296 439.416 116.504 439.416C114.925 439.416 113.57 439.085 112.44 438.424C111.309 437.763 110.488 436.845 109.976 435.672L112.952 433.944C113.506 435.48 114.69 436.248 116.504 436.248C118.317 436.248 119.224 435.651 119.224 434.456C119.224 433.944 118.925 433.528 118.328 433.208C117.752 432.888 117.037 432.621 116.184 432.408C115.352 432.173 114.509 431.907 113.656 431.608C112.802 431.309 112.077 430.819 111.48 430.136C110.904 429.432 110.616 428.547 110.616 427.48C110.616 426.008 111.17 424.824 112.28 423.928C113.41 423.032 114.808 422.584 116.472 422.584C117.794 422.584 118.968 422.883 119.992 423.48C121.037 424.056 121.837 424.867 122.392 425.912L119.48 427.544C118.925 426.328 117.922 425.72 116.472 425.72C115.81 425.72 115.256 425.869 114.808 426.168C114.36 426.445 114.136 426.861 114.136 427.416ZM143.589 423H147.237L142.213 439H138.821L135.493 428.216L132.133 439H128.741L123.717 423H127.365L130.469 434.04L133.829 423H137.125L140.453 434.04L143.589 423ZM153.046 419.96C152.619 420.387 152.107 420.6 151.51 420.6C150.912 420.6 150.39 420.387 149.942 419.96C149.515 419.512 149.302 418.989 149.302 418.392C149.302 417.795 149.515 417.283 149.942 416.856C150.368 416.408 150.891 416.184 151.51 416.184C152.128 416.184 152.651 416.408 153.078 416.856C153.504 417.283 153.718 417.795 153.718 418.392C153.718 418.989 153.494 419.512 153.046 419.96ZM149.782 439V423H153.238V439H149.782ZM166.178 426.328H162.21V434.008C162.21 434.669 162.36 435.149 162.658 435.448C162.957 435.725 163.394 435.885 163.97 435.928C164.568 435.949 165.304 435.939 166.178 435.896V439C163.533 439.32 161.634 439.096 160.482 438.328C159.33 437.539 158.754 436.099 158.754 434.008V426.328H155.81V423H158.754V419.544L162.21 418.52V423H166.178V426.328ZM176.209 439.416C173.798 439.416 171.782 438.605 170.161 436.984C168.561 435.363 167.761 433.368 167.761 431C167.761 428.611 168.561 426.616 170.161 425.016C171.782 423.395 173.798 422.584 176.209 422.584C177.766 422.584 179.185 422.957 180.465 423.704C181.745 424.451 182.705 425.453 183.345 426.712L180.369 428.44C180.006 427.672 179.451 427.075 178.705 426.648C177.979 426.2 177.137 425.976 176.177 425.976C174.769 425.976 173.585 426.456 172.625 427.416C171.686 428.376 171.217 429.571 171.217 431C171.217 432.429 171.686 433.624 172.625 434.584C173.585 435.544 174.769 436.024 176.177 436.024C177.115 436.024 177.958 435.8 178.705 435.352C179.473 434.904 180.049 434.307 180.433 433.56L183.409 435.256C182.726 436.536 181.745 437.549 180.465 438.296C179.185 439.043 177.766 439.416 176.209 439.416ZM194.323 422.584C196.157 422.584 197.64 423.171 198.771 424.344C199.901 425.517 200.467 427.128 200.467 429.176V439H197.011V429.528C197.011 428.333 196.691 427.416 196.051 426.776C195.411 426.136 194.536 425.816 193.427 425.816C192.211 425.816 191.229 426.2 190.483 426.968C189.736 427.715 189.363 428.867 189.363 430.424V439H185.907V416.6H189.363V425.048C190.408 423.405 192.061 422.584 194.323 422.584ZM221.116 426.328H217.148V434.008C217.148 434.669 217.297 435.149 217.596 435.448C217.895 435.725 218.332 435.885 218.908 435.928C219.505 435.949 220.241 435.939 221.116 435.896V439C218.471 439.32 216.572 439.096 215.42 438.328C214.268 437.539 213.692 436.099 213.692 434.008V426.328H210.748V423H213.692V419.544L217.148 418.52V423H221.116V426.328ZM231.146 439.416C228.799 439.416 226.805 438.605 225.162 436.984C223.519 435.363 222.698 433.368 222.698 431C222.698 428.632 223.519 426.637 225.162 425.016C226.805 423.395 228.799 422.584 231.146 422.584C233.514 422.584 235.509 423.395 237.13 425.016C238.773 426.637 239.594 428.632 239.594 431C239.594 433.368 238.773 435.363 237.13 436.984C235.509 438.605 233.514 439.416 231.146 439.416ZM227.594 434.616C228.554 435.576 229.738 436.056 231.146 436.056C232.554 436.056 233.738 435.576 234.698 434.616C235.658 433.656 236.138 432.451 236.138 431C236.138 429.549 235.658 428.344 234.698 427.384C233.738 426.424 232.554 425.944 231.146 425.944C229.738 425.944 228.554 426.424 227.594 427.384C226.634 428.344 226.154 429.549 226.154 431C226.154 432.451 226.634 433.656 227.594 434.616ZM253.823 427.416C253.823 427.949 254.111 428.376 254.687 428.696C255.284 428.995 255.999 429.261 256.831 429.496C257.684 429.709 258.538 429.965 259.391 430.264C260.244 430.563 260.959 431.075 261.535 431.8C262.132 432.504 262.431 433.4 262.431 434.488C262.431 436.024 261.834 437.229 260.639 438.104C259.466 438.979 257.983 439.416 256.191 439.416C254.612 439.416 253.258 439.085 252.127 438.424C250.996 437.763 250.175 436.845 249.663 435.672L252.639 433.944C253.194 435.48 254.378 436.248 256.191 436.248C258.004 436.248 258.911 435.651 258.911 434.456C258.911 433.944 258.612 433.528 258.015 433.208C257.439 432.888 256.724 432.621 255.871 432.408C255.039 432.173 254.196 431.907 253.343 431.608C252.49 431.309 251.764 430.819 251.167 430.136C250.591 429.432 250.303 428.547 250.303 427.48C250.303 426.008 250.858 424.824 251.967 423.928C253.098 423.032 254.495 422.584 256.159 422.584C257.482 422.584 258.655 422.883 259.679 423.48C260.724 424.056 261.524 424.867 262.079 425.912L259.167 427.544C258.612 426.328 257.61 425.72 256.159 425.72C255.498 425.72 254.943 425.869 254.495 426.168C254.047 426.445 253.823 426.861 253.823 427.416ZM282.941 422.584C284.754 422.584 286.216 423.171 287.325 424.344C288.434 425.517 288.989 427.096 288.989 429.08V439H285.533V429.304C285.533 428.195 285.256 427.341 284.701 426.744C284.146 426.125 283.389 425.816 282.429 425.816C281.362 425.816 280.509 426.168 279.869 426.872C279.25 427.576 278.941 428.632 278.941 430.04V439H275.485V429.304C275.485 428.195 275.218 427.341 274.685 426.744C274.173 426.125 273.437 425.816 272.477 425.816C271.432 425.816 270.578 426.179 269.917 426.904C269.256 427.608 268.925 428.653 268.925 430.04V439H265.469V423H268.925V424.92C269.949 423.363 271.474 422.584 273.501 422.584C275.549 422.584 277.064 423.427 278.045 425.112C279.112 423.427 280.744 422.584 282.941 422.584ZM305.36 423H308.816V439H305.36V436.696C304.059 438.509 302.192 439.416 299.76 439.416C297.563 439.416 295.685 438.605 294.128 436.984C292.571 435.341 291.792 433.347 291.792 431C291.792 428.632 292.571 426.637 294.128 425.016C295.685 423.395 297.563 422.584 299.76 422.584C302.192 422.584 304.059 423.48 305.36 425.272V423ZM296.688 434.68C297.648 435.64 298.853 436.12 300.304 436.12C301.755 436.12 302.96 435.64 303.92 434.68C304.88 433.699 305.36 432.472 305.36 431C305.36 429.528 304.88 428.312 303.92 427.352C302.96 426.371 301.755 425.88 300.304 425.88C298.853 425.88 297.648 426.371 296.688 427.352C295.728 428.312 295.248 429.528 295.248 431C295.248 432.472 295.728 433.699 296.688 434.68ZM316.3 425.688C317.175 423.704 318.817 422.712 321.228 422.712V426.456C319.905 426.371 318.753 426.691 317.772 427.416C316.791 428.12 316.3 429.293 316.3 430.936V439H312.844V423H316.3V425.688ZM333.116 426.328H329.148V434.008C329.148 434.669 329.297 435.149 329.596 435.448C329.895 435.725 330.332 435.885 330.908 435.928C331.505 435.949 332.241 435.939 333.116 435.896V439C330.471 439.32 328.572 439.096 327.42 438.328C326.268 437.539 325.692 436.099 325.692 434.008V426.328H322.748V423H325.692V419.544L329.148 418.52V423H333.116V426.328ZM352.823 422.584C354.657 422.584 356.14 423.171 357.271 424.344C358.401 425.517 358.967 427.128 358.967 429.176V439H355.511V429.528C355.511 428.333 355.191 427.416 354.551 426.776C353.911 426.136 353.036 425.816 351.927 425.816C350.711 425.816 349.729 426.2 348.983 426.968C348.236 427.715 347.863 428.867 347.863 430.424V439H344.407V416.6H347.863V425.048C348.908 423.405 350.561 422.584 352.823 422.584ZM365.952 419.96C365.525 420.387 365.013 420.6 364.416 420.6C363.819 420.6 363.296 420.387 362.848 419.96C362.421 419.512 362.208 418.989 362.208 418.392C362.208 417.795 362.421 417.283 362.848 416.856C363.275 416.408 363.797 416.184 364.416 416.184C365.035 416.184 365.557 416.408 365.984 416.856C366.411 417.283 366.624 417.795 366.624 418.392C366.624 418.989 366.4 419.512 365.952 419.96ZM362.688 439V423H366.144V439H362.688ZM373.613 425.688C374.487 423.704 376.13 422.712 378.541 422.712V426.456C377.218 426.371 376.066 426.691 375.085 427.416C374.103 428.12 373.613 429.293 373.613 430.936V439H370.157V423H373.613V425.688ZM384.358 419.96C383.931 420.387 383.419 420.6 382.822 420.6C382.225 420.6 381.702 420.387 381.254 419.96C380.827 419.512 380.614 418.989 380.614 418.392C380.614 417.795 380.827 417.283 381.254 416.856C381.681 416.408 382.203 416.184 382.822 416.184C383.441 416.184 383.963 416.408 384.39 416.856C384.817 417.283 385.03 417.795 385.03 418.392C385.03 418.989 384.806 419.512 384.358 419.96ZM381.094 439V423H384.55V439H381.094ZM396.979 422.584C398.814 422.584 400.296 423.171 401.427 424.344C402.558 425.517 403.123 427.128 403.123 429.176V439H399.667V429.528C399.667 428.333 399.347 427.416 398.707 426.776C398.067 426.136 397.192 425.816 396.083 425.816C394.867 425.816 393.886 426.2 393.139 426.968C392.392 427.715 392.019 428.867 392.019 430.424V439H388.563V423H392.019V425.048C393.064 423.405 394.718 422.584 396.979 422.584ZM419.58 423H422.972V438.264C422.972 440.696 422.172 442.563 420.572 443.864C418.972 445.165 417.031 445.816 414.748 445.816C411.057 445.816 408.529 444.525 407.164 441.944L410.14 440.216C410.972 441.859 412.529 442.68 414.812 442.68C416.305 442.68 417.468 442.285 418.3 441.496C419.153 440.728 419.58 439.651 419.58 438.264V436.312C418.279 438.168 416.423 439.096 414.012 439.096C411.751 439.096 409.841 438.296 408.284 436.696C406.727 435.075 405.948 433.123 405.948 430.84C405.948 428.557 406.727 426.616 408.284 425.016C409.841 423.395 411.751 422.584 414.012 422.584C416.423 422.584 418.279 423.512 419.58 425.368V423ZM410.844 434.424C411.825 435.384 413.041 435.864 414.492 435.864C415.943 435.864 417.148 435.384 418.108 434.424C419.089 433.464 419.58 432.269 419.58 430.84C419.58 429.411 419.089 428.216 418.108 427.256C417.148 426.296 415.943 425.816 414.492 425.816C413.041 425.816 411.825 426.296 410.844 427.256C409.884 428.216 409.404 429.411 409.404 430.84C409.404 432.269 409.884 433.464 410.844 434.424ZM130.027 476V452.64H131.627V476H130.027ZM143.758 459.648C146.104 459.648 148.003 460.48 149.454 462.144C150.926 463.808 151.662 465.781 151.662 468.064C151.662 468.149 151.651 468.277 151.63 468.448C151.63 468.619 151.63 468.747 151.63 468.832H137.134C137.326 470.624 138.04 472.075 139.278 473.184C140.536 474.272 142.083 474.816 143.918 474.816C145.198 474.816 146.318 474.549 147.278 474.016C148.238 473.483 148.963 472.779 149.454 471.904L150.862 472.736C150.2 473.845 149.262 474.731 148.046 475.392C146.83 476.032 145.443 476.352 143.886 476.352C141.432 476.352 139.416 475.573 137.838 474.016C136.259 472.437 135.47 470.432 135.47 468C135.47 465.611 136.238 463.627 137.774 462.048C139.331 460.448 141.326 459.648 143.758 459.648ZM143.758 461.184C141.944 461.184 140.43 461.749 139.214 462.88C137.998 464.011 137.304 465.472 137.134 467.264H149.998C149.827 465.365 149.144 463.883 147.95 462.816C146.776 461.728 145.379 461.184 143.758 461.184ZM163.125 461.568H158.357V471.968C158.357 472.885 158.527 473.547 158.869 473.952C159.21 474.357 159.733 474.592 160.437 474.656C161.141 474.699 162.037 474.667 163.125 474.56V476C160.97 476.32 159.359 476.171 158.293 475.552C157.247 474.933 156.725 473.739 156.725 471.968V461.568H153.205V460H156.725V456L158.357 455.52V460H163.125V461.568ZM190.887 476L188.711 470.304H177.479L175.303 476H173.511L182.215 453.6H184.007L192.679 476H190.887ZM178.119 468.704H188.103L183.111 455.68L178.119 468.704ZM195.94 453.6H197.636V476H195.94V453.6ZM211.402 476V452.64H213.002V476H211.402ZM225.133 459.648C227.479 459.648 229.378 460.48 230.829 462.144C232.301 463.808 233.037 465.781 233.037 468.064C233.037 468.149 233.026 468.277 233.005 468.448C233.005 468.619 233.005 468.747 233.005 468.832H218.509C218.701 470.624 219.415 472.075 220.653 473.184C221.911 474.272 223.458 474.816 225.293 474.816C226.573 474.816 227.693 474.549 228.653 474.016C229.613 473.483 230.338 472.779 230.829 471.904L232.237 472.736C231.575 473.845 230.637 474.731 229.421 475.392C228.205 476.032 226.818 476.352 225.261 476.352C222.807 476.352 220.791 475.573 219.213 474.016C217.634 472.437 216.845 470.432 216.845 468C216.845 465.611 217.613 463.627 219.149 462.048C220.706 460.448 222.701 459.648 225.133 459.648ZM225.133 461.184C223.319 461.184 221.805 461.749 220.589 462.88C219.373 464.011 218.679 465.472 218.509 467.264H231.373C231.202 465.365 230.519 463.883 229.325 462.816C228.151 461.728 226.754 461.184 225.133 461.184ZM250.857 460H252.489V476H250.857V472.384C250.174 473.621 249.235 474.592 248.041 475.296C246.846 476 245.491 476.352 243.977 476.352C241.694 476.352 239.742 475.552 238.121 473.952C236.499 472.331 235.689 470.347 235.689 468C235.689 465.653 236.499 463.68 238.121 462.08C239.742 460.459 241.694 459.648 243.977 459.648C245.491 459.648 246.846 460 248.041 460.704C249.235 461.408 250.174 462.379 250.857 463.616V460ZM239.273 472.832C240.595 474.155 242.206 474.816 244.105 474.816C246.003 474.816 247.603 474.155 248.905 472.832C250.206 471.509 250.857 469.899 250.857 468C250.857 466.101 250.206 464.491 248.905 463.168C247.603 461.845 246.003 461.184 244.105 461.184C242.206 461.184 240.595 461.845 239.273 463.168C237.971 464.491 237.321 466.101 237.321 468C237.321 469.899 237.971 471.509 239.273 472.832ZM271.514 453.6H273.114V476H271.514V472.288C270.852 473.547 269.914 474.539 268.698 475.264C267.503 475.989 266.148 476.352 264.634 476.352C262.33 476.352 260.367 475.552 258.746 473.952C257.146 472.331 256.346 470.347 256.346 468C256.346 465.653 257.146 463.68 258.746 462.08C260.367 460.459 262.33 459.648 264.634 459.648C266.148 459.648 267.503 460.011 268.698 460.736C269.914 461.461 270.852 462.453 271.514 463.712V453.6ZM259.898 472.832C261.22 474.155 262.831 474.816 264.73 474.816C266.628 474.816 268.228 474.155 269.53 472.832C270.852 471.509 271.514 469.899 271.514 468C271.514 466.101 270.852 464.491 269.53 463.168C268.228 461.845 266.628 461.184 264.73 461.184C262.831 461.184 261.22 461.845 259.898 463.168C258.596 464.491 257.946 466.101 257.946 468C257.946 469.899 258.596 471.509 259.898 472.832ZM294.75 461.568H289.982V471.968C289.982 472.885 290.152 473.547 290.494 473.952C290.835 474.357 291.358 474.592 292.062 474.656C292.766 474.699 293.662 474.667 294.75 474.56V476C292.595 476.32 290.984 476.171 289.918 475.552C288.872 474.933 288.35 473.739 288.35 471.968V461.568H284.83V460H288.35V456L289.982 455.52V460H294.75V461.568ZM305.917 459.648C307.816 459.648 309.32 460.235 310.429 461.408C311.56 462.56 312.125 464.107 312.125 466.048V476H310.493V466.048C310.493 464.555 310.077 463.371 309.245 462.496C308.434 461.621 307.282 461.184 305.789 461.184C304.146 461.184 302.802 461.728 301.757 462.816C300.712 463.904 300.189 465.483 300.189 467.552V476H298.589V453.6H300.189V463.04C301.341 460.779 303.25 459.648 305.917 459.648ZM323.852 459.648C326.198 459.648 328.097 460.48 329.548 462.144C331.02 463.808 331.756 465.781 331.756 468.064C331.756 468.149 331.745 468.277 331.724 468.448C331.724 468.619 331.724 468.747 331.724 468.832H317.228C317.42 470.624 318.134 472.075 319.372 473.184C320.63 474.272 322.177 474.816 324.012 474.816C325.292 474.816 326.412 474.549 327.372 474.016C328.332 473.483 329.057 472.779 329.548 471.904L330.956 472.736C330.294 473.845 329.356 474.731 328.14 475.392C326.924 476.032 325.537 476.352 323.98 476.352C321.526 476.352 319.51 475.573 317.932 474.016C316.353 472.437 315.564 470.432 315.564 468C315.564 465.611 316.332 463.627 317.868 462.048C319.425 460.448 321.42 459.648 323.852 459.648ZM323.852 461.184C322.038 461.184 320.524 461.749 319.308 462.88C318.092 464.011 317.398 465.472 317.228 467.264H330.092C329.921 465.365 329.238 463.883 328.044 462.816C326.87 461.728 325.473 461.184 323.852 461.184ZM363.451 460H365.147L360.091 476H358.331L353.883 462.368L349.435 476H347.675L342.618 460H344.315L348.571 473.92L353.051 460H354.715L359.194 473.92L363.451 460ZM382.107 460H383.739V476H382.107V472.384C381.424 473.621 380.485 474.592 379.291 475.296C378.096 476 376.741 476.352 375.227 476.352C372.944 476.352 370.992 475.552 369.371 473.952C367.749 472.331 366.939 470.347 366.939 468C366.939 465.653 367.749 463.68 369.371 462.08C370.992 460.459 372.944 459.648 375.227 459.648C376.741 459.648 378.096 460 379.291 460.704C380.485 461.408 381.424 462.379 382.107 463.616V460ZM370.523 472.832C371.845 474.155 373.456 474.816 375.355 474.816C377.253 474.816 378.853 474.155 380.155 472.832C381.456 471.509 382.107 469.899 382.107 468C382.107 466.101 381.456 464.491 380.155 463.168C378.853 461.845 377.253 461.184 375.355 461.184C373.456 461.184 371.845 461.845 370.523 463.168C369.221 464.491 368.571 466.101 368.571 468C368.571 469.899 369.221 471.509 370.523 472.832ZM400.364 460H402.092L395.18 477.472C394.561 479.051 393.686 480.288 392.556 481.184C391.425 482.101 390.188 482.507 388.844 482.4V480.896C389.868 480.981 390.785 480.683 391.596 480C392.428 479.339 393.1 478.389 393.612 477.152L393.964 476.288L386.604 460H388.332L394.796 474.24L400.364 460ZM404.073 475.904C403.796 476.181 403.454 476.32 403.049 476.32C402.644 476.32 402.302 476.181 402.025 475.904C401.748 475.627 401.609 475.285 401.609 474.88C401.609 474.475 401.748 474.133 402.025 473.856C402.302 473.579 402.644 473.44 403.049 473.44C403.454 473.44 403.796 473.579 404.073 473.856C404.35 474.133 404.489 474.475 404.489 474.88C404.489 475.285 404.35 475.627 404.073 475.904Z" fill="white"/>
<defs>
<filter id="filter0_d_2909_407" x="94.3379" y="50.4258" width="341.857" height="222.724" filterUnits="userSpaceOnUse" color-interpolation-filters="sRGB">
<feFlood flood-opacity="0" result="BackgroundImageFix"/>
<feColorMatrix in="SourceAlpha" type="matrix" values="0 0 0 0 0 0 0 0 0 0 0 0 0 0 0 0 0 0 127 0" result="hardAlpha"/>
<feOffset dy="4"/>
<feGaussianBlur stdDeviation="2"/>
<feComposite in2="hardAlpha" operator="out"/>
<feColorMatrix type="matrix" values="0 0 0 0 0 0 0 0 0 0 0 0 0 0 0 0 0 0 0.24 0"/>
<feBlend mode="normal" in2="BackgroundImageFix" result="effect1_dropShadow_2909_407"/>
<feBlend mode="normal" in="SourceGraphic" in2="effect1_dropShadow_2909_407" result="shape"/>
</filter>
<filter id="filter1_bd_2909_407" x="71.9683" y="32.9906" width="386.597" height="277.364" filterUnits="userSpaceOnUse" color-interpolation-filters="sRGB">
<feFlood flood-opacity="0" result="BackgroundImageFix"/>
<feGaussianBlur in="BackgroundImageFix" stdDeviation="8.71757"/>
<feComposite in2="SourceAlpha" operator="in" result="effect1_backgroundBlur_2909_407"/>
<feColorMatrix in="SourceAlpha" type="matrix" values="0 0 0 0 0 0 0 0 0 0 0 0 0 0 0 0 0 0 127 0" result="hardAlpha"/>
<feOffset dy="18.8354"/>
<feGaussianBlur stdDeviation="13.1848"/>
<feComposite in2="hardAlpha" operator="out"/>
<feColorMatrix type="matrix" values="0 0 0 0 0 0 0 0 0 0 0 0 0 0 0 0 0 0 0.09 0"/>
<feBlend mode="normal" in2="effect1_backgroundBlur_2909_407" result="effect2_dropShadow_2909_407"/>
<feBlend mode="normal" in="SourceGraphic" in2="effect2_dropShadow_2909_407" result="shape"/>
</filter>
<filter id="filter2_d_2909_407" x="0.522314" y="0" width="240.829" height="102.592" filterUnits="userSpaceOnUse" color-interpolation-filters="sRGB">
<feFlood flood-opacity="0" result="BackgroundImageFix"/>
<feColorMatrix in="SourceAlpha" type="matrix" values="0 0 0 0 0 0 0 0 0 0 0 0 0 0 0 0 0 0 127 0" result="hardAlpha"/>
<feOffset dy="3.47769"/>
<feGaussianBlur stdDeviation="1.73884"/>
<feComposite in2="hardAlpha" operator="out"/>
<feColorMatrix type="matrix" values="0 0 0 0 0 0 0 0 0 0 0 0 0 0 0 0 0 0 0.16 0"/>
<feBlend mode="normal" in2="BackgroundImageFix" result="effect1_dropShadow_2909_407"/>
<feBlend mode="normal" in="SourceGraphic" in2="effect1_dropShadow_2909_407" result="shape"/>
</filter>
<filter id="filter3_d_2909_407" x="322.208" y="240.83" width="211.27" height="102.592" filterUnits="userSpaceOnUse" color-interpolation-filters="sRGB">
<feFlood flood-opacity="0" result="BackgroundImageFix"/>
<feColorMatrix in="SourceAlpha" type="matrix" values="0 0 0 0 0 0 0 0 0 0 0 0 0 0 0 0 0 0 127 0" result="hardAlpha"/>
<feOffset dy="-3.47769"/>
<feGaussianBlur stdDeviation="1.73884"/>
<feComposite in2="hardAlpha" operator="out"/>
<feColorMatrix type="matrix" values="0 0 0 0 0 0 0 0 0 0 0 0 0 0 0 0 0 0 0.16 0"/>
<feBlend mode="normal" in2="BackgroundImageFix" result="effect1_dropShadow_2909_407"/>
<feBlend mode="normal" in="SourceGraphic" in2="effect1_dropShadow_2909_407" result="shape"/>
</filter>
<linearGradient id="paint0_linear_2909_407" x1="271.31" y1="62.7335" x2="192.465" y2="226.08" gradientUnits="userSpaceOnUse">
<stop stop-color="#5C27C0"/>
<stop offset="1" stop-color="#F5F5F7"/>
</linearGradient>
</defs>
</svg>
