<svg width="242" height="103" viewBox="0 0 242 103" fill="none" xmlns="http://www.w3.org/2000/svg">
<g filter="url(#filter0_d_2743_1588)">
<rect x="4" width="233.874" height="95.6364" rx="13.9107" fill="white" shape-rendering="crispEdges"/>
<path d="M33.2071 38.0702L32.8094 39.4736H25.3605L25.7583 38.0702H33.2071ZM29.5821 46.9111L25.5139 41.9736L25.5026 40.8657H27.5196C28.0234 40.8657 28.4495 40.788 28.798 40.6327C29.1465 40.4774 29.4117 40.252 29.5935 39.9566C29.7753 39.6573 29.8662 39.2937 29.8662 38.8657C29.8662 38.2293 29.6768 37.7236 29.298 37.3486C28.9192 36.9736 28.3264 36.7861 27.5196 36.7861H25.3605L25.7753 35.2748H27.5196C28.459 35.2748 29.2336 35.4244 29.8435 35.7236C30.4533 36.0229 30.9079 36.4376 31.2071 36.968C31.5064 37.4983 31.656 38.11 31.656 38.8032C31.656 39.4206 31.5329 39.9793 31.2867 40.4793C31.0405 40.9793 30.6484 41.3865 30.1105 41.7009C29.5727 42.0153 28.8662 42.199 27.9912 42.252L27.9401 42.2634L31.656 46.8145V46.9111H29.5821ZM33.2128 35.2748L32.8094 36.6895L26.8548 36.6555L27.2583 35.2748H33.2128ZM41.9346 29.4184H52.9589V31.8528H44.5081L43.8821 39.608C44.1371 39.5384 44.4038 39.4805 44.682 39.4341C44.9602 39.3646 45.2732 39.3182 45.621 39.295C45.9687 39.2486 46.3513 39.2254 46.7686 39.2254C48.9479 39.2254 50.6752 39.8051 51.9503 40.9643C53.2255 42.1235 53.8631 43.8624 53.8631 46.1808C53.8631 47.6878 53.6312 48.9282 53.1675 49.9019C52.7038 50.8757 52.0895 51.6408 51.3244 52.1972C50.5593 52.7536 49.6899 53.1362 48.7161 53.3449C47.7655 53.5767 46.7918 53.6926 45.7948 53.6926C43.5228 53.6463 41.297 53.0087 39.1177 51.7799L40.0567 49.4498C42.2824 50.6554 44.2067 51.2582 45.8296 51.2582C47.638 51.2582 48.9364 50.8177 49.7246 49.9367C50.5129 49.0789 50.907 47.8269 50.907 46.1808C50.907 45.5085 50.8259 44.8941 50.6636 44.3376C50.5013 43.7812 50.2463 43.3059 49.8985 42.9118C49.5507 42.5177 49.0871 42.2163 48.5074 42.0076C47.951 41.7757 47.2671 41.6598 46.4556 41.6598C45.8992 41.6598 45.3659 41.7062 44.8559 41.7989C44.3458 41.8685 43.8705 41.9612 43.43 42.0771C43.0127 42.1931 42.607 42.3322 42.2128 42.4945L40.8565 42.2858L41.9346 29.4184ZM59.9895 38.2169C59.9895 39.0516 60.117 39.863 60.3721 40.6513C60.6271 41.4164 61.0096 42.0887 61.5197 42.6684C62.0298 43.248 62.6441 43.7117 63.3629 44.0594C64.0816 44.4072 64.9162 44.5811 65.8668 44.5811C66.7942 44.5811 67.6172 44.4072 68.336 44.0594C69.0547 43.7117 69.6575 43.248 70.1444 42.6684C70.6544 42.0887 71.037 41.4164 71.292 40.6513C71.547 39.863 71.6745 39.0516 71.6745 38.2169C71.6745 37.3591 71.547 36.5476 71.292 35.7825C71.037 34.9943 70.6544 34.3103 70.1444 33.7307C69.6575 33.1511 69.0547 32.699 68.336 32.3744C67.6172 32.0266 66.7942 31.8528 65.8668 31.8528C64.9162 31.8528 64.0816 32.0266 63.3629 32.3744C62.6441 32.699 62.0298 33.1511 61.5197 33.7307C61.0096 34.3103 60.6271 34.9943 60.3721 35.7825C60.117 36.5476 59.9895 37.3591 59.9895 38.2169ZM57.0335 38.2169C57.0335 36.9418 57.2537 35.7478 57.6942 34.6349C58.1347 33.522 58.7491 32.5599 59.5374 31.7484C60.3257 30.9138 61.2531 30.2646 62.3196 29.8009C63.4092 29.314 64.5916 29.0706 65.8668 29.0706C67.1188 29.0706 68.278 29.314 69.3445 29.8009C70.4342 30.2646 71.3615 30.9138 72.1266 31.7484C72.9149 32.5599 73.5293 33.522 73.9698 34.6349C74.4103 35.7478 74.6306 36.9418 74.6306 38.2169C74.6306 39.4689 74.4103 40.6513 73.9698 41.7642C73.5293 42.877 72.9149 43.8508 72.1266 44.6854C71.3615 45.5201 70.4342 46.1808 69.3445 46.6677C68.278 47.1314 67.1188 47.3632 65.8668 47.3632C64.5916 47.3632 63.4092 47.1314 62.3196 46.6677C61.2531 46.1808 60.3257 45.5201 59.5374 44.6854C58.7491 43.8508 58.1347 42.877 57.6942 41.7642C57.2537 40.6513 57.0335 39.4689 57.0335 38.2169ZM78.7869 42.3901H81.743L79.7955 51.3626L77.6045 50.9452L78.7869 42.3901ZM88.3136 38.2169C88.3136 39.0516 88.4411 39.863 88.6962 40.6513C88.9512 41.4164 89.3338 42.0887 89.8438 42.6684C90.3539 43.248 90.9683 43.7117 91.687 44.0594C92.4057 44.4072 93.2404 44.5811 94.1909 44.5811C95.1183 44.5811 95.9414 44.4072 96.6601 44.0594C97.3788 43.7117 97.9816 43.248 98.4685 42.6684C98.9785 42.0887 99.3611 41.4164 99.6161 40.6513C99.8711 39.863 99.9987 39.0516 99.9987 38.2169C99.9987 37.3591 99.8711 36.5476 99.6161 35.7825C99.3611 34.9943 98.9785 34.3103 98.4685 33.7307C97.9816 33.1511 97.3788 32.699 96.6601 32.3744C95.9414 32.0266 95.1183 31.8528 94.1909 31.8528C93.2404 31.8528 92.4057 32.0266 91.687 32.3744C90.9683 32.699 90.3539 33.1511 89.8438 33.7307C89.3338 34.3103 88.9512 34.9943 88.6962 35.7825C88.4411 36.5476 88.3136 37.3591 88.3136 38.2169ZM85.3576 38.2169C85.3576 36.9418 85.5778 35.7478 86.0184 34.6349C86.4589 33.522 87.0733 32.5599 87.8615 31.7484C88.6498 30.9138 89.5772 30.2646 90.6437 29.8009C91.7334 29.314 92.9158 29.0706 94.1909 29.0706C95.4429 29.0706 96.6021 29.314 97.6686 29.8009C98.7583 30.2646 99.6857 30.9138 100.451 31.7484C101.239 32.5599 101.853 33.522 102.294 34.6349C102.734 35.7478 102.955 36.9418 102.955 38.2169C102.955 39.4689 102.734 40.6513 102.294 41.7642C101.853 42.877 101.239 43.8508 100.451 44.6854C99.6857 45.5201 98.7583 46.1808 97.6686 46.6677C96.6021 47.1314 95.4429 47.3632 94.1909 47.3632C92.9158 47.3632 91.7334 47.1314 90.6437 46.6677C89.5772 46.1808 88.6498 45.5201 87.8615 44.6854C87.0733 43.8508 86.4589 42.877 86.0184 41.7642C85.5778 40.6513 85.3576 39.4689 85.3576 38.2169ZM109.302 38.2169C109.302 39.0516 109.43 39.863 109.685 40.6513C109.94 41.4164 110.322 42.0887 110.832 42.6684C111.342 43.248 111.957 43.7117 112.675 44.0594C113.394 44.4072 114.229 44.5811 115.179 44.5811C116.107 44.5811 116.93 44.4072 117.648 44.0594C118.367 43.7117 118.97 43.248 119.457 42.6684C119.967 42.0887 120.349 41.4164 120.604 40.6513C120.86 39.863 120.987 39.0516 120.987 38.2169C120.987 37.3591 120.86 36.5476 120.604 35.7825C120.349 34.9943 119.967 34.3103 119.457 33.7307C118.97 33.1511 118.367 32.699 117.648 32.3744C116.93 32.0266 116.107 31.8528 115.179 31.8528C114.229 31.8528 113.394 32.0266 112.675 32.3744C111.957 32.699 111.342 33.1511 110.832 33.7307C110.322 34.3103 109.94 34.9943 109.685 35.7825C109.43 36.5476 109.302 37.3591 109.302 38.2169ZM106.346 38.2169C106.346 36.9418 106.566 35.7478 107.007 34.6349C107.447 33.522 108.062 32.5599 108.85 31.7484C109.638 30.9138 110.566 30.2646 111.632 29.8009C112.722 29.314 113.904 29.0706 115.179 29.0706C116.431 29.0706 117.59 29.314 118.657 29.8009C119.747 30.2646 120.674 30.9138 121.439 31.7484C122.227 32.5599 122.842 33.522 123.282 34.6349C123.723 35.7478 123.943 36.9418 123.943 38.2169C123.943 39.4689 123.723 40.6513 123.282 41.7642C122.842 42.877 122.227 43.8508 121.439 44.6854C120.674 45.5201 119.747 46.1808 118.657 46.6677C117.59 47.1314 116.431 47.3632 115.179 47.3632C113.904 47.3632 112.722 47.1314 111.632 46.6677C110.566 46.1808 109.638 45.5201 108.85 44.6854C108.062 43.8508 107.447 42.877 107.007 41.7642C106.566 40.6513 106.346 39.4689 106.346 38.2169ZM130.29 38.2169C130.29 39.0516 130.418 39.863 130.673 40.6513C130.928 41.4164 131.311 42.0887 131.821 42.6684C132.331 43.248 132.945 43.7117 133.664 44.0594C134.382 44.4072 135.217 44.5811 136.168 44.5811C137.095 44.5811 137.918 44.4072 138.637 44.0594C139.356 43.7117 139.958 43.248 140.445 42.6684C140.955 42.0887 141.338 41.4164 141.593 40.6513C141.848 39.863 141.975 39.0516 141.975 38.2169C141.975 37.3591 141.848 36.5476 141.593 35.7825C141.338 34.9943 140.955 34.3103 140.445 33.7307C139.958 33.1511 139.356 32.699 138.637 32.3744C137.918 32.0266 137.095 31.8528 136.168 31.8528C135.217 31.8528 134.382 32.0266 133.664 32.3744C132.945 32.699 132.331 33.1511 131.821 33.7307C131.311 34.3103 130.928 34.9943 130.673 35.7825C130.418 36.5476 130.29 37.3591 130.29 38.2169ZM127.334 38.2169C127.334 36.9418 127.555 35.7478 127.995 34.6349C128.436 33.522 129.05 32.5599 129.838 31.7484C130.627 30.9138 131.554 30.2646 132.62 29.8009C133.71 29.314 134.893 29.0706 136.168 29.0706C137.42 29.0706 138.579 29.314 139.645 29.8009C140.735 30.2646 141.662 30.9138 142.428 31.7484C143.216 32.5599 143.83 33.522 144.271 34.6349C144.711 35.7478 144.931 36.9418 144.931 38.2169C144.931 39.4689 144.711 40.6513 144.271 41.7642C143.83 42.877 143.216 43.8508 142.428 44.6854C141.662 45.5201 140.735 46.1808 139.645 46.6677C138.579 47.1314 137.42 47.3632 136.168 47.3632C134.893 47.3632 133.71 47.1314 132.62 46.6677C131.554 46.1808 130.627 45.5201 129.838 44.6854C129.05 43.8508 128.436 42.877 127.995 41.7642C127.555 40.6513 127.334 39.4689 127.334 38.2169Z" fill="#202020"/>
<path d="M27.5162 69.5292C27.697 70.4613 28.1213 71.1846 28.789 71.6993C29.4707 72.214 30.3053 72.4714 31.293 72.4714C32.6701 72.4714 33.6717 71.9636 34.2977 70.9481L35.8418 71.8245C34.8263 73.3964 33.2961 74.1824 31.2512 74.1824C29.5959 74.1824 28.2465 73.6677 27.2032 72.6383C26.1738 71.595 25.6591 70.2804 25.6591 68.6946C25.6591 67.1227 26.1669 65.8151 27.1823 64.7718C28.1978 63.7285 29.5124 63.2068 31.126 63.2068C32.6562 63.2068 33.9012 63.7493 34.8611 64.8344C35.8348 65.9055 36.3217 67.1992 36.3217 68.7155C36.3217 68.9798 36.3008 69.251 36.2591 69.5292H27.5162ZM31.126 64.9178C30.1523 64.9178 29.3455 65.1961 28.7056 65.7525C28.0657 66.295 27.6692 67.0253 27.5162 67.9434H34.4855C34.3325 66.9558 33.943 66.2046 33.317 65.6899C32.691 65.1752 31.9607 64.9178 31.126 64.9178ZM47.0267 63.4781H48.842V73.9111H47.0267V72.1166C46.1225 73.4938 44.8079 74.1824 43.083 74.1824C41.6224 74.1824 40.3773 73.6538 39.3479 72.5966C38.3186 71.5254 37.8039 70.2248 37.8039 68.6946C37.8039 67.1644 38.3186 65.8707 39.3479 64.8135C40.3773 63.7424 41.6224 63.2068 43.083 63.2068C44.8079 63.2068 46.1225 63.8954 47.0267 65.2726V63.4781ZM43.3125 72.4296C44.3697 72.4296 45.2531 72.0749 45.9625 71.3655C46.672 70.6421 47.0267 69.7518 47.0267 68.6946C47.0267 67.6374 46.672 66.7541 45.9625 66.0446C45.2531 65.3212 44.3697 64.9596 43.3125 64.9596C42.2692 64.9596 41.3928 65.3212 40.6834 66.0446C39.9739 66.7541 39.6192 67.6374 39.6192 68.6946C39.6192 69.7518 39.9739 70.6421 40.6834 71.3655C41.3928 72.0749 42.2692 72.4296 43.3125 72.4296ZM53.4078 65.2308C54.006 63.9371 55.091 63.2903 56.6629 63.2903V65.1891C55.7726 65.1474 55.0075 65.3838 54.3676 65.8985C53.7277 66.4132 53.4078 67.2409 53.4078 68.3816V73.9111H51.5924V63.4781H53.4078V65.2308ZM63.6348 63.2068C64.8589 63.2068 65.8397 63.5963 66.5769 64.3753C67.3142 65.1404 67.6828 66.1837 67.6828 67.5052V73.9111H65.8675V67.6096C65.8675 66.761 65.6379 66.1072 65.1789 65.6482C64.7198 65.1752 64.0869 64.9387 63.2801 64.9387C62.3759 64.9387 61.6456 65.2239 61.0891 65.7942C60.5327 66.3506 60.2545 67.2131 60.2545 68.3816V73.9111H58.4391V63.4781H60.2545V64.9804C60.9918 63.798 62.1185 63.2068 63.6348 63.2068ZM71.4899 69.5292C71.6708 70.4613 72.095 71.1846 72.7627 71.6993C73.4444 72.214 74.279 72.4714 75.2667 72.4714C76.6438 72.4714 77.6454 71.9636 78.2714 70.9481L79.8155 71.8245C78.8 73.3964 77.2698 74.1824 75.225 74.1824C73.5696 74.1824 72.2202 73.6677 71.1769 72.6383C70.1475 71.595 69.6328 70.2804 69.6328 68.6946C69.6328 67.1227 70.1406 65.8151 71.1561 64.7718C72.1715 63.7285 73.4861 63.2068 75.0998 63.2068C76.6299 63.2068 77.8749 63.7493 78.8348 64.8344C79.8085 65.9055 80.2954 67.1992 80.2954 68.7155C80.2954 68.9798 80.2746 69.251 80.2328 69.5292H71.4899ZM75.0998 64.9178C74.126 64.9178 73.3192 65.1961 72.6793 65.7525C72.0394 66.295 71.6429 67.0253 71.4899 67.9434H78.4592C78.3062 66.9558 77.9167 66.2046 77.2907 65.6899C76.6647 65.1752 75.9344 64.9178 75.0998 64.9178ZM91.0004 59.3049H92.8157V73.9111H91.0004V72.1166C90.0962 73.4938 88.7816 74.1824 87.0567 74.1824C85.5961 74.1824 84.351 73.6538 83.3217 72.5966C82.2923 71.5254 81.7776 70.2248 81.7776 68.6946C81.7776 67.1644 82.2923 65.8707 83.3217 64.8135C84.351 63.7424 85.5961 63.2068 87.0567 63.2068C88.7816 63.2068 90.0962 63.8954 91.0004 65.2726V59.3049ZM87.2862 72.4296C88.3434 72.4296 89.2268 72.0749 89.9362 71.3655C90.6457 70.6421 91.0004 69.7518 91.0004 68.6946C91.0004 67.6374 90.6457 66.7541 89.9362 66.0446C89.2268 65.3212 88.3434 64.9596 87.2862 64.9596C86.2429 64.9596 85.3665 65.3212 84.6571 66.0446C83.9476 66.7541 83.5929 67.6374 83.5929 68.6946C83.5929 69.7518 83.9476 70.6421 84.6571 71.3655C85.3665 72.0749 86.2429 72.4296 87.2862 72.4296ZM106.542 63.2068C108.002 63.2068 109.247 63.7424 110.277 64.8135C111.306 65.8707 111.821 67.1644 111.821 68.6946C111.821 70.2248 111.306 71.5254 110.277 72.5966C109.247 73.6538 108.002 74.1824 106.542 74.1824C104.817 74.1824 103.502 73.4938 102.598 72.1166V73.9111H100.783V59.3049H102.598V65.2726C103.502 63.8954 104.817 63.2068 106.542 63.2068ZM106.312 72.4296C107.356 72.4296 108.232 72.0749 108.941 71.3655C109.651 70.6421 110.006 69.7518 110.006 68.6946C110.006 67.6374 109.651 66.7541 108.941 66.0446C108.232 65.3212 107.356 64.9596 106.312 64.9596C105.255 64.9596 104.372 65.3212 103.662 66.0446C102.953 66.7541 102.598 67.6374 102.598 68.6946C102.598 69.7518 102.953 70.6421 103.662 71.3655C104.372 72.0749 105.255 72.4296 106.312 72.4296ZM120.862 63.4781H122.802L118.546 74.558C118.1 75.7404 117.474 76.6376 116.668 77.2497C115.875 77.8757 114.957 78.1539 113.913 78.0844V76.3942C115.193 76.4916 116.132 75.7821 116.73 74.2659L116.918 73.8694L112.369 63.4781H114.31L117.857 71.6576L120.862 63.4781ZM131.35 65.2308C131.948 63.9371 133.033 63.2903 134.605 63.2903V65.1891C133.715 65.1474 132.95 65.3838 132.31 65.8985C131.67 66.4132 131.35 67.2409 131.35 68.3816V73.9111H129.535V63.4781H131.35V65.2308ZM137.084 69.5292C137.265 70.4613 137.689 71.1846 138.357 71.6993C139.038 72.214 139.873 72.4714 140.86 72.4714C142.238 72.4714 143.239 71.9636 143.865 70.9481L145.409 71.8245C144.394 73.3964 142.864 74.1824 140.819 74.1824C139.163 74.1824 137.814 73.6677 136.771 72.6383C135.741 71.595 135.227 70.2804 135.227 68.6946C135.227 67.1227 135.734 65.8151 136.75 64.7718C137.765 63.7285 139.08 63.2068 140.694 63.2068C142.224 63.2068 143.469 63.7493 144.429 64.8344C145.402 65.9055 145.889 67.1992 145.889 68.7155C145.889 68.9798 145.868 69.251 145.827 69.5292H137.084ZM140.694 64.9178C139.72 64.9178 138.913 65.1961 138.273 65.7525C137.633 66.295 137.237 67.0253 137.084 67.9434H144.053C143.9 66.9558 143.51 66.2046 142.884 65.6899C142.258 65.1752 141.528 64.9178 140.694 64.9178ZM152.859 74.1824C151.287 74.1824 149.98 73.6607 148.936 72.6174C147.893 71.5602 147.371 70.2526 147.371 68.6946C147.371 67.1366 147.893 65.8359 148.936 64.7926C149.98 63.7354 151.287 63.2068 152.859 63.2068C153.889 63.2068 154.814 63.4572 155.634 63.958C156.455 64.4449 157.067 65.1056 157.471 65.9403L155.947 66.8167C155.683 66.2602 155.273 65.8151 154.716 65.4812C154.174 65.1474 153.555 64.9804 152.859 64.9804C151.816 64.9804 150.939 65.3352 150.23 66.0446C149.534 66.7541 149.187 67.6374 149.187 68.6946C149.187 69.7379 149.534 70.6143 150.23 71.3237C150.939 72.0332 151.816 72.3879 152.859 72.3879C153.555 72.3879 154.181 72.2279 154.737 71.908C155.294 71.5741 155.718 71.129 156.01 70.5726L157.554 71.4698C157.109 72.2905 156.469 72.9513 155.634 73.4521C154.8 73.939 153.875 74.1824 152.859 74.1824ZM161.182 65.2308C161.78 63.9371 162.865 63.2903 164.437 63.2903V65.1891C163.547 65.1474 162.782 65.3838 162.142 65.8985C161.502 66.4132 161.182 67.2409 161.182 68.3816V73.9111H159.367V63.4781H161.182V65.2308ZM173.412 63.4781H175.228V73.9111H173.412V72.4088C172.675 73.5912 171.548 74.1824 170.032 74.1824C168.808 74.1824 167.827 73.7998 167.09 73.0348C166.353 72.2558 165.984 71.2055 165.984 69.884V63.4781H167.799V69.7796C167.799 70.6282 168.029 71.289 168.488 71.7619C168.947 72.221 169.58 72.4505 170.387 72.4505C171.291 72.4505 172.021 72.1723 172.578 71.6159C173.134 71.0455 173.412 70.1761 173.412 69.0076V63.4781ZM178.91 61.5793C178.562 61.5793 178.27 61.461 178.033 61.2245C177.797 60.9881 177.678 60.7029 177.678 60.369C177.678 60.0352 177.797 59.75 178.033 59.5135C178.27 59.2631 178.562 59.1379 178.91 59.1379C179.243 59.1379 179.529 59.2631 179.765 59.5135C180.001 59.75 180.12 60.0352 180.12 60.369C180.12 60.7029 180.001 60.9881 179.765 61.2245C179.529 61.461 179.243 61.5793 178.91 61.5793ZM177.991 73.9111V63.4781H179.807V73.9111H177.991ZM188.252 65.2308H185.477V70.8855C185.477 71.4002 185.574 71.7689 185.769 71.9915C185.977 72.2001 186.29 72.3114 186.708 72.3253C187.125 72.3253 187.64 72.3114 188.252 72.2836V73.9111C186.666 74.1198 185.504 73.9946 184.767 73.5355C184.03 73.0626 183.661 72.1792 183.661 70.8855V65.2308H181.596V63.4781H183.661V61.0993L185.477 60.5568V63.4781H188.252V65.2308ZM191.144 69.5292C191.325 70.4613 191.749 71.1846 192.417 71.6993C193.099 72.214 193.933 72.4714 194.921 72.4714C196.298 72.4714 197.3 71.9636 197.926 70.9481L199.47 71.8245C198.454 73.3964 196.924 74.1824 194.879 74.1824C193.224 74.1824 191.874 73.6677 190.831 72.6383C189.802 71.595 189.287 70.2804 189.287 68.6946C189.287 67.1227 189.795 65.8151 190.81 64.7718C191.826 63.7285 193.14 63.2068 194.754 63.2068C196.284 63.2068 197.529 63.7493 198.489 64.8344C199.463 65.9055 199.95 67.1992 199.95 68.7155C199.95 68.9798 199.929 69.251 199.887 69.5292H191.144ZM194.754 64.9178C193.78 64.9178 192.973 65.1961 192.333 65.7525C191.694 66.295 191.297 67.0253 191.144 67.9434H198.113C197.96 66.9558 197.571 66.2046 196.945 65.6899C196.319 65.1752 195.589 64.9178 194.754 64.9178ZM203.852 65.2308C204.45 63.9371 205.535 63.2903 207.107 63.2903V65.1891C206.217 65.1474 205.451 65.3838 204.812 65.8985C204.172 66.4132 203.852 67.2409 203.852 68.3816V73.9111H202.036V63.4781H203.852V65.2308ZM210.061 66.295C210.061 66.6984 210.263 67.0253 210.666 67.2757C211.069 67.5122 211.556 67.7069 212.127 67.86C212.697 67.9991 213.267 68.166 213.838 68.3607C214.408 68.5416 214.895 68.8615 215.298 69.3206C215.702 69.7657 215.903 70.343 215.903 71.0525C215.903 71.9984 215.535 72.7565 214.797 73.3269C214.074 73.8972 213.142 74.1824 212.001 74.1824C210.986 74.1824 210.116 73.9598 209.393 73.5147C208.67 73.0695 208.155 72.4783 207.849 71.7411L209.414 70.8438C209.581 71.3446 209.894 71.7411 210.353 72.0332C210.812 72.3253 211.361 72.4714 212.001 72.4714C212.6 72.4714 213.093 72.3601 213.483 72.1375C213.872 71.901 214.067 71.5394 214.067 71.0525C214.067 70.6491 213.865 70.3291 213.462 70.0926C213.059 69.8422 212.572 69.6475 212.001 69.5084C211.431 69.3554 210.861 69.1815 210.29 68.9867C209.72 68.792 209.233 68.472 208.83 68.0269C208.426 67.5817 208.225 67.0114 208.225 66.3159C208.225 65.4117 208.572 64.6674 209.268 64.0832C209.977 63.4989 210.861 63.2068 211.918 63.2068C212.766 63.2068 213.518 63.4016 214.171 63.7911C214.839 64.1667 215.34 64.6953 215.674 65.3769L214.151 66.2324C213.775 65.3421 213.031 64.897 211.918 64.897C211.403 64.897 210.965 65.0222 210.603 65.2726C210.242 65.509 210.061 65.8499 210.061 66.295Z" fill="#5C27C0"/>
</g>
<defs>
<filter id="filter0_d_2743_1588" x="0.522314" y="0" width="240.829" height="102.592" filterUnits="userSpaceOnUse" color-interpolation-filters="sRGB">
<feFlood flood-opacity="0" result="BackgroundImageFix"/>
<feColorMatrix in="SourceAlpha" type="matrix" values="0 0 0 0 0 0 0 0 0 0 0 0 0 0 0 0 0 0 127 0" result="hardAlpha"/>
<feOffset dy="3.47769"/>
<feGaussianBlur stdDeviation="1.73884"/>
<feComposite in2="hardAlpha" operator="out"/>
<feColorMatrix type="matrix" values="0 0 0 0 0 0 0 0 0 0 0 0 0 0 0 0 0 0 0.16 0"/>
<feBlend mode="normal" in2="BackgroundImageFix" result="effect1_dropShadow_2743_1588"/>
<feBlend mode="normal" in="SourceGraphic" in2="effect1_dropShadow_2743_1588" result="shape"/>
</filter>
</defs>
</svg>
