<svg width="505" height="515" viewBox="0 0 505 515" fill="none" xmlns="http://www.w3.org/2000/svg">
<g filter="url(#filter0_d_3331_12917)">
<path d="M485.245 491.578H387.828V419.869V418.92V326.255V325.302C387.828 325.214 387.822 325.131 387.821 325.044C387.81 324.21 387.742 323.435 387.631 322.758H399.451V317.792H393.612H392.467H357.909L368.225 273.325H366.258H300.037H298.07L292.237 298.469L289.503 310.254L288.48 314.666H257.15L256.425 317.792H252.201H221.482H198.121H148.892V322.758H156.402C156.28 323.507 156.205 324.37 156.205 325.302V427.775V428.71V491.577H112.872H107.127H89.8948H83.9477H15.7122C13.6618 491.577 12 493.239 12 495.289C12 497.34 13.6618 499.001 15.7122 499.001H485.245C487.296 499.001 488.956 497.339 488.956 495.289C488.956 493.24 487.294 491.578 485.245 491.578ZM385.248 322.759C385.126 323.508 385.051 324.371 385.051 325.303V328.39V328.848V420.751V421.679V491.578H327.635V468.983V468.532V447.943V447.183V374.717V374.109V325.303C327.635 324.371 327.56 323.508 327.438 322.759H385.248ZM253.351 322.759H325.053C324.932 323.508 324.857 324.371 324.857 325.303V447.996V448.748V467.565V469.802V491.579H271.631C271.912 491.416 272.065 491.25 272.065 491.08C272.065 484.833 267 479.768 260.753 479.768H252.504L254.807 486.713L259.208 491.694L247.489 489.004L241.005 479.768H234.282L232.366 485.533L230.48 485.101L232.408 465.375L232.42 465.395C232.511 463.981 233.115 462.583 234.226 461.498V454.83V454.132V385.319V385.004V382.931H250.793C251.944 380.135 253.283 377.415 254.771 374.77C245.822 374.822 235.377 374.285 225.524 372.33C223.315 371.891 221.199 371.251 219.178 370.449V338.042V325.305C219.178 324.373 219.103 323.51 218.981 322.761H221.481H253.351V322.759ZM223.925 382.929H227.106H227.307V382.981V383.976V453.059V453.76V479.767H219.177V452.234V451.521V382.929H223.925ZM158.983 430.239V429.339V325.303C158.983 324.371 158.908 323.508 158.786 322.759H196.857H216.596C216.474 323.508 216.399 324.371 216.399 325.303V337.611V369.205C212.344 367.182 208.761 364.445 205.79 361.174H193.67C187.663 361.174 182.793 366.044 182.793 372.052C182.793 378.059 187.663 382.929 193.67 382.929H216.399V450.916V451.645V479.766H200.779C194.532 479.766 189.467 484.831 189.467 491.078C189.467 491.248 189.619 491.415 189.902 491.577H158.984V430.239H158.983ZM200.678 309.375H191.371C185.026 309.375 179.882 304.231 179.882 297.886V273.937C179.882 267.592 185.026 262.448 191.371 262.448H198.302C200.069 269.049 201.829 273.614 203.495 279.185C204.272 282.417 205.037 285.707 205.768 289.142C205.996 294.66 203.497 300.803 200.678 309.375Z" fill="url(#paint0_linear_3331_12917)"/>
<path d="M320.972 192.743C321.168 192.851 321.369 192.951 321.569 193.053C321.37 192.951 321.168 192.851 320.972 192.743ZM335.633 195.71C335.941 195.678 336.248 195.638 336.553 195.595C336.247 195.637 335.941 195.678 335.633 195.71ZM336.862 195.555C337.214 195.503 337.561 195.441 337.907 195.373C337.561 195.441 337.213 195.503 336.862 195.555ZM339.206 195.09C338.831 195.183 338.452 195.269 338.07 195.345C338.451 195.269 338.83 195.182 339.206 195.09ZM331.401 195.772C331.962 195.811 332.528 195.836 333.099 195.836C332.528 195.836 331.962 195.81 331.401 195.772ZM333.099 145.232C319.125 145.232 307.797 156.561 307.797 170.534C307.797 180.114 313.121 188.449 320.972 192.744C320.965 192.72 320.959 192.699 320.953 192.675C320.229 189.892 319.346 186.736 319.187 183.711C318.036 182.373 317.366 180.607 317.73 178.903C318.183 176.781 320.091 175.154 320.387 173.005C320.657 171.043 319.53 169.203 318.814 167.357C316.738 162.001 318.343 155.431 322.653 151.636C326.983 147.823 334.038 147.569 339.582 147.843C345.838 148.153 346.802 154.142 345.592 159.422C345.083 161.644 344.459 163.902 344.706 166.169C345.067 169.49 347.255 172.406 347.591 175.73C347.965 179.445 345.836 182.986 342.776 185.207C344.85 188.719 343.763 191.191 342.684 193.952C341.576 194.405 340.43 194.783 339.252 195.079C350.251 192.331 358.4 182.386 358.4 170.534C358.401 156.56 347.073 145.232 333.099 145.232ZM329.43 195.568C329.97 195.646 330.517 195.703 331.069 195.748C329.833 195.65 328.623 195.464 327.444 195.194C328.096 195.343 328.758 195.47 329.43 195.568ZM327.289 195.157C325.28 194.684 323.364 193.974 321.571 193.054C323.364 193.974 325.28 194.685 327.289 195.157ZM334.379 195.803C334.604 195.792 334.827 195.771 335.051 195.753C334.827 195.77 334.604 195.792 334.379 195.803ZM356.545 204.013H309.655C308.629 204.013 307.798 204.845 307.798 205.87C307.798 206.895 308.629 207.727 309.655 207.727H356.545C357.57 207.727 358.401 206.895 358.401 205.87C358.401 204.845 357.57 204.013 356.545 204.013ZM356.545 212.165H309.655C308.629 212.165 307.798 212.997 307.798 214.022C307.798 215.047 308.629 215.879 309.655 215.879H356.545C357.57 215.879 358.401 215.047 358.401 214.022C358.401 212.997 357.57 212.165 356.545 212.165ZM356.545 220.317H309.655C308.629 220.317 307.798 221.148 307.798 222.174C307.798 223.199 308.629 224.03 309.655 224.03H356.545C357.57 224.03 358.401 223.199 358.401 222.174C358.401 221.148 357.57 220.317 356.545 220.317ZM356.545 228.469H309.655C308.629 228.469 307.798 229.3 307.798 230.325C307.798 231.351 308.629 232.182 309.655 232.182H356.545C357.57 232.182 358.401 231.351 358.401 230.325C358.401 229.3 357.57 228.469 356.545 228.469ZM396.775 149.609H415.454C416.48 149.609 417.311 148.778 417.311 147.752C417.311 146.727 416.48 145.896 415.454 145.896H396.775C395.75 145.896 394.919 146.727 394.919 147.752C394.919 148.778 395.75 149.609 396.775 149.609ZM467.549 154.405H396.775C395.75 154.405 394.919 155.236 394.919 156.262C394.919 157.287 395.75 158.118 396.775 158.118H467.549C468.574 158.118 469.405 157.287 469.405 156.262C469.405 155.236 468.574 154.405 467.549 154.405ZM394.92 172.129C394.92 173.154 395.751 173.985 396.776 173.985H415.455C416.481 173.985 417.312 173.154 417.312 172.129C417.312 171.103 416.481 170.272 415.455 170.272H396.776C395.75 170.272 394.92 171.103 394.92 172.129ZM467.549 178.781H396.775C395.75 178.781 394.919 179.612 394.919 180.638C394.919 181.663 395.75 182.494 396.775 182.494H467.549C468.574 182.494 469.405 181.663 469.405 180.638C469.405 179.612 468.574 178.781 467.549 178.781ZM394.92 196.506C394.92 197.531 395.751 198.362 396.776 198.362H415.455C416.481 198.362 417.312 197.531 417.312 196.506C417.312 195.48 416.481 194.649 415.455 194.649H396.776C395.75 194.649 394.92 195.48 394.92 196.506ZM467.549 203.158H396.775C395.75 203.158 394.919 203.99 394.919 205.015C394.919 206.04 395.75 206.871 396.775 206.871H467.549C468.574 206.871 469.405 206.04 469.405 205.015C469.405 203.99 468.574 203.158 467.549 203.158ZM394.92 220.882C394.92 221.907 395.751 222.738 396.776 222.738H415.455C416.481 222.738 417.312 221.907 417.312 220.882C417.312 219.856 416.481 219.025 415.455 219.025H396.776C395.75 219.025 394.92 219.856 394.92 220.882ZM467.549 227.534H396.775C395.75 227.534 394.919 228.366 394.919 229.391C394.919 230.416 395.75 231.247 396.775 231.247H467.549C468.574 231.247 469.405 230.416 469.405 229.391C469.405 228.366 468.574 227.534 467.549 227.534Z" fill="white"/>
<path d="M240.483 445.031L251.54 448.039L248.103 458.007L251.902 477.955L246.394 478.086L236.353 468.514L237.284 458.553L239.031 456.877L240.483 445.031ZM293.687 448.313L292.986 450.629L297.055 459.77L310.497 463.194L315.234 460.381L308.684 452.608L308.167 451.994L302.149 444.853L300.261 434.48L289.149 437.275L293.687 448.313ZM229.214 216.833H233.349C237.263 216.833 242.547 211.6 242.547 205.126L245.074 177.094C242.18 182.914 237.104 187.843 231.602 191.576C226.787 194.843 221.485 197.024 215.973 198.166L212.951 200.57C212.951 201.758 213.087 202.914 213.328 204.03L213.181 204.014L212.188 218.747L212.148 219.351C216.726 222.059 220.636 226.219 224.146 230.912L225.975 231.105L226.415 224.569L226.949 216.658C227.691 216.761 228.443 216.833 229.214 216.833ZM238.631 292.718C231.979 290.908 225.556 289.223 220.734 288.431C218.258 273.415 217.224 263.314 214.748 248.299C207.49 243.272 201.452 242.672 196.583 247.473C198.539 259.556 201.074 269.123 203.495 279.186C204.272 282.418 205.037 285.708 205.767 289.144C206.557 292.857 207.308 296.738 207.986 300.933C218.525 304.334 228.037 304.994 238.501 305.292C242.092 305.394 245.805 305.456 249.701 305.569C253.686 305.685 257.876 305.861 262.352 306.19C262.783 307.506 263.822 308.547 265.158 308.965C268.632 310.049 272.125 308.832 275.79 307.168C277.574 307.269 279.341 307.623 281.091 308.068C281.539 308.77 282.179 309.344 282.964 309.695C285.036 310.62 287.22 310.657 289.501 310.256L292.235 298.472C291.622 298.439 291.014 298.438 290.419 298.505C287.542 298.149 284.621 298.235 281.752 298.757C279.505 297.587 276.827 296.776 274.244 296.701C269.348 294.871 263.859 292.612 258.518 290.461C254.312 288.766 250.208 287.144 246.548 285.844C246.976 288.952 247.444 292.093 247.943 295.257C244.881 294.433 241.732 293.562 238.631 292.718ZM334.379 173.392H336.162C337.849 173.392 340.126 171.136 340.126 168.345L341.215 156.261C339.968 158.77 337.78 160.894 335.409 162.504C333.333 163.913 331.047 164.852 328.672 165.344L327.369 166.381C327.369 166.893 327.428 167.39 327.532 167.872L327.468 167.866L327.04 174.216L327.022 174.476C328.996 175.644 330.682 177.436 332.194 179.46L332.982 179.543L333.172 176.726L333.402 173.316C333.723 173.36 334.048 173.392 334.379 173.392ZM328.143 186.955C325.015 184.788 322.412 184.53 320.313 186.599C320.69 188.93 321.118 191.041 321.569 193.054C323.362 193.974 325.278 194.685 327.287 195.158C327.338 195.17 327.39 195.182 327.441 195.193C328.094 195.342 328.756 195.47 329.427 195.567C329.052 192.873 328.675 190.177 328.143 186.955Z" fill="url(#paint1_linear_3331_12917)"/>
<path d="M478.024 131.022H461.851H460.95H375.345H374.022H290.444V242.517H366.82L360.444 270.539L385.724 242.517H478.024V173.363V170.77V131.022ZM396.774 145.896H415.453C416.479 145.896 417.31 146.728 417.31 147.753C417.31 148.778 416.479 149.61 415.453 149.61H396.774C395.749 149.61 394.918 148.778 394.918 147.753C394.918 146.728 395.749 145.896 396.774 145.896ZM415.453 170.273C416.479 170.273 417.31 171.104 417.31 172.129C417.31 173.154 416.479 173.986 415.453 173.986H396.774C395.749 173.986 394.918 173.154 394.918 172.129C394.918 171.104 395.749 170.273 396.774 170.273H415.453ZM415.453 194.65C416.479 194.65 417.31 195.481 417.31 196.506C417.31 197.531 416.479 198.363 415.453 198.363H396.774C395.749 198.363 394.918 197.531 394.918 196.506C394.918 195.481 395.749 194.65 396.774 194.65H415.453ZM415.453 219.026C416.479 219.026 417.31 219.857 417.31 220.882C417.31 221.908 416.479 222.739 415.453 222.739H396.774C395.749 222.739 394.918 221.908 394.918 220.882C394.918 219.857 395.749 219.026 396.774 219.026H415.453ZM356.544 232.183H309.654C308.628 232.183 307.797 231.351 307.797 230.326C307.797 229.301 308.628 228.469 309.654 228.469H356.544C357.569 228.469 358.401 229.301 358.401 230.326C358.401 231.351 357.569 232.183 356.544 232.183ZM356.544 224.031H309.654C308.628 224.031 307.797 223.2 307.797 222.174C307.797 221.149 308.628 220.318 309.654 220.318H356.544C357.569 220.318 358.401 221.149 358.401 222.174C358.401 223.2 357.569 224.031 356.544 224.031ZM356.544 215.879H309.654C308.628 215.879 307.797 215.048 307.797 214.023C307.797 212.997 308.628 212.166 309.654 212.166H356.544C357.569 212.166 358.401 212.997 358.401 214.023C358.401 215.048 357.569 215.879 356.544 215.879ZM356.544 207.727H309.654C308.628 207.727 307.797 206.896 307.797 205.871C307.797 204.846 308.628 204.014 309.654 204.014H356.544C357.569 204.014 358.401 204.846 358.401 205.871C358.401 206.896 357.569 207.727 356.544 207.727ZM339.252 195.079C339.236 195.083 339.22 195.086 339.205 195.089C338.83 195.182 338.451 195.269 338.069 195.345C338.015 195.355 337.96 195.363 337.906 195.374C337.56 195.44 337.212 195.503 336.861 195.556C336.758 195.572 336.654 195.581 336.551 195.596C336.246 195.637 335.941 195.679 335.631 195.71C335.438 195.73 335.242 195.739 335.049 195.754C334.825 195.771 334.603 195.793 334.377 195.804C333.953 195.825 333.526 195.836 333.097 195.836C332.526 195.836 331.961 195.81 331.399 195.773C331.287 195.765 331.177 195.756 331.066 195.748C329.83 195.65 328.62 195.463 327.441 195.193C327.39 195.182 327.338 195.17 327.287 195.158C325.277 194.686 323.362 193.974 321.569 193.054C321.568 193.054 321.568 193.053 321.567 193.053C321.367 192.951 321.167 192.851 320.97 192.744C313.12 188.448 307.795 180.114 307.795 170.534C307.795 156.56 319.123 145.232 333.097 145.232C347.071 145.232 358.4 156.56 358.4 170.534C358.401 182.386 350.251 192.33 339.252 195.079ZM469.405 229.391C469.405 230.417 468.573 231.248 467.548 231.248H396.774C395.749 231.248 394.918 230.417 394.918 229.391C394.918 228.366 395.749 227.535 396.774 227.535H467.548C468.573 227.535 469.405 228.366 469.405 229.391ZM467.548 206.872H396.774C395.749 206.872 394.918 206.041 394.918 205.015C394.918 203.99 395.749 203.159 396.774 203.159H467.548C468.573 203.159 469.405 203.99 469.405 205.015C469.405 206.041 468.573 206.872 467.548 206.872ZM467.548 182.495H396.774C395.749 182.495 394.918 181.664 394.918 180.638C394.918 179.613 395.749 178.782 396.774 178.782H467.548C468.573 178.782 469.405 179.613 469.405 180.638C469.405 181.664 468.573 182.495 467.548 182.495ZM467.548 158.119H396.774C395.749 158.119 394.918 157.287 394.918 156.262C394.918 155.237 395.749 154.406 396.774 154.406H467.548C468.573 154.406 469.405 155.237 469.405 156.262C469.405 157.287 468.573 158.119 467.548 158.119Z" fill="#71E954"/>
<path d="M193.966 240.77C191.294 237.666 189.741 233.571 190.586 229.615C191.639 224.691 196.065 220.919 196.75 215.931C197.376 211.381 194.76 207.112 193.1 202.829C188.286 190.406 192.009 175.163 202.009 166.358C212.053 157.514 228.421 156.924 241.282 157.561C255.795 158.28 258.033 172.174 255.226 184.422C254.045 189.578 252.598 194.816 253.17 200.074C254.008 207.779 259.085 214.544 259.863 222.255C260.732 230.871 255.793 239.089 248.694 244.241C247.501 242.219 245.861 240.052 243.652 237.687C241.475 235.358 238.348 232.684 234.819 230.09C232.172 228.143 229.296 226.245 226.414 224.569L226.947 216.658C227.689 216.762 228.441 216.834 229.212 216.834H233.348C237.261 216.834 242.545 211.6 242.545 205.126L245.072 177.094C242.179 182.914 237.103 187.843 231.6 191.576C226.786 194.844 221.484 197.024 215.971 198.166L212.949 200.571C212.949 201.759 213.085 202.914 213.327 204.03L213.18 204.014L212.187 218.748C210.403 218.437 208.579 218.279 206.804 218.456C205.68 218.569 204.577 218.803 203.521 219.23C199.008 221.058 196.337 225.778 194.966 230.452C194.014 233.706 193.778 237.2 193.966 240.77ZM319.617 179.26C320.208 177.246 321.359 175.21 323.304 174.423C323.76 174.238 324.235 174.137 324.719 174.089C325.484 174.013 326.271 174.081 327.04 174.215L327.468 167.865L327.531 167.871C327.427 167.39 327.369 166.892 327.369 166.38L328.671 165.344C331.048 164.852 333.333 163.911 335.408 162.503C337.779 160.894 339.968 158.769 341.214 156.26L340.126 168.344C340.126 171.135 337.848 173.391 336.161 173.391H334.379C334.046 173.391 333.722 173.36 333.402 173.315L333.172 176.725C334.414 177.448 335.654 178.266 336.795 179.105C338.316 180.223 339.664 181.375 340.602 182.38C341.554 183.4 342.26 184.333 342.775 185.204C345.835 182.983 347.964 179.441 347.59 175.727C347.254 172.403 345.066 169.487 344.705 166.166C344.458 163.898 345.082 161.641 345.591 159.418C346.801 154.139 345.836 148.149 339.581 147.84C334.037 147.566 326.982 147.82 322.652 151.632C318.342 155.428 316.737 161.998 318.813 167.353C319.529 169.2 320.656 171.04 320.386 173.001C320.09 175.152 318.182 176.777 317.729 178.9C317.365 180.604 318.034 182.37 319.186 183.708C319.104 182.17 319.206 180.665 319.617 179.26Z" fill="#E88C21"/>
<path d="M387.829 325.303C387.829 325.215 387.823 325.132 387.821 325.045C387.907 325.052 387.991 325.073 388.064 325.127C388.279 325.284 388.327 325.584 388.171 325.799C388.058 325.953 387.941 326.103 387.829 326.256V325.303ZM374.4 130.02C374.214 129.829 373.91 129.824 373.72 130.008C373.529 130.194 373.524 130.498 373.708 130.689C373.814 130.798 373.916 130.912 374.022 131.021H375.345C375.029 130.689 374.72 130.35 374.4 130.02ZM394.14 316.973C394.28 316.748 394.211 316.451 393.987 316.31C393.762 316.169 393.465 316.237 393.324 316.462C393.043 316.91 392.751 317.348 392.466 317.792H393.611C393.785 317.518 393.967 317.248 394.14 316.973ZM409.887 282.177C410.092 282.177 410.281 282.046 410.345 281.84C410.733 280.609 411.103 279.373 411.458 278.132C411.531 277.876 411.384 277.611 411.128 277.537C410.868 277.457 410.606 277.611 410.533 277.867C410.179 279.102 409.811 280.33 409.427 281.552C409.347 281.805 409.489 282.075 409.742 282.154C409.791 282.171 409.839 282.177 409.887 282.177ZM124.187 294.065C123.942 294.167 123.825 294.45 123.927 294.694C124.422 295.883 124.932 297.065 125.456 298.238C125.536 298.416 125.711 298.522 125.896 298.522C125.961 298.522 126.028 298.509 126.092 298.481C126.334 298.371 126.443 298.087 126.334 297.844C125.813 296.678 125.307 295.504 124.815 294.324C124.715 294.079 124.433 293.967 124.187 294.065ZM128.565 303.701C128.327 303.82 128.232 304.109 128.35 304.347C128.928 305.499 129.518 306.642 130.124 307.777C130.21 307.94 130.377 308.032 130.549 308.032C130.625 308.032 130.702 308.014 130.775 307.975C131.009 307.85 131.098 307.559 130.973 307.324C130.372 306.197 129.784 305.06 129.21 303.916C129.092 303.678 128.804 303.583 128.565 303.701ZM121.824 184.704C122.021 184.704 122.205 184.583 122.276 184.388C122.716 183.177 123.169 181.973 123.639 180.777C123.736 180.529 123.614 180.251 123.367 180.154C123.12 180.058 122.841 180.178 122.744 180.426C122.272 181.63 121.814 182.841 121.372 184.06C121.281 184.309 121.41 184.587 121.66 184.677C121.715 184.695 121.77 184.704 121.824 184.704ZM125.802 174.84C125.986 174.84 126.162 174.733 126.242 174.554C126.765 173.379 127.302 172.211 127.854 171.051C127.968 170.812 127.867 170.524 127.626 170.41C127.386 170.297 127.1 170.398 126.985 170.638C126.43 171.806 125.889 172.981 125.362 174.163C125.255 174.406 125.363 174.691 125.606 174.799C125.671 174.826 125.737 174.84 125.802 174.84ZM120.492 284.138C120.24 284.222 120.105 284.495 120.189 284.747C120.601 285.972 121.028 287.191 121.471 288.4C121.542 288.595 121.726 288.716 121.923 288.716C121.978 288.716 122.033 288.707 122.088 288.687C122.338 288.595 122.466 288.319 122.375 288.069C121.935 286.867 121.511 285.657 121.102 284.439C121.016 284.188 120.745 284.054 120.492 284.138ZM112.931 221.752C112.812 223.033 112.708 224.32 112.621 225.611C112.603 225.876 112.803 226.105 113.069 226.124C113.079 226.124 113.091 226.125 113.102 226.125C113.353 226.125 113.565 225.93 113.582 225.676C113.668 224.393 113.771 223.115 113.891 221.84C113.915 221.576 113.721 221.341 113.457 221.316C113.193 221.292 112.956 221.487 112.931 221.752ZM112.31 232.376C112.28 233.612 112.266 234.851 112.266 236.094V236.247C112.266 236.512 112.481 236.728 112.747 236.728C113.013 236.728 113.228 236.512 113.228 236.247V236.094C113.228 234.86 113.243 233.627 113.273 232.4C113.279 232.134 113.069 231.913 112.803 231.907C112.532 231.891 112.317 232.11 112.31 232.376ZM133.608 313.013C133.38 313.149 133.303 313.444 133.439 313.672C134.095 314.782 134.766 315.881 135.45 316.972C135.541 317.118 135.698 317.197 135.858 317.197C135.946 317.197 136.034 317.173 136.113 317.124C136.338 316.984 136.406 316.687 136.266 316.461C135.586 315.377 134.92 314.283 134.267 313.181C134.133 312.955 133.838 312.879 133.608 313.013ZM145.585 330.488C145.378 330.653 145.344 330.955 145.509 331.163C146.315 332.172 147.131 333.169 147.961 334.156C148.056 334.27 148.192 334.328 148.33 334.328C148.439 334.328 148.548 334.291 148.639 334.215C148.842 334.045 148.869 333.74 148.697 333.538C147.873 332.557 147.061 331.566 146.261 330.564C146.096 330.354 145.794 330.321 145.585 330.488ZM142.107 147.078C142.863 146.04 143.631 145.011 144.411 143.992C144.573 143.782 144.533 143.48 144.321 143.317C144.111 143.156 143.809 143.196 143.646 143.407C142.861 144.432 142.089 145.467 141.329 146.513C141.173 146.727 141.221 147.028 141.435 147.185C141.521 147.247 141.62 147.276 141.718 147.276C141.867 147.278 142.014 147.209 142.107 147.078ZM130.461 165.283C130.633 165.283 130.8 165.191 130.886 165.028C131.491 163.893 132.108 162.766 132.74 161.648C132.871 161.417 132.789 161.123 132.559 160.992C132.327 160.863 132.033 160.943 131.903 161.174C131.267 162.299 130.646 163.433 130.038 164.575C129.913 164.809 130.003 165.101 130.237 165.226C130.308 165.266 130.385 165.283 130.461 165.283ZM148.624 138.739C149.449 137.757 150.286 136.784 151.134 135.822C151.31 135.623 151.292 135.319 151.092 135.143C150.894 134.968 150.589 134.986 150.412 135.185C149.559 136.153 148.717 137.131 147.887 138.12C147.716 138.324 147.743 138.628 147.946 138.799C148.037 138.874 148.146 138.911 148.255 138.911C148.393 138.911 148.53 138.853 148.624 138.739ZM139.291 321.956C139.072 322.107 139.017 322.407 139.168 322.625C139.901 323.687 140.647 324.738 141.404 325.78C141.499 325.911 141.645 325.978 141.794 325.978C141.892 325.978 141.991 325.948 142.076 325.887C142.291 325.729 142.339 325.429 142.181 325.215C141.428 324.179 140.687 323.135 139.959 322.078C139.809 321.86 139.509 321.805 139.291 321.956ZM113.601 246.819C113.513 245.542 113.439 244.262 113.381 242.977C113.369 242.711 113.141 242.496 112.879 242.518C112.614 242.529 112.408 242.754 112.42 243.02C112.477 244.313 112.552 245.602 112.641 246.884C112.658 247.138 112.87 247.332 113.12 247.332C113.131 247.332 113.143 247.332 113.153 247.331C113.42 247.314 113.62 247.083 113.601 246.819ZM135.776 156.081C135.936 156.081 136.093 156.001 136.184 155.855C136.866 154.766 137.56 153.686 138.268 152.615C138.415 152.393 138.355 152.095 138.133 151.948C137.911 151.8 137.612 151.862 137.466 152.084C136.753 153.162 136.054 154.249 135.368 155.345C135.228 155.57 135.297 155.867 135.522 156.007C135.601 156.059 135.689 156.081 135.776 156.081ZM318.211 378.976C318.267 378.976 318.324 378.967 318.38 378.945C319.589 378.491 320.791 378.022 321.987 377.539C322.232 377.439 322.352 377.159 322.252 376.912C322.152 376.666 321.87 376.548 321.625 376.646C320.437 377.128 319.242 377.592 318.04 378.045C317.791 378.137 317.665 378.414 317.759 378.664C317.834 378.857 318.017 378.976 318.211 378.976ZM160.558 346.128C160.366 345.948 160.061 345.954 159.879 346.147C159.696 346.34 159.704 346.644 159.898 346.828C160.834 347.715 161.782 348.59 162.741 349.455C162.833 349.538 162.948 349.579 163.063 349.579C163.194 349.579 163.326 349.526 163.42 349.421C163.597 349.224 163.583 348.919 163.385 348.741C162.432 347.882 161.49 347.01 160.558 346.128ZM297.881 385.015C297.916 385.015 297.951 385.011 297.986 385.003C299.247 384.723 300.504 384.427 301.754 384.117C302.011 384.053 302.169 383.792 302.104 383.533C302.04 383.275 301.779 383.119 301.521 383.183C300.28 383.493 299.031 383.786 297.776 384.065C297.517 384.122 297.353 384.379 297.41 384.639C297.462 384.863 297.661 385.015 297.881 385.015ZM224.22 383.169C225.244 383.451 226.274 383.715 227.306 383.975V382.98C227.239 382.963 227.173 382.945 227.106 382.928H223.924C223.985 383.042 224.087 383.132 224.22 383.169ZM308.152 382.354C308.197 382.354 308.244 382.348 308.29 382.334C309.53 381.966 310.761 381.583 311.986 381.184C312.239 381.102 312.377 380.83 312.296 380.577C312.214 380.324 311.942 380.188 311.69 380.268C310.472 380.665 309.247 381.045 308.016 381.411C307.762 381.487 307.617 381.754 307.692 382.01C307.753 382.218 307.945 382.354 308.152 382.354ZM155.43 342.208C155.55 342.208 155.671 342.163 155.765 342.072C155.955 341.888 155.96 341.584 155.776 341.392C154.885 340.47 154.007 339.538 153.14 338.592C152.96 338.397 152.654 338.384 152.46 338.563C152.264 338.742 152.25 339.047 152.43 339.243C153.304 340.194 154.188 341.134 155.084 342.061C155.179 342.159 155.304 342.208 155.43 342.208ZM249.023 386.851C247.745 386.718 246.47 386.57 245.201 386.406C244.943 386.373 244.697 386.559 244.663 386.821C244.629 387.085 244.815 387.327 245.078 387.361C246.356 387.526 247.637 387.675 248.924 387.807C248.941 387.809 248.957 387.81 248.974 387.81C248.984 387.81 248.993 387.805 249.003 387.805C249.096 387.526 249.177 387.242 249.273 386.964C249.203 386.906 249.121 386.861 249.023 386.851ZM234.576 385.631C235.839 385.884 237.107 386.123 238.381 386.344C238.409 386.349 238.437 386.352 238.464 386.352C238.694 386.352 238.897 386.187 238.939 385.954C238.984 385.692 238.809 385.442 238.547 385.397C237.281 385.175 236.02 384.939 234.766 384.687C234.528 384.637 234.303 384.779 234.225 385.001V385.316C234.28 385.47 234.404 385.596 234.576 385.631ZM118.42 194.799C118.464 194.812 118.509 194.818 118.552 194.818C118.762 194.818 118.955 194.68 119.015 194.469C119.367 193.234 119.734 192.005 120.116 190.783C120.195 190.528 120.055 190.26 119.801 190.179C119.545 190.098 119.277 190.241 119.197 190.495C118.812 191.726 118.443 192.962 118.088 194.205C118.017 194.459 118.165 194.726 118.42 194.799ZM291.732 385.765C291.696 385.555 291.52 385.403 291.325 385.375L291.486 386.264C291.662 386.168 291.769 385.973 291.732 385.765ZM114.227 257.886C114.249 257.886 114.272 257.883 114.295 257.881C114.559 257.845 114.742 257.601 114.705 257.339C114.528 256.072 114.365 254.799 114.218 253.522C114.188 253.259 113.949 253.067 113.686 253.099C113.422 253.129 113.232 253.368 113.263 253.632C113.411 254.916 113.573 256.197 113.752 257.472C113.786 257.712 113.991 257.886 114.227 257.886ZM114.841 264.157C115.078 265.427 115.331 266.693 115.598 267.953C115.646 268.179 115.846 268.335 116.067 268.335C116.101 268.335 116.134 268.33 116.167 268.324C116.427 268.269 116.594 268.013 116.538 267.754C116.272 266.502 116.022 265.243 115.787 263.981C115.738 263.719 115.487 263.547 115.227 263.596C114.965 263.643 114.793 263.895 114.841 264.157ZM116.958 200.401C116.701 200.338 116.44 200.499 116.379 200.759C116.082 202.012 115.8 203.272 115.533 204.537C115.479 204.796 115.644 205.052 115.905 205.107C115.938 205.114 115.972 205.117 116.005 205.117C116.228 205.117 116.428 204.962 116.475 204.735C116.739 203.477 117.02 202.226 117.315 200.98C117.377 200.722 117.218 200.463 116.958 200.401ZM176.885 359.577C176.669 359.424 176.369 359.475 176.214 359.69C176.059 359.906 176.109 360.206 176.326 360.361C177.377 361.11 178.439 361.847 179.509 362.57C179.591 362.627 179.686 362.653 179.778 362.653C179.932 362.653 180.084 362.579 180.177 362.441C180.326 362.22 180.268 361.921 180.048 361.773C178.984 361.053 177.93 360.322 176.885 359.577ZM117.497 273.958C117.24 274.025 117.085 274.288 117.152 274.545C117.477 275.796 117.818 277.041 118.173 278.279C118.234 278.491 118.426 278.629 118.635 278.629C118.678 278.629 118.723 278.623 118.768 278.61C119.023 278.537 119.17 278.27 119.097 278.015C118.744 276.783 118.405 275.547 118.082 274.303C118.018 274.045 117.754 273.893 117.497 273.958ZM168.486 353.135C168.282 352.965 167.978 352.997 167.809 353.2C167.64 353.405 167.669 353.708 167.874 353.877C168.869 354.698 169.877 355.508 170.895 356.302C170.983 356.372 171.088 356.405 171.191 356.405C171.333 356.405 171.475 356.341 171.57 356.219C171.734 356.011 171.696 355.708 171.488 355.544C170.477 354.754 169.477 353.951 168.486 353.135ZM402.104 301.965C402.283 301.965 402.455 301.865 402.538 301.692C403.096 300.525 403.637 299.351 404.166 298.167C404.274 297.923 404.165 297.64 403.922 297.531C403.679 297.424 403.395 297.532 403.285 297.774C402.761 298.95 402.222 300.118 401.669 301.276C401.555 301.517 401.656 301.803 401.895 301.918C401.963 301.95 402.034 301.965 402.104 301.965ZM294.677 87.473C294.708 87.4793 294.739 87.4824 294.771 87.4824C294.996 87.4824 295.196 87.3251 295.242 87.0959C295.295 86.8354 295.126 86.5822 294.865 86.5301C293.602 86.2769 292.333 86.0404 291.058 85.8196C290.803 85.7727 290.548 85.9498 290.503 86.2113C290.457 86.4728 290.632 86.7218 290.894 86.7677C292.159 86.9854 293.421 87.2219 294.677 87.473ZM304.966 89.909C305.01 89.9204 305.052 89.9256 305.094 89.9256C305.306 89.9256 305.5 89.786 305.559 89.5714C305.63 89.3151 305.478 89.0505 305.223 88.9796C303.979 88.6389 302.729 88.3138 301.475 88.0034C301.211 87.9398 300.956 88.0982 300.892 88.3555C300.829 88.6129 300.986 88.8744 301.244 88.9379C302.491 89.2463 303.732 89.5704 304.966 89.909ZM406.342 292.211C406.534 292.211 406.715 292.095 406.789 291.906C407.264 290.702 407.723 289.491 408.164 288.273C408.256 288.023 408.127 287.748 407.877 287.656C407.626 287.567 407.351 287.695 407.26 287.944C406.819 289.155 406.365 290.357 405.894 291.552C405.796 291.799 405.918 292.079 406.165 292.176C406.223 292.2 406.283 292.211 406.342 292.211ZM315.077 93.0669C315.129 93.0857 315.184 93.094 315.236 93.094C315.434 93.094 315.621 92.97 315.69 92.7721C315.779 92.522 315.647 92.247 315.397 92.1595C314.176 91.7302 312.949 91.3166 311.715 90.9186C311.463 90.8373 311.192 90.9759 311.109 91.228C311.028 91.4812 311.165 91.7521 311.42 91.8333C312.644 92.2293 313.863 92.6408 315.077 93.0669ZM414.906 257.184C414.729 258.458 414.537 259.726 414.327 260.988C414.283 261.251 414.461 261.499 414.723 261.542C414.75 261.546 414.776 261.548 414.803 261.548C415.034 261.548 415.238 261.38 415.276 261.146C415.488 259.873 415.682 258.598 415.86 257.318C415.896 257.054 415.713 256.811 415.45 256.775C415.194 256.745 414.942 256.921 414.906 257.184ZM412.707 271.95C412.925 271.95 413.123 271.802 413.175 271.581C413.474 270.327 413.756 269.067 414.024 267.802C414.078 267.542 413.914 267.288 413.653 267.231C413.392 267.182 413.138 267.343 413.083 267.602C412.817 268.86 412.536 270.11 412.239 271.356C412.177 271.615 412.337 271.874 412.596 271.935C412.632 271.947 412.669 271.95 412.707 271.95ZM416.119 251.024C416.134 251.026 416.149 251.026 416.165 251.026C416.41 251.026 416.619 250.839 416.643 250.59C416.764 249.308 416.869 248.022 416.958 246.731C416.976 246.466 416.776 246.236 416.511 246.217C416.245 246.205 416.017 246.4 415.998 246.664C415.91 247.947 415.807 249.224 415.686 250.499C415.661 250.764 415.855 250.999 416.119 251.024ZM352.862 112.614C353.012 112.614 353.16 112.543 353.254 112.412C353.408 112.195 353.357 111.895 353.141 111.741C352.089 110.992 351.027 110.256 349.955 109.534C349.735 109.387 349.437 109.442 349.287 109.664C349.138 109.884 349.197 110.183 349.417 110.332C350.482 111.05 351.539 111.781 352.583 112.525C352.667 112.585 352.765 112.614 352.862 112.614ZM361.292 119.066C361.431 119.066 361.568 119.007 361.664 118.89C361.832 118.685 361.802 118.382 361.597 118.213C360.6 117.393 359.591 116.586 358.575 115.792C358.364 115.629 358.062 115.663 357.899 115.875C357.736 116.084 357.773 116.387 357.983 116.55C358.994 117.34 359.996 118.142 360.987 118.957C361.075 119.031 361.183 119.066 361.292 119.066ZM369.251 126.088C369.379 126.088 369.505 126.037 369.6 125.936C369.782 125.744 369.774 125.438 369.581 125.256C368.643 124.371 367.693 123.494 366.734 122.632C366.539 122.454 366.231 122.47 366.054 122.667C365.877 122.865 365.893 123.169 366.091 123.346C367.044 124.204 367.987 125.074 368.92 125.954C369.013 126.044 369.133 126.088 369.251 126.088ZM324.949 96.9344C325.011 96.9615 325.077 96.974 325.14 96.974C325.327 96.974 325.503 96.8657 325.582 96.6844C325.687 96.4406 325.576 96.1572 325.332 96.052C324.144 95.5383 322.95 95.0392 321.748 94.5548C321.504 94.4558 321.221 94.5746 321.122 94.8215C321.022 95.0684 321.142 95.3487 321.389 95.4477C322.584 95.928 323.77 96.4239 324.949 96.9344ZM343.745 106.69C343.824 106.738 343.91 106.761 343.996 106.761C344.158 106.761 344.316 106.679 344.407 106.53C344.546 106.304 344.474 106.007 344.248 105.869C343.145 105.195 342.035 104.534 340.915 103.888C340.685 103.757 340.391 103.835 340.258 104.064C340.125 104.294 340.204 104.588 340.434 104.722C341.546 105.363 342.651 106.02 343.745 106.69ZM334.522 101.483C334.593 101.52 334.668 101.538 334.743 101.538C334.917 101.538 335.084 101.443 335.171 101.278C335.294 101.043 335.202 100.752 334.965 100.629C333.818 100.034 332.663 99.4527 331.498 98.8859C331.262 98.7713 330.972 98.8682 330.855 99.1078C330.738 99.3464 330.838 99.635 331.077 99.7507C332.234 100.314 333.382 100.892 334.522 101.483ZM207.641 95.6352C207.702 95.6352 207.763 95.6237 207.823 95.5998C209.009 95.1174 210.203 94.6506 211.406 94.1984C211.654 94.1047 211.78 93.8275 211.686 93.5785C211.592 93.3295 211.316 93.2045 211.066 93.2982C209.856 93.7535 208.654 94.2234 207.46 94.7079C207.214 94.8079 207.095 95.0882 207.195 95.3351C207.272 95.5216 207.452 95.6352 207.641 95.6352ZM188.881 104.88C189.987 104.238 191.102 103.611 192.225 102.996C192.459 102.869 192.544 102.576 192.417 102.344C192.29 102.111 191.997 102.024 191.765 102.153C190.634 102.771 189.512 103.404 188.399 104.048C188.168 104.182 188.09 104.476 188.224 104.706C188.313 104.859 188.475 104.946 188.64 104.946C188.722 104.944 188.805 104.925 188.881 104.88ZM197.981 99.9559C198.052 99.9559 198.125 99.9403 198.192 99.9069C199.339 99.3443 200.495 98.7963 201.658 98.2628C201.899 98.1524 202.006 97.8659 201.894 97.6252C201.784 97.3835 201.498 97.2793 201.257 97.3887C200.085 97.9263 198.923 98.4775 197.768 99.0432C197.53 99.1599 197.432 99.4485 197.547 99.6871C197.632 99.8569 197.803 99.9559 197.981 99.9559ZM217.608 91.9917C217.657 91.9917 217.708 91.9844 217.757 91.9678C218.974 91.5708 220.198 91.1884 221.429 90.8217C221.683 90.7456 221.829 90.4778 221.753 90.2236C221.677 89.9694 221.409 89.8235 221.155 89.8996C219.916 90.2684 218.683 90.6529 217.458 91.053C217.206 91.1353 217.067 91.4072 217.15 91.6593C217.216 91.8636 217.405 91.9917 217.608 91.9917ZM155.701 130.875C156.592 129.952 157.493 129.041 158.406 128.141C158.595 127.955 158.597 127.65 158.41 127.461C158.223 127.271 157.918 127.27 157.73 127.457C156.811 128.362 155.903 129.28 155.007 130.208C154.823 130.399 154.828 130.704 155.02 130.889C155.113 130.979 155.233 131.023 155.354 131.023C155.481 131.022 155.606 130.972 155.701 130.875ZM163.304 123.522C164.256 122.664 165.218 121.818 166.191 120.983C166.392 120.81 166.416 120.507 166.243 120.305C166.071 120.104 165.767 120.081 165.565 120.253C164.586 121.092 163.617 121.944 162.66 122.808C162.463 122.985 162.447 123.29 162.625 123.487C162.72 123.592 162.85 123.645 162.983 123.645C163.097 123.646 163.212 123.606 163.304 123.522ZM179.933 110.493C180.993 109.775 182.063 109.07 183.141 108.38C183.365 108.236 183.43 107.939 183.287 107.715C183.144 107.491 182.845 107.424 182.622 107.569C181.537 108.264 180.46 108.972 179.395 109.696C179.175 109.844 179.116 110.144 179.265 110.363C179.358 110.501 179.51 110.575 179.664 110.575C179.757 110.575 179.851 110.548 179.933 110.493ZM171.394 116.717C172.401 115.927 173.419 115.15 174.449 114.385C174.662 114.227 174.706 113.926 174.548 113.712C174.389 113.498 174.088 113.454 173.875 113.613C172.839 114.383 171.815 115.165 170.8 115.959C170.591 116.123 170.554 116.425 170.718 116.634C170.813 116.755 170.954 116.819 171.097 116.819C171.201 116.82 171.305 116.787 171.394 116.717ZM284.237 85.7633C284.258 85.7654 284.278 85.7675 284.299 85.7675C284.537 85.7675 284.744 85.5903 284.775 85.3476C284.809 85.084 284.623 84.8433 284.359 84.8089C283.081 84.6454 281.8 84.4974 280.513 84.3651C280.254 84.3453 280.013 84.5297 279.986 84.7954C279.959 85.059 280.151 85.2955 280.415 85.3226C281.694 85.4539 282.968 85.6008 284.237 85.7633ZM259.29 84.6255C260.567 84.5807 261.848 84.5505 263.132 84.5359C263.398 84.5328 263.612 84.3151 263.608 84.0494C263.605 83.7837 263.401 83.6128 263.122 83.5732C261.828 83.5878 260.54 83.617 259.255 83.6639C258.99 83.6733 258.781 83.8962 258.792 84.1609C258.801 84.4203 259.015 84.6255 259.272 84.6255C259.278 84.6266 259.284 84.6266 259.29 84.6255ZM273.707 84.785C273.717 84.785 273.726 84.786 273.736 84.786C273.99 84.786 274.2 84.5891 274.216 84.3328C274.231 84.0681 274.029 83.84 273.764 83.8254C272.478 83.7504 271.189 83.692 269.896 83.6503C269.891 83.6503 269.885 83.6503 269.881 83.6503C269.622 83.6503 269.408 83.8556 269.399 84.115C269.391 84.3807 269.599 84.6037 269.864 84.612C271.15 84.6526 272.431 84.711 273.707 84.785ZM397.193 311.391C397.361 311.391 397.524 311.303 397.612 311.147C398.249 310.022 398.872 308.89 399.48 307.748C399.605 307.514 399.516 307.222 399.282 307.097C399.048 306.974 398.757 307.061 398.631 307.295C398.026 308.43 397.407 309.556 396.774 310.673C396.644 310.904 396.725 311.197 396.957 311.329C397.032 311.371 397.113 311.391 397.193 311.391ZM238.266 86.8417C239.525 86.6197 240.791 86.4124 242.062 86.2217C242.326 86.1821 242.506 85.9373 242.466 85.6747C242.427 85.4122 242.186 85.2361 241.919 85.2705C240.641 85.4632 239.367 85.6716 238.099 85.8956C237.837 85.9415 237.662 86.1915 237.709 86.453C237.75 86.6864 237.953 86.85 238.182 86.85C238.209 86.8489 238.236 86.8469 238.266 86.8417ZM227.804 89.0588C227.842 89.0588 227.882 89.0546 227.921 89.0442C229.163 88.7337 230.411 88.4389 231.665 88.1586C231.925 88.1013 232.088 87.844 232.03 87.5845C231.971 87.3251 231.716 87.1626 231.456 87.2199C230.194 87.5012 228.937 87.7981 227.688 88.1107C227.43 88.1753 227.274 88.4368 227.338 88.6941C227.392 88.9129 227.588 89.0588 227.804 89.0588ZM248.739 85.3674C250.011 85.233 251.287 85.1152 252.57 85.0131C252.834 84.9923 253.032 84.7599 253.011 84.4953C252.989 84.2307 252.764 84.0348 252.494 84.0546C251.204 84.1577 249.919 84.2765 248.639 84.412C248.374 84.4401 248.182 84.6766 248.21 84.9402C248.236 85.1871 248.445 85.3715 248.689 85.3715C248.705 85.3705 248.722 85.3695 248.739 85.3674ZM114.84 210.798C114.574 210.748 114.33 210.933 114.288 211.194C114.079 212.465 113.887 213.742 113.709 215.022C113.672 215.286 113.856 215.529 114.119 215.564C114.141 215.567 114.164 215.569 114.186 215.569C114.422 215.569 114.629 215.395 114.662 215.154C114.838 213.88 115.03 212.612 115.237 211.35C115.28 211.088 115.103 210.841 114.84 210.798ZM363.596 352.152C363.707 352.152 363.818 352.114 363.909 352.036C364.889 351.197 365.857 350.345 366.816 349.483C367.014 349.305 367.031 349.001 366.852 348.804C366.674 348.605 366.369 348.589 366.173 348.768C365.221 349.625 364.257 350.471 363.283 351.305C363.081 351.477 363.058 351.781 363.231 351.983C363.326 352.094 363.461 352.152 363.596 352.152ZM385.05 328.848V328.39C384.974 328.536 384.971 328.708 385.05 328.848ZM327.994 374.907C328.061 374.907 328.13 374.894 328.194 374.865C329.366 374.329 330.529 373.778 331.684 373.213C331.923 373.097 332.022 372.808 331.905 372.569C331.788 372.33 331.498 372.234 331.261 372.349C330.114 372.909 328.958 373.456 327.794 373.989C327.73 374.018 327.678 374.059 327.635 374.108V374.716C327.726 374.828 327.851 374.907 327.994 374.907ZM355.305 358.761C355.405 358.761 355.505 358.73 355.592 358.666C356.627 357.899 357.654 357.117 358.668 356.323C358.878 356.16 358.915 355.858 358.751 355.648C358.586 355.436 358.283 355.401 358.076 355.566C357.066 356.355 356.048 357.131 355.018 357.894C354.804 358.053 354.759 358.354 354.918 358.568C355.012 358.694 355.158 358.761 355.305 358.761ZM378.714 337.281C378.847 337.281 378.979 337.227 379.074 337.118C379.93 336.151 380.773 335.174 381.603 334.184C381.774 333.981 381.748 333.678 381.544 333.507C381.341 333.336 381.038 333.363 380.867 333.566C380.042 334.548 379.205 335.52 378.354 336.482C378.177 336.679 378.195 336.985 378.396 337.16C378.487 337.241 378.601 337.281 378.714 337.281ZM337.461 370.169C337.539 370.169 337.618 370.15 337.691 370.111C338.822 369.493 339.946 368.862 341.058 368.217C341.289 368.085 341.368 367.79 341.234 367.561C341.101 367.331 340.804 367.251 340.578 367.385C339.471 368.026 338.355 368.653 337.23 369.265C336.997 369.393 336.911 369.684 337.038 369.918C337.126 370.078 337.291 370.169 337.461 370.169ZM346.579 364.777C346.669 364.777 346.757 364.753 346.839 364.702C347.925 364.008 349.002 363.3 350.07 362.579C350.289 362.431 350.348 362.132 350.199 361.911C350.05 361.691 349.751 361.633 349.531 361.782C348.471 362.498 347.401 363.202 346.322 363.891C346.097 364.034 346.031 364.331 346.174 364.555C346.265 364.699 346.421 364.777 346.579 364.777ZM371.413 344.979C371.535 344.979 371.657 344.933 371.75 344.841C372.67 343.935 373.579 343.018 374.475 342.091C374.66 341.899 374.654 341.595 374.463 341.411C374.272 341.226 373.966 341.232 373.783 341.422C372.892 342.344 371.989 343.255 371.075 344.155C370.886 344.342 370.883 344.647 371.07 344.835C371.164 344.931 371.289 344.979 371.413 344.979ZM249.003 387.805C247.448 392.485 246.334 397.313 245.731 402.236L240.484 445.031L251.54 448.039L270.78 392.232C271.373 393.912 272.026 395.622 272.756 397.398L289.15 437.274L300.263 434.479L291.486 386.265L291.325 385.376L285.318 352.38L285.116 352.178L285.202 351.986L256.424 334.512C246.196 338.873 232.255 339.834 219.177 338.04V370.447C221.198 371.25 223.315 371.89 225.523 372.328C235.377 374.283 245.821 374.82 254.77 374.768C253.282 377.412 251.943 380.133 250.792 382.929C250.244 384.258 249.743 385.606 249.273 386.964C249.177 387.242 249.096 387.526 249.003 387.805ZM196.706 331.559C195.113 342.655 198.727 353.4 205.79 361.174C208.76 364.444 212.343 367.182 216.398 369.205V337.611C209.202 336.395 202.374 334.345 196.706 331.559Z" fill="#333D92"/>
<path d="M89.8949 491.578H83.9478C80.5075 487.986 77.4381 484.042 74.8449 479.796C75.6784 480.034 76.5181 480.252 77.3735 480.43C79.8814 480.954 80.9535 477.105 78.4352 476.58C76.2191 476.117 74.0843 475.431 71.987 474.644C70.1188 470.909 68.58 467.009 67.4162 462.999C69.6771 464.397 71.9182 465.826 74.1093 467.336C76.2306 468.798 78.23 465.338 76.1253 463.887C72.8496 461.631 69.4687 459.546 66.0669 457.493C64.6823 450.594 64.4041 443.485 65.1709 436.491C67.0744 438.202 68.9915 439.898 70.918 441.584C72.8444 443.27 75.6805 440.456 73.7425 438.759C71.0941 436.441 68.4518 434.116 65.8596 431.738C66.9348 425.758 68.7769 419.918 71.3879 414.431C77.2756 418.189 82.4131 423.033 86.5765 428.601C84.5959 431.326 82.7424 434.14 81.0618 437.071C79.7813 439.305 83.231 441.319 84.5105 439.087C85.893 436.676 87.4111 434.36 89.0031 432.096C92.035 436.828 94.3824 441.995 95.9317 447.413C92.7945 451.023 89.8866 454.836 86.9495 458.623C85.3929 460.629 88.1998 463.476 89.7741 461.447C92.1788 458.348 94.5626 455.227 97.0694 452.216C98.2321 458.388 98.1842 464.79 97.1423 471.066C95.3701 472.243 93.6114 473.444 91.885 474.69C89.8199 476.18 91.811 479.646 93.901 478.138C94.572 477.654 95.2513 477.183 95.9306 476.711C94.5522 481.907 92.4997 486.93 89.8949 491.578ZM120.149 483.613C119.509 483.767 118.869 483.919 118.231 484.083C116.244 484.596 115.772 481.448 117.736 480.942C119.378 480.518 121.03 480.138 122.685 479.778C125.276 475.425 127.168 470.692 128.095 465.777C125.364 467.284 122.692 468.907 120.01 470.509C118.254 471.557 116.998 468.632 118.734 467.595C122.01 465.639 125.272 463.654 128.645 461.886C129.066 457.419 128.823 452.907 127.946 448.518C126.109 449.735 124.312 451.014 122.587 452.401C120.991 453.684 119.017 451.191 120.614 449.906C122.709 448.219 124.9 446.67 127.159 445.223C125.686 439.886 123.279 434.806 120.002 430.312C116.477 433.625 113.418 437.422 110.887 441.545C112.119 444.06 113.405 446.55 114.698 449.036C115.644 450.856 112.726 452.121 111.785 450.313C110.845 448.504 109.916 446.69 108.999 444.87C106.403 449.834 104.549 455.187 103.576 460.705C105.504 463.214 107.407 465.74 109.182 468.362C110.323 470.048 107.838 472.035 106.688 470.336C105.5 468.581 104.253 466.871 102.982 465.179C102.683 468.49 102.694 471.829 102.997 475.14C104.324 476.333 105.709 477.46 107.217 478.445C108.933 479.564 107.023 482.108 105.314 480.993C104.731 480.613 104.172 480.206 103.623 479.79C104.341 483.836 105.531 487.792 107.128 491.578H112.873C115.554 489.193 118.02 486.527 120.149 483.613ZM58.5622 316.111C48.5153 290.826 42.9859 263.275 42.9859 234.454C42.9859 192.225 54.8531 152.718 75.42 119.082C75.1908 118.955 74.972 118.819 74.7605 118.673C53.6382 153.197 42.3379 192.954 42.3379 234.454C42.3379 262.949 47.6734 290.619 57.8454 316.343C58.0777 316.257 58.3163 316.18 58.5622 316.111ZM422.095 77.1556C380.079 35.1393 324.215 12 264.795 12C205.375 12 149.511 35.1393 107.496 77.1556C99.2136 85.4376 91.6766 94.2655 84.8939 103.545C85.1085 103.695 85.3127 103.854 85.5086 104.022C125.88 48.6818 191.203 12.647 264.795 12.647C349.766 12.647 423.712 60.6865 460.95 131.021H461.852C451.533 111.418 438.206 93.2664 422.095 77.1556ZM219.177 452.234C221.873 452.792 224.583 453.3 227.307 453.759V453.058C224.58 452.591 221.868 452.084 219.177 451.519V452.234ZM216.398 450.916C196.075 446.374 176.792 439.048 158.983 429.338V430.238C177.009 440.009 196.299 447.209 216.398 451.644V450.916ZM65.9169 332.591C65.6981 332.728 65.4678 332.852 65.2303 332.97C75.8628 354.46 90.045 374.305 107.495 391.754C122.184 406.444 138.569 418.819 156.205 428.71V427.775C117.384 405.881 85.767 372.655 65.9169 332.591ZM238.922 454.754C237.348 454.571 235.788 454.346 234.225 454.129V454.827C235.768 455.038 237.314 455.232 238.864 455.412C238.876 455.192 238.897 454.973 238.922 454.754ZM327.634 447.942C347.916 442.002 367.221 433.18 385.05 421.677V420.749C367.461 432.142 348.163 441.106 327.634 447.182V447.942ZM422.095 391.754C464.11 349.739 487.251 293.874 487.251 234.455C487.251 212.57 484.095 191.174 478.025 170.769V173.363C483.6 192.778 486.603 213.271 486.603 234.455C486.603 311.279 447.338 379.098 387.829 418.92V419.87C400.021 411.742 411.499 402.35 422.095 391.754ZM308.686 452.606C314.136 451.521 319.528 450.231 324.857 448.747V447.994C319.377 449.537 313.811 450.87 308.169 451.993L308.686 452.606ZM246.394 478.085L236.353 468.513L237.285 458.552L234.259 461.457C234.247 461.469 234.238 461.484 234.226 461.496C233.115 462.581 232.511 463.979 232.42 465.393L232.408 465.373L230.48 485.099L232.366 485.532L234.282 479.767L236.443 473.269L241.005 479.767L247.489 489.002L259.208 491.692L254.807 486.711L252.504 479.767L251.903 477.955L246.394 478.085ZM315.236 460.379L310.498 463.193L297.056 459.769L292.987 450.628L291.78 454.619C282.932 455.697 273.928 456.264 264.795 456.264C261.961 456.264 259.141 456.208 256.333 456.101C256.33 456.313 256.322 456.525 256.307 456.736C259.128 456.841 261.957 456.911 264.795 456.911C273.837 456.911 282.797 456.367 291.638 455.311C291.402 456.596 291.569 457.874 292.099 458.975L292.079 458.963L300.064 477.104L301.92 476.557L299.465 463.869L316.804 472.172L324.859 469.8V467.563L322.061 466.589L315.236 460.379ZM327.634 468.531V468.982L328.337 468.776L327.634 468.531ZM252.198 317.792C251.281 313.678 250.446 309.599 249.701 305.566C245.805 305.453 242.092 305.391 238.502 305.289C228.037 304.992 218.526 304.331 207.987 300.93C207.309 296.735 206.557 292.854 205.768 289.141C205.997 294.658 203.498 300.801 200.679 309.373C199.834 311.943 198.961 314.735 198.123 317.79H221.481H252.198V317.792ZM219.177 325.302V338.04C232.254 339.834 246.195 338.872 256.423 334.512C255.292 330.56 254.287 326.647 253.352 322.759H221.48H218.98C219.102 323.506 219.177 324.369 219.177 325.302ZM196.705 331.558C202.374 334.343 209.203 336.394 216.398 337.609V325.301C216.398 324.369 216.473 323.506 216.595 322.757H196.856C196.268 325.27 195.719 327.945 195.236 330.809C195.717 331.065 196.207 331.314 196.705 331.558ZM196.582 247.471C201.451 242.67 207.489 243.27 214.748 248.297C217.223 263.313 218.258 273.414 220.733 288.429C225.555 289.221 231.98 290.906 238.63 292.716C241.731 293.56 244.879 294.431 247.941 295.253C247.442 292.089 246.974 288.948 246.546 285.84C246.278 283.9 246.019 281.966 245.773 280.049C243.841 264.969 256.874 258.093 248.695 244.239C247.502 242.218 245.862 240.051 243.653 237.686C241.476 235.356 238.349 232.683 234.82 230.088C232.173 228.142 229.297 226.244 226.415 224.567L225.974 231.103L224.146 230.91C220.634 226.217 216.724 222.057 212.147 219.349L212.188 218.745C210.404 218.435 208.58 218.276 206.805 218.454C205.681 218.566 204.578 218.801 203.522 219.228C199.009 221.055 196.338 225.776 194.967 230.45C194.013 233.707 193.777 237.2 193.965 240.77C194.337 247.787 196.382 255.108 198.063 261.564C198.142 261.867 198.22 262.153 198.299 262.447C200.066 269.049 201.826 273.613 203.492 279.184C201.074 269.121 198.538 259.555 196.582 247.471ZM342.777 185.206C342.263 184.335 341.556 183.4 340.604 182.381C339.666 181.377 338.317 180.225 336.797 179.107C335.656 178.268 334.416 177.449 333.174 176.727L332.984 179.544L332.197 179.461C330.684 177.437 328.998 175.644 327.025 174.477L327.043 174.217C326.274 174.084 325.487 174.015 324.722 174.091C324.238 174.139 323.762 174.24 323.307 174.424C321.362 175.212 320.21 177.247 319.62 179.262C319.209 180.665 319.107 182.172 319.189 183.711C319.349 186.735 320.231 189.891 320.955 192.674C320.961 192.698 320.967 192.72 320.974 192.744C321.171 192.851 321.371 192.951 321.571 193.053C321.572 193.053 321.572 193.054 321.573 193.054C321.122 191.041 320.693 188.931 320.316 186.599C322.415 184.53 325.017 184.788 328.147 186.955C328.678 190.177 329.056 192.873 329.432 195.567C329.972 195.646 330.519 195.703 331.071 195.748C331.181 195.757 331.292 195.765 331.404 195.773C331.966 195.811 332.531 195.836 333.102 195.836C333.531 195.836 333.958 195.825 334.382 195.804C334.607 195.792 334.83 195.772 335.054 195.754C335.247 195.739 335.443 195.729 335.636 195.71C335.944 195.679 336.251 195.638 336.556 195.596C336.659 195.581 336.763 195.572 336.866 195.556C337.217 195.504 337.564 195.441 337.911 195.374C337.965 195.363 338.02 195.355 338.074 195.344C338.455 195.268 338.835 195.183 339.21 195.089C339.225 195.085 339.241 195.082 339.257 195.079C340.435 194.783 341.582 194.405 342.689 193.951C343.765 191.189 344.851 188.717 342.777 185.206Z" fill="url(#paint2_linear_3331_12917)"/>
</g>
<defs>
<filter id="filter0_d_3331_12917" x="0" y="0" width="504.956" height="515.001" filterUnits="userSpaceOnUse" color-interpolation-filters="sRGB">
<feFlood flood-opacity="0" result="BackgroundImageFix"/>
<feColorMatrix in="SourceAlpha" type="matrix" values="0 0 0 0 0 0 0 0 0 0 0 0 0 0 0 0 0 0 127 0" result="hardAlpha"/>
<feMorphology radius="2" operator="dilate" in="SourceAlpha" result="effect1_dropShadow_3331_12917"/>
<feOffset dx="2" dy="2"/>
<feGaussianBlur stdDeviation="6"/>
<feComposite in2="hardAlpha" operator="out"/>
<feColorMatrix type="matrix" values="0 0 0 0 0.580392 0 0 0 0 0.580392 0 0 0 0 0.580392 0 0 0 0.15 0"/>
<feBlend mode="normal" in2="BackgroundImageFix" result="effect1_dropShadow_3331_12917"/>
<feBlend mode="normal" in="SourceGraphic" in2="effect1_dropShadow_3331_12917" result="shape"/>
</filter>
<linearGradient id="paint0_linear_3331_12917" x1="12" y1="262.053" x2="489.186" y2="498.562" gradientUnits="userSpaceOnUse">
<stop stop-color="#363636"/>
<stop offset="1" stop-color="#3F3F3F"/>
</linearGradient>
<linearGradient id="paint1_linear_3331_12917" x1="821.027" y1="671.516" x2="280.807" y2="252.677" gradientUnits="userSpaceOnUse">
<stop stop-color="#E48D60"/>
<stop offset="1" stop-color="#FFD8C4"/>
</linearGradient>
<linearGradient id="paint2_linear_3331_12917" x1="42.0059" y1="12" x2="575.476" y2="352.731" gradientUnits="userSpaceOnUse">
<stop stop-color="#FCFF99"/>
<stop offset="1" stop-color="#E7ED32"/>
</linearGradient>
</defs>
</svg>
