<svg width="388" height="269" viewBox="0 0 388 269" fill="none" xmlns="http://www.w3.org/2000/svg">
<g filter="url(#filter0_d_2743_1562)">
<g filter="url(#filter1_bd_2743_1562)">
<rect x="27.3379" y="8.42578" width="333.858" height="214.724" rx="13.9107" fill="white"/>
</g>
<line x1="75.8252" y1="179.599" x2="334.157" y2="179.599" stroke="#E6E6E6" stroke-width="1.78677"/>
<line x1="75.8252" y1="150.324" x2="334.157" y2="150.324" stroke="#E6E6E6" stroke-width="0.273504"/>
<line x1="75.8252" y1="121.063" x2="334.157" y2="121.063" stroke="#E6E6E6" stroke-width="0.273504"/>
<line x1="75.8252" y1="91.8027" x2="334.157" y2="91.8027" stroke="#E6E6E6" stroke-width="0.273504"/>
<line x1="75.7549" y1="62.541" x2="334.087" y2="62.541" stroke="#E6E6E6" stroke-width="0.273504"/>
<path d="M96.8404 200.812C96.0051 200.812 95.4204 200.476 95.0862 199.802L95.9899 199.286C96.157 199.62 96.4405 199.787 96.8404 199.787C97.1188 199.787 97.3264 199.721 97.4631 199.59C97.5998 199.458 97.6681 199.278 97.6681 199.051V195.39H98.7085V199.051C98.7085 199.607 98.5338 200.04 98.1845 200.349C97.8352 200.658 97.3871 200.812 96.8404 200.812ZM101.635 200.812C101.042 200.812 100.556 200.645 100.177 200.311C99.7969 199.977 99.6071 199.529 99.6071 198.967V195.39H100.647V198.884C100.647 199.162 100.726 199.382 100.883 199.544C101.045 199.706 101.295 199.787 101.635 199.787C101.974 199.787 102.222 199.706 102.379 199.544C102.541 199.382 102.622 199.162 102.622 198.884V195.39H103.67V198.967C103.67 199.529 103.48 199.977 103.1 200.311C102.721 200.645 102.232 200.812 101.635 200.812ZM105.662 199.704H107.689V200.706H104.614V195.39H105.662V199.704Z" fill="#7B7B7B"/>
<g opacity="0.5">
<path d="M50.7743 71.5218V72.1824H50.1288V73.1924H49.4226V72.1824H46.7116V71.5218L48.6176 67.8767H49.377L47.471 71.5218H49.4226V70.0182H50.1288V71.5218H50.7743ZM54.8375 72.5393C54.4781 73.0405 53.9744 73.2911 53.3264 73.2911C52.6784 73.2911 52.1746 73.0405 51.8152 72.5393C51.4558 72.0381 51.276 71.3699 51.276 70.5346C51.276 69.6992 51.4558 69.031 51.8152 68.5298C52.1746 68.0286 52.6784 67.778 53.3264 67.778C53.9744 67.778 54.4781 68.0286 54.8375 68.5298C55.197 69.031 55.3767 69.6992 55.3767 70.5346C55.3767 71.3699 55.197 72.0381 54.8375 72.5393ZM52.3316 72.0609C52.5644 72.4203 52.896 72.6001 53.3264 72.6001C53.7567 72.6001 54.0883 72.4203 54.3211 72.0609C54.5591 71.7015 54.6781 71.1927 54.6781 70.5346C54.6781 69.8764 54.5591 69.3676 54.3211 69.0082C54.0883 68.6437 53.7567 68.4615 53.3264 68.4615C52.896 68.4615 52.5644 68.6412 52.3316 69.0006C52.0987 69.3601 51.9823 69.8714 51.9823 70.5346C51.9823 71.1927 52.0987 71.7015 52.3316 72.0609ZM59.6207 72.5393C59.2613 73.0405 58.7576 73.2911 58.1095 73.2911C57.4615 73.2911 56.9578 73.0405 56.5984 72.5393C56.2389 72.0381 56.0592 71.3699 56.0592 70.5346C56.0592 69.6992 56.2389 69.031 56.5984 68.5298C56.9578 68.0286 57.4615 67.778 58.1095 67.778C58.7576 67.778 59.2613 68.0286 59.6207 68.5298C59.9802 69.031 60.1599 69.6992 60.1599 70.5346C60.1599 71.3699 59.9802 72.0381 59.6207 72.5393ZM57.1148 72.0609C57.3476 72.4203 57.6792 72.6001 58.1095 72.6001C58.5399 72.6001 58.8715 72.4203 59.1043 72.0609C59.3423 71.7015 59.4612 71.1927 59.4612 70.5346C59.4612 69.8764 59.3423 69.3676 59.1043 69.0082C58.8715 68.6437 58.5399 68.4615 58.1095 68.4615C57.6792 68.4615 57.3476 68.6412 57.1148 69.0006C56.8819 69.3601 56.7655 69.8714 56.7655 70.5346C56.7655 71.1927 56.8819 71.7015 57.1148 72.0609Z" fill="black"/>
<path d="M49.2701 99.147C49.6751 99.2229 50.0067 99.3976 50.2649 99.6709C50.5231 99.9443 50.6522 100.291 50.6522 100.711C50.6522 101.228 50.475 101.635 50.1206 101.934C49.7662 102.233 49.3359 102.382 48.8297 102.382C48.4247 102.382 48.0652 102.291 47.7513 102.109C47.4375 101.921 47.2147 101.653 47.0831 101.304L47.6754 100.954C47.8323 101.445 48.2171 101.691 48.8297 101.691C49.1587 101.691 49.427 101.605 49.6346 101.433C49.8422 101.261 49.9459 101.02 49.9459 100.711C49.9459 100.402 49.8422 100.162 49.6346 99.9899C49.427 99.8127 49.1587 99.7241 48.8297 99.7241H48.6474L48.3664 99.2913L49.5966 97.6282H47.235V96.9676H50.4243V97.5902L49.2701 99.147ZM54.8375 101.63C54.4781 102.131 53.9744 102.382 53.3264 102.382C52.6784 102.382 52.1746 102.131 51.8152 101.63C51.4558 101.129 51.276 100.461 51.276 99.6254C51.276 98.7901 51.4558 98.1218 51.8152 97.6206C52.1746 97.1194 52.6784 96.8688 53.3264 96.8688C53.9744 96.8688 54.4781 97.1194 54.8375 97.6206C55.197 98.1218 55.3767 98.7901 55.3767 99.6254C55.3767 100.461 55.197 101.129 54.8375 101.63ZM52.3316 101.152C52.5644 101.511 52.896 101.691 53.3264 101.691C53.7567 101.691 54.0883 101.511 54.3211 101.152C54.5591 100.792 54.6781 100.284 54.6781 99.6254C54.6781 98.9673 54.5591 98.4585 54.3211 98.099C54.0883 97.7345 53.7567 97.5523 53.3264 97.5523C52.896 97.5523 52.5644 97.732 52.3316 98.0914C52.0987 98.4509 51.9823 98.9622 51.9823 99.6254C51.9823 100.284 52.0987 100.792 52.3316 101.152ZM59.6207 101.63C59.2613 102.131 58.7576 102.382 58.1096 102.382C57.4615 102.382 56.9578 102.131 56.5984 101.63C56.2389 101.129 56.0592 100.461 56.0592 99.6254C56.0592 98.7901 56.2389 98.1218 56.5984 97.6206C56.9578 97.1194 57.4615 96.8688 58.1096 96.8688C58.7576 96.8688 59.2613 97.1194 59.6207 97.6206C59.9802 98.1218 60.1599 98.7901 60.1599 99.6254C60.1599 100.461 59.9802 101.129 59.6207 101.63ZM57.1148 101.152C57.3476 101.511 57.6792 101.691 58.1096 101.691C58.5399 101.691 58.8715 101.511 59.1043 101.152C59.3423 100.792 59.4612 100.284 59.4612 99.6254C59.4612 98.9673 59.3423 98.4585 59.1043 98.099C58.8715 97.7345 58.5399 97.5523 58.1096 97.5523C57.6792 97.5523 57.3476 97.732 57.1148 98.0914C56.8819 98.4509 56.7655 98.9622 56.7655 99.6254C56.7655 100.284 56.8819 100.792 57.1148 101.152Z" fill="black"/>
<path d="M47.2773 131.374V130.797L49.153 128.883C49.6542 128.382 49.9048 127.952 49.9048 127.592C49.9048 127.294 49.8136 127.061 49.6314 126.894C49.4491 126.727 49.2264 126.643 48.9631 126.643C48.4619 126.643 48.0974 126.881 47.8696 127.357L47.2773 127.008C47.4444 126.663 47.6747 126.403 47.9684 126.225C48.267 126.048 48.5961 125.96 48.9555 125.96C49.401 125.96 49.7883 126.106 50.1174 126.4C50.4465 126.694 50.611 127.089 50.611 127.585C50.611 128.121 50.2946 128.706 49.6618 129.339L48.3025 130.691H50.7097V131.374H47.2773ZM54.8375 130.721C54.4781 131.222 53.9744 131.473 53.3264 131.473C52.6784 131.473 52.1746 131.222 51.8152 130.721C51.4558 130.22 51.276 129.552 51.276 128.716C51.276 127.881 51.4558 127.213 51.8152 126.711C52.1746 126.21 52.6784 125.96 53.3264 125.96C53.9744 125.96 54.4781 126.21 54.8375 126.711C55.197 127.213 55.3767 127.881 55.3767 128.716C55.3767 129.552 55.197 130.22 54.8375 130.721ZM52.3316 130.243C52.5644 130.602 52.896 130.782 53.3264 130.782C53.7567 130.782 54.0883 130.602 54.3211 130.243C54.5591 129.883 54.6781 129.374 54.6781 128.716C54.6781 128.058 54.5591 127.549 54.3211 127.19C54.0883 126.825 53.7567 126.643 53.3264 126.643C52.896 126.643 52.5644 126.823 52.3316 127.182C52.0987 127.542 51.9823 128.053 51.9823 128.716C51.9823 129.374 52.0987 129.883 52.3316 130.243ZM59.6207 130.721C59.2613 131.222 58.7576 131.473 58.1096 131.473C57.4615 131.473 56.9578 131.222 56.5984 130.721C56.2389 130.22 56.0592 129.552 56.0592 128.716C56.0592 127.881 56.2389 127.213 56.5984 126.711C56.9578 126.21 57.4615 125.96 58.1096 125.96C58.7576 125.96 59.2613 126.21 59.6207 126.711C59.9802 127.213 60.1599 127.881 60.1599 128.716C60.1599 129.552 59.9802 130.22 59.6207 130.721ZM57.1148 130.243C57.3476 130.602 57.6792 130.782 58.1096 130.782C58.5399 130.782 58.8715 130.602 59.1043 130.243C59.3423 129.883 59.4612 129.374 59.4612 128.716C59.4612 128.058 59.3423 127.549 59.1043 127.19C58.8715 126.825 58.5399 126.643 58.1096 126.643C57.6792 126.643 57.3476 126.823 57.1148 127.182C56.8819 127.542 56.7655 128.053 56.7655 128.716C56.7655 129.374 56.8819 129.883 57.1148 130.243Z" fill="black"/>
<path d="M49.7311 155.149H50.3386V160.465H49.64V155.909L48.5085 156.243L48.3339 155.635L49.7311 155.149ZM54.8375 159.812C54.4781 160.313 53.9744 160.564 53.3264 160.564C52.6784 160.564 52.1746 160.313 51.8152 159.812C51.4558 159.311 51.276 158.642 51.276 157.807C51.276 156.972 51.4558 156.303 51.8152 155.802C52.1746 155.301 52.6784 155.05 53.3264 155.05C53.9744 155.05 54.4781 155.301 54.8375 155.802C55.197 156.303 55.3767 156.972 55.3767 157.807C55.3767 158.642 55.197 159.311 54.8375 159.812ZM52.3316 159.333C52.5644 159.693 52.896 159.873 53.3264 159.873C53.7567 159.873 54.0883 159.693 54.3211 159.333C54.5591 158.974 54.6781 158.465 54.6781 157.807C54.6781 157.149 54.5591 156.64 54.3211 156.281C54.0883 155.916 53.7567 155.734 53.3264 155.734C52.896 155.734 52.5644 155.914 52.3316 156.273C52.0987 156.633 51.9823 157.144 51.9823 157.807C51.9823 158.465 52.0987 158.974 52.3316 159.333ZM59.6207 159.812C59.2613 160.313 58.7576 160.564 58.1096 160.564C57.4615 160.564 56.9578 160.313 56.5984 159.812C56.2389 159.311 56.0592 158.642 56.0592 157.807C56.0592 156.972 56.2389 156.303 56.5984 155.802C56.9578 155.301 57.4615 155.05 58.1096 155.05C58.7576 155.05 59.2613 155.301 59.6207 155.802C59.9802 156.303 60.1599 156.972 60.1599 157.807C60.1599 158.642 59.9802 159.311 59.6207 159.812ZM57.1148 159.333C57.3476 159.693 57.6792 159.873 58.1096 159.873C58.5399 159.873 58.8715 159.693 59.1043 159.333C59.3423 158.974 59.4612 158.465 59.4612 157.807C59.4612 157.149 59.3423 156.64 59.1043 156.281C58.8715 155.916 58.5399 155.734 58.1096 155.734C57.6792 155.734 57.3476 155.914 57.1148 156.273C56.8819 156.633 56.7655 157.144 56.7655 157.807C56.7655 158.465 56.8819 158.974 57.1148 159.333Z" fill="black"/>
<path d="M58.7399 188.904C58.3804 189.405 57.8767 189.655 57.2287 189.655C56.5807 189.655 56.077 189.405 55.7175 188.904C55.3581 188.402 55.1784 187.734 55.1784 186.899C55.1784 186.064 55.3581 185.395 55.7175 184.894C56.077 184.393 56.5807 184.142 57.2287 184.142C57.8767 184.142 58.3804 184.393 58.7399 184.894C59.0993 185.395 59.279 186.064 59.279 186.899C59.279 187.734 59.0993 188.402 58.7399 188.904ZM56.2339 188.425C56.4668 188.785 56.7984 188.964 57.2287 188.964C57.659 188.964 57.9906 188.785 58.2235 188.425C58.4614 188.066 58.5804 187.557 58.5804 186.899C58.5804 186.241 58.4614 185.732 58.2235 185.372C57.9906 185.008 57.659 184.826 57.2287 184.826C56.7984 184.826 56.4668 185.005 56.2339 185.365C56.001 185.724 55.8846 186.236 55.8846 186.899C55.8846 187.557 56.001 188.066 56.2339 188.425Z" fill="black"/>
</g>
<path d="M140.932 200.706L140.613 199.749H138.495L138.176 200.706H137.044L138.905 195.39H140.203L142.071 200.706H140.932ZM138.829 198.77H140.287L139.558 196.598L138.829 198.77ZM144.421 200.812C143.829 200.812 143.343 200.645 142.963 200.311C142.583 199.977 142.394 199.529 142.394 198.967V195.39H143.434V198.884C143.434 199.162 143.512 199.382 143.669 199.544C143.831 199.706 144.082 199.787 144.421 199.787C144.76 199.787 145.008 199.706 145.165 199.544C145.327 199.382 145.408 199.162 145.408 198.884V195.39H146.456V198.967C146.456 199.529 146.266 199.977 145.887 200.311C145.507 200.645 145.018 200.812 144.421 200.812ZM152.617 197.851V198.261C152.617 199.02 152.374 199.635 151.888 200.106C151.402 200.577 150.774 200.812 150.005 200.812C149.185 200.812 148.504 200.547 147.962 200.015C147.426 199.478 147.157 198.825 147.157 198.056C147.157 197.281 147.423 196.626 147.955 196.089C148.491 195.552 149.154 195.284 149.944 195.284C150.44 195.284 150.893 195.398 151.303 195.626C151.714 195.849 152.032 196.147 152.26 196.522L151.364 197.038C151.238 196.821 151.045 196.643 150.787 196.507C150.534 196.37 150.25 196.302 149.937 196.302C149.43 196.302 149.013 196.469 148.684 196.803C148.36 197.132 148.198 197.55 148.198 198.056C148.198 198.557 148.362 198.972 148.691 199.301C149.025 199.625 149.466 199.787 150.013 199.787C150.418 199.787 150.752 199.699 151.015 199.521C151.283 199.339 151.465 199.091 151.562 198.777H149.952V197.851H152.617Z" fill="#7B7B7B"/>
<path d="M184.653 200.812C184.126 200.812 183.683 200.696 183.324 200.463C182.964 200.225 182.711 199.904 182.564 199.499L183.46 198.975C183.668 199.516 184.075 199.787 184.683 199.787C184.977 199.787 185.192 199.734 185.328 199.628C185.465 199.521 185.533 199.387 185.533 199.225C185.533 199.038 185.45 198.894 185.283 198.792C185.116 198.686 184.817 198.572 184.387 198.451C184.149 198.38 183.946 198.309 183.779 198.238C183.617 198.167 183.453 198.074 183.286 197.957C183.124 197.836 183 197.684 182.914 197.501C182.827 197.319 182.784 197.107 182.784 196.864C182.784 196.383 182.954 196 183.293 195.717C183.637 195.428 184.05 195.284 184.531 195.284C184.961 195.284 185.338 195.39 185.662 195.603C185.992 195.811 186.247 196.102 186.429 196.476L185.549 196.985C185.336 196.529 184.997 196.302 184.531 196.302C184.313 196.302 184.141 196.352 184.015 196.454C183.893 196.55 183.832 196.676 183.832 196.833C183.832 197 183.901 197.137 184.037 197.243C184.179 197.345 184.447 197.456 184.842 197.577C185.004 197.628 185.126 197.669 185.207 197.699C185.293 197.724 185.407 197.767 185.549 197.828C185.695 197.884 185.807 197.937 185.883 197.987C185.964 198.038 186.055 198.106 186.156 198.193C186.257 198.279 186.333 198.367 186.384 198.458C186.44 198.549 186.485 198.661 186.521 198.792C186.561 198.919 186.581 199.058 186.581 199.21C186.581 199.701 186.402 200.091 186.042 200.38C185.688 200.668 185.225 200.812 184.653 200.812ZM188.276 199.704H190.516V200.706H187.228V195.39H190.478V196.393H188.276V197.524H190.288V198.511H188.276V199.704ZM193.237 195.39C193.748 195.39 194.178 195.563 194.527 195.907C194.877 196.251 195.051 196.674 195.051 197.175C195.051 197.676 194.877 198.099 194.527 198.443C194.178 198.787 193.748 198.959 193.237 198.959H192.302V200.706H191.255V195.39H193.237ZM193.237 197.98C193.459 197.98 193.644 197.904 193.791 197.752C193.938 197.595 194.011 197.403 194.011 197.175C194.011 196.942 193.938 196.75 193.791 196.598C193.644 196.446 193.459 196.37 193.237 196.37H192.302V197.98H193.237Z" fill="#7B7B7B"/>
<path d="M271.722 195.39H272.77V200.706H271.973L269.695 197.456V200.706H268.647V195.39H269.444L271.722 198.633V195.39ZM278.229 200.015C277.692 200.547 277.039 200.812 276.27 200.812C275.5 200.812 274.847 200.547 274.311 200.015C273.779 199.478 273.513 198.823 273.513 198.048C273.513 197.274 273.779 196.621 274.311 196.089C274.847 195.552 275.5 195.284 276.27 195.284C277.039 195.284 277.692 195.552 278.229 196.089C278.766 196.621 279.034 197.274 279.034 198.048C279.034 198.823 278.766 199.478 278.229 200.015ZM275.047 199.301C275.376 199.625 275.784 199.787 276.27 199.787C276.756 199.787 277.163 199.625 277.492 199.301C277.821 198.972 277.986 198.554 277.986 198.048C277.986 197.542 277.821 197.124 277.492 196.795C277.163 196.466 276.756 196.302 276.27 196.302C275.784 196.302 275.376 196.466 275.047 196.795C274.718 197.124 274.554 197.542 274.554 198.048C274.554 198.554 274.718 198.972 275.047 199.301ZM280.847 200.706L279.062 195.39H280.201L281.5 199.476L282.791 195.39H283.938L282.145 200.706H280.847Z" fill="#7B7B7B"/>
<path d="M314.439 201.706H312.568V196.183H314.477C315.025 196.183 315.496 196.294 315.89 196.515C316.285 196.734 316.589 197.05 316.801 197.462C317.014 197.873 317.12 198.366 317.12 198.939C317.12 199.515 317.013 200.009 316.799 200.422C316.587 200.836 316.28 201.153 315.879 201.374C315.48 201.595 315 201.706 314.439 201.706ZM313.568 200.84H314.391C314.775 200.84 315.096 200.77 315.353 200.63C315.61 200.488 315.804 200.277 315.933 199.996C316.063 199.714 316.127 199.362 316.127 198.939C316.127 198.517 316.063 198.166 315.933 197.888C315.804 197.607 315.612 197.398 315.359 197.259C315.107 197.119 314.794 197.049 314.42 197.049H313.568V200.84ZM318.07 201.706V196.183H321.662V197.022H319.071V198.521H321.476V199.36H319.071V200.867H321.684V201.706H318.07ZM327.41 198.047H326.401C326.373 197.881 326.32 197.735 326.242 197.607C326.165 197.478 326.069 197.368 325.954 197.278C325.839 197.188 325.708 197.121 325.56 197.076C325.415 197.029 325.257 197.006 325.088 197.006C324.788 197.006 324.522 197.081 324.29 197.232C324.058 197.382 323.877 197.601 323.745 197.89C323.614 198.178 323.548 198.529 323.548 198.945C323.548 199.367 323.614 199.723 323.745 200.013C323.878 200.3 324.06 200.518 324.29 200.665C324.522 200.811 324.787 200.884 325.086 200.884C325.251 200.884 325.406 200.862 325.549 200.819C325.695 200.774 325.825 200.708 325.94 200.622C326.057 200.536 326.155 200.43 326.234 200.304C326.315 200.178 326.371 200.034 326.401 199.872L327.41 199.878C327.372 200.14 327.29 200.386 327.165 200.617C327.041 200.847 326.878 201.05 326.677 201.226C326.475 201.4 326.24 201.537 325.97 201.636C325.7 201.733 325.401 201.782 325.072 201.782C324.587 201.782 324.153 201.669 323.772 201.444C323.391 201.22 323.091 200.895 322.872 200.471C322.652 200.047 322.543 199.538 322.543 198.945C322.543 198.35 322.653 197.841 322.874 197.418C323.095 196.994 323.397 196.67 323.778 196.445C324.159 196.22 324.59 196.108 325.072 196.108C325.379 196.108 325.665 196.151 325.93 196.237C326.194 196.324 326.429 196.45 326.636 196.617C326.843 196.783 327.013 196.986 327.146 197.227C327.281 197.466 327.369 197.739 327.41 198.047Z" fill="#7B7B7B"/>
<path d="M229.617 200.015C229.081 200.547 228.428 200.812 227.658 200.812C226.889 200.812 226.236 200.547 225.699 200.015C225.168 199.478 224.902 198.823 224.902 198.048C224.902 197.274 225.168 196.621 225.699 196.089C226.236 195.552 226.889 195.284 227.658 195.284C228.428 195.284 229.081 195.552 229.617 196.089C230.154 196.621 230.422 197.274 230.422 198.048C230.422 198.823 230.154 199.478 229.617 200.015ZM226.436 199.301C226.765 199.625 227.172 199.787 227.658 199.787C228.144 199.787 228.552 199.625 228.881 199.301C229.21 198.972 229.374 198.554 229.374 198.048C229.374 197.542 229.21 197.124 228.881 196.795C228.552 196.466 228.144 196.302 227.658 196.302C227.172 196.302 226.765 196.466 226.436 196.795C226.107 197.124 225.942 197.542 225.942 198.048C225.942 198.554 226.107 198.972 226.436 199.301ZM233.68 200.812C232.88 200.812 232.22 200.547 231.698 200.015C231.177 199.483 230.916 198.828 230.916 198.048C230.916 197.264 231.177 196.608 231.698 196.081C232.22 195.55 232.88 195.284 233.68 195.284C234.161 195.284 234.604 195.398 235.009 195.626C235.419 195.849 235.738 196.152 235.966 196.537L235.062 197.061C234.931 196.823 234.743 196.638 234.5 196.507C234.257 196.37 233.984 196.302 233.68 196.302C233.164 196.302 232.746 196.464 232.427 196.788C232.113 197.112 231.956 197.532 231.956 198.048C231.956 198.56 232.113 198.977 232.427 199.301C232.746 199.625 233.164 199.787 233.68 199.787C233.984 199.787 234.257 199.721 234.5 199.59C234.748 199.453 234.936 199.268 235.062 199.035L235.966 199.559C235.738 199.944 235.422 200.25 235.017 200.478C234.612 200.701 234.166 200.812 233.68 200.812ZM240.103 195.39V196.393H238.668V200.706H237.62V196.393H236.192V195.39H240.103Z" fill="#7B7B7B"/>
<line x1="75.8136" y1="180.492" x2="75.8136" y2="62.6776" stroke="#E6E6E6" stroke-width="1.78677"/>
<path d="M240.73 60.7754V62.8943H242.778V63.8126H240.73V67.5844C240.73 67.8951 240.735 68.1541 240.744 68.3613C240.763 68.5685 240.796 68.7333 240.843 68.8557C240.89 68.9782 240.956 69.0676 241.041 69.1242C241.126 69.1712 241.234 69.1948 241.366 69.1948C241.724 69.1854 242.138 69.0535 242.609 68.7992L242.948 69.661C242.637 69.8682 242.345 70.0047 242.072 70.0706C241.808 70.146 241.545 70.1836 241.281 70.1836C240.659 70.1836 240.221 70.0094 239.967 69.661C239.722 69.3031 239.6 68.7145 239.6 67.8951V63.8126H238.3V62.8943H239.6V60.9166L240.73 60.7754ZM244.973 66.4825C244.973 67.396 245.175 68.0788 245.58 68.5308C245.995 68.9735 246.55 69.1948 247.247 69.1948C247.935 69.1948 248.472 68.9735 248.858 68.5308C249.244 68.0882 249.437 67.4243 249.437 66.539C249.437 65.5972 249.23 64.8956 248.815 64.4341C248.41 63.9727 247.855 63.7419 247.148 63.7419C246.442 63.7419 245.901 63.9727 245.524 64.4341C245.157 64.8862 244.973 65.569 244.973 66.4825ZM243.772 66.4684C243.772 65.7526 243.885 65.1593 244.111 64.6884C244.337 64.2081 244.625 63.8267 244.973 63.5442C245.321 63.2522 245.693 63.0497 246.089 62.9367C246.494 62.8143 246.875 62.7531 247.233 62.7531C247.572 62.7531 247.94 62.8096 248.335 62.9226C248.74 63.0262 249.112 63.2192 249.451 63.5018C249.79 63.7749 250.073 64.1469 250.299 64.6178C250.525 65.0792 250.638 65.6679 250.638 66.3836C250.638 67.1276 250.52 67.7445 250.285 68.2342C250.059 68.7239 249.771 69.1147 249.423 69.4067C249.074 69.6892 248.698 69.887 248.293 70C247.888 70.1224 247.511 70.1836 247.163 70.1836C246.805 70.1836 246.428 70.1271 246.032 70.0141C245.637 69.9011 245.27 69.7081 244.931 69.4349C244.601 69.1524 244.323 68.771 244.097 68.2907C243.881 67.8104 243.772 67.2029 243.772 66.4684ZM253.877 60.7754V62.8943H255.925V63.8126H253.877V67.5844C253.877 67.8951 253.882 68.1541 253.891 68.3613C253.91 68.5685 253.943 68.7333 253.99 68.8557C254.037 68.9782 254.103 69.0676 254.188 69.1242C254.273 69.1712 254.381 69.1948 254.513 69.1948C254.871 69.1854 255.285 69.0535 255.756 68.7992L256.095 69.661C255.784 69.8682 255.492 70.0047 255.219 70.0706C254.955 70.146 254.692 70.1836 254.428 70.1836C253.806 70.1836 253.369 70.0094 253.114 69.661C252.869 69.3031 252.747 68.7145 252.747 67.8951V63.8126H251.447V62.8943H252.747V60.9166L253.877 60.7754ZM261.325 66.7368C261.137 66.7462 260.958 66.7556 260.789 66.765C260.619 66.7744 260.45 66.7886 260.28 66.8074C260.12 66.8168 259.974 66.8309 259.842 66.8498C259.164 66.9345 258.684 67.0852 258.401 67.3018C258.119 67.509 257.977 67.8104 257.977 68.2059C257.977 68.5355 258.076 68.7851 258.274 68.9546C258.481 69.1147 258.75 69.1948 259.079 69.1948C259.531 69.1948 259.932 69.1194 260.28 68.9688C260.638 68.8087 260.986 68.6015 261.325 68.3472V66.7368ZM261.311 69.3361C260.869 69.5903 260.454 69.7975 260.068 69.9576C259.691 70.1083 259.282 70.1836 258.839 70.1836C258.208 70.1836 257.704 70.033 257.328 69.7316C256.96 69.4208 256.777 68.9123 256.777 68.2059C256.777 67.8386 256.871 67.5184 257.059 67.2453C257.248 66.9722 257.492 66.7462 257.794 66.5672C258.105 66.3789 258.453 66.2329 258.839 66.1293C259.225 66.0257 259.621 65.9598 260.026 65.9315C260.195 65.9127 260.417 65.8986 260.69 65.8892C260.963 65.8703 261.175 65.8562 261.325 65.8468C261.325 65.5172 261.316 65.2252 261.297 64.9709C261.278 64.7072 261.222 64.4859 261.128 64.307C261.034 64.1186 260.892 63.9774 260.704 63.8832C260.525 63.789 260.266 63.7419 259.927 63.7419C259.654 63.7419 259.39 63.7608 259.136 63.7984C258.882 63.8267 258.656 63.8597 258.458 63.8973C258.222 63.9444 258.006 63.9962 257.808 64.0527L257.582 63.078C257.817 63.0215 258.072 62.9697 258.345 62.9226C258.58 62.8755 258.853 62.8378 259.164 62.8096C259.475 62.7719 259.809 62.7531 260.167 62.7531C260.647 62.7531 261.034 62.8237 261.325 62.965C261.627 63.1062 261.858 63.2993 262.018 63.5442C262.187 63.7796 262.3 64.0527 262.357 64.3635C262.423 64.6649 262.456 64.9851 262.456 65.3241V68.7145C262.456 68.8463 262.456 68.9876 262.456 69.1383C262.465 69.2795 262.474 69.4208 262.484 69.5621C262.503 69.7033 262.522 69.8493 262.54 70L261.453 70.113L261.311 69.3361ZM264.447 59.4192L265.577 59.2921V70H264.447V59.4192ZM275.087 69.223H275.058C274.973 69.289 274.851 69.3784 274.691 69.4914C274.531 69.595 274.347 69.6986 274.14 69.8022C273.933 69.9058 273.702 69.9953 273.448 70.0706C273.203 70.146 272.953 70.1836 272.699 70.1836C272.351 70.1836 272.054 70.1366 271.809 70.0424C271.564 69.9576 271.367 69.8116 271.216 69.6045C271.065 69.3973 270.957 69.1242 270.891 68.7851C270.825 68.4461 270.792 68.0223 270.792 67.5137V62.8943H271.922V67.3442C271.922 67.6267 271.927 67.881 271.936 68.107C271.946 68.3331 271.979 68.5261 272.035 68.6862C272.092 68.8463 272.181 68.9735 272.304 69.0676C272.435 69.1524 272.619 69.1948 272.855 69.1948C273.099 69.1948 273.354 69.143 273.617 69.0394C273.881 68.9358 274.121 68.8181 274.338 68.6862C274.592 68.5355 274.842 68.366 275.087 68.1777V62.8943H276.217V69.0818C276.226 69.4208 276.25 69.7269 276.287 70L275.171 70.113L275.087 69.223ZM282.113 64.0527C281.717 63.9303 281.364 63.8502 281.053 63.8126C280.752 63.7655 280.474 63.7419 280.22 63.7419C279.89 63.7419 279.612 63.822 279.386 63.9821C279.17 64.1422 279.061 64.3494 279.061 64.6037C279.071 64.8297 279.17 65.0227 279.358 65.1828C279.546 65.3429 279.763 65.4889 280.008 65.6208C280.262 65.7432 280.54 65.8798 280.841 66.0304C281.152 66.1811 281.439 66.3506 281.703 66.539C281.976 66.7273 282.197 66.9534 282.367 67.2171C282.536 67.4808 282.626 67.7963 282.635 68.1635C282.626 68.5591 282.536 68.8887 282.367 69.1524C282.207 69.4067 281.995 69.6139 281.731 69.774C281.477 69.9247 281.199 70.0283 280.898 70.0848C280.596 70.1507 280.314 70.1836 280.05 70.1836C279.711 70.1836 279.358 70.1648 278.991 70.1271C278.633 70.0895 278.247 70.0094 277.832 69.887L278.044 68.8699C278.468 68.9829 278.854 69.0676 279.203 69.1242C279.551 69.1712 279.838 69.1948 280.064 69.1948C280.234 69.1948 280.399 69.176 280.559 69.1383C280.728 69.1006 280.879 69.0488 281.011 68.9829C281.143 68.9075 281.246 68.8134 281.322 68.7004C281.406 68.5873 281.449 68.4602 281.449 68.3189C281.439 68.0552 281.35 67.8339 281.18 67.655C281.011 67.4666 280.789 67.3018 280.516 67.1606C280.253 67.0099 279.965 66.8639 279.655 66.7226C279.353 66.572 279.066 66.4024 278.793 66.2141C278.529 66.0163 278.308 65.7856 278.129 65.5219C277.95 65.2488 277.861 64.9144 277.861 64.5189C277.861 64.2364 277.931 63.9868 278.072 63.7702C278.223 63.5442 278.411 63.3605 278.637 63.2192C278.873 63.0686 279.127 62.9556 279.4 62.8802C279.683 62.7955 279.956 62.7531 280.22 62.7531C280.493 62.7531 280.799 62.7766 281.138 62.8237C281.477 62.8614 281.868 62.9367 282.31 63.0497L282.113 64.0527ZM289.416 69.8305C289.199 69.8964 288.973 69.9529 288.738 70C288.512 70.0471 288.258 70.0895 287.975 70.1271C287.702 70.1648 287.415 70.1836 287.113 70.1836C286.642 70.1836 286.204 70.1177 285.8 69.9859C285.395 69.854 285.041 69.6421 284.74 69.3502C284.439 69.0582 284.199 68.6815 284.02 68.2201C283.85 67.7492 283.765 67.1747 283.765 66.4966C283.765 65.8845 283.85 65.3477 284.02 64.8862C284.189 64.4153 284.42 64.0245 284.712 63.7137C285.013 63.3935 285.362 63.1533 285.757 62.9932C286.162 62.8331 286.6 62.7531 287.071 62.7531C287.532 62.7531 287.933 62.8425 288.272 63.0215C288.611 63.2004 288.889 63.4453 289.105 63.7561C289.331 64.0574 289.496 64.4153 289.6 64.8297C289.713 65.2346 289.769 65.6631 289.769 66.1152L289.557 66.7368H284.994C284.994 67.0287 285.032 67.3207 285.107 67.6126C285.183 67.9046 285.31 68.1683 285.489 68.4037C285.677 68.6391 285.917 68.8322 286.209 68.9829C286.511 69.1242 286.883 69.1948 287.325 69.1948C287.608 69.1948 287.867 69.1807 288.102 69.1524C288.338 69.1147 288.54 69.0771 288.71 69.0394C288.889 68.9923 289.053 68.9405 289.204 68.884L289.416 69.8305ZM288.597 65.8327C288.597 65.7667 288.582 65.6208 288.554 65.3947C288.526 65.1687 288.46 64.9333 288.356 64.6884C288.253 64.4436 288.093 64.2269 287.876 64.0386C287.66 63.8408 287.372 63.7419 287.014 63.7419C286.619 63.7419 286.294 63.8267 286.04 63.9962C285.785 64.1563 285.583 64.3494 285.432 64.5754C285.282 64.8014 285.178 65.0322 285.121 65.2676C285.065 65.503 285.037 65.6914 285.037 65.8327H288.597ZM291.321 64.0386C291.321 63.822 291.297 63.4829 291.25 63.0215L292.296 62.8802L292.409 63.9114H292.423C292.592 63.6948 292.757 63.5065 292.917 63.3464C293.077 63.1863 293.242 63.0497 293.412 62.9367C293.591 62.8143 293.76 62.7531 293.92 62.7531C294.137 62.7437 294.438 62.7672 294.824 62.8237L294.57 63.9114C294.259 63.8549 294.043 63.8314 293.92 63.8408C293.76 63.8408 293.591 63.9162 293.412 64.0668C293.233 64.2175 293.077 64.3776 292.946 64.5471C292.776 64.7543 292.611 64.9898 292.451 65.2535V70H291.321V64.0386ZM299.909 64.0527C299.513 63.9303 299.16 63.8502 298.849 63.8126C298.548 63.7655 298.27 63.7419 298.016 63.7419C297.686 63.7419 297.408 63.822 297.182 63.9821C296.966 64.1422 296.857 64.3494 296.857 64.6037C296.867 64.8297 296.966 65.0227 297.154 65.1828C297.342 65.3429 297.559 65.4889 297.804 65.6208C298.058 65.7432 298.336 65.8798 298.637 66.0304C298.948 66.1811 299.235 66.3506 299.499 66.539C299.772 66.7273 299.994 66.9534 300.163 67.2171C300.333 67.4808 300.422 67.7963 300.431 68.1635C300.422 68.5591 300.333 68.8887 300.163 69.1524C300.003 69.4067 299.791 69.6139 299.527 69.774C299.273 69.9247 298.995 70.0283 298.694 70.0848C298.393 70.1507 298.11 70.1836 297.846 70.1836C297.507 70.1836 297.154 70.1648 296.787 70.1271C296.429 70.0895 296.043 70.0094 295.628 69.887L295.84 68.8699C296.264 68.9829 296.65 69.0676 296.999 69.1242C297.347 69.1712 297.634 69.1948 297.86 69.1948C298.03 69.1948 298.195 69.176 298.355 69.1383C298.524 69.1006 298.675 69.0488 298.807 68.9829C298.939 68.9075 299.042 68.8134 299.118 68.7004C299.202 68.5873 299.245 68.4602 299.245 68.3189C299.235 68.0552 299.146 67.8339 298.976 67.655C298.807 67.4666 298.586 67.3018 298.312 67.1606C298.049 67.0099 297.762 66.8639 297.451 66.7226C297.149 66.572 296.862 66.4024 296.589 66.2141C296.325 66.0163 296.104 65.7856 295.925 65.5219C295.746 65.2488 295.657 64.9144 295.657 64.5189C295.657 64.2364 295.727 63.9868 295.869 63.7702C296.019 63.5442 296.208 63.3605 296.434 63.2192C296.669 63.0686 296.923 62.9556 297.196 62.8802C297.479 62.7955 297.752 62.7531 298.016 62.7531C298.289 62.7531 298.595 62.7766 298.934 62.8237C299.273 62.8614 299.664 62.9367 300.107 63.0497L299.909 64.0527Z" fill="#5C27C0"/>
</g>
<defs>
<filter id="filter0_d_2743_1562" x="23.3379" y="8.42578" width="341.857" height="222.724" filterUnits="userSpaceOnUse" color-interpolation-filters="sRGB">
<feFlood flood-opacity="0" result="BackgroundImageFix"/>
<feColorMatrix in="SourceAlpha" type="matrix" values="0 0 0 0 0 0 0 0 0 0 0 0 0 0 0 0 0 0 127 0" result="hardAlpha"/>
<feOffset dy="4"/>
<feGaussianBlur stdDeviation="2"/>
<feComposite in2="hardAlpha" operator="out"/>
<feColorMatrix type="matrix" values="0 0 0 0 0 0 0 0 0 0 0 0 0 0 0 0 0 0 0.24 0"/>
<feBlend mode="normal" in2="BackgroundImageFix" result="effect1_dropShadow_2743_1562"/>
<feBlend mode="normal" in="SourceGraphic" in2="effect1_dropShadow_2743_1562" result="shape"/>
</filter>
<filter id="filter1_bd_2743_1562" x="0.9683" y="-9.00937" width="386.597" height="277.364" filterUnits="userSpaceOnUse" color-interpolation-filters="sRGB">
<feFlood flood-opacity="0" result="BackgroundImageFix"/>
<feGaussianBlur in="BackgroundImageFix" stdDeviation="8.71757"/>
<feComposite in2="SourceAlpha" operator="in" result="effect1_backgroundBlur_2743_1562"/>
<feColorMatrix in="SourceAlpha" type="matrix" values="0 0 0 0 0 0 0 0 0 0 0 0 0 0 0 0 0 0 127 0" result="hardAlpha"/>
<feOffset dy="18.8354"/>
<feGaussianBlur stdDeviation="13.1848"/>
<feComposite in2="hardAlpha" operator="out"/>
<feColorMatrix type="matrix" values="0 0 0 0 0 0 0 0 0 0 0 0 0 0 0 0 0 0 0.09 0"/>
<feBlend mode="normal" in2="effect1_backgroundBlur_2743_1562" result="effect2_dropShadow_2743_1562"/>
<feBlend mode="normal" in="SourceGraphic" in2="effect2_dropShadow_2743_1562" result="shape"/>
</filter>
</defs>
</svg>
