<svg width="212" height="104" viewBox="0 0 212 104" fill="none" xmlns="http://www.w3.org/2000/svg">
<g filter="url(#filter0_d_2743_1591)">
<rect x="3.68555" y="7.78516" width="204.314" height="95.6364" rx="13.9107" fill="white" shape-rendering="crispEdges"/>
<path d="M30.3943 40.403L25.8385 41.2724L25.2821 38.9076L31.4724 37.2035H33.1764V54.6963H30.3943V40.403ZM40.6909 46.0021C40.6909 46.8367 40.8185 47.6482 41.0735 48.4365C41.3285 49.2015 41.7111 49.8739 42.2211 50.4535C42.7312 51.0331 43.3456 51.4968 44.0643 51.8446C44.783 52.1924 45.6177 52.3662 46.5682 52.3662C47.4956 52.3662 48.3187 52.1924 49.0374 51.8446C49.7561 51.4968 50.3589 51.0331 50.8458 50.4535C51.3558 49.8739 51.7384 49.2015 51.9934 48.4365C52.2484 47.6482 52.376 46.8367 52.376 46.0021C52.376 45.1442 52.2484 44.3328 51.9934 43.5677C51.7384 42.7794 51.3558 42.0955 50.8458 41.5159C50.3589 40.9362 49.7561 40.4841 49.0374 40.1596C48.3187 39.8118 47.4956 39.6379 46.5682 39.6379C45.6177 39.6379 44.783 39.8118 44.0643 40.1596C43.3456 40.4841 42.7312 40.9362 42.2211 41.5159C41.7111 42.0955 41.3285 42.7794 41.0735 43.5677C40.8185 44.3328 40.6909 45.1442 40.6909 46.0021ZM37.7349 46.0021C37.7349 44.7269 37.9552 43.5329 38.3957 42.4201C38.8362 41.3072 39.4506 40.345 40.2388 39.5336C41.0271 38.6989 41.9545 38.0498 43.021 37.5861C44.1107 37.0992 45.2931 36.8558 46.5682 36.8558C47.8202 36.8558 48.9794 37.0992 50.0459 37.5861C51.1356 38.0498 52.063 38.6989 52.8281 39.5336C53.6163 40.345 54.2307 41.3072 54.6712 42.4201C55.1117 43.5329 55.332 44.7269 55.332 46.0021C55.332 47.254 55.1117 48.4365 54.6712 49.5493C54.2307 50.6622 53.6163 51.6359 52.8281 52.4706C52.063 53.3052 51.1356 53.966 50.0459 54.4529C48.9794 54.9165 47.8202 55.1484 46.5682 55.1484C45.2931 55.1484 44.1107 54.9165 43.021 54.4529C41.9545 53.966 41.0271 53.3052 40.2388 52.4706C39.4506 51.6359 38.8362 50.6622 38.3957 49.5493C37.9552 48.4365 37.7349 47.254 37.7349 46.0021ZM60.0796 30.9785H63.0008V41.9332L72.947 30.9785H76.5986L67.4871 40.9247L77.9897 54.6963H74.3381L65.47 43.0808L63.0008 45.7934V54.6963H60.0796V30.9785ZM79.2661 44.4719H85.5259V38.2121H88.3081V44.4719H94.5679V47.0454H88.3081V53.3052H85.5259V47.0454H79.2661V44.4719Z" fill="#202020"/>
<path d="M30.8325 81.9675C29.2605 81.9675 27.9529 81.4459 26.9096 80.4026C25.8663 79.3454 25.3447 78.0378 25.3447 76.4798C25.3447 74.9218 25.8663 73.6211 26.9096 72.5778C27.9529 71.5206 29.2605 70.992 30.8325 70.992C31.8619 70.992 32.7869 71.2424 33.6077 71.7432C34.4284 72.23 35.0405 72.8908 35.4439 73.7254L33.9206 74.6018C33.6563 74.0454 33.246 73.6002 32.6895 73.2664C32.147 72.9325 31.528 72.7656 30.8325 72.7656C29.7892 72.7656 28.9128 73.1203 28.2033 73.8298C27.5078 74.5392 27.16 75.4225 27.16 76.4798C27.16 77.5231 27.5078 78.3994 28.2033 79.1089C28.9128 79.8183 29.7892 80.1731 30.8325 80.1731C31.528 80.1731 32.154 80.0131 32.7104 79.6931C33.2668 79.3593 33.6911 78.9141 33.9832 78.3577L35.5273 79.255C35.0822 80.0757 34.4423 80.7364 33.6077 81.2372C32.773 81.7241 31.8479 81.9675 30.8325 81.9675ZM45.8156 71.2632H47.631V81.6963H45.8156V79.9018C44.9114 81.279 43.5969 81.9675 41.8719 81.9675C40.4113 81.9675 39.1663 81.4389 38.1369 80.3817C37.1075 79.3106 36.5928 78.0099 36.5928 76.4798C36.5928 74.9496 37.1075 73.6559 38.1369 72.5987C39.1663 71.5275 40.4113 70.992 41.8719 70.992C43.5969 70.992 44.9114 71.6806 45.8156 73.0577V71.2632ZM42.1015 80.2148C43.1587 80.2148 44.042 79.8601 44.7515 79.1506C45.4609 78.4273 45.8156 77.537 45.8156 76.4798C45.8156 75.4225 45.4609 74.5392 44.7515 73.8298C44.042 73.1064 43.1587 72.7447 42.1015 72.7447C41.0582 72.7447 40.1818 73.1064 39.4723 73.8298C38.7629 74.5392 38.4082 75.4225 38.4082 76.4798C38.4082 77.537 38.7629 78.4273 39.4723 79.1506C40.1818 79.8601 41.0582 80.2148 42.1015 80.2148ZM55.5771 70.992C56.8012 70.992 57.7819 71.3815 58.5192 72.1605C59.2565 72.9256 59.6251 73.9689 59.6251 75.2904V81.6963H57.8097V75.3947C57.8097 74.5462 57.5802 73.8924 57.1212 73.4333C56.6621 72.9603 56.0292 72.7239 55.2223 72.7239C54.3181 72.7239 53.5878 73.009 53.0314 73.5794C52.475 74.1358 52.1968 74.9983 52.1968 76.1668V81.6963H50.3814V71.2632H52.1968V72.7656C52.934 71.5832 54.0608 70.992 55.5771 70.992ZM70.7979 67.09H72.6133V81.6963H70.7979V79.9018C69.8937 81.279 68.5792 81.9675 66.8542 81.9675C65.3936 81.9675 64.1486 81.4389 63.1192 80.3817C62.0898 79.3106 61.5751 78.0099 61.5751 76.4798C61.5751 74.9496 62.0898 73.6559 63.1192 72.5987C64.1486 71.5275 65.3936 70.992 66.8542 70.992C68.5792 70.992 69.8937 71.6806 70.7979 73.0577V67.09ZM67.0837 80.2148C68.141 80.2148 69.0243 79.8601 69.7337 79.1506C70.4432 78.4273 70.7979 77.537 70.7979 76.4798C70.7979 75.4225 70.4432 74.5392 69.7337 73.8298C69.0243 73.1064 68.141 72.7447 67.0837 72.7447C66.0404 72.7447 65.1641 73.1064 64.4546 73.8298C63.7452 74.5392 63.3904 75.4225 63.3904 76.4798C63.3904 77.537 63.7452 78.4273 64.4546 79.1506C65.1641 79.8601 66.0404 80.2148 67.0837 80.2148ZM76.2818 69.3644C75.934 69.3644 75.6419 69.2462 75.4054 69.0097C75.1689 68.7732 75.0507 68.488 75.0507 68.1542C75.0507 67.8203 75.1689 67.5352 75.4054 67.2987C75.6419 67.0483 75.934 66.9231 76.2818 66.9231C76.6156 66.9231 76.9008 67.0483 77.1373 67.2987C77.3738 67.5352 77.492 67.8203 77.492 68.1542C77.492 68.488 77.3738 68.7732 77.1373 69.0097C76.9008 69.2462 76.6156 69.3644 76.2818 69.3644ZM75.3637 81.6963V71.2632H77.179V81.6963H75.3637ZM88.5871 67.09H90.4024V81.6963H88.5871V79.9018C87.6829 81.279 86.3683 81.9675 84.6434 81.9675C83.1828 81.9675 81.9378 81.4389 80.9084 80.3817C79.879 79.3106 79.3643 78.0099 79.3643 76.4798C79.3643 74.9496 79.879 73.6559 80.9084 72.5987C81.9378 71.5275 83.1828 70.992 84.6434 70.992C86.3683 70.992 87.6829 71.6806 88.5871 73.0577V67.09ZM84.8729 80.2148C85.9301 80.2148 86.8135 79.8601 87.5229 79.1506C88.2324 78.4273 88.5871 77.537 88.5871 76.4798C88.5871 75.4225 88.2324 74.5392 87.5229 73.8298C86.8135 73.1064 85.9301 72.7447 84.8729 72.7447C83.8296 72.7447 82.9532 73.1064 82.2438 73.8298C81.5344 74.5392 81.1796 75.4225 81.1796 76.4798C81.1796 77.537 81.5344 78.4273 82.2438 79.1506C82.9532 79.8601 83.8296 80.2148 84.8729 80.2148ZM101.791 71.2632H103.607V81.6963H101.791V79.9018C100.887 81.279 99.5727 81.9675 97.8477 81.9675C96.3871 81.9675 95.1421 81.4389 94.1127 80.3817C93.0833 79.3106 92.5686 78.0099 92.5686 76.4798C92.5686 74.9496 93.0833 73.6559 94.1127 72.5987C95.1421 71.5275 96.3871 70.992 97.8477 70.992C99.5727 70.992 100.887 71.6806 101.791 73.0577V71.2632ZM98.0773 80.2148C99.1345 80.2148 100.018 79.8601 100.727 79.1506C101.437 78.4273 101.791 77.537 101.791 76.4798C101.791 75.4225 101.437 74.5392 100.727 73.8298C100.018 73.1064 99.1345 72.7447 98.0773 72.7447C97.034 72.7447 96.1576 73.1064 95.4481 73.8298C94.7387 74.5392 94.384 75.4225 94.384 76.4798C94.384 77.537 94.7387 78.4273 95.4481 79.1506C96.1576 79.8601 97.034 80.2148 98.0773 80.2148ZM112.033 73.016H109.258V78.6707C109.258 79.1854 109.355 79.554 109.55 79.7766C109.758 79.9853 110.071 80.0966 110.489 80.1105C110.906 80.1105 111.421 80.0966 112.033 80.0687V81.6963C110.447 81.905 109.285 81.7798 108.548 81.3207C107.811 80.8477 107.442 79.9644 107.442 78.6707V73.016H105.376V71.2632H107.442V68.8845L109.258 68.342V71.2632H112.033V73.016ZM114.925 77.3144C115.106 78.2464 115.53 78.9698 116.198 79.4845C116.879 79.9992 117.714 80.2565 118.702 80.2565C120.079 80.2565 121.081 79.7488 121.707 78.7333L123.251 79.6097C122.235 81.1816 120.705 81.9675 118.66 81.9675C117.005 81.9675 115.655 81.4529 114.612 80.4235C113.583 79.3802 113.068 78.0656 113.068 76.4798C113.068 74.9078 113.576 73.6002 114.591 72.5569C115.607 71.5136 116.921 70.992 118.535 70.992C120.065 70.992 121.31 71.5345 122.27 72.6195C123.244 73.6907 123.731 74.9844 123.731 76.5006C123.731 76.7649 123.71 77.0362 123.668 77.3144H114.925ZM118.535 72.703C117.561 72.703 116.754 72.9812 116.114 73.5376C115.474 74.0802 115.078 74.8105 114.925 75.7286H121.894C121.741 74.7409 121.352 73.9897 120.726 73.475C120.1 72.9603 119.37 72.703 118.535 72.703ZM126.975 74.0802C126.975 74.4836 127.176 74.8105 127.58 75.0609C127.983 75.2973 128.47 75.4921 129.04 75.6451C129.611 75.7842 130.181 75.9512 130.751 76.1459C131.322 76.3267 131.809 76.6467 132.212 77.1057C132.616 77.5509 132.817 78.1282 132.817 78.8376C132.817 79.7836 132.449 80.5417 131.711 81.112C130.988 81.6824 130.056 81.9675 128.915 81.9675C127.9 81.9675 127.03 81.745 126.307 81.2998C125.584 80.8547 125.069 80.2635 124.763 79.5262L126.328 78.629C126.495 79.1298 126.808 79.5262 127.267 79.8183C127.726 80.1105 128.275 80.2565 128.915 80.2565C129.513 80.2565 130.007 80.1452 130.397 79.9227C130.786 79.6862 130.981 79.3245 130.981 78.8376C130.981 78.4342 130.779 78.1143 130.376 77.8778C129.972 77.6274 129.486 77.4326 128.915 77.2935C128.345 77.1405 127.775 76.9666 127.204 76.7719C126.634 76.5771 126.147 76.2572 125.744 75.812C125.34 75.3669 125.138 74.7966 125.138 74.101C125.138 73.1968 125.486 72.4526 126.182 71.8683C126.891 71.2841 127.775 70.992 128.832 70.992C129.68 70.992 130.432 71.1867 131.085 71.5762C131.753 71.9518 132.254 72.4804 132.588 73.162L131.064 74.0176C130.689 73.1273 129.945 72.6821 128.832 72.6821C128.317 72.6821 127.879 72.8073 127.517 73.0577C127.156 73.2942 126.975 73.635 126.975 74.0802ZM145.379 70.992C146.603 70.992 147.584 71.3815 148.321 72.1605C149.058 72.9256 149.427 73.9689 149.427 75.2904V81.6963H147.611V75.3947C147.611 74.5462 147.382 73.8924 146.923 73.4333C146.464 72.9603 145.831 72.7239 145.024 72.7239C144.12 72.7239 143.39 73.009 142.833 73.5794C142.277 74.1358 141.998 74.9983 141.998 76.1668V81.6963H140.183V67.09H141.998V72.7656C142.736 71.5832 143.863 70.992 145.379 70.992ZM152.879 69.3644C152.531 69.3644 152.239 69.2462 152.003 69.0097C151.766 68.7732 151.648 68.488 151.648 68.1542C151.648 67.8203 151.766 67.5352 152.003 67.2987C152.239 67.0483 152.531 66.9231 152.879 66.9231C153.213 66.9231 153.498 67.0483 153.735 67.2987C153.971 67.5352 154.089 67.8203 154.089 68.1542C154.089 68.488 153.971 68.7732 153.735 69.0097C153.498 69.2462 153.213 69.3644 152.879 69.3644ZM151.961 81.6963V71.2632H153.776V81.6963H151.961ZM158.361 73.016C158.959 71.7223 160.044 71.0754 161.616 71.0754V72.9743C160.726 72.9325 159.961 73.169 159.321 73.6837C158.681 74.1984 158.361 75.0261 158.361 76.1668V81.6963H156.546V71.2632H158.361V73.016ZM164.095 77.3144C164.276 78.2464 164.7 78.9698 165.368 79.4845C166.049 79.9992 166.884 80.2565 167.872 80.2565C169.249 80.2565 170.25 79.7488 170.876 78.7333L172.42 79.6097C171.405 81.1816 169.875 81.9675 167.83 81.9675C166.175 81.9675 164.825 81.4529 163.782 80.4235C162.752 79.3802 162.238 78.0656 162.238 76.4798C162.238 74.9078 162.746 73.6002 163.761 72.5569C164.777 71.5136 166.091 70.992 167.705 70.992C169.235 70.992 170.48 71.5345 171.44 72.6195C172.414 73.6907 172.9 74.9844 172.9 76.5006C172.9 76.7649 172.88 77.0362 172.838 77.3144H164.095ZM167.705 72.703C166.731 72.703 165.924 72.9812 165.284 73.5376C164.644 74.0802 164.248 74.8105 164.095 75.7286H171.064C170.911 74.7409 170.522 73.9897 169.896 73.475C169.27 72.9603 168.539 72.703 167.705 72.703ZM183.605 67.09H185.421V81.6963H183.605V79.9018C182.701 81.279 181.387 81.9675 179.662 81.9675C178.201 81.9675 176.956 81.4389 175.927 80.3817C174.897 79.3106 174.383 78.0099 174.383 76.4798C174.383 74.9496 174.897 73.6559 175.927 72.5987C176.956 71.5275 178.201 70.992 179.662 70.992C181.387 70.992 182.701 71.6806 183.605 73.0577V67.09ZM179.891 80.2148C180.948 80.2148 181.832 79.8601 182.541 79.1506C183.251 78.4273 183.605 77.537 183.605 76.4798C183.605 75.4225 183.251 74.5392 182.541 73.8298C181.832 73.1064 180.948 72.7447 179.891 72.7447C178.848 72.7447 177.971 73.1064 177.262 73.8298C176.553 74.5392 176.198 75.4225 176.198 76.4798C176.198 77.537 176.553 78.4273 177.262 79.1506C177.971 79.8601 178.848 80.2148 179.891 80.2148Z" fill="#5C27C0"/>
</g>
<defs>
<filter id="filter0_d_2743_1591" x="0.207861" y="0.829784" width="211.27" height="102.592" filterUnits="userSpaceOnUse" color-interpolation-filters="sRGB">
<feFlood flood-opacity="0" result="BackgroundImageFix"/>
<feColorMatrix in="SourceAlpha" type="matrix" values="0 0 0 0 0 0 0 0 0 0 0 0 0 0 0 0 0 0 127 0" result="hardAlpha"/>
<feOffset dy="-3.47769"/>
<feGaussianBlur stdDeviation="1.73884"/>
<feComposite in2="hardAlpha" operator="out"/>
<feColorMatrix type="matrix" values="0 0 0 0 0 0 0 0 0 0 0 0 0 0 0 0 0 0 0.16 0"/>
<feBlend mode="normal" in2="BackgroundImageFix" result="effect1_dropShadow_2743_1591"/>
<feBlend mode="normal" in="SourceGraphic" in2="effect1_dropShadow_2743_1591" result="shape"/>
</filter>
</defs>
</svg>
