<svg width="31" height="32" viewBox="0 0 31 32" fill="none" xmlns="http://www.w3.org/2000/svg">
<g id="Star 10">
<path id="Star 10_2" d="M14.1342 4.17457C14.4934 3.069 16.0575 3.069 16.4167 4.17457L18.4356 10.388C18.5962 10.8824 19.0569 11.2172 19.5768 11.2172H26.11C27.2725 11.2172 27.7558 12.7047 26.8153 13.388L21.5299 17.2281C21.1093 17.5337 20.9333 18.0753 21.094 18.5697L23.1128 24.7831C23.472 25.8887 22.2067 26.8081 21.2662 26.1248L15.9808 22.2847C15.5602 21.9791 14.9907 21.9791 14.5701 22.2847L9.28463 26.1248C8.34418 26.8081 7.0788 25.8887 7.43802 24.7831L9.45688 18.5697C9.61753 18.0753 9.44154 17.5337 9.02096 17.2281L3.73551 13.388C2.79506 12.7047 3.27838 11.2172 4.44085 11.2172H10.974C11.4939 11.2172 11.9546 10.8824 12.1153 10.388L14.1342 4.17457Z" fill="#FFB649"/>
</g>
</svg>
