<svg width="31" height="32" viewBox="0 0 31 32" fill="none" xmlns="http://www.w3.org/2000/svg">
<path d="M14.1908 4.17457C14.55 3.069 16.1141 3.069 16.4733 4.17457L18.4922 10.388C18.6528 10.8824 19.1136 11.2172 19.6335 11.2172H26.1666C27.3291 11.2172 27.8124 12.7047 26.872 13.388L21.5865 17.2281C21.1659 17.5337 20.99 18.0753 21.1506 18.5697L23.1695 24.7831C23.5287 25.8887 22.2633 26.8081 21.3229 26.1248L16.0374 22.2847C15.6168 21.9791 15.0473 21.9791 14.6267 22.2847L9.34127 26.1248C8.40082 26.8081 7.13544 25.8887 7.49466 24.7831L9.51352 18.5697C9.67417 18.0753 9.49818 17.5337 9.0776 17.2281L3.79215 13.388C2.8517 12.7047 3.33503 11.2172 4.49749 11.2172H11.0307C11.5505 11.2172 12.0113 10.8824 12.1719 10.388L14.1908 4.17457Z" fill="#B0AFAE"/>
<path fill-rule="evenodd" clip-rule="evenodd" d="M11.5112 11.1133C11.3628 11.1783 11.1997 11.2138 11.0304 11.2138H4.49722C3.33475 11.2138 2.85142 12.7013 3.79188 13.3846L9.07733 17.2247C9.49791 17.5303 9.6739 18.0719 9.51325 18.5663L7.49439 24.7797C7.13517 25.8853 8.40055 26.8047 9.341 26.1214L11.5112 24.5446V11.1133Z" fill="#FFB649"/>
</svg>
