<svg width="32" height="32" viewBox="0 0 32 32" fill="none" xmlns="http://www.w3.org/2000/svg">
<path d="M14.7689 4.17457C15.1281 3.069 16.6922 3.069 17.0515 4.17457L19.0703 10.388C19.231 10.8824 19.6917 11.2172 20.2116 11.2172H26.7448C27.9072 11.2172 28.3906 12.7047 27.4501 13.388L22.1647 17.2281C21.7441 17.5337 21.5681 18.0753 21.7287 18.5697L23.7476 24.7831C24.1068 25.8887 22.8414 26.8081 21.901 26.1248L16.6155 22.2847C16.1949 21.9791 15.6254 21.9791 15.2048 22.2847L9.9194 26.1248C8.97894 26.8081 7.71356 25.8887 8.07279 24.7831L10.0916 18.5697C10.2523 18.0753 10.0763 17.5337 9.65572 17.2281L4.37028 13.388C3.42982 12.7047 3.91315 11.2172 5.07562 11.2172H11.6088C12.1287 11.2172 12.5894 10.8824 12.7501 10.388L14.7689 4.17457Z" fill="#B0AFAE"/>
<path fill-rule="evenodd" clip-rule="evenodd" d="M15.9087 3.3418C15.4283 3.34227 14.9481 3.61866 14.7686 4.17098L12.7498 10.3844C12.5891 10.8788 12.1284 11.2136 11.6085 11.2136H5.07535C3.91288 11.2136 3.42955 12.7011 4.37001 13.3844L9.65545 17.2245C10.076 17.5301 10.252 18.0717 10.0914 18.5661L8.07252 24.7796C7.71329 25.8851 8.97867 26.8045 9.91913 26.1212L15.2046 22.2811C15.4145 22.1286 15.6616 22.0522 15.9087 22.0519V3.3418Z" fill="#FFB649"/>
</svg>
