<svg width="32" height="32" viewBox="0 0 32 32" fill="none" xmlns="http://www.w3.org/2000/svg">
<path d="M14.6127 4.17457C14.9719 3.069 16.536 3.069 16.8952 4.17457L18.9141 10.388C19.0747 10.8824 19.5355 11.2172 20.0553 11.2172H26.5885C27.751 11.2172 28.2343 12.7047 27.2938 13.388L22.0084 17.2281C21.5878 17.5337 21.4118 18.0753 21.5725 18.5697L23.5913 24.7831C23.9506 25.8887 22.6852 26.8081 21.7447 26.1248L16.4593 22.2847C16.0387 21.9791 15.4692 21.9791 15.0486 22.2847L9.76315 26.1248C8.82269 26.8081 7.55731 25.8887 7.91654 24.7831L9.9354 18.5697C10.096 18.0753 9.92006 17.5337 9.49947 17.2281L4.21403 13.388C3.27357 12.7047 3.7569 11.2172 4.91937 11.2172H11.4525C11.9724 11.2172 12.4332 10.8824 12.5938 10.388L14.6127 4.17457Z" fill="#B0AFAE"/>
<path fill-rule="evenodd" clip-rule="evenodd" d="M16.8949 4.17293C16.5357 3.06736 14.9716 3.06736 14.6124 4.17293L12.5935 10.3863C12.4329 10.8808 11.9721 11.2155 11.4523 11.2155H4.9191C3.75663 11.2155 3.2733 12.7031 4.21376 13.3863L9.4992 17.2264C9.91979 17.532 10.0958 18.0737 9.93513 18.5681L7.91627 24.7815C7.55704 25.8871 8.82242 26.8064 9.76288 26.1231L15.0483 22.283C15.4689 21.9775 16.0384 21.9775 16.459 22.283L19.5718 24.5446V11.114C19.2656 10.9791 19.0218 10.7188 18.9138 10.3863L16.8949 4.17293Z" fill="#FFB649"/>
</svg>
