<svg width="81" height="80" viewBox="0 0 81 80" fill="none" xmlns="http://www.w3.org/2000/svg">
<rect x="0.5" width="80" height="80" rx="40" fill="#0F48E3" fill-opacity="0.16"/>
<path d="M40.5 16C45.2468 16 49.8869 17.4076 53.8337 20.0447C57.7805 22.6819 60.8566 26.4302 62.6731 30.8156C64.4896 35.201 64.9649 40.0266 64.0389 44.6822C63.1128 49.3377 60.827 53.6141 57.4706 56.9706C54.1141 60.327 49.8377 62.6128 45.1822 63.5389C40.5266 64.4649 35.701 63.9896 31.3156 62.1731C26.9302 60.3566 23.1819 57.2805 20.5447 53.3337C17.9076 49.3869 16.5 44.7468 16.5 40" stroke="#0F48E3" stroke-width="5.33333" stroke-linecap="round" stroke-linejoin="round"/>
<path d="M29.834 40.0003H40.5007V26.667" stroke="#0F48E3" stroke-width="5.33333" stroke-linecap="round" stroke-linejoin="round"/>
</svg>
