<svg width="81" height="80" viewBox="0 0 81 80" fill="none" xmlns="http://www.w3.org/2000/svg">
<rect x="0.5" width="80" height="80" rx="40" fill="#FBBC05" fill-opacity="0.16"/>
<path d="M35.166 48H41.8327C42.8935 48 43.911 47.5786 44.6611 46.8284C45.4113 46.0783 45.8327 45.0609 45.8327 44C45.8327 42.9391 45.4113 41.9217 44.6611 41.1716C43.911 40.4214 42.8935 40 41.8327 40H39.166C38.1051 40 37.0877 39.5786 36.3376 38.8284C35.5874 38.0783 35.166 37.0609 35.166 36C35.166 34.9391 35.5874 33.9217 36.3376 33.1716C37.0877 32.4214 38.1051 32 39.166 32H45.8327" stroke="#FBBC05" stroke-width="5.33333" stroke-linecap="round" stroke-linejoin="round"/>
<path d="M40.5 32V29.3333M40.5 50.6667V48M40.5 16C35.7533 16 31.1131 17.4076 27.1663 20.0447C23.2195 22.6819 20.1434 26.4302 18.3269 30.8156C16.5104 35.201 16.0351 40.0266 16.9612 44.6822C17.8872 49.3377 20.173 53.6141 23.5294 56.9706C26.8859 60.327 31.1623 62.6128 35.8178 63.5389C40.4734 64.4649 45.299 63.9896 49.6844 62.1731C54.0698 60.3566 57.8181 57.2805 60.4553 53.3337C63.0924 49.3869 64.5 44.7468 64.5 40C64.5 33.6348 61.9714 27.5303 57.4706 23.0294C52.9697 18.5286 46.8652 16 40.5 16Z" stroke="#FBBC05" stroke-width="5.33333" stroke-linecap="round" stroke-linejoin="round"/>
</svg>
