<svg width="81" height="80" viewBox="0 0 81 80" fill="none" xmlns="http://www.w3.org/2000/svg">
<rect x="0.5" width="80" height="80" rx="40" fill="#319F27" fill-opacity="0.16"/>
<path d="M40.5 40L51.1667 29.3333M51.1667 29.3333V21.3333L56.5 16L59.1667 21.3333L64.5 24L59.1667 29.3333H51.1667Z" stroke="#319F27" stroke-width="5.33333" stroke-linecap="round" stroke-linejoin="round"/>
<path d="M64.5 40C64.5 44.7468 63.0924 49.3869 60.4553 53.3337C57.8181 57.2805 54.0698 60.3566 49.6844 62.1731C45.299 63.9896 40.4734 64.4649 35.8178 63.5389C31.1623 62.6128 26.8859 60.327 23.5294 56.9706C20.173 53.6141 17.8872 49.3377 16.9612 44.6822C16.0351 40.0266 16.5104 35.201 18.3269 30.8156C20.1434 26.4302 23.2195 22.6819 27.1663 20.0447C31.1131 17.4076 35.7533 16 40.5 16" stroke="#319F27" stroke-width="5.33333" stroke-linecap="round" stroke-linejoin="round"/>
<path d="M51.1673 39.9997C51.1673 42.1093 50.5417 44.1716 49.3697 45.9258C48.1976 47.6799 46.5317 49.0471 44.5826 49.8544C42.6335 50.6617 40.4888 50.873 38.4197 50.4614C36.3506 50.0498 34.4499 49.0339 32.9582 47.5421C31.4664 46.0504 30.4505 44.1498 30.0389 42.0806C29.6274 40.0115 29.8386 37.8668 30.6459 35.9177C31.4533 33.9686 32.8205 32.3027 34.5746 31.1307C36.3287 29.9586 38.391 29.333 40.5007 29.333" stroke="#319F27" stroke-width="5.33333" stroke-linecap="round" stroke-linejoin="round"/>
</svg>
